<?xml version="1.0" encoding="utf-8"?>
<!-- Generator: Adobe Illustrator 22.1.0, SVG Export Plug-In . SVG Version: 6.00 Build 0)  -->
<svg version="1.1" id="Capa_1" xmlns="http://www.w3.org/2000/svg" xmlns:xlink="http://www.w3.org/1999/xlink" x="0px" y="0px"
	 viewBox="0 0 100 100" style="enable-background:new 0 0 100 100;" xml:space="preserve">
<style type="text/css">
	.st0{fill:#FFFFFF;}
</style>
<g>
	<path class="st0" d="M71.2,54.7c0.1,0,0.2,0,0.3-0.1c5.5-2.4,9.7-6.6,11.3-11.2c1.1-3.2,0.9-6.4-0.7-9.4
		c-3.8-7.3-10.3-5.4-10.4-5.4c-0.5,0.1-0.7,0.6-0.6,1.1c0.1,0.4,0.6,0.7,1.1,0.6c0.1,0,5.2-1.5,8.4,4.6c1.4,2.6,1.6,5.3,0.6,8.1
		c-1.4,4-5.4,7.9-10.3,10.2c-0.4,0.2-0.6,0.7-0.4,1.1C70.5,54.5,70.8,54.7,71.2,54.7z"/>
	<path class="st0" d="M87.1,83c-1.6-5-7.8-10.8-15.9-14.7c-10.6-5.1-34.2-18.5-45.4-26.5c-6.8-4.9-11-10.5-11.5-15.4
		c-0.3-2.2,0.3-4.2,1.6-5.8c2.6-2.9,8.4-2.8,14,0.4c0.4,0.2,0.9,0.1,1.2-0.3c0.2-0.4,0.1-0.9-0.3-1.2c-6.3-3.6-13-3.6-16.1,0
		c-1.6,1.9-2.3,4.3-2,7.1C13.2,32,17.7,38,24.8,43.2c11.2,8.1,35,21.5,45.6,26.7C78,73.5,84,79,85.4,83.5c0.5,1.6,0.4,3-0.3,4.2
		c-2.9,5.3-14.1,8.2-31.4,8.2c-19.4,0-29.2-3-30.8-9.4c-1.2-4.8,1.1-8.4,8-12.8c0.4-0.3,0.5-0.8,0.3-1.2c-0.3-0.4-0.8-0.5-1.2-0.3
		c-7.6,4.8-10.1,9-8.8,14.7c1.8,7.4,11.8,10.7,32.5,10.7c12.7,0,28.7-1.6,32.8-9.1C87.6,86.9,87.7,85,87.1,83z"/>
	<path class="st0" d="M48.8,19.7l0,5.3c0,0.5,0.4,0.8,0.8,0.8s0.8-0.4,0.8-0.8l0-6.1c0-0.4-0.3-0.8-0.7-0.8c-3.5-0.4-8.1-1.7-9.6-3
		h10.2c0.4,0,0.8-0.3,0.8-0.8c0,0,0.1-1.3,0.1-2.4c0-1.6-1.2-2.3-2.4-3C47.5,8,45.9,7,45.7,4.1h15.4c-0.3,3-1.9,3.9-3.3,4.8
		c-1.2,0.7-2.4,1.4-2.4,3c0,1.2,0.1,2.4,0.1,2.4c0,0.4,0.4,0.8,0.8,0.8h10.2c-1.4,1.3-5.6,2.5-9.6,3c-0.4,0.1-0.7,0.4-0.7,0.8v8.6
		c0,0.3,0.1,0.6,0.4,0.7c2.6,1.7,1.6,5.3,1.5,5.5c-0.1,0.4,0.1,0.8,0.4,1c0.1,0.1,3,1.5,3,5c0,4.3-3.6,6.4-3.8,6.5
		c-0.3,0.2-0.5,0.6-0.4,1c0.5,1.8,2.6,3.6,5.3,5.8c3.9,3.2,8.7,7.1,9.2,12.3c0,0.4,0.4,0.8,0.8,0.8c0,0,0.1,0,0.1,0
		c0.5,0,0.8-0.5,0.8-0.9C73.1,59.2,68,55,63.9,51.6c-2-1.6-3.8-3.1-4.5-4.4c1.3-0.9,4-3.4,4-7.5c0-3.5-2.3-5.4-3.4-6.2
		c0.3-1.4,0.5-4.5-2-6.4v-7.4c2.9-0.4,10.8-1.9,10.8-5.5c0-0.5-0.4-0.8-0.8-0.8H57.1c0-0.4-0.1-1-0.1-1.5c0-0.6,0.4-0.9,1.6-1.6
		c1.7-1,4.2-2.5,4.2-7.1c0-0.5-0.4-0.8-0.8-0.8H44.8c-0.5,0-0.8,0.4-0.8,0.8c0,4.6,2.5,6.1,4.2,7.1c1.1,0.7,1.6,1,1.6,1.6
		c0,0.5,0,1.1-0.1,1.5H38.9c-0.5,0-0.8,0.4-0.8,0.8C38,17.8,45.9,19.3,48.8,19.7z"/>
	<path class="st0" d="M39.6,55.5c-0.3-0.3-0.9-0.3-1.2,0c-3.6,3.6-5.3,7-5.3,10.6c0,8.7,8.3,13.7,11.1,15.3c0.2,0.1,0.3,0.2,0.5,0.3
		c-0.2,0.2-0.5,0.6-0.7,0.8c-0.8,0.9-1.7,1.8-1.7,2.9c0,2.2,3.8,3.3,11.2,3.3c7.4,0,11.2-1.1,11.2-3.3c0-1-0.9-2-1.7-2.9
		c-0.2-0.2-0.5-0.6-0.7-0.8c0.1-0.1,0.3-0.2,0.5-0.3c1.8-1.1,5.6-3.4,8.3-7c0.3-0.4,0.2-0.9-0.2-1.2c-0.4-0.3-0.9-0.2-1.2,0.2
		c-2.5,3.4-6,5.6-7.8,6.6c-0.6,0.4-0.9,0.5-1.1,0.7c-0.9,0.9,0.1,2.1,0.9,3c0.5,0.5,1.2,1.3,1.2,1.7C62.8,85.7,61,87,53.4,87
		c-7.6,0-9.4-1.2-9.5-1.6c0-0.4,0.8-1.2,1.2-1.7c0.8-0.9,1.9-2,0.9-3c-0.2-0.2-0.4-0.3-1.1-0.7c-2.8-1.7-10.3-6.2-10.3-13.9
		c0-3.1,1.5-6.1,4.8-9.4C39.9,56.4,39.9,55.9,39.6,55.5z"/>
	<path class="st0" d="M44.8,50c-0.4,0.3-0.4,0.8-0.1,1.2c0.2,0.2,0.4,0.3,0.6,0.3c0.2,0,0.4-0.1,0.6-0.2c1.5-1.3,2.9-2.7,3.3-4.1
		c0.1-0.4-0.1-0.8-0.4-1c0,0-3.8-2.2-3.8-6.5c0-0.5-0.4-0.8-0.8-0.8c-0.5,0-0.8,0.4-0.8,0.8c0,4.1,2.7,6.6,4,7.5
		C46.8,48.2,45.8,49.2,44.8,50z"/>
	<path class="st0" d="M67.3,29.6c-0.5-0.2-1.1-0.1-1.5,0.2l-2.6,1.7c-0.4,0.3-0.5,0.8-0.3,1.2c0.3,0.4,0.8,0.5,1.2,0.3l2.6-1.7
		c0.1-0.1,0.3,0.1,0.4,0.2l0.8,1.2C68,32.7,68.1,33,68,33l-2.6,1.7c-0.4,0.3-0.5,0.8-0.3,1.2c0.3,0.4,0.8,0.5,1.2,0.3l2.6-1.7
		c0.4-0.3,0.7-0.8,0.8-1.3c0.1-0.5-0.1-1-0.4-1.5l-0.8-1.2C68.2,30.1,67.8,29.7,67.3,29.6z"/>
	<path class="st0" d="M32.9,27.6l1.5,1.1c0.3,0.3,0.7,0.5,1.1,0.6c0.2,1,0.7,1.8,1.5,2.4l1.4,1.1c0.8,0.6,1.7,0.9,2.6,0.9
		c0.2,0.3,0.5,0.6,0.7,0.8l1.5,1.1c0.9,0.7,2,0.9,3.1,0.7l4.7,3.6c0.6,0.5,1.5,0.4,2-0.2l2.2-2.8c0.5-0.6,0.4-1.5-0.2-2l-4.7-3.6
		c0-1.1-0.5-2.2-1.4-2.9l-1.5-1.1c-0.3-0.2-0.6-0.4-0.9-0.5c-0.2-0.9-0.7-1.8-1.5-2.4l-1.4-1.1c-0.8-0.6-1.8-0.9-2.8-0.9
		c-0.2-0.4-0.5-0.7-0.8-0.9l-1.5-1.1c-1.7-1.3-4.2-1-5.6,0.8l-0.5,0.7C30.9,23.7,31.2,26.2,32.9,27.6z M34.2,23.3l0.5-0.6
		c0.5-0.6,1.2-0.9,1.9-0.9c0.5,0,0.9,0.1,1.2,0.4l1.4,1.1c0.3,0.3,0.6,0.7,0.7,1.2c0,0.1,0.1,0.1,0.1,0.2c0.1,0,0.1,0,0.2,0
		c0.8-0.3,1.7-0.2,2.4,0.3l1.3,1.1c0.6,0.5,1,1.3,0.9,2.1c0,0.1,0,0.1,0.1,0.2c0,0.1,0.1,0.1,0.2,0.1c0.5,0,0.9,0.1,1.1,0.4l1.4,1.1
		c0.6,0.5,0.8,1.2,0.7,2c0,0.1,0,0.2,0.1,0.3l4.8,3.7l-1.7,2.2l-4.8-3.7c0,0-0.1-0.1-0.2-0.1c0,0-0.1,0-0.1,0
		c-0.7,0.3-1.6,0.3-2.1-0.2L42.9,33c-0.3-0.2-0.5-0.6-0.6-1c0-0.1-0.1-0.1-0.1-0.2c-0.1,0-0.1,0-0.2,0c-0.8,0.2-1.6,0.1-2.2-0.4
		l-1.3-1.1c-0.7-0.5-1-1.3-0.9-2.2c0-0.1,0-0.2-0.1-0.2c-0.1-0.1-0.1-0.1-0.2-0.1l-0.1,0c-0.5,0-0.9-0.1-1.2-0.4l-1.4-1.1
		C33.5,25.7,33.4,24.3,34.2,23.3z"/>
</g>
</svg>
