<svg width="425" height="404" viewBox="0 0 425 404" fill="none" xmlns="http://www.w3.org/2000/svg">
<path d="M277.89 172.29C276.39 177.16 277.17 186.59 266.56 194.49C257.62 201.15 224.26 210.26 228.91 246.02C233.56 281.78 267.05 290.37 301.72 277.79C333.09 266.4 356.27 243.26 360.45 211.67C364.12 184 353.04 161.67 336.02 148.5C319 135.33 286.76 143.36 277.89 172.29Z" fill="url(#paint0_linear)"/>
<path d="M150.73 116.45C150.73 116.45 134.38 126.55 133.14 145.25C131.9 163.95 136.6 174.02 149.54 189.25C158.41 199.71 166.68 209.43 172.38 216.18C156.04 212.5 132.29 218.58 132.29 218.58L133.67 243.18L198.98 243.88C201.672 243.241 204.21 242.071 206.444 240.439C208.679 238.807 210.565 236.746 211.994 234.376C213.422 232.006 214.364 229.375 214.763 226.637C215.163 223.899 215.012 221.109 214.32 218.43L193.89 139.39L150.73 116.45Z" fill="url(#paint1_linear)" stroke="white" stroke-miterlimit="10"/>
<path d="M170.62 127C170.62 127 155.2 138.47 155.62 157.21C156.04 175.95 161.54 185.58 175.76 199.67C185.49 209.32 194.56 218.3 200.83 224.53C184.23 222.27 161.1 230.38 161.1 230.38L164.59 254.76L229.72 249.83C232.346 248.961 234.773 247.577 236.858 245.759C238.943 243.941 240.644 241.726 241.863 239.243C243.082 236.759 243.794 234.058 243.956 231.297C244.119 228.535 243.729 225.769 242.81 223.16L212.87 153.51L170.62 127Z" fill="url(#paint2_linear)"/>
<path d="M164.03 255.39L160.38 230L160.86 229.83C161.08 229.76 182.73 222.25 199.12 223.76C195.43 220.09 190.92 215.62 185.94 210.69L175.29 200.08C161.84 186.75 155.37 176.93 154.97 157.21C154.59 138.37 170.11 126.61 170.26 126.49L170.6 126.25L213.32 153.07L213.39 153.25L243.33 222.9C244.283 225.586 244.69 228.435 244.528 231.28C244.365 234.125 243.637 236.909 242.386 239.469C241.134 242.029 239.384 244.313 237.238 246.189C235.093 248.064 232.595 249.492 229.89 250.39H229.74L164.03 255.39ZM161.73 230.77L165.07 254.09L229.56 249.21C232.101 248.36 234.447 247.012 236.462 245.246C238.477 243.479 240.12 241.329 241.296 238.921C242.471 236.514 243.156 233.896 243.309 231.221C243.463 228.546 243.082 225.867 242.19 223.34L212.35 153.9L170.67 127.73C168.47 129.51 155.85 140.49 156.19 157.18C156.58 176.61 162.66 185.85 176.14 199.18L186.8 209.74C192.35 215.23 197.32 220.16 201.22 224.04L202.5 225.32L200.7 225.07C185.74 223.08 165.1 229.65 161.73 230.77V230.77Z" fill="white"/>
<path d="M260.33 151C259.634 150.039 259.139 148.948 258.872 147.792C258.606 146.636 258.575 145.438 258.78 144.27C259.006 141.913 259.897 139.67 261.35 137.8C265.243 138.07 269.081 138.867 272.76 140.17C278.86 142.32 281.71 145.45 282.16 146.32C283.47 148.87 281.93 149.25 281.93 149.25C281.93 149.25 282.45 151.25 281.32 152.2C280.49 152.9 279.13 151.99 279.13 151.99C279.13 151.99 279.13 153.36 278.03 153.66C276.93 153.96 274.12 150.66 272.13 149.99C270.988 149.598 269.813 149.307 268.62 149.12C268.62 149.12 270.62 151.59 269.46 152.26C268.3 152.93 266.56 151.4 264.41 151.11C263.057 150.942 261.69 150.905 260.33 151V151Z" fill="#EF6744"/>
<path d="M267.39 89.59C266.17 85.8 261.39 80.88 254.32 80.1C248.61 79.48 245.94 83.47 241.77 80.45C238.37 77.98 236.11 70.45 228.11 65.97C219.28 61.09 186.11 62.62 199.75 96.07C203.94 106.35 217.24 98.39 234.86 96.23C235.211 95.5268 235.626 94.8573 236.1 94.23L254.16 91.23C255.12 91.0205 256.12 91.0984 257.036 91.4541C257.952 91.8098 258.743 92.4275 259.31 93.23L261.74 96.64C261.088 97.3479 260.393 98.0158 259.66 98.64H259.72C265.31 100.61 268.61 93.37 267.39 89.59Z" fill="#151E27"/>
<path d="M259.31 93.22C258.743 92.4175 257.952 91.7998 257.036 91.4441C256.12 91.0884 255.12 91.0105 254.16 91.22L236.1 94.22C235.626 94.8473 235.211 95.5168 234.86 96.22C234.246 97.241 233.99 98.4371 234.13 99.62C234.65 101.86 235.31 106.45 236.63 105.03C241.98 99.32 246.18 98.71 246.18 98.71L246.42 99.71C246.497 100.034 246.653 100.333 246.875 100.581C247.097 100.829 247.377 101.018 247.69 101.13C249.912 101.925 252.321 102.044 254.61 101.47C256.451 100.828 258.15 99.8324 259.61 98.54C260.343 97.9158 261.038 97.2479 261.69 96.54L259.31 93.22Z" fill="#EF6744"/>
<path d="M253.82 100.06H253.72C253.678 100.046 253.64 100.024 253.607 99.9947C253.575 99.9655 253.548 99.9298 253.53 99.89L253.06 98.71C253.03 98.6344 253.031 98.55 253.063 98.4752C253.095 98.4004 253.155 98.3411 253.23 98.31C253.306 98.2802 253.39 98.2814 253.465 98.3132C253.54 98.345 253.599 98.4049 253.63 98.48L253.97 99.34L256.15 98.09C256.219 98.0502 256.301 98.0395 256.378 98.0601C256.455 98.0807 256.52 98.131 256.56 98.2C256.6 98.269 256.611 98.3509 256.59 98.4278C256.569 98.5047 256.519 98.5702 256.45 98.61L253.97 100C253.927 100.034 253.875 100.055 253.82 100.06V100.06Z" fill="black"/>
<path d="M251.15 100C251.1 99.9985 251.051 99.985 251.008 99.9606C250.964 99.9362 250.927 99.9017 250.9 99.86C250.13 98.73 250.7 98.13 250.72 98.1C250.778 98.0512 250.852 98.0253 250.928 98.0272C251.003 98.0291 251.076 98.0588 251.131 98.1105C251.187 98.1622 251.221 98.2324 251.228 98.3079C251.236 98.3833 251.215 98.4588 251.17 98.52C251.17 98.52 250.94 98.84 251.4 99.52C251.424 99.5522 251.441 99.5891 251.45 99.6283C251.459 99.6675 251.46 99.7081 251.452 99.7476C251.445 99.7871 251.429 99.8246 251.406 99.8577C251.384 99.8908 251.354 99.9189 251.32 99.94C251.272 99.9789 251.212 100 251.15 100V100Z" fill="black"/>
<path d="M255.72 96.37C255.658 96.3694 255.599 96.3499 255.548 96.3141C255.498 96.2784 255.461 96.228 255.44 96.17L254.95 94.87C254.936 94.8326 254.929 94.7927 254.93 94.7527C254.932 94.7127 254.941 94.6734 254.958 94.6371C254.975 94.6007 254.998 94.5681 255.028 94.5411C255.058 94.5141 255.092 94.4934 255.13 94.48C255.167 94.4657 255.207 94.459 255.247 94.4603C255.287 94.4617 255.327 94.471 255.363 94.4878C255.399 94.5046 255.432 94.5284 255.459 94.558C255.486 94.5876 255.507 94.6223 255.52 94.66L256.01 95.95C256.024 95.9881 256.031 96.0286 256.03 96.0694C256.029 96.1101 256.02 96.1502 256.003 96.1873C255.986 96.2245 255.962 96.2579 255.933 96.2859C255.903 96.3138 255.868 96.3356 255.83 96.35L255.72 96.37Z" fill="black"/>
<path d="M242.95 127.39C235.39 118.39 236.63 105.04 236.63 105.04L236.1 94.27C236.1 94.27 234.04 80.54 212.3 76C197.49 72.89 174.78 83 166.03 99.17C165.191 100.728 164.453 102.338 163.82 103.99C151.57 110.8 139.5 123.27 134.26 139.75C127.69 160.41 129.66 193.06 129.66 193.06C129.66 193.06 159.37 219.27 203.46 204.29C221.54 198.15 233.46 197.1 233.46 197.1C233.46 197.1 227.59 183.26 221.89 172.26C231.95 172.44 237.83 169.7 237.83 169.7L236.41 159.7C236.41 159.7 221.51 155.06 210.78 146.7C211.311 143.018 213.18 139.661 216.03 137.27L216.5 136.85C220.295 141.827 225.263 145.788 230.96 148.38C240.213 152.39 250.513 153.309 260.33 151L261.33 137.8C254.18 136.57 247.681 132.89 242.95 127.39V127.39Z" fill="url(#paint3_linear)"/>
<path d="M324.28 235.45C324.28 235.45 333.35 241.7 331.28 249.92C329.59 256.56 323.17 257.66 319.82 257.82C319.683 257.83 319.546 257.791 319.433 257.712C319.321 257.633 319.239 257.517 319.201 257.385C319.164 257.252 319.173 257.111 319.227 256.984C319.282 256.858 319.378 256.754 319.5 256.69C322.35 255.02 327.18 251.6 326.67 247.84C325.67 240.5 320.13 239.84 320.13 239.84L324.28 235.45Z" fill="#EF6744"/>
<path d="M297.69 180.3C297.69 180.3 297.69 180.24 297.64 180.22C296.825 179.847 296.105 179.293 295.537 178.6C294.968 177.907 294.566 177.093 294.36 176.22C293.28 171.58 294.36 163.79 293.93 161.41C293.5 159.03 293.28 156.77 293.28 156.77L293.64 156.66C291.788 155.468 289.642 154.814 287.44 154.77C284.22 154.62 283.2 156.08 279.44 159.02C276.93 160.805 273.87 161.648 270.8 161.4C271.337 161.627 271.819 161.968 272.21 162.4C272.369 162.667 272.474 162.963 272.518 163.27C272.562 163.578 272.545 163.891 272.468 164.192C272.391 164.493 272.255 164.776 272.068 165.025C271.882 165.273 271.648 165.482 271.38 165.64C270.478 166.188 269.435 166.463 268.38 166.43V166.43C268.38 166.43 267.82 171.13 273.04 175.05C278.26 178.97 282.7 177.51 282.7 177.51C282.7 177.51 285.49 217.67 284.94 221.7C284.39 225.73 283.58 230.7 282.71 231.59C277.35 236.94 278.25 240.5 278.25 240.5L289.67 240.26C289.033 240.719 288.585 241.395 288.41 242.161C288.235 242.926 288.346 243.73 288.72 244.42C288.72 244.42 310.04 243.97 313.21 243.97C318.35 243.97 325.4 243.53 325.21 232.21C324.74 207.16 299.15 182.59 297.69 180.3Z" fill="#EF6744"/>
<path d="M301.71 160.29C299.06 155.53 294.85 156.29 293.64 156.62L293.28 156.73C293.28 156.73 293.5 159 293.93 161.37C294.36 163.74 293.28 171.54 294.36 176.18C294.566 177.053 294.968 177.867 295.537 178.56C296.105 179.253 296.825 179.807 297.64 180.18C299.519 181.027 301.592 181.351 303.64 181.12C306.45 180.79 307.96 177.22 307.96 177.22C307.96 177.22 304.89 165.91 301.71 160.29Z" fill="#151E27"/>
<path d="M272.19 162.37C271.798 161.938 271.317 161.597 270.78 161.37C269.55 160.81 267.93 160.6 267.15 161.72C265.97 163.43 268.38 166.41 268.38 166.41C269.435 166.443 270.478 166.168 271.38 165.62C271.647 165.461 271.881 165.25 272.066 165C272.252 164.75 272.386 164.466 272.461 164.164C272.537 163.862 272.552 163.547 272.505 163.24C272.458 162.932 272.351 162.636 272.19 162.37V162.37Z" fill="#151E27"/>
<path d="M282 165.33C281.589 165.382 281.171 165.339 280.779 165.204C280.387 165.069 280.031 164.845 279.74 164.55C279.611 164.368 279.526 164.159 279.49 163.939C279.453 163.719 279.467 163.494 279.53 163.28C279.564 163.214 279.621 163.162 279.69 163.135C279.759 163.107 279.836 163.105 279.906 163.129C279.977 163.153 280.036 163.202 280.073 163.267C280.111 163.331 280.124 163.407 280.11 163.48C280.075 163.6 280.067 163.726 280.088 163.849C280.109 163.972 280.157 164.089 280.23 164.19C280.44 164.46 280.98 164.79 282.36 164.71C282.439 164.71 282.515 164.74 282.572 164.794C282.63 164.847 282.665 164.921 282.67 165C282.673 165.04 282.667 165.081 282.654 165.119C282.641 165.157 282.62 165.192 282.593 165.222C282.566 165.251 282.533 165.276 282.496 165.292C282.46 165.309 282.42 165.319 282.38 165.32L282 165.33Z" fill="black"/>
<path d="M303.37 204.3C306.19 209.87 308.57 211.86 310.73 213.37C312.6 214.67 317.21 214.12 315.73 210.22C314.25 206.32 311.73 204.57 309.85 199.72C308.67 196.6 306.72 193.62 305.29 194.04C303.86 194.46 300.56 198.74 303.37 204.3Z" fill="#151E27"/>
<path d="M320.53 213C320.53 213 317.35 213.91 319.69 220.73C322.03 227.55 324.97 228.88 324.97 228.88C324.774 226.092 324.25 223.336 323.41 220.67C322.612 218.055 321.65 215.494 320.53 213Z" fill="#151E27"/>
<path d="M231.44 135.76C230.786 133.589 229.964 131.473 228.98 129.43C228.98 129.23 230.66 120.24 237.76 116.73L240.53 115.36C245.99 112.67 252.8 109.36 254.73 107.99C257.32 106.21 255.87 101.35 255.81 101.14L254.64 101.49C255 102.66 255.58 105.93 254.04 106.99C252.18 108.27 245.14 111.74 239.99 114.27L237.22 115.63C231.3 118.57 228.95 124.78 228.14 127.68L228.09 127.57C225.52 122.27 223.31 117.69 225.09 110.3C227.67 99.52 238.14 87.07 244.09 85.64C244.712 85.4266 245.375 85.3598 246.027 85.4447C246.68 85.5297 247.303 85.7643 247.85 86.13C249.43 87.36 249.48 89.92 249.48 89.94H250.7C250.7 89.81 250.65 86.78 248.6 85.17C247.912 84.6877 247.12 84.3724 246.289 84.2492C245.457 84.1259 244.609 84.1981 243.81 84.46C237.4 86 226.61 98.66 223.89 110C222.03 117.81 224.44 122.8 226.99 128.08C228.313 130.646 229.411 133.323 230.27 136.08C232.733 144.193 236.292 151.931 240.85 159.08C241.32 159.08 241.85 159.08 242.38 159.15C237.625 151.921 233.941 144.043 231.44 135.76V135.76Z" fill="#2755A3"/>
<path d="M255.32 164C255.85 165.26 252.72 165.94 252.72 165.94C253.771 166.531 254.872 167.03 256.01 167.43C258.01 168.13 262.22 167.26 262.92 168.2C263.052 168.371 263.135 168.575 263.16 168.79C263.583 168.507 263.942 168.14 264.216 167.712C264.489 167.283 264.671 166.802 264.75 166.3C265.04 163.86 262.43 161.53 258.92 161.12C257.904 160.955 256.863 161.011 255.871 161.286C254.878 161.56 253.957 162.046 253.17 162.71C254.18 163 255.03 163.3 255.32 164Z" fill="#2755A3"/>
<path d="M264.59 171.39C264.38 170.33 262.75 170.21 262.75 170.21C263.06 169.809 263.207 169.305 263.16 168.8C263.135 168.585 263.052 168.381 262.92 168.21C262.22 167.27 257.99 168.14 256.01 167.44C254.872 167.04 253.771 166.541 252.72 165.95C252.72 165.95 255.85 165.27 255.32 164.01C255.03 163.3 254.18 163.01 253.17 162.72C252.299 162.498 251.454 162.183 250.65 161.78C248.11 160.334 245.29 159.448 242.38 159.18C241.84 159.18 241.32 159.12 240.85 159.11C239.374 159.082 237.903 159.284 236.49 159.71L237.05 169.06C241.309 171.616 245.786 173.788 250.43 175.55C256.55 177.63 260.73 176.94 261.62 176.55C264.22 175.36 263.25 174.11 263.25 174.11C263.25 174.11 264.89 172.86 264.59 171.39Z" fill="#EF6744"/>
<path d="M296 250.69C296 250.69 289.14 254.75 277 254.75C263.16 254.75 256.5 250.69 256.5 250.69L262.89 234L290.82 234.28L296 250.69Z" fill="url(#paint4_linear)"/>
<path d="M276.89 237.53C284.456 237.53 290.59 236.093 290.59 234.32C290.59 232.547 284.456 231.11 276.89 231.11C269.324 231.11 263.19 232.547 263.19 234.32C263.19 236.093 269.324 237.53 276.89 237.53Z" fill="#2755A3"/>
<path d="M276.89 238.14C270 238.14 262.58 236.94 262.58 234.32C262.58 231.7 270 230.5 276.89 230.5C283.78 230.5 291.19 231.69 291.19 234.32C291.19 236.95 283.78 238.14 276.89 238.14ZM276.89 231.72C268.42 231.72 263.8 233.44 263.8 234.32C263.8 235.2 268.42 236.92 276.89 236.92C285.36 236.92 289.97 235.2 289.97 234.32C289.97 233.44 285.35 231.72 276.89 231.72Z" fill="white"/>
<path d="M282.01 243.29C282.01 243.29 283.94 241.18 285.65 242.96C286.65 244.05 285.04 245.13 285.04 245.13C285.04 245.13 286.69 247.3 284.94 248.05C283.19 248.8 281.76 246.65 281.76 246.65H271.76C271.76 246.65 271.26 249.27 269.39 248.53C267.52 247.79 269.02 245.16 269.02 245.16C269.02 245.16 266.94 243.49 268.2 242.21C269.81 240.58 271.64 243.29 271.64 243.29H282.01Z" fill="white"/>
<path d="M216.04 173.29C210.022 173.387 204.032 172.436 198.34 170.48C182.43 164.67 157.01 145.19 162.59 108.99C162.619 108.832 162.708 108.69 162.838 108.596C162.969 108.501 163.13 108.459 163.29 108.48C163.369 108.492 163.445 108.52 163.514 108.562C163.582 108.604 163.641 108.659 163.688 108.724C163.734 108.79 163.767 108.864 163.785 108.942C163.803 109.02 163.804 109.101 163.79 109.18C158.33 144.59 183.2 163.65 198.79 169.33C214.38 175.01 233.41 170.21 236.6 169.33L235.95 160.19C233.08 159.36 216.23 154.12 206.05 143.81C196.6 134.24 193.76 123.74 197.61 112.62C197.632 112.54 197.671 112.465 197.723 112.4C197.776 112.335 197.841 112.282 197.915 112.243C197.989 112.205 198.07 112.182 198.153 112.175C198.236 112.169 198.319 112.18 198.398 112.208C198.477 112.235 198.549 112.278 198.61 112.335C198.672 112.391 198.721 112.459 198.755 112.535C198.789 112.612 198.807 112.694 198.808 112.777C198.808 112.861 198.792 112.943 198.76 113.02C195.07 123.67 197.82 133.74 206.92 142.96C217.78 153.96 236.49 159.08 236.68 159.13C236.802 159.164 236.911 159.236 236.992 159.334C237.072 159.433 237.12 159.553 237.13 159.68L237.85 169.74C237.862 169.877 237.826 170.014 237.747 170.128C237.669 170.241 237.553 170.323 237.42 170.36C230.453 172.273 223.265 173.258 216.04 173.29V173.29Z" fill="white"/>
<path d="M148.32 141.82C146.886 141.828 145.467 141.528 144.16 140.94C144.089 140.905 144.026 140.855 143.974 140.796C143.922 140.736 143.882 140.666 143.857 140.591C143.832 140.516 143.822 140.436 143.828 140.357C143.833 140.278 143.854 140.201 143.89 140.13C143.925 140.059 143.974 139.996 144.034 139.944C144.094 139.892 144.164 139.852 144.239 139.827C144.314 139.802 144.394 139.792 144.473 139.798C144.552 139.803 144.629 139.825 144.7 139.86C146.148 140.494 147.738 140.736 149.309 140.56C150.88 140.384 152.377 139.798 153.65 138.86C158.07 135.64 157.98 132.55 157.98 132.42C157.975 132.34 157.985 132.26 158.011 132.185C158.037 132.109 158.077 132.04 158.13 131.98C158.184 131.921 158.248 131.872 158.32 131.838C158.392 131.803 158.47 131.784 158.55 131.78C158.709 131.772 158.864 131.826 158.984 131.93C159.103 132.035 159.177 132.182 159.19 132.34C159.19 132.5 159.37 136.2 154.37 139.84C152.62 141.136 150.497 141.83 148.32 141.82V141.82Z" fill="white"/>
<path d="M210.89 231.86C210.747 231.864 210.608 231.814 210.5 231.72L205.5 227.58C205.438 227.529 205.387 227.466 205.35 227.395C205.312 227.324 205.289 227.246 205.282 227.167C205.274 227.087 205.283 227.006 205.306 226.929C205.33 226.853 205.369 226.782 205.42 226.72C205.471 226.658 205.534 226.607 205.605 226.57C205.676 226.532 205.754 226.509 205.833 226.502C205.913 226.494 205.994 226.503 206.071 226.526C206.147 226.55 206.218 226.589 206.28 226.64L211.28 230.79C211.379 230.868 211.451 230.976 211.485 231.097C211.519 231.218 211.514 231.347 211.471 231.466C211.428 231.584 211.349 231.686 211.244 231.757C211.14 231.828 211.016 231.864 210.89 231.86V231.86Z" fill="white"/>
<path d="M212.89 226.39H212.77L205.47 224.9C205.311 224.867 205.171 224.772 205.082 224.636C204.993 224.5 204.962 224.334 204.995 224.175C205.028 224.016 205.123 223.876 205.259 223.787C205.395 223.698 205.561 223.667 205.72 223.7L213.01 225.2C213.167 225.231 213.306 225.324 213.396 225.457C213.486 225.589 213.519 225.752 213.49 225.91C213.459 226.046 213.382 226.167 213.273 226.254C213.165 226.341 213.029 226.389 212.89 226.39Z" fill="white"/>
<path d="M176.06 251.59C175.948 251.591 175.838 251.56 175.743 251.502C175.648 251.444 175.57 251.36 175.52 251.26C172.6 245.42 170.76 231.38 170.68 230.79C170.66 230.628 170.704 230.466 170.804 230.336C170.903 230.207 171.049 230.122 171.21 230.1C171.29 230.089 171.371 230.094 171.448 230.115C171.526 230.135 171.599 230.171 171.662 230.221C171.726 230.27 171.779 230.332 171.818 230.402C171.857 230.473 171.881 230.55 171.89 230.63C171.89 230.77 173.78 245.06 176.6 250.71C176.636 250.782 176.658 250.86 176.664 250.939C176.67 251.019 176.66 251.1 176.635 251.176C176.61 251.252 176.57 251.323 176.518 251.383C176.465 251.444 176.402 251.494 176.33 251.53C176.246 251.57 176.153 251.59 176.06 251.59V251.59Z" fill="white"/>
<path d="M220.7 113.2C221.374 113.2 221.92 112.654 221.92 111.98C221.92 111.306 221.374 110.76 220.7 110.76C220.026 110.76 219.48 111.306 219.48 111.98C219.48 112.654 220.026 113.2 220.7 113.2Z" fill="white"/>
<path d="M213.15 119.44C213.824 119.44 214.37 118.894 214.37 118.22C214.37 117.546 213.824 117 213.15 117C212.476 117 211.93 117.546 211.93 118.22C211.93 118.894 212.476 119.44 213.15 119.44Z" fill="white"/>
<path d="M206.2 125.18C206.874 125.18 207.42 124.634 207.42 123.96C207.42 123.286 206.874 122.74 206.2 122.74C205.526 122.74 204.98 123.286 204.98 123.96C204.98 124.634 205.526 125.18 206.2 125.18Z" fill="white"/>
<path d="M125.5 231.93V231.78C125.128 230.4 124.534 229.089 123.74 227.9C122.985 226.76 122.017 225.775 120.89 225C120.57 224.72 120.197 224.507 119.794 224.373C119.39 224.239 118.964 224.187 118.54 224.22L110.96 226.38C110.27 226.56 109.9 227.03 109.66 227.94C109.635 228.09 109.58 228.233 109.497 228.36C109.415 228.488 109.307 228.596 109.18 228.68C108.18 229.37 104.89 228.12 104.89 228.12L93.14 231.5C88.14 232.92 85.03 236.4 83.34 238.42C83.1997 238.584 83.1103 238.786 83.0829 239C83.0555 239.215 83.0913 239.432 83.1858 239.626C83.2803 239.821 83.4294 239.983 83.6149 240.094C83.8003 240.205 84.0141 240.259 84.23 240.25C86.1818 240.16 88.1277 239.969 90.06 239.68C93.2704 239.283 96.5063 239.129 99.74 239.22V239.17C100.881 237.571 102.325 236.212 103.99 235.17C105.99 233.96 111.99 234.31 116.91 235.05C121.83 235.79 125.5 231.93 125.5 231.93Z" fill="#151E27"/>
<path d="M133.43 227.64C130.98 229.321 128.342 230.71 125.57 231.78H125.47V231.93C125.47 231.93 121.84 235.76 116.91 235.02C111.98 234.28 106.01 233.93 103.99 235.14C102.325 236.182 100.881 237.541 99.74 239.14C106.24 239.07 124.05 238.88 126.15 238.77C128.58 238.65 132.02 238.77 134.05 238.71C134.2 237.31 133.5 228.29 133.43 227.64Z" fill="#EF6744"/>
<path d="M153.89 242.76C153.89 242.76 153.89 242.7 153.89 242.62C153.397 241.277 152.687 240.024 151.79 238.91C150.968 237.852 149.949 236.962 148.79 236.29C148.447 236.039 148.057 235.859 147.643 235.761C147.229 235.663 146.799 235.649 146.38 235.72L139.02 238.53C138.34 238.77 138.02 239.26 137.85 240.2C137.84 240.352 137.799 240.499 137.728 240.634C137.657 240.768 137.559 240.886 137.44 240.98C136.44 241.75 133.12 240.79 133.12 240.79L121.7 245.15C117.928 246.739 114.73 249.439 112.53 252.89C112.402 253.067 112.328 253.278 112.319 253.496C112.31 253.714 112.366 253.93 112.479 254.117C112.592 254.304 112.758 254.453 112.955 254.546C113.153 254.639 113.374 254.672 113.59 254.64C115.525 254.385 117.444 254.025 119.34 253.56C122.503 252.891 125.712 252.46 128.94 252.27V252.21C129.932 250.508 131.25 249.02 132.82 247.83C134.73 246.45 140.69 246.28 145.68 246.59C150.67 246.9 153.89 242.76 153.89 242.76Z" fill="#151E27"/>
<path d="M161.45 237.8C159.156 239.689 156.649 241.303 153.98 242.61H153.89C153.89 242.69 153.89 242.75 153.89 242.75C153.89 242.75 150.61 246.88 145.63 246.58C140.65 246.28 134.63 246.44 132.77 247.82C131.2 249.01 129.882 250.498 128.89 252.2C135.35 251.57 153.08 249.83 155.16 249.54C157.57 249.2 161.02 249.04 163.03 248.79C163.05 247.36 161.57 238.44 161.45 237.8Z" fill="#EF6744"/>
<defs>
<linearGradient id="paint0_linear" x1="229.15" y1="254.32" x2="359.22" y2="179.22" gradientUnits="userSpaceOnUse">
<stop stop-color="#EF6744"/>
<stop offset="0.06" stop-color="#EF755B"/>
<stop offset="0.17" stop-color="#F08D81"/>
<stop offset="0.28" stop-color="#F0A1A1"/>
<stop offset="0.4" stop-color="#F1B0BA"/>
<stop offset="0.52" stop-color="#F1BBCB"/>
<stop offset="0.66" stop-color="#F1C2D6"/>
<stop offset="0.81" stop-color="#F1C4D9"/>
</linearGradient>
<linearGradient id="paint1_linear" x1="132.29" y1="180.18" x2="214.99" y2="180.18" gradientUnits="userSpaceOnUse">
<stop offset="0.28" stop-color="#151E27"/>
<stop offset="0.39" stop-color="#192A41"/>
<stop offset="0.58" stop-color="#1F3C6B"/>
<stop offset="0.75" stop-color="#234A8A"/>
<stop offset="0.9" stop-color="#26529C"/>
<stop offset="1" stop-color="#2755A3"/>
</linearGradient>
<linearGradient id="paint2_linear" x1="13826.3" y1="24511.3" x2="21638.3" y2="24511.3" gradientUnits="userSpaceOnUse">
<stop offset="0.28" stop-color="#151E27"/>
<stop offset="0.39" stop-color="#192A41"/>
<stop offset="0.58" stop-color="#1F3C6B"/>
<stop offset="0.75" stop-color="#234A8A"/>
<stop offset="0.9" stop-color="#26529C"/>
<stop offset="1" stop-color="#2755A3"/>
</linearGradient>
<linearGradient id="paint3_linear" x1="129.39" y1="142.16" x2="261.35" y2="142.16" gradientUnits="userSpaceOnUse">
<stop stop-color="#EF6744"/>
<stop offset="0.02" stop-color="#EF6A49"/>
<stop offset="0.2" stop-color="#F08A7C"/>
<stop offset="0.37" stop-color="#F0A3A4"/>
<stop offset="0.53" stop-color="#F1B5C1"/>
<stop offset="0.67" stop-color="#F1C0D3"/>
<stop offset="0.77" stop-color="#F1C4D9"/>
</linearGradient>
<linearGradient id="paint4_linear" x1="10353.5" y1="5304.89" x2="11913.3" y2="5304.89" gradientUnits="userSpaceOnUse">
<stop offset="0.28" stop-color="#151E27"/>
<stop offset="0.39" stop-color="#192A41"/>
<stop offset="0.58" stop-color="#1F3C6B"/>
<stop offset="0.75" stop-color="#234A8A"/>
<stop offset="0.9" stop-color="#26529C"/>
<stop offset="1" stop-color="#2755A3"/>
</linearGradient>
</defs>
</svg>
