<svg width="424" height="404" viewBox="0 0 424 404" fill="none" xmlns="http://www.w3.org/2000/svg">
<path d="M198.51 177.84H198.36C198.204 177.8 198.07 177.7 197.987 177.561C197.905 177.422 197.88 177.256 197.92 177.1C197.97 176.92 202.63 158.1 200.37 147.66L200.06 146.35C198.16 138.54 198.8 135.78 200.95 130.43L201.43 129.05C202.74 125.26 203.52 119.12 202.43 114.72C201.93 112.72 199.98 106.59 199.96 106.53C199.909 106.376 199.922 106.209 199.995 106.064C200.069 105.92 200.196 105.81 200.35 105.76C200.504 105.71 200.671 105.722 200.816 105.796C200.96 105.869 201.069 105.996 201.12 106.15C201.2 106.41 203.12 112.35 203.61 114.43C204.78 119.28 203.88 125.61 202.55 129.43L202.06 130.84C199.96 136.06 199.39 138.55 201.21 146.05L201.52 147.37C203.85 158.1 199.27 176.6 199.07 177.37C199.041 177.499 198.971 177.615 198.87 177.7C198.768 177.785 198.642 177.834 198.51 177.84V177.84Z" fill="#2755A3"/>
<path d="M226.28 68.68C225.294 63.058 222.712 57.8382 218.841 53.6433C214.971 49.4484 209.975 46.4555 204.45 45.0216C198.926 43.5878 193.105 43.7735 187.683 45.5566C182.261 47.3398 177.466 50.6451 173.871 55.0782C170.275 59.5113 168.031 64.8852 167.406 70.5586C166.781 76.2321 167.801 81.9656 170.344 87.0753C172.888 92.185 176.848 96.4551 181.751 99.3763C186.655 102.297 192.296 103.746 198 103.55L197.07 110.05L206 108.49L202.38 103.08C210.093 101.653 216.931 97.2388 221.407 90.7968C225.883 84.3549 227.634 76.4064 226.28 68.68V68.68Z" fill="#F1C4D9"/>
<path d="M196.32 110.79L197.26 104.17C190.075 104.216 183.105 101.721 177.581 97.1268C172.056 92.5321 168.334 86.1331 167.07 79.06C166.04 73.1944 166.758 67.1555 169.134 61.6948C171.511 56.2342 175.441 51.593 180.435 48.3491C185.429 45.1051 191.267 43.4016 197.222 43.4506C203.177 43.4995 208.986 45.2989 213.927 48.6245C218.867 51.9502 222.72 56.6554 225.006 62.1544C227.292 67.6534 227.911 73.7033 226.785 79.5512C225.658 85.399 222.837 90.7865 218.672 95.043C214.507 99.2995 209.182 102.237 203.36 103.49L206.99 108.92L196.32 110.79ZM198.67 102.92L197.77 109.3L204.94 108.05L201.33 102.64L202.24 102.48C209.79 101.07 216.481 96.7451 220.867 90.4408C225.253 84.1364 226.982 76.3589 225.68 68.79V68.79C225.019 65.0204 223.623 61.4178 221.57 58.1879C219.517 54.9581 216.848 52.1642 213.716 49.9657C210.583 47.7673 207.048 46.2074 203.313 45.3751C199.577 44.5428 195.714 44.4544 191.945 45.115C188.175 45.7755 184.573 47.1721 181.343 49.2249C178.113 51.2778 175.319 53.9467 173.121 57.0792C170.922 60.2118 169.362 63.7467 168.53 67.4822C167.698 71.2176 167.609 75.0804 168.27 78.85C169.506 85.7667 173.19 92.0074 178.649 96.4308C184.108 100.854 190.977 103.165 198 102.94L198.67 102.92Z" fill="white"/>
<path d="M164.27 234.75C164.22 234.76 164.169 234.76 164.12 234.75C163.964 234.712 163.829 234.614 163.745 234.477C163.661 234.341 163.634 234.176 163.67 234.02C163.73 233.78 169.48 210.59 166.67 197.71L166.3 196.1C163.97 186.52 164.75 183.1 167.38 176.59L167.97 174.88C169.6 170.2 170.56 162.61 169.24 157.16C168.64 154.64 166.24 147.16 166.24 147.07C166.214 146.994 166.203 146.913 166.208 146.833C166.214 146.753 166.235 146.674 166.272 146.602C166.308 146.53 166.358 146.467 166.42 146.415C166.482 146.363 166.553 146.324 166.63 146.3C166.706 146.275 166.786 146.265 166.866 146.271C166.946 146.277 167.024 146.299 167.096 146.335C167.167 146.372 167.231 146.422 167.283 146.482C167.335 146.543 167.375 146.614 167.4 146.69C167.5 147 169.84 154.31 170.46 156.88C171.89 162.81 170.79 170.58 169.16 175.28L168.55 177.01C166.01 183.33 165.27 186.58 167.55 195.82L167.93 197.44C170.79 210.61 165.16 233.35 164.93 234.31C164.89 234.45 164.802 234.571 164.681 234.652C164.56 234.733 164.414 234.767 164.27 234.75V234.75Z" fill="#2755A3"/>
<path d="M198.44 100.53C197.227 93.6107 194.05 87.1861 189.288 82.0224C184.525 76.8588 178.377 73.174 171.578 71.4075C164.779 69.641 157.616 69.8673 150.942 72.0595C144.268 74.2518 138.365 78.3173 133.938 83.7714C129.51 89.2254 126.745 95.8378 125.972 102.82C125.199 109.802 126.45 116.859 129.577 123.15C132.703 129.44 137.573 134.699 143.606 138.298C149.639 141.898 156.579 143.686 163.6 143.45L162.46 151.45L173.46 149.53L169 142.87C178.499 141.121 186.923 135.691 192.436 127.761C197.95 119.831 200.108 110.044 198.44 100.53V100.53Z" fill="#F1C4D9"/>
<path d="M202.87 263.38C202.824 263.389 202.776 263.389 202.73 263.38C202.574 263.342 202.439 263.244 202.355 263.107C202.271 262.971 202.244 262.806 202.28 262.65C202.33 262.46 207 243.65 204.73 233.2L204.42 231.9C202.52 224.08 203.16 221.33 205.31 215.98L205.79 214.59C207.1 210.8 207.88 204.66 206.79 200.26C206.29 198.26 204.34 192.13 204.32 192.07C204.29 191.992 204.276 191.909 204.279 191.826C204.282 191.743 204.302 191.661 204.338 191.586C204.374 191.511 204.425 191.443 204.487 191.389C204.55 191.334 204.624 191.293 204.703 191.267C204.782 191.242 204.866 191.233 204.949 191.241C205.032 191.25 205.112 191.275 205.185 191.315C205.258 191.356 205.322 191.411 205.372 191.477C205.423 191.543 205.46 191.619 205.48 191.7C205.56 191.95 207.48 197.89 207.97 199.98C209.14 204.82 208.24 211.16 206.91 214.98L206.42 216.39C204.32 221.61 203.75 224.1 205.58 231.6L205.88 232.92C208.21 243.65 203.63 262.15 203.43 262.92C203.4 263.047 203.328 263.161 203.227 263.244C203.126 263.327 203.001 263.375 202.87 263.38V263.38Z" fill="#EF6744"/>
<path d="M230.64 154.22C229.655 148.599 227.073 143.38 223.204 139.186C219.335 134.991 214.341 131.998 208.818 130.563C203.295 129.128 197.476 129.311 192.054 131.092C186.632 132.872 181.837 136.175 178.24 140.605C174.643 145.035 172.397 150.407 171.768 156.079C171.139 161.75 172.155 167.483 174.694 172.594C177.233 177.705 181.189 181.977 186.089 184.902C190.989 187.827 196.627 189.28 202.33 189.09L201.41 195.59L210.33 194.03L206.71 188.62C214.429 187.2 221.274 182.789 225.756 176.346C230.238 169.903 231.993 161.951 230.64 154.22Z" fill="#F1C4D9"/>
<path d="M200.68 196.34L201.63 189.72H201.31C193.719 189.709 186.408 186.855 180.818 181.72C175.227 176.585 171.763 169.543 171.108 161.98C170.453 154.418 172.654 146.884 177.279 140.865C181.903 134.845 188.614 130.776 196.09 129.46C200.017 128.771 204.042 128.862 207.934 129.729C211.825 130.595 215.509 132.22 218.773 134.51C222.037 136.8 224.818 139.71 226.957 143.075C229.096 146.44 230.551 150.193 231.24 154.12V154.12C232.56 161.843 230.852 169.778 226.472 176.275C222.091 182.771 215.375 187.329 207.72 189L211.35 194.43L200.68 196.34ZM203.03 188.46L202.13 194.85L209.3 193.59L205.69 188.19L206.6 188.02C214.143 186.603 220.827 182.275 225.205 175.971C229.584 169.667 231.306 161.893 230 154.33V154.33C228.666 146.717 224.362 139.946 218.036 135.506C211.709 131.066 203.878 129.321 196.265 130.655C188.652 131.989 181.881 136.293 177.441 142.619C173.001 148.946 171.256 156.777 172.59 164.39C173.819 171.301 177.494 177.538 182.944 181.962C188.394 186.385 195.254 188.699 202.27 188.48L203.03 188.46Z" fill="white"/>
<path d="M106.08 299.8C106.007 299.814 105.933 299.814 105.86 299.8C105.785 299.771 105.716 299.728 105.658 299.673C105.6 299.617 105.553 299.551 105.521 299.478C105.488 299.404 105.471 299.325 105.469 299.245C105.467 299.165 105.481 299.085 105.51 299.01C105.6 298.79 114.08 276.56 112.87 263.48L112.69 261.85C111.55 252.1 112.69 248.85 116.12 242.69L116.91 241.07C119.08 236.64 120.91 229.25 120.31 223.71C120.01 221.14 118.54 213.44 118.52 213.36C118.505 213.281 118.505 213.2 118.522 213.122C118.538 213.043 118.569 212.968 118.614 212.902C118.659 212.836 118.717 212.779 118.784 212.735C118.851 212.691 118.926 212.66 119.005 212.645C119.084 212.63 119.165 212.63 119.243 212.647C119.322 212.663 119.396 212.694 119.463 212.739C119.529 212.784 119.586 212.842 119.63 212.909C119.674 212.976 119.705 213.051 119.72 213.13C119.78 213.45 121.21 220.95 121.52 223.57C122.22 229.57 120.19 237.15 118.01 241.57L117.2 243.21C113.93 249.15 112.8 252.27 113.9 261.67L114.08 263.32C115.32 276.69 107 298.49 106.65 299.41C106.605 299.525 106.527 299.624 106.425 299.693C106.324 299.763 106.203 299.8 106.08 299.8V299.8Z" fill="#EF6744"/>
<path d="M156 171.22C155.635 164.234 153.269 157.501 149.184 151.822C145.098 146.144 139.466 141.76 132.958 139.194C126.45 136.628 119.342 135.987 112.48 137.349C105.619 138.711 99.2937 142.017 94.2591 146.874C89.2245 151.731 85.6929 157.933 84.0854 164.741C82.478 171.549 82.8624 178.676 85.193 185.272C87.5235 191.867 91.7018 197.654 97.2297 201.941C102.758 206.228 109.402 208.834 116.37 209.45L114.28 217.22L125.37 216.64L121.77 209.52C131.374 208.942 140.36 204.592 146.772 197.419C153.183 190.245 156.5 180.828 156 171.22Z" fill="#F1C4D9"/>
<path d="M113.47 217.87L115.59 209.98C108.796 209.253 102.336 206.663 96.9217 202.495C91.5076 198.327 87.3507 192.744 84.91 186.363C82.4693 179.981 81.8398 173.049 83.091 166.332C84.3421 159.615 87.4253 153.375 91.9999 148.3C96.9087 142.851 103.323 138.98 110.432 137.176C117.541 135.373 125.025 135.718 131.938 138.168C138.85 140.618 144.881 145.063 149.268 150.941C153.654 156.819 156.199 163.866 156.58 171.19V171.19C157.054 180.794 153.788 190.208 147.469 197.456C141.15 204.703 132.269 209.221 122.69 210.06L126.3 217.2L113.47 217.87ZM119.62 137.25C118.98 137.25 118.35 137.25 117.71 137.3C108.636 137.759 100.074 141.645 93.7551 148.172C87.4358 154.7 83.8299 163.384 83.6661 172.468C83.5023 181.552 86.7928 190.359 92.8726 197.111C98.9524 203.862 107.368 208.054 116.42 208.84L117.14 208.9L115.08 216.57L124.4 216.08L120.81 209L121.73 208.94C131.16 208.337 139.976 204.05 146.273 197.004C152.57 189.958 155.845 180.719 155.39 171.28V171.28C154.911 162.112 150.936 153.476 144.281 147.151C137.627 140.826 128.801 137.293 119.62 137.28V137.25Z" fill="white"/>
<path d="M95.83 241.83H95.65C95.4962 241.781 95.3674 241.675 95.2909 241.533C95.2144 241.391 95.1961 241.225 95.24 241.07C95.3 240.89 100.87 222.32 99.11 211.78L98.87 210.46C97.35 202.57 98.12 199.84 100.53 194.6L101.07 193.25C102.57 189.53 103.64 183.43 102.79 178.98C102.4 176.91 100.79 170.74 100.73 170.68C100.699 170.6 100.684 170.515 100.688 170.429C100.692 170.344 100.714 170.26 100.752 170.184C100.791 170.107 100.845 170.039 100.911 169.985C100.977 169.931 101.054 169.891 101.137 169.869C101.219 169.846 101.306 169.841 101.39 169.854C101.475 169.867 101.556 169.898 101.628 169.944C101.7 169.99 101.761 170.051 101.808 170.123C101.855 170.195 101.886 170.275 101.9 170.36C101.97 170.62 103.59 176.64 103.99 178.75C104.92 183.65 103.72 189.94 102.2 193.7L101.65 195.08C99.3 200.2 98.65 202.65 100.06 210.24L100.31 211.57C102.12 222.4 96.64 240.65 96.41 241.43C96.3665 241.548 96.2874 241.651 96.1835 241.722C96.0797 241.794 95.9561 241.831 95.83 241.83V241.83Z" fill="#EF6744"/>
<path d="M128.82 134.14C128.108 128.48 125.783 123.143 122.123 118.767C118.463 114.391 113.622 111.16 108.176 109.458C102.731 107.756 96.9112 107.656 91.4106 109.17C85.91 110.683 80.9606 113.746 77.1521 117.994C73.3437 122.242 70.8369 127.495 69.9305 133.127C69.0241 138.76 69.7563 144.534 72.0399 149.762C74.3235 154.99 78.0621 159.451 82.8102 162.614C87.5583 165.777 93.1157 167.507 98.8199 167.6L97.6199 174L106.62 172.88L103.27 167.3C111.038 166.253 118.08 162.183 122.864 155.974C127.648 149.765 129.789 141.919 128.82 134.14V134.14Z" fill="#F1C4D9"/>
<path d="M96.8599 174.75L98.12 168.19C92.3311 167.965 86.7274 166.089 81.9702 162.783C77.2131 159.477 73.5012 154.879 71.2727 149.532C69.0442 144.184 68.3922 138.311 69.3936 132.605C70.395 126.899 73.008 121.598 76.9242 117.329C80.8403 113.06 85.8962 110.001 91.4948 108.512C97.0934 107.024 103.001 107.168 108.52 108.928C114.04 110.688 118.94 113.99 122.644 118.445C126.347 122.9 128.698 128.322 129.42 134.07C130.378 141.854 128.294 149.707 123.603 155.991C118.911 162.275 111.975 166.506 104.24 167.8L107.61 173.4L96.8599 174.75ZM99.3199 108.75C98.0996 108.747 96.8803 108.824 95.6699 108.98C88.3929 109.945 81.7483 113.621 77.0643 119.273C72.3803 124.925 70.002 132.137 70.405 139.467C70.808 146.796 73.9625 153.704 79.238 158.809C84.5134 163.913 91.521 166.838 98.8599 167H99.5899L98.37 173.34L105.6 172.43L102.25 166.86L103.17 166.73C110.463 165.713 117.101 161.972 121.748 156.259C126.395 150.547 128.708 143.287 128.22 135.939C127.732 128.592 124.481 121.701 119.119 116.653C113.758 111.605 106.684 108.774 99.3199 108.73V108.75Z" fill="white"/>
<path d="M231.25 202.87H231.1C230.944 202.83 230.81 202.73 230.727 202.591C230.645 202.452 230.621 202.286 230.66 202.13C230.71 201.94 235.37 183.13 233.1 172.68L232.8 171.38C230.9 163.57 231.53 160.81 233.69 155.46L234.16 154.08C235.48 150.29 236.25 144.14 235.16 139.74C234.67 137.74 232.72 131.61 232.7 131.55C232.676 131.475 232.667 131.395 232.673 131.316C232.679 131.237 232.701 131.16 232.738 131.089C232.774 131.019 232.824 130.956 232.884 130.905C232.944 130.853 233.014 130.814 233.09 130.79C233.165 130.766 233.245 130.757 233.324 130.763C233.403 130.769 233.48 130.791 233.551 130.828C233.621 130.864 233.684 130.914 233.735 130.974C233.787 131.035 233.826 131.105 233.85 131.18C233.94 131.43 235.85 137.37 236.35 139.46C237.51 144.3 236.61 150.64 235.28 154.46L234.8 155.86C232.7 161.08 232.13 163.57 233.95 171.07L234.26 172.39C236.59 183.13 232.01 201.62 231.81 202.39C231.782 202.52 231.712 202.638 231.611 202.724C231.51 202.811 231.383 202.862 231.25 202.87V202.87Z" fill="#2755A3"/>
<path d="M259 93.72C258.017 88.0987 255.437 82.8788 251.57 78.6828C247.702 74.4868 242.709 71.4918 237.186 70.0549C231.663 68.6179 225.844 68.7998 220.421 70.5786C214.999 72.3575 210.203 75.6584 206.604 80.0877C203.006 84.5169 200.758 89.8877 200.127 95.5594C199.497 101.231 200.511 106.965 203.048 112.076C205.586 117.187 209.54 121.461 214.44 124.387C219.339 127.313 224.976 128.769 230.68 128.58L229.76 135.08L238.68 133.52L235.06 128.11C242.78 126.695 249.628 122.286 254.112 115.845C258.596 109.403 260.353 101.451 259 93.72V93.72Z" fill="#F1C4D9"/>
<path d="M229.06 135.83L230 129.21H229.68C221.908 129.202 214.435 126.214 208.8 120.861C203.165 115.508 199.798 108.198 199.392 100.436C198.986 92.6745 201.572 85.0528 206.617 79.141C211.663 73.2292 218.783 69.4775 226.512 68.6589C234.241 67.8403 241.99 70.017 248.162 74.7406C254.334 79.4642 258.459 86.3751 259.688 94.0495C260.917 101.724 259.156 109.577 254.768 115.992C250.379 122.407 243.698 126.894 236.1 128.53L239.73 133.96L229.06 135.83ZM231.41 127.95L230.5 134.34L237.68 133.08L234.06 127.68L234.97 127.51C242.521 126.102 249.215 121.778 253.604 115.474C257.992 109.169 259.722 101.39 258.42 93.82C257.462 88.3542 254.965 83.2752 251.22 79.1799C247.476 75.0847 242.64 72.1432 237.282 70.7013C231.923 69.2594 226.265 69.3769 220.971 71.04C215.677 72.7031 210.967 75.8428 207.396 80.0899C203.825 84.3371 201.54 89.5154 200.81 95.0163C200.081 100.517 200.936 106.112 203.276 111.143C205.617 116.175 209.344 120.434 214.021 123.42C218.699 126.406 224.131 127.995 229.68 128C230.02 128 230.35 128 230.68 128L231.41 127.95Z" fill="white"/>
<path d="M116.91 98H116.81L113.53 97.44C112.552 97.2797 111.663 96.7737 111.027 96.0139C110.39 95.2542 110.047 94.2912 110.06 93.3V92.77C110.067 92.0435 109.811 91.339 109.338 90.7873C108.866 90.2356 108.209 89.8741 107.49 89.77L106.92 89.7C105.99 89.5775 105.129 89.146 104.474 88.475C103.82 87.8039 103.41 86.9322 103.31 86L103.09 83.47C103.076 83.3097 103.126 83.1504 103.229 83.0268C103.332 82.9031 103.48 82.8252 103.64 82.81C103.801 82.7989 103.961 82.8512 104.084 82.9558C104.207 83.0604 104.285 83.209 104.3 83.37L104.52 85.89C104.589 86.5553 104.878 87.1785 105.342 87.6604C105.806 88.1424 106.418 88.4555 107.08 88.55L107.65 88.62C108.661 88.7517 109.589 89.2482 110.259 90.0162C110.929 90.7842 111.296 91.7706 111.29 92.79V93.32C111.28 94.0207 111.522 94.7015 111.972 95.2391C112.421 95.7766 113.049 96.1353 113.74 96.25L117.02 96.81C117.179 96.8233 117.326 96.8992 117.43 97.0211C117.533 97.143 117.583 97.3009 117.57 97.46C117.557 97.6191 117.481 97.7665 117.359 97.8696C117.237 97.9728 117.079 98.0233 116.92 98.01L116.91 98Z" fill="#2755A3"/>
<path d="M304.66 99.14H304.57C304.411 99.1176 304.268 99.0338 304.171 98.9065C304.073 98.7793 304.03 98.6189 304.05 98.46L304.51 95.17C304.642 94.1944 305.117 93.2976 305.85 92.64C306.583 91.9823 307.526 91.6066 308.51 91.58H309.05C309.787 91.5879 310.501 91.3174 311.048 90.8225C311.594 90.3276 311.935 89.6446 312 88.91L312.06 88.34C312.157 87.3956 312.572 86.5122 313.237 85.8345C313.902 85.1568 314.778 84.7251 315.72 84.61L318.24 84.32C318.398 84.3056 318.556 84.3526 318.681 84.4512C318.805 84.5498 318.888 84.6926 318.91 84.85C318.93 85.0104 318.885 85.1722 318.786 85.2997C318.686 85.4272 318.54 85.51 318.38 85.53L315.86 85.82C315.195 85.9074 314.579 86.2149 314.11 86.6934C313.64 87.1719 313.345 87.7939 313.27 88.46L313.22 89.03C313.12 90.0437 312.651 90.9855 311.903 91.6767C311.154 92.3679 310.178 92.7605 309.16 92.78H308.62C307.921 92.7905 307.248 93.0517 306.725 93.516C306.202 93.9803 305.863 94.6169 305.77 95.31L305.31 98.61C305.292 98.7657 305.214 98.9084 305.093 99.0074C304.971 99.1065 304.816 99.1541 304.66 99.14V99.14Z" fill="#2755A3"/>
<path d="M163.39 62C163.303 62.0006 163.216 61.9821 163.137 61.9458C163.057 61.9096 162.987 61.8564 162.93 61.79L160.74 59.28C160.085 58.5361 159.719 57.582 159.708 56.5911C159.697 55.6003 160.042 54.6383 160.68 53.88L161.02 53.48C161.471 52.9217 161.707 52.2202 161.685 51.5028C161.663 50.7854 161.384 50.0996 160.9 49.57L160.5 49.15C159.851 48.4593 159.455 47.5684 159.379 46.6236C159.303 45.6787 159.55 44.736 160.08 43.95L161.51 41.85C161.552 41.7761 161.608 41.7118 161.676 41.661C161.744 41.6102 161.822 41.5741 161.904 41.555C161.987 41.5359 162.073 41.5343 162.156 41.5502C162.239 41.5661 162.318 41.5991 162.388 41.6473C162.458 41.6954 162.517 41.7576 162.561 41.8298C162.605 41.902 162.634 41.9827 162.646 42.0667C162.657 42.1507 162.651 42.2362 162.628 42.3177C162.604 42.3992 162.564 42.4749 162.51 42.54L161.08 44.63C160.71 45.19 160.539 45.8579 160.593 46.5268C160.647 47.1958 160.924 47.8271 161.38 48.32L161.77 48.73C162.471 49.4704 162.876 50.4419 162.909 51.4609C162.942 52.4798 162.601 53.4756 161.95 54.26L161.6 54.66C161.143 55.1915 160.892 55.8691 160.892 56.57C160.892 57.2709 161.143 57.9485 161.6 58.48L163.85 61C163.956 61.1221 164.009 61.2812 163.998 61.4424C163.987 61.6037 163.912 61.7539 163.79 61.86C163.677 61.9522 163.536 62.0018 163.39 62V62Z" fill="#2755A3"/>
<path d="M244.88 68.64C244.722 68.6401 244.569 68.5786 244.456 68.4685C244.342 68.3584 244.275 68.2083 244.27 68.05L244.15 64.73C244.108 63.7406 244.421 62.7688 245.034 61.9909C245.647 61.213 246.518 60.6805 247.49 60.49L248.02 60.39C248.721 60.2383 249.345 59.8401 249.778 59.2676C250.211 58.6951 250.425 57.9864 250.38 57.27V56.7C250.311 55.7537 250.565 54.8121 251.101 54.0291C251.637 53.2462 252.423 52.6683 253.33 52.39L255.76 51.66C255.837 51.637 255.917 51.6294 255.997 51.6376C256.077 51.6457 256.154 51.6695 256.225 51.7076C256.295 51.7457 256.358 51.7973 256.408 51.8595C256.459 51.9216 256.497 51.9932 256.52 52.07C256.543 52.1468 256.551 52.2274 256.542 52.3072C256.534 52.387 256.51 52.4644 256.472 52.5349C256.434 52.6055 256.383 52.6679 256.32 52.7185C256.258 52.7691 256.187 52.807 256.11 52.83L253.68 53.56C253.052 53.7616 252.507 54.1649 252.131 54.7072C251.755 55.2496 251.568 55.9008 251.6 56.56V57.13C251.68 58.1455 251.384 59.1551 250.768 59.9665C250.152 60.7778 249.26 61.3344 248.26 61.53L247.74 61.64C247.051 61.7735 246.433 62.1497 245.998 62.7002C245.563 63.2507 245.34 63.939 245.37 64.64L245.5 67.97C245.503 68.1311 245.443 68.2869 245.333 68.4045C245.222 68.5221 245.071 68.5922 244.91 68.6L244.88 68.64Z" fill="#2755A3"/>
<path d="M61.56 253.9V253.75C61.1876 252.368 60.5895 251.057 59.79 249.87C59.0497 248.746 58.103 247.772 57 247C56.68 246.72 56.3073 246.507 55.9037 246.373C55.5002 246.239 55.0739 246.187 54.65 246.22L47 248.38C46.3 248.56 45.94 249.02 45.7 249.94C45.6754 250.09 45.62 250.233 45.5374 250.36C45.4548 250.488 45.3467 250.596 45.22 250.68C44.22 251.37 40.93 250.12 40.93 250.12L29.2 253.47C24.2 254.89 21.09 258.36 19.39 260.38C19.2504 260.546 19.162 260.749 19.1355 260.964C19.1091 261.18 19.1458 261.398 19.2411 261.593C19.3364 261.788 19.4863 261.951 19.6725 262.062C19.8587 262.174 20.0732 262.228 20.29 262.22C22.2423 262.131 24.1884 261.937 26.12 261.64C29.3276 261.25 32.5599 261.099 35.79 261.19V261.14C36.9283 259.539 38.3728 258.179 40.04 257.14C42.04 255.94 48.04 256.29 52.95 257.03C57.86 257.77 61.56 253.9 61.56 253.9Z" fill="#151E27"/>
<path d="M69.49 249.61C67.0397 251.291 64.4019 252.68 61.63 253.75H61.53V253.9C61.53 253.9 57.93 257.73 53 257C48.07 256.27 42.11 255.91 40.09 257.11C38.4228 258.149 36.9783 259.509 35.84 261.11C42.34 261.04 60.15 260.85 62.24 260.74C64.68 260.61 68.12 260.74 70.15 260.68C70.26 259.28 69.56 250.25 69.49 249.61Z" fill="#EF6744"/>
<path d="M123.81 305.18L123.71 305.06C122.738 304.013 121.599 303.135 120.34 302.46C119.159 301.804 117.861 301.383 116.52 301.22C116.107 301.121 115.677 301.106 115.258 301.176C114.839 301.247 114.438 301.401 114.08 301.63L108.38 307.07C108.117 307.322 107.936 307.648 107.861 308.005C107.786 308.362 107.82 308.733 107.96 309.07C108.007 309.214 108.024 309.367 108.01 309.518C107.997 309.669 107.952 309.816 107.88 309.95C107.28 311.04 103.82 311.45 103.82 311.45L95 319.89C91.26 323.46 90.11 328 89.55 330.57C89.4993 330.782 89.5124 331.005 89.5877 331.21C89.6629 331.415 89.7971 331.594 89.9732 331.723C90.1494 331.852 90.3598 331.926 90.578 331.937C90.7962 331.947 91.0126 331.892 91.2 331.78C92.887 330.792 94.5194 329.714 96.09 328.55C98.7436 326.708 101.531 325.066 104.43 323.64V323.58C104.679 321.615 105.314 319.718 106.3 318C107.53 316 112.96 313.52 117.67 311.88C122.38 310.24 123.81 305.18 123.81 305.18Z" fill="#151E27"/>
<path d="M128.83 297.69C127.453 300.319 125.775 302.779 123.83 305.02H123.74L123.84 305.14C123.84 305.14 122.41 310.22 117.7 311.87C112.99 313.52 107.53 316 106.3 318C105.314 319.708 104.676 321.594 104.42 323.55C110.14 320.46 125.81 311.99 127.61 310.91C129.7 309.67 132.81 308.19 134.61 307.18C134 305.88 129.19 298.23 128.83 297.69Z" fill="#EF6744"/>
<path d="M245.2 116.55C245.45 114.96 246.36 114.62 247.2 113.1C248.144 111.027 248.389 108.704 247.9 106.48C247.25 102.48 243.34 105.23 242.28 106.04L242.02 106.25C241.02 106.97 239.33 106.06 239.33 106.06L238.26 108.48C238.26 108.48 235.11 110.77 235.54 112.42C235.9 113.85 238.44 116.42 240.1 117.59L239.39 121.5C239.39 121.5 239.72 124.38 241.71 125.5C242.375 125.838 243.119 125.99 243.863 125.941C244.608 125.892 245.325 125.643 245.94 125.22L246.32 119.84C246.371 119.706 246.388 119.562 246.37 119.42C246 118.86 245 117.68 245.2 116.55Z" fill="#EF6744"/>
<path d="M257.27 114.27C257.27 114.27 261.17 110.12 259.66 106.75C259.163 105.755 258.41 104.91 257.479 104.302C256.547 103.694 255.471 103.345 254.36 103.29C254.36 103.29 254.28 99.7 251.87 99.02C249.46 98.34 247.17 101.62 247.17 101.62C247.17 101.62 246.53 99.57 244.08 100.78C241.63 101.99 241.99 106.25 241.99 106.25L242.25 106.04C243.31 105.23 247.25 102.52 247.87 106.48C248.359 108.704 248.114 111.027 247.17 113.1C246.36 114.62 245.45 114.96 245.17 116.55C245 117.68 245.93 118.86 246.31 119.41L246.39 119.53C247.61 121.4 254.39 123.73 257.39 119.15C259.42 116.09 257.27 114.27 257.27 114.27Z" fill="black"/>
<path d="M351.51 230L362.14 236.53L400.33 204.92L394.33 195.4C385.766 196.978 377.37 199.355 369.25 202.5C365.225 204.006 361.389 205.976 357.82 208.37L351.51 230Z" fill="black"/>
<path d="M359.87 221C359.787 221.001 359.706 220.984 359.63 220.952C359.554 220.919 359.486 220.871 359.43 220.81C359.374 220.754 359.33 220.688 359.299 220.615C359.269 220.542 359.254 220.464 359.254 220.385C359.254 220.306 359.269 220.228 359.299 220.155C359.33 220.082 359.374 220.016 359.43 219.96V219.96C359.43 219.96 361.11 218.26 361.53 214.21C361.91 210.5 361.14 208.92 361.13 208.9C361.059 208.756 361.046 208.59 361.095 208.438C361.143 208.285 361.249 208.157 361.39 208.08C361.533 208.006 361.7 207.992 361.854 208.041C362.007 208.09 362.135 208.197 362.21 208.34C362.21 208.41 363.21 210.21 362.74 214.34C362.27 218.88 360.36 220.76 360.27 220.84C360.163 220.944 360.019 221.001 359.87 221V221Z" fill="white"/>
<path d="M364.48 219.71C364.398 219.71 364.318 219.695 364.242 219.664C364.167 219.633 364.098 219.587 364.04 219.53C363.926 219.416 363.863 219.261 363.863 219.1C363.863 218.939 363.926 218.784 364.04 218.67V218.67C364.04 218.67 365.72 216.97 366.14 212.92C366.53 209.22 365.75 207.63 365.74 207.61C365.67 207.465 365.658 207.298 365.709 207.145C365.759 206.992 365.867 206.865 366.01 206.79C366.08 206.754 366.157 206.732 366.236 206.725C366.314 206.718 366.394 206.727 366.469 206.752C366.544 206.776 366.614 206.815 366.674 206.866C366.735 206.917 366.784 206.98 366.82 207.05C366.82 207.12 367.82 208.92 367.35 213.05C366.88 217.58 364.97 219.47 364.89 219.54C364.781 219.649 364.634 219.71 364.48 219.71V219.71Z" fill="white"/>
<path d="M369.05 218.39C368.969 218.391 368.889 218.374 368.815 218.341C368.74 218.309 368.674 218.26 368.62 218.2C368.563 218.144 368.517 218.077 368.486 218.003C368.455 217.93 368.438 217.85 368.438 217.77C368.438 217.69 368.455 217.61 368.486 217.537C368.517 217.463 368.563 217.396 368.62 217.34V217.34C368.62 217.34 370.3 215.65 370.72 211.59C371.1 207.89 370.33 206.3 370.32 206.29C370.244 206.147 370.229 205.979 370.277 205.825C370.324 205.67 370.432 205.541 370.575 205.465C370.718 205.389 370.886 205.374 371.04 205.422C371.195 205.469 371.324 205.577 371.4 205.72C371.4 205.8 372.4 207.59 371.93 211.72C371.46 216.26 369.55 218.14 369.47 218.22C369.356 218.327 369.206 218.387 369.05 218.39V218.39Z" fill="white"/>
<path d="M373.52 216.88C373.437 216.881 373.356 216.864 373.28 216.832C373.204 216.799 373.136 216.751 373.08 216.69C373.024 216.634 372.98 216.568 372.949 216.495C372.919 216.422 372.904 216.344 372.904 216.265C372.904 216.186 372.919 216.108 372.949 216.035C372.98 215.962 373.024 215.896 373.08 215.84V215.84C373.08 215.84 374.76 214.14 375.18 210.09C375.56 206.38 374.79 204.8 374.78 204.78C374.709 204.636 374.696 204.47 374.745 204.318C374.793 204.165 374.899 204.037 375.04 203.96C375.183 203.886 375.35 203.872 375.504 203.921C375.657 203.97 375.785 204.077 375.86 204.22C375.86 204.29 376.86 206.09 376.39 210.22C375.92 214.76 374 216.64 373.92 216.72C373.81 216.819 373.668 216.875 373.52 216.88V216.88Z" fill="white"/>
<path d="M360 235.24L394 206.84C394.491 206.428 394.833 205.867 394.976 205.243C395.119 204.618 395.053 203.964 394.79 203.38L391.46 195.94L394.56 195.32C395.039 195.224 395.537 195.283 395.981 195.488C396.424 195.693 396.792 196.033 397.03 196.46L400.89 203.46C401.143 203.917 401.233 204.447 401.144 204.961C401.055 205.476 400.792 205.945 400.4 206.29L365.9 236.95C365.531 237.278 365.066 237.478 364.575 237.521C364.083 237.564 363.591 237.448 363.17 237.19L360 235.24Z" fill="#EF6744"/>
<path d="M263.67 214.45C263.67 214.45 272.35 216 292.15 214.89C300.234 214.365 308.261 213.174 316.15 211.33L351.51 230L357.83 208.37L322.57 186.22C317.239 182.875 311.029 181.204 304.74 181.42L261.61 180.83L243.08 188.06L263.67 214.45Z" fill="url(#paint0_linear)"/>
<path d="M344 222.79H343.82C343.742 222.767 343.669 222.729 343.606 222.678C343.543 222.626 343.491 222.563 343.453 222.491C343.415 222.42 343.391 222.341 343.384 222.26C343.376 222.179 343.385 222.097 343.41 222.02L348.55 205.43C348.599 205.275 348.708 205.146 348.852 205.071C348.997 204.996 349.165 204.981 349.32 205.03C349.475 205.079 349.604 205.188 349.679 205.332C349.754 205.477 349.769 205.645 349.72 205.8L344.58 222.38C344.538 222.5 344.46 222.605 344.356 222.678C344.252 222.752 344.127 222.791 344 222.79V222.79Z" fill="white"/>
<path d="M316.39 209H316.29C316.211 208.988 316.135 208.96 316.066 208.918C315.998 208.876 315.939 208.821 315.892 208.756C315.846 208.69 315.812 208.616 315.795 208.538C315.777 208.46 315.776 208.379 315.79 208.3L316.72 202.69C316.757 202.541 316.848 202.411 316.977 202.326C317.105 202.241 317.261 202.208 317.413 202.234C317.564 202.259 317.701 202.341 317.795 202.462C317.889 202.584 317.934 202.737 317.92 202.89L317 208.5C316.974 208.642 316.898 208.77 316.787 208.862C316.675 208.953 316.534 209.002 316.39 209Z" fill="white"/>
<path d="M318.57 210.22C318.454 210.219 318.341 210.188 318.24 210.13C318.105 210.042 318.011 209.904 317.977 209.747C317.943 209.59 317.973 209.425 318.06 209.29L320.92 204.8C321.019 204.698 321.15 204.635 321.291 204.619C321.432 204.604 321.574 204.639 321.693 204.717C321.811 204.795 321.899 204.912 321.94 205.048C321.982 205.183 321.974 205.329 321.92 205.46L319.05 209.94C318.998 210.022 318.928 210.09 318.844 210.139C318.761 210.188 318.667 210.216 318.57 210.22V210.22Z" fill="white"/>
<path d="M237.62 264.24L226.55 270L233.87 319L245.12 318.79C248.201 310.642 250.504 302.221 252 293.64C252.795 289.416 253.094 285.113 252.89 280.82L237.62 264.24Z" fill="black"/>
<path d="M250.67 284.61C250.59 284.61 248.58 284.46 245.26 281.96C241.62 279.21 241 276.6 240.97 276.49C240.937 276.334 240.967 276.171 241.053 276.036C241.139 275.901 241.274 275.806 241.43 275.77C241.507 275.751 241.588 275.747 241.667 275.759C241.746 275.772 241.822 275.8 241.89 275.842C241.958 275.883 242.017 275.938 242.063 276.003C242.109 276.068 242.142 276.142 242.16 276.22C242.16 276.22 242.76 278.55 246 280.99C249 283.23 250.73 283.39 250.75 283.39C250.909 283.405 251.056 283.481 251.161 283.603C251.265 283.724 251.318 283.88 251.31 284.04C251.306 284.12 251.286 284.198 251.252 284.27C251.218 284.342 251.169 284.406 251.11 284.459C251.05 284.513 250.981 284.553 250.905 284.579C250.83 284.605 250.75 284.615 250.67 284.61V284.61Z" fill="white"/>
<path d="M249.38 289.21C249.29 289.21 247.28 289.06 243.97 286.57C240.33 283.82 239.7 281.21 239.68 281.1C239.644 280.942 239.672 280.777 239.759 280.64C239.845 280.503 239.982 280.406 240.14 280.37C240.298 280.334 240.463 280.363 240.6 280.449C240.737 280.535 240.834 280.672 240.87 280.83C240.87 280.83 241.45 283.14 244.7 285.59C247.7 287.84 249.43 287.99 249.45 287.99C249.612 287.99 249.767 288.054 249.881 288.169C249.996 288.283 250.06 288.438 250.06 288.6C250.06 288.762 249.996 288.917 249.881 289.031C249.767 289.146 249.612 289.21 249.45 289.21H249.38Z" fill="white"/>
<path d="M248.15 293.82C248.06 293.82 246.05 293.68 242.74 291.18C239.1 288.43 238.47 285.82 238.45 285.71C238.432 285.632 238.43 285.551 238.444 285.472C238.457 285.393 238.486 285.318 238.529 285.25C238.571 285.182 238.627 285.123 238.693 285.077C238.758 285.031 238.832 284.998 238.91 284.98C238.988 284.962 239.069 284.96 239.148 284.974C239.227 284.987 239.302 285.016 239.37 285.059C239.438 285.102 239.497 285.157 239.543 285.223C239.589 285.288 239.622 285.362 239.64 285.44C239.64 285.49 240.24 287.77 243.47 290.21C246.47 292.45 248.21 292.61 248.22 292.61C248.382 292.61 248.537 292.674 248.651 292.789C248.766 292.903 248.83 293.058 248.83 293.22C248.83 293.382 248.766 293.537 248.651 293.651C248.537 293.766 248.382 293.83 248.22 293.83L248.15 293.82Z" fill="white"/>
<path d="M247.13 298.42C247.05 298.42 245.03 298.27 241.72 295.77C238.08 293.02 237.46 290.41 237.43 290.3C237.412 290.222 237.41 290.141 237.424 290.062C237.437 289.983 237.466 289.907 237.509 289.84C237.551 289.772 237.607 289.713 237.672 289.667C237.738 289.621 237.812 289.588 237.89 289.57C237.968 289.552 238.049 289.55 238.128 289.564C238.207 289.577 238.282 289.606 238.35 289.649C238.418 289.692 238.477 289.747 238.523 289.813C238.569 289.878 238.602 289.952 238.62 290.03V290.03C238.62 290.03 239.2 292.35 242.45 294.8C245.45 297.04 247.19 297.2 247.2 297.2C247.361 297.213 247.51 297.288 247.617 297.409C247.723 297.531 247.778 297.689 247.77 297.85C247.76 298.01 247.687 298.16 247.567 298.266C247.447 298.373 247.29 298.428 247.13 298.42Z" fill="white"/>
<path d="M228.72 268.83L235.48 312.6C235.578 313.233 235.88 313.817 236.34 314.263C236.8 314.709 237.394 314.993 238.03 315.07L246.12 316.07L245.05 319.07C244.882 319.529 244.572 319.924 244.166 320.197C243.761 320.47 243.279 320.607 242.79 320.59L234.79 320.28C234.267 320.261 233.766 320.065 233.369 319.723C232.973 319.381 232.705 318.915 232.61 318.4L224.22 273C224.131 272.514 224.2 272.013 224.418 271.57C224.636 271.127 224.991 270.766 225.43 270.54L228.72 268.83Z" fill="#EF6744"/>
<path d="M218.71 187.36C218.71 187.36 207.36 207.52 222.8 222.87C236 236 267 238.79 267 238.79L237.48 264.27L252.89 280.82L295.1 246.58C296.44 245.496 297.543 244.149 298.343 242.622C299.143 241.096 299.623 239.422 299.752 237.703C299.881 235.984 299.658 234.257 299.095 232.628C298.532 230.999 297.642 229.502 296.48 228.23C289.59 220.68 279.73 210.68 270.9 204.65C255.3 194.02 245.73 188.35 245.73 188.35L218.71 187.36Z" fill="url(#paint1_linear)"/>
<path d="M258.62 272.84C258.458 272.839 258.304 272.775 258.19 272.66L245.09 259.36C245.026 259.305 244.974 259.238 244.937 259.162C244.901 259.087 244.88 259.004 244.877 258.92C244.873 258.836 244.887 258.752 244.918 258.674C244.949 258.595 244.995 258.524 245.055 258.465C245.114 258.405 245.185 258.359 245.264 258.328C245.342 258.297 245.426 258.283 245.51 258.287C245.594 258.29 245.677 258.311 245.752 258.347C245.828 258.384 245.895 258.436 245.95 258.5L259.06 271.81C259.174 271.924 259.237 272.079 259.237 272.24C259.237 272.401 259.174 272.556 259.06 272.67C259.002 272.727 258.933 272.772 258.858 272.801C258.782 272.83 258.701 272.843 258.62 272.84V272.84Z" fill="white"/>
<path d="M269.74 238.3C269.621 238.299 269.505 238.263 269.406 238.197C269.306 238.132 269.228 238.039 269.18 237.93C269.117 237.781 269.115 237.614 269.175 237.464C269.235 237.314 269.352 237.194 269.5 237.13L275.06 234.74C275.209 234.677 275.376 234.675 275.526 234.735C275.676 234.795 275.796 234.912 275.86 235.06C275.893 235.133 275.911 235.213 275.912 235.293C275.914 235.373 275.899 235.453 275.869 235.528C275.84 235.602 275.795 235.67 275.738 235.727C275.682 235.784 275.614 235.83 275.54 235.86L270 238.25C269.918 238.286 269.829 238.303 269.74 238.3V238.3Z" fill="white"/>
<path d="M273.92 240.88H273.86L269.29 240.49C269.13 240.475 268.982 240.397 268.879 240.273C268.776 240.15 268.726 239.99 268.74 239.83C268.755 239.669 268.833 239.52 268.956 239.416C269.079 239.311 269.239 239.259 269.4 239.27L273.97 239.67C274.132 239.677 274.284 239.747 274.394 239.866C274.504 239.985 274.562 240.143 274.555 240.305C274.548 240.467 274.478 240.619 274.359 240.729C274.24 240.839 274.082 240.897 273.92 240.89V240.88Z" fill="white"/>
<path d="M296.45 105C293 87.45 281.89 73.85 281.89 73.85L272.89 78.07C272.89 78.07 280.63 97.54 277.89 108.07C275.15 118.6 267.89 121.63 264.17 121.22C260.45 120.81 254.68 119.44 250.17 120.46C247.91 120.97 247.41 121.34 246.23 122.71C245.712 123.192 245.074 123.526 244.382 123.675C243.69 123.825 242.971 123.785 242.3 123.56C241.629 123.334 241.032 122.932 240.571 122.395C240.109 121.858 239.802 121.207 239.68 120.51C239.16 119.63 238.74 118.88 236.13 117.68C231.89 115.75 226.01 115.53 222.31 115.16C218.61 114.79 212.16 110.3 211.6 99.47C211.04 88.64 222.6 71.18 222.6 71.18L214.6 65.18C214.6 65.18 200.95 76.18 193.94 92.64C187.35 108.08 194.05 128.83 210.48 133.17L218.97 187.82C218.97 187.82 229.24 193.06 245.38 188.03C261.52 183 262.57 180.9 262.57 180.9L267.27 141L268.56 141.13C287.43 142.83 299.93 122.51 296.45 105Z" fill="url(#paint2_linear)"/>
<path d="M222.5 71.13C221.608 71.1834 220.715 71.0569 219.873 70.758C219.031 70.4591 218.258 69.9938 217.6 69.39C216.193 68.2947 215.128 66.8202 214.53 65.14C216.276 62.7758 218.335 60.6598 220.65 58.85C224.48 55.85 227.65 55.3 228.36 55.37C230.5 55.57 230.13 56.7 230.13 56.7C230.13 56.7 231.59 57.17 231.75 58.28C231.86 59.09 230.75 59.59 230.75 59.59C230.984 59.7266 231.17 59.9331 231.281 60.1805C231.393 60.428 231.424 60.7041 231.37 60.97C231.11 61.8 227.88 62.24 226.65 63.23C225.928 63.7948 225.258 64.424 224.65 65.11C224.65 65.11 227.04 64.81 226.98 65.84C226.92 66.87 225.26 67.34 224.21 68.58C223.561 69.3745 222.989 70.2283 222.5 71.13V71.13Z" fill="#EF6744"/>
<path d="M272.85 78.07C273.712 78.3063 274.614 78.3669 275.5 78.2484C276.386 78.1299 277.24 77.8346 278.01 77.38C279.614 76.5977 280.96 75.3728 281.89 73.85C280.67 71.1754 279.093 68.6792 277.2 66.43C274.07 62.71 271.1 61.53 270.37 61.43C268.23 61.18 268.37 62.37 268.37 62.37C268.37 62.37 266.83 62.53 266.45 63.58C266.18 64.35 267.18 65.07 267.18 65.07C267.18 65.07 266.18 65.42 266.29 66.29C266.4 67.16 269.44 68.29 270.44 69.47C271.028 70.1744 271.55 70.9308 272 71.73C272 71.73 269.71 70.94 269.56 71.96C269.41 72.98 270.94 73.78 271.71 75.22C272.18 76.1314 272.562 77.0858 272.85 78.07V78.07Z" fill="#EF6744"/>
<path d="M239.69 111.36C239.364 111.339 239.052 111.221 238.794 111.021C238.536 110.822 238.343 110.55 238.24 110.24C238.208 110.165 238.206 110.082 238.234 110.005C238.262 109.929 238.318 109.867 238.39 109.83C238.426 109.813 238.465 109.804 238.505 109.802C238.545 109.801 238.584 109.807 238.621 109.821C238.659 109.835 238.693 109.857 238.722 109.884C238.751 109.911 238.774 109.944 238.79 109.98C239.2 110.84 239.73 110.75 239.79 110.74C239.869 110.725 239.952 110.742 240.019 110.787C240.086 110.832 240.133 110.901 240.15 110.98C240.159 111.019 240.16 111.059 240.153 111.098C240.146 111.137 240.132 111.175 240.11 111.208C240.089 111.242 240.061 111.271 240.028 111.293C239.996 111.316 239.959 111.332 239.92 111.34C239.844 111.356 239.767 111.362 239.69 111.36Z" fill="black"/>
<path d="M245.29 110.64C245.24 110.649 245.19 110.649 245.14 110.64C245.071 110.6 245.02 110.535 244.998 110.459C244.976 110.383 244.984 110.301 245.02 110.23C245.313 109.644 245.528 109.022 245.66 108.38C245.92 107 245.44 106.73 245.43 106.72C245.392 106.707 245.358 106.686 245.329 106.659C245.299 106.632 245.277 106.598 245.261 106.561C245.246 106.524 245.239 106.485 245.241 106.445C245.242 106.405 245.252 106.366 245.27 106.33C245.301 106.255 245.36 106.195 245.435 106.163C245.51 106.131 245.594 106.13 245.67 106.16C245.77 106.16 246.61 106.6 246.26 108.49C246.117 109.185 245.882 109.858 245.56 110.49C245.531 110.536 245.491 110.574 245.444 110.6C245.397 110.626 245.344 110.64 245.29 110.64V110.64Z" fill="black"/>
<path d="M243.66 109.49C243.617 109.5 243.573 109.5 243.53 109.49C243.494 109.474 243.461 109.451 243.434 109.422C243.407 109.393 243.385 109.359 243.371 109.321C243.357 109.284 243.351 109.245 243.352 109.205C243.354 109.165 243.363 109.126 243.38 109.09C243.38 109.03 243.63 108.47 243.2 108.26C243.126 108.225 243.069 108.163 243.041 108.086C243.013 108.009 243.016 107.924 243.05 107.85C243.087 107.778 243.15 107.723 243.226 107.697C243.303 107.67 243.387 107.675 243.46 107.71C243.598 107.785 243.719 107.887 243.817 108.009C243.915 108.131 243.988 108.272 244.032 108.422C244.075 108.573 244.089 108.731 244.071 108.886C244.054 109.042 244.006 109.193 243.93 109.33C243.904 109.379 243.865 109.42 243.818 109.448C243.77 109.476 243.715 109.491 243.66 109.49V109.49Z" fill="black"/>
<path d="M154 111.45C154 111.45 159.12 113.12 161.63 116.09C163.131 118.004 164.039 120.316 164.24 122.74C164.268 123.083 164.209 123.427 164.069 123.742C163.929 124.056 163.713 124.331 163.44 124.54L162.57 125.21C163.313 126.246 164.132 127.225 165.02 128.14C164.895 128.636 164.66 129.097 164.333 129.49C164.006 129.882 163.595 130.197 163.13 130.41C162.07 130.97 159.77 130.54 159.77 130.54L152.15 120.86C151.538 120.053 151.18 119.082 151.121 118.07C151.063 117.059 151.306 116.053 151.82 115.18L154 111.45Z" fill="#EF6744"/>
<path d="M158.48 116.29L160.72 117.87L159.81 118.81" stroke="black" stroke-width="0.5" stroke-linecap="round" stroke-linejoin="round"/>
<path d="M156.91 117.6C156.742 117.55 156.565 117.54 156.393 117.571C156.221 117.602 156.058 117.672 155.918 117.777C155.778 117.882 155.665 118.019 155.587 118.175C155.509 118.332 155.469 118.505 155.47 118.68" stroke="black" stroke-width="0.5" stroke-linecap="round" stroke-linejoin="round"/>
<path d="M161.08 115.5C161.08 115.5 154 110.5 152.08 115.22C150.2 119.79 159.22 124.8 159.79 128.79C160.92 136.79 150 144.08 147.19 151.05C136.74 176.95 104.91 169.15 97.25 144.99C93.37 132.74 97.81 120.64 108.51 114.18C117.26 108.9 123 112.32 127.7 114.73C132.96 117.44 135.7 118.14 139.95 112.43C143.35 107.81 147.28 105.79 153.07 107.24C155.049 107.719 156.853 108.749 158.27 110.211C159.688 111.673 160.662 113.507 161.08 115.5V115.5Z" fill="#151E27"/>
<path d="M189 169C189 169 182.81 173.13 172.09 175.53C166.17 176.727 160.112 177.097 154.09 176.63C154.09 176.63 144.54 182.13 135.21 198.07C129.57 207.71 124.49 218.18 121.36 224.95C120.362 227.288 118.88 229.388 117.011 231.111C115.143 232.835 112.93 234.143 110.52 234.95L68.8199 247.9L69.7299 264.55L124.96 259.55C133.634 258.768 141.651 254.605 147.28 247.96C150.52 244.15 154.28 239.64 158.01 235.09C158.48 240.53 159.01 245.49 159.51 249.32C159.895 251.832 159.744 254.397 159.067 256.846C158.389 259.295 157.201 261.573 155.58 263.53L127.01 296.53L136.58 310.19L180.84 276.79C187.84 271.54 196.46 256.39 198.77 210.24C200.35 178.79 189 169 189 169Z" fill="url(#paint3_linear)"/>
<path d="M136.45 311L126.25 296.43L155.13 263.05C156.692 261.157 157.837 258.956 158.491 256.59C159.144 254.224 159.29 251.746 158.92 249.32C158.54 246.32 158.02 241.77 157.55 236.55C154.31 240.49 150.87 244.61 147.76 248.28C142.037 255.079 133.853 259.333 125 260.11L69.14 265.16L68.14 247.4L110.29 234.32C112.617 233.534 114.751 232.267 116.555 230.601C118.359 228.934 119.792 226.907 120.76 224.65C124 217.65 129.03 207.29 134.64 197.72C143.94 181.82 153.34 176.29 153.73 176.06L153.9 175.96H154.09C160.081 176.432 166.108 176.072 172 174.89C182.47 172.55 188.64 168.5 188.7 168.46L189.09 168.2L189.44 168.5C189.91 168.91 200.98 178.89 199.44 210.25C197.61 247 191.5 269.54 181.28 277.25L136.45 311ZM127.79 296.51L136.72 309.26L180.48 276.26C190.4 268.77 196.35 246.54 198.17 210.17C199.56 182.37 190.73 171.61 188.92 169.72C183.727 172.702 178.094 174.842 172.23 176.06C166.31 177.259 160.253 177.639 154.23 177.19C152.96 177.99 144.23 183.83 135.74 198.31C130.16 207.84 125.14 218.16 121.92 225.14C120.888 227.549 119.358 229.712 117.431 231.489C115.505 233.266 113.224 234.616 110.74 235.45L69.46 248.29L70.32 263.83L124.92 258.9C133.439 258.155 141.317 254.067 146.83 247.53C150.24 243.53 154.05 238.94 157.55 234.67L158.5 233.51L158.63 235C159.13 240.81 159.72 245.94 160.13 249.21C160.53 251.796 160.381 254.437 159.691 256.961C159.002 259.486 157.789 261.836 156.13 263.86L127.79 296.51Z" fill="white"/>
<path d="M196.22 107.46L191.45 115.94C191.45 115.94 196.9 124.27 185.93 127.58C179.99 129.37 173.23 122.81 163.47 129.11C162.254 129.696 160.985 130.165 159.68 130.51C158.68 130.24 148.13 127.51 144.39 135.23C142.39 139.42 142.01 145.31 141.56 149C141.11 152.69 136.47 159 125.64 159.35C114.81 159.7 98.64 148.64 98.64 148.64L91.48 155.54C91.48 155.54 102.2 169.43 118.48 176.81C130.48 182.24 145.86 179.59 154.24 170.34L154.16 176.59C160.179 177.239 166.265 176.867 172.16 175.49C178.125 173.981 183.881 171.744 189.3 168.83L186.93 153.67C192.49 151.49 196.93 146.88 200.59 140.48C210.78 122.28 196.22 107.46 196.22 107.46Z" fill="white"/>
<path d="M161.569 121.844C161.865 121.806 162.068 121.491 162.023 121.14C161.979 120.79 161.703 120.536 161.407 120.574C161.111 120.612 160.907 120.926 160.952 121.277C160.997 121.628 161.273 121.881 161.569 121.844Z" stroke="black" stroke-width="0.5" stroke-linecap="round" stroke-linejoin="round"/>
<path d="M164.79 115.5L171.32 120.32L171.92 114.74L190.4 95.17L174.61 83.76L168.92 112.12L164.79 115.5Z" fill="url(#paint4_linear)" stroke="white" stroke-linecap="round" stroke-linejoin="round"/>
<path d="M173.68 113.08L177.21 116.14L189.62 101.75L187.35 98.44" stroke="white" stroke-linecap="round" stroke-linejoin="round"/>
<path d="M181.03 75.28L181.43 68.73" stroke="#EF6744" stroke-linecap="round" stroke-linejoin="round"/>
<path d="M186.84 79.27L192.78 67.97" stroke="#EF6744" stroke-linecap="round" stroke-linejoin="round"/>
<path d="M192.51 83.49L197.5 78.82" stroke="#EF6744" stroke-linecap="round" stroke-linejoin="round"/>
<path d="M191.048 94.417C191.826 93.2298 188.814 89.8796 184.319 86.934C179.825 83.9884 175.55 82.5629 174.772 83.75C173.994 84.9372 177.007 88.2874 181.502 91.233C185.996 94.1786 190.27 95.6041 191.048 94.417Z" fill="url(#paint5_linear)" stroke="white" stroke-miterlimit="10"/>
<path d="M191.46 116.19C192.295 115.872 193.057 115.389 193.701 114.771C194.345 114.153 194.858 113.411 195.21 112.59C196.022 111.005 196.369 109.223 196.21 107.45C193.655 105.994 190.903 104.912 188.04 104.24C187.06 103.934 186.023 103.855 185.007 104.01C183.992 104.164 183.025 104.547 182.18 105.13C180.983 106.007 180.018 107.164 179.37 108.5C179.113 108.827 178.98 109.236 178.997 109.652C179.013 110.068 179.177 110.464 179.46 110.77C180.1 111.37 182.86 110.29 184.39 110.69C185.271 110.915 186.131 111.216 186.96 111.59C186.96 111.59 184.66 112.3 185.14 113.22C185.62 114.14 187.32 113.88 188.79 114.58C189.73 115.029 190.624 115.569 191.46 116.19Z" fill="#EF6744"/>
<path d="M235.32 138.49H235.21L231.58 137.85C231.502 137.837 231.427 137.808 231.359 137.766C231.292 137.723 231.234 137.668 231.189 137.602C231.143 137.537 231.111 137.464 231.094 137.386C231.077 137.308 231.076 137.228 231.09 137.15C231.117 136.991 231.206 136.849 231.337 136.756C231.468 136.662 231.631 136.624 231.79 136.65L235.42 137.29C235.569 137.317 235.702 137.399 235.795 137.519C235.887 137.639 235.931 137.789 235.918 137.94C235.906 138.091 235.838 138.232 235.727 138.336C235.616 138.439 235.471 138.498 235.32 138.5V138.49Z" fill="#2755A3"/>
<path d="M222.07 152.19H222L218.37 151.56C218.21 151.531 218.068 151.44 217.975 151.307C217.881 151.174 217.844 151.01 217.87 150.85C217.884 150.771 217.914 150.696 217.958 150.629C218.001 150.561 218.058 150.503 218.123 150.458C218.189 150.412 218.264 150.38 218.342 150.364C218.42 150.347 218.501 150.346 218.58 150.36L222.21 150.99C222.36 151.017 222.494 151.1 222.586 151.221C222.678 151.342 222.721 151.494 222.707 151.645C222.694 151.797 222.624 151.938 222.511 152.04C222.399 152.143 222.252 152.2 222.1 152.2L222.07 152.19Z" fill="#2755A3"/>
<path d="M225.08 124.71C224.955 124.711 224.833 124.673 224.731 124.601C224.629 124.529 224.552 124.428 224.51 124.31C224.455 124.159 224.462 123.992 224.529 123.846C224.597 123.7 224.719 123.586 224.87 123.53L228.33 122.27C228.405 122.241 228.485 122.228 228.565 122.231C228.645 122.233 228.723 122.252 228.796 122.286C228.869 122.319 228.934 122.367 228.988 122.426C229.042 122.485 229.083 122.555 229.11 122.63C229.139 122.705 229.152 122.785 229.149 122.865C229.147 122.945 229.128 123.023 229.094 123.096C229.061 123.169 229.013 123.234 228.954 123.288C228.895 123.342 228.825 123.383 228.75 123.41L225.29 124.67C225.224 124.698 225.152 124.711 225.08 124.71V124.71Z" fill="#2755A3"/>
<path d="M227.5 146.38C227.374 146.379 227.252 146.34 227.149 146.269C227.045 146.197 226.966 146.097 226.92 145.98C226.893 145.905 226.881 145.824 226.885 145.744C226.889 145.664 226.909 145.586 226.943 145.513C226.978 145.441 227.026 145.376 227.085 145.322C227.145 145.268 227.214 145.227 227.29 145.2L230.76 143.95C230.913 143.901 231.078 143.912 231.223 143.98C231.368 144.049 231.482 144.171 231.54 144.32C231.592 144.473 231.582 144.639 231.513 144.785C231.444 144.931 231.321 145.044 231.17 145.1L227.7 146.34C227.637 146.367 227.569 146.38 227.5 146.38Z" fill="#2755A3"/>
<path d="M234.23 129.83C234.088 129.828 233.951 129.777 233.843 129.685C233.734 129.594 233.662 129.467 233.637 129.327C233.612 129.187 233.636 129.043 233.706 128.919C233.776 128.796 233.887 128.701 234.02 128.65L237.49 127.41C237.566 127.383 237.646 127.371 237.726 127.375C237.806 127.379 237.884 127.399 237.957 127.433C238.029 127.468 238.094 127.516 238.148 127.575C238.202 127.635 238.243 127.704 238.27 127.78C238.322 127.933 238.312 128.099 238.243 128.245C238.174 128.391 238.051 128.504 237.9 128.56L234.43 129.8C234.365 129.821 234.298 129.831 234.23 129.83Z" fill="#2755A3"/>
<path d="M258.47 162.43H258.36L254.73 161.79C254.652 161.777 254.577 161.748 254.509 161.706C254.442 161.663 254.384 161.608 254.339 161.542C254.293 161.477 254.261 161.404 254.244 161.326C254.227 161.248 254.226 161.168 254.24 161.09C254.267 160.931 254.356 160.789 254.487 160.696C254.618 160.602 254.781 160.564 254.94 160.59L258.57 161.23C258.719 161.257 258.852 161.339 258.945 161.459C259.037 161.579 259.081 161.729 259.068 161.88C259.056 162.031 258.988 162.172 258.877 162.276C258.766 162.379 258.621 162.438 258.47 162.44V162.43Z" fill="#2755A3"/>
<path d="M255.37 174C255.23 173.993 255.096 173.938 254.991 173.845C254.886 173.752 254.816 173.627 254.791 173.489C254.767 173.35 254.79 173.208 254.857 173.085C254.924 172.962 255.031 172.865 255.16 172.81L258.63 171.57C258.706 171.543 258.786 171.531 258.866 171.535C258.946 171.539 259.024 171.559 259.097 171.593C259.169 171.628 259.234 171.676 259.288 171.735C259.342 171.795 259.383 171.864 259.41 171.94C259.462 172.093 259.452 172.259 259.383 172.405C259.314 172.551 259.191 172.664 259.04 172.72L255.57 173.96C255.506 173.984 255.438 173.997 255.37 174V174Z" fill="#2755A3"/>
<path d="M224.1 133.44C224.02 133.437 223.941 133.419 223.868 133.386C223.795 133.353 223.729 133.306 223.674 133.247C223.62 133.189 223.577 133.12 223.549 133.045C223.52 132.97 223.507 132.89 223.51 132.81L223.58 130.14C223.58 129.978 223.644 129.823 223.759 129.709C223.873 129.594 224.028 129.53 224.19 129.53C224.352 129.53 224.507 129.594 224.621 129.709C224.736 129.823 224.8 129.978 224.8 130.14L224.73 132.82C224.731 132.903 224.716 132.985 224.685 133.061C224.653 133.138 224.607 133.207 224.548 133.265C224.489 133.323 224.419 133.369 224.342 133.399C224.265 133.429 224.183 133.443 224.1 133.44V133.44Z" fill="#2755A3"/>
<path d="M243.13 136.61C243.05 136.609 242.972 136.592 242.899 136.56C242.826 136.528 242.76 136.481 242.705 136.424C242.65 136.366 242.607 136.298 242.579 136.223C242.551 136.149 242.537 136.07 242.54 135.99L242.61 133.31C242.618 133.151 242.686 133.001 242.802 132.891C242.917 132.781 243.071 132.72 243.23 132.72C243.31 132.723 243.389 132.741 243.462 132.774C243.535 132.807 243.601 132.854 243.656 132.913C243.71 132.971 243.753 133.04 243.781 133.115C243.81 133.19 243.823 133.27 243.82 133.35L243.75 136.02C243.745 136.18 243.677 136.332 243.561 136.442C243.445 136.552 243.29 136.613 243.13 136.61Z" fill="#2755A3"/>
<path d="M216.38 139.38C216.262 139.381 216.147 139.346 216.05 139.28C215.915 139.192 215.821 139.054 215.787 138.897C215.753 138.74 215.783 138.575 215.87 138.44L217.45 136.02C217.494 135.953 217.552 135.895 217.618 135.85C217.685 135.805 217.76 135.774 217.839 135.758C217.919 135.742 218 135.742 218.079 135.758C218.158 135.774 218.233 135.805 218.3 135.85C218.367 135.893 218.424 135.95 218.469 136.016C218.514 136.082 218.546 136.156 218.561 136.234C218.577 136.313 218.577 136.393 218.562 136.471C218.546 136.55 218.515 136.624 218.47 136.69L216.89 139.11C216.835 139.195 216.759 139.264 216.67 139.312C216.581 139.359 216.481 139.382 216.38 139.38V139.38Z" fill="#2755A3"/>
<path d="M207.51 126.28C207.394 126.281 207.28 126.25 207.18 126.19C207.045 126.1 206.95 125.961 206.916 125.802C206.882 125.643 206.913 125.477 207 125.34L208.58 122.93C208.623 122.862 208.678 122.804 208.744 122.758C208.81 122.712 208.884 122.68 208.962 122.663C209.04 122.646 209.121 122.645 209.2 122.66C209.278 122.675 209.353 122.706 209.42 122.75C209.555 122.838 209.649 122.976 209.683 123.133C209.717 123.29 209.687 123.455 209.6 123.59L208 126C207.948 126.083 207.875 126.152 207.79 126.201C207.704 126.25 207.608 126.277 207.51 126.28V126.28Z" fill="#2755A3"/>
<path d="M215.45 124C215.33 123.996 215.213 123.962 215.11 123.9C215.043 123.856 214.985 123.798 214.94 123.731C214.895 123.665 214.864 123.589 214.848 123.51C214.832 123.431 214.832 123.35 214.848 123.271C214.864 123.192 214.895 123.117 214.94 123.05L216.52 120.64C216.555 120.557 216.607 120.483 216.673 120.422C216.74 120.362 216.819 120.317 216.905 120.291C216.991 120.264 217.082 120.258 217.17 120.27C217.259 120.283 217.344 120.315 217.419 120.365C217.494 120.414 217.557 120.48 217.604 120.557C217.651 120.633 217.68 120.719 217.69 120.809C217.699 120.898 217.689 120.988 217.66 121.073C217.631 121.158 217.583 121.236 217.52 121.3L216 123.68C215.946 123.778 215.866 123.86 215.769 123.916C215.672 123.972 215.562 124.001 215.45 124V124Z" fill="#2755A3"/>
<path d="M240.52 155H240.41C240.331 154.986 240.257 154.956 240.19 154.912C240.123 154.868 240.065 154.812 240.021 154.746C239.976 154.68 239.945 154.605 239.929 154.527C239.914 154.449 239.914 154.368 239.93 154.29L240.55 150.94C240.581 150.782 240.673 150.643 240.806 150.551C240.938 150.46 241.101 150.423 241.26 150.45C241.419 150.479 241.56 150.57 241.652 150.704C241.744 150.837 241.779 151.001 241.75 151.16L241.12 154.51C241.094 154.649 241.019 154.775 240.91 154.865C240.8 154.954 240.662 155.002 240.52 155V155Z" fill="#2755A3"/>
<path d="M233 158.65L229.37 158.6C229.21 158.595 229.058 158.527 228.948 158.411C228.838 158.295 228.777 158.14 228.78 157.98C228.78 157.821 228.843 157.668 228.956 157.556C229.068 157.443 229.221 157.38 229.38 157.38V157.38L233.01 157.43C233.172 157.43 233.327 157.494 233.441 157.609C233.556 157.723 233.62 157.878 233.62 158.04C233.62 158.202 233.556 158.357 233.441 158.471C233.327 158.586 233.172 158.65 233.01 158.65H233Z" fill="#2755A3"/>
<path d="M222.72 184.05H222.61C222.531 184.036 222.456 184.006 222.389 183.962C222.321 183.919 222.263 183.862 222.218 183.796C222.172 183.731 222.14 183.656 222.124 183.578C222.107 183.5 222.106 183.419 222.12 183.34L222.75 179.99C222.764 179.911 222.794 179.836 222.838 179.769C222.881 179.701 222.938 179.643 223.004 179.598C223.069 179.552 223.144 179.52 223.222 179.504C223.3 179.487 223.381 179.486 223.46 179.5C223.539 179.514 223.613 179.544 223.68 179.588C223.747 179.632 223.804 179.688 223.849 179.754C223.894 179.82 223.925 179.895 223.94 179.973C223.956 180.051 223.956 180.132 223.94 180.21L223.32 183.56C223.292 183.699 223.217 183.823 223.108 183.912C222.998 184.002 222.861 184.05 222.72 184.05V184.05Z" fill="#2755A3"/>
<path d="M257.89 180.24L254.26 180.18C254.098 180.18 253.943 180.116 253.829 180.001C253.714 179.887 253.65 179.732 253.65 179.57C253.65 179.408 253.714 179.253 253.829 179.139C253.943 179.024 254.098 178.96 254.26 178.96L257.88 179.02C258.042 179.02 258.197 179.084 258.311 179.199C258.426 179.313 258.49 179.468 258.49 179.63C258.49 179.792 258.426 179.947 258.311 180.061C258.197 180.176 258.042 180.24 257.88 180.24H257.89Z" fill="#2755A3"/>
<path d="M245.61 176.05H245.49C245.412 176.036 245.337 176.006 245.27 175.962C245.203 175.918 245.146 175.862 245.101 175.796C245.056 175.73 245.025 175.655 245.009 175.577C244.994 175.499 244.994 175.418 245.01 175.34L245.63 171.99C245.644 171.911 245.674 171.836 245.718 171.769C245.761 171.701 245.818 171.643 245.884 171.598C245.949 171.552 246.024 171.52 246.102 171.504C246.18 171.487 246.261 171.486 246.34 171.5C246.419 171.514 246.494 171.544 246.561 171.588C246.629 171.631 246.687 171.688 246.732 171.754C246.778 171.819 246.81 171.894 246.826 171.972C246.843 172.05 246.844 172.131 246.83 172.21L246.2 175.56C246.173 175.697 246.099 175.82 245.992 175.909C245.884 175.998 245.75 176.048 245.61 176.05Z" fill="#2755A3"/>
<path d="M233.89 179.9L230.27 179.85C230.108 179.85 229.953 179.786 229.839 179.671C229.724 179.557 229.66 179.402 229.66 179.24C229.66 179.078 229.724 178.923 229.839 178.809C229.953 178.694 230.108 178.63 230.27 178.63L233.89 178.68C233.97 178.681 234.049 178.698 234.123 178.73C234.196 178.762 234.263 178.808 234.318 178.866C234.374 178.923 234.418 178.991 234.447 179.066C234.477 179.14 234.491 179.22 234.49 179.3C234.49 179.459 234.427 179.612 234.314 179.724C234.202 179.837 234.049 179.9 233.89 179.9V179.9Z" fill="#2755A3"/>
<path d="M246.89 163.62H246.78L243.62 163.02C243.463 162.989 243.324 162.896 243.234 162.763C243.144 162.631 243.111 162.468 243.14 162.31C243.154 162.231 243.184 162.157 243.228 162.09C243.272 162.023 243.328 161.966 243.394 161.921C243.46 161.876 243.535 161.845 243.613 161.83C243.691 161.814 243.772 161.814 243.85 161.83L247 162.43C247.159 162.445 247.306 162.522 247.408 162.645C247.51 162.767 247.56 162.926 247.545 163.085C247.53 163.244 247.453 163.391 247.33 163.493C247.208 163.595 247.049 163.645 246.89 163.63V163.62Z" fill="#2755A3"/>
<path d="M245.22 185.37H245.1L241.95 184.77C241.871 184.756 241.797 184.726 241.73 184.682C241.663 184.639 241.606 184.582 241.561 184.516C241.516 184.45 241.485 184.375 241.469 184.297C241.454 184.219 241.454 184.138 241.47 184.06C241.501 183.903 241.594 183.764 241.726 183.674C241.859 183.585 242.022 183.551 242.18 183.58L245.33 184.18C245.408 184.194 245.483 184.224 245.55 184.268C245.617 184.312 245.674 184.368 245.719 184.434C245.764 184.5 245.795 184.575 245.81 184.653C245.826 184.731 245.826 184.812 245.81 184.89C245.781 185.025 245.706 185.146 245.599 185.233C245.492 185.32 245.358 185.369 245.22 185.37Z" fill="#2755A3"/>
<path d="M238.56 172.05C238.439 172.05 238.321 172.014 238.221 171.947C238.121 171.879 238.044 171.782 238 171.67L236.76 168.67C236.729 168.597 236.713 168.518 236.713 168.438C236.713 168.358 236.729 168.279 236.759 168.206C236.79 168.132 236.835 168.066 236.892 168.01C236.949 167.954 237.016 167.91 237.09 167.88C237.164 167.849 237.244 167.833 237.324 167.833C237.405 167.832 237.484 167.848 237.559 167.879C237.633 167.909 237.701 167.954 237.757 168.011C237.814 168.068 237.859 168.136 237.89 168.21L239.12 171.21C239.151 171.283 239.168 171.361 239.168 171.44C239.169 171.52 239.154 171.598 239.125 171.672C239.095 171.745 239.051 171.812 238.995 171.868C238.939 171.925 238.873 171.969 238.8 172C238.725 172.036 238.643 172.053 238.56 172.05V172.05Z" fill="#2755A3"/>
<path d="M261.21 153.15H261.1L257.95 152.55C257.791 152.521 257.65 152.43 257.558 152.297C257.466 152.163 257.431 151.999 257.46 151.84C257.489 151.681 257.58 151.54 257.713 151.448C257.847 151.356 258.011 151.321 258.17 151.35L261.33 151.95C261.487 151.986 261.624 152.081 261.713 152.215C261.802 152.348 261.837 152.511 261.81 152.67C261.78 152.807 261.704 152.929 261.595 153.016C261.486 153.104 261.35 153.151 261.21 153.15Z" fill="#2755A3"/>
<path d="M251.34 149.41C251.221 149.41 251.104 149.375 251.005 149.309C250.905 149.243 250.827 149.15 250.78 149.04L249.54 146.04C249.48 145.89 249.481 145.722 249.542 145.573C249.604 145.423 249.722 145.304 249.87 145.24C249.944 145.209 250.024 145.193 250.104 145.193C250.185 145.192 250.264 145.208 250.339 145.239C250.413 145.269 250.481 145.314 250.537 145.371C250.594 145.428 250.639 145.496 250.67 145.57L251.91 148.57C251.97 148.72 251.969 148.888 251.908 149.037C251.846 149.187 251.728 149.306 251.58 149.37C251.503 149.398 251.422 149.411 251.34 149.41V149.41Z" fill="#2755A3"/>
<path d="M289.16 121.65C289.082 121.651 289.005 121.637 288.933 121.608C288.861 121.579 288.795 121.535 288.74 121.48C288.681 121.425 288.634 121.358 288.602 121.284C288.57 121.21 288.554 121.131 288.554 121.05C288.554 120.969 288.57 120.89 288.602 120.816C288.634 120.742 288.681 120.675 288.74 120.62L291.28 117.95C291.333 117.885 291.399 117.832 291.474 117.794C291.549 117.755 291.631 117.733 291.715 117.728C291.798 117.723 291.882 117.735 291.961 117.764C292.04 117.793 292.112 117.838 292.173 117.896C292.234 117.954 292.282 118.023 292.314 118.101C292.347 118.178 292.363 118.262 292.362 118.346C292.36 118.43 292.342 118.512 292.307 118.589C292.272 118.665 292.222 118.734 292.16 118.79L289.62 121.46C289.562 121.523 289.49 121.573 289.411 121.606C289.332 121.639 289.246 121.654 289.16 121.65V121.65Z" fill="#2755A3"/>
<path d="M279.49 129.58C279.33 129.58 279.177 129.519 279.06 129.41L276.62 127C276.519 126.884 276.465 126.735 276.469 126.582C276.473 126.428 276.535 126.282 276.643 126.172C276.75 126.062 276.895 125.997 277.048 125.989C277.201 125.981 277.352 126.032 277.47 126.13L279.91 128.5C279.967 128.556 280.013 128.623 280.044 128.697C280.075 128.77 280.092 128.85 280.092 128.93C280.092 129.01 280.075 129.09 280.044 129.163C280.013 129.237 279.967 129.304 279.91 129.36C279.859 129.424 279.795 129.476 279.723 129.514C279.651 129.552 279.571 129.574 279.49 129.58V129.58Z" fill="#2755A3"/>
<path d="M285.41 130.78C285.254 130.777 285.104 130.717 284.99 130.61C284.932 130.554 284.887 130.487 284.856 130.413C284.824 130.34 284.808 130.26 284.808 130.18C284.808 130.1 284.824 130.02 284.856 129.947C284.887 129.873 284.932 129.806 284.99 129.75L287.24 127.46C287.295 127.401 287.362 127.354 287.436 127.322C287.51 127.29 287.589 127.274 287.67 127.274C287.75 127.274 287.83 127.29 287.904 127.322C287.978 127.354 288.045 127.401 288.1 127.46C288.213 127.574 288.277 127.729 288.277 127.89C288.277 128.051 288.213 128.206 288.1 128.32L285.85 130.61C285.731 130.722 285.573 130.784 285.41 130.78Z" fill="#2755A3"/>
<path d="M287.2 113.65C287.044 113.647 286.894 113.587 286.78 113.48C286.666 113.364 286.602 113.208 286.602 113.045C286.602 112.882 286.666 112.726 286.78 112.61L289.03 110.32C289.146 110.219 289.295 110.165 289.449 110.169C289.602 110.173 289.748 110.235 289.858 110.343C289.968 110.45 290.033 110.595 290.041 110.748C290.049 110.901 289.998 111.052 289.9 111.17L287.65 113.47C287.591 113.529 287.521 113.575 287.443 113.606C287.366 113.637 287.283 113.652 287.2 113.65V113.65Z" fill="#2755A3"/>
<path d="M280.87 117.5H280.75L277.59 116.88C277.511 116.865 277.436 116.834 277.369 116.789C277.302 116.744 277.245 116.687 277.2 116.62C277.156 116.553 277.125 116.478 277.109 116.399C277.094 116.32 277.094 116.239 277.11 116.16C277.124 116.082 277.154 116.007 277.198 115.94C277.242 115.873 277.298 115.816 277.364 115.771C277.43 115.726 277.505 115.695 277.583 115.68C277.661 115.664 277.742 115.664 277.82 115.68L280.99 116.31C281.131 116.346 281.255 116.432 281.338 116.551C281.422 116.671 281.46 116.816 281.445 116.962C281.431 117.107 281.365 117.242 281.259 117.342C281.154 117.443 281.016 117.502 280.87 117.51V117.5Z" fill="#2755A3"/>
<path d="M267.45 138.22C267.299 138.219 267.153 138.162 267.041 138.061C266.928 137.959 266.857 137.82 266.84 137.67C266.826 137.51 266.876 137.35 266.979 137.227C267.082 137.103 267.23 137.025 267.39 137.01L271.06 136.67C271.212 136.67 271.359 136.727 271.471 136.83C271.584 136.932 271.654 137.073 271.667 137.225C271.681 137.376 271.638 137.528 271.546 137.649C271.454 137.77 271.32 137.853 271.17 137.88L267.51 138.22H267.45Z" fill="#2755A3"/>
<path d="M251.84 135.38C251.687 135.378 251.54 135.32 251.428 135.217C251.315 135.113 251.245 134.972 251.23 134.82L250.96 131.42C250.953 131.34 250.962 131.259 250.987 131.183C251.011 131.106 251.051 131.035 251.103 130.973C251.155 130.912 251.218 130.862 251.29 130.825C251.362 130.788 251.44 130.766 251.52 130.76C251.68 130.752 251.836 130.805 251.957 130.909C252.079 131.014 252.155 131.161 252.17 131.32L252.45 134.72C252.461 134.88 252.408 135.038 252.304 135.16C252.199 135.282 252.05 135.357 251.89 135.37L251.84 135.38Z" fill="#2755A3"/>
<path d="M257.06 142.32C256.898 142.327 256.74 142.269 256.621 142.159C256.502 142.049 256.432 141.897 256.425 141.735C256.418 141.573 256.476 141.415 256.586 141.296C256.696 141.177 256.848 141.107 257.01 141.1L260.21 140.86C260.294 140.845 260.38 140.847 260.463 140.867C260.545 140.887 260.623 140.924 260.691 140.976C260.758 141.028 260.814 141.093 260.855 141.168C260.896 141.243 260.92 141.325 260.927 141.41C260.934 141.495 260.924 141.58 260.896 141.661C260.868 141.741 260.823 141.815 260.765 141.877C260.707 141.939 260.636 141.988 260.558 142.022C260.48 142.055 260.395 142.071 260.31 142.07L257.11 142.32H257.06Z" fill="#2755A3"/>
<path d="M268.13 128.46C267.968 128.46 267.813 128.396 267.699 128.281C267.584 128.167 267.52 128.012 267.52 127.85C267.52 127.688 267.584 127.533 267.699 127.419C267.813 127.304 267.968 127.24 268.13 127.24L271.32 126.99C271.4 126.982 271.482 126.99 271.559 127.014C271.636 127.038 271.708 127.077 271.769 127.129C271.831 127.182 271.881 127.246 271.918 127.318C271.954 127.39 271.975 127.469 271.98 127.55C271.991 127.711 271.939 127.871 271.834 127.994C271.73 128.117 271.581 128.195 271.42 128.21L268.22 128.46H268.13Z" fill="#2755A3"/>
<path d="M260.83 127.19C260.738 127.19 260.647 127.169 260.564 127.129C260.481 127.089 260.408 127.032 260.35 126.96L258.35 124.4C258.253 124.272 258.21 124.112 258.231 123.952C258.251 123.793 258.334 123.649 258.46 123.55C258.523 123.501 258.595 123.464 258.672 123.443C258.748 123.422 258.829 123.416 258.908 123.426C258.987 123.437 259.064 123.463 259.133 123.503C259.202 123.543 259.262 123.596 259.31 123.66L261.31 126.21C261.359 126.273 261.396 126.345 261.417 126.422C261.438 126.499 261.444 126.579 261.434 126.658C261.423 126.737 261.397 126.814 261.357 126.883C261.317 126.952 261.264 127.012 261.2 127.06C261.095 127.145 260.965 127.191 260.83 127.19V127.19Z" fill="#2755A3"/>
<path d="M287.68 91.81H287.61L285 91.52C284.848 91.4928 284.712 91.4089 284.62 91.2854C284.527 91.1619 284.485 91.0079 284.501 90.8545C284.518 90.701 284.592 90.5595 284.709 90.4585C284.825 90.3575 284.976 90.3044 285.13 90.31L287.79 90.6C287.937 90.625 288.07 90.703 288.164 90.8195C288.257 90.9359 288.305 91.0825 288.297 91.2317C288.29 91.3808 288.228 91.5221 288.124 91.6287C288.019 91.7353 287.879 91.7998 287.73 91.81H287.68Z" fill="#2755A3"/>
<path d="M284.77 97.2H281.37C281.208 97.2 281.053 97.1358 280.939 97.0214C280.824 96.907 280.76 96.7518 280.76 96.59C280.76 96.4283 280.824 96.2731 280.939 96.1587C281.053 96.0443 281.208 95.98 281.37 95.98H284.78C284.942 95.98 285.097 96.0443 285.211 96.1587C285.326 96.2731 285.39 96.4283 285.39 96.59C285.39 96.7518 285.326 96.907 285.211 97.0214C285.097 97.1358 284.942 97.2 284.78 97.2H284.77Z" fill="#2755A3"/>
<path d="M293 106C292.84 105.997 292.687 105.932 292.575 105.818C292.463 105.704 292.4 105.55 292.4 105.39V102.18C292.4 102.018 292.464 101.863 292.579 101.749C292.693 101.634 292.848 101.57 293.01 101.57C293.172 101.57 293.327 101.634 293.441 101.749C293.556 101.863 293.62 102.018 293.62 102.18V105.39C293.621 105.471 293.606 105.552 293.575 105.627C293.545 105.703 293.499 105.771 293.441 105.828C293.383 105.885 293.314 105.93 293.238 105.959C293.162 105.989 293.081 106.003 293 106V106Z" fill="#2755A3"/>
<path d="M280.62 84.74C280.458 84.74 280.303 84.6757 280.189 84.5613C280.074 84.4469 280.01 84.2918 280.01 84.13V80.92C280.006 80.8392 280.018 80.7583 280.048 80.6828C280.077 80.6073 280.122 80.5389 280.179 80.4822C280.237 80.4254 280.306 80.3816 280.382 80.3536C280.458 80.3257 280.539 80.3142 280.62 80.32C280.7 80.32 280.779 80.3358 280.853 80.3664C280.927 80.3971 280.995 80.442 281.051 80.4987C281.108 80.5553 281.153 80.6226 281.184 80.6966C281.214 80.7706 281.23 80.8499 281.23 80.93V84.14C281.23 84.2197 281.214 84.2985 281.183 84.372C281.153 84.4454 281.108 84.512 281.051 84.5679C280.994 84.6237 280.927 84.6677 280.853 84.6972C280.779 84.7268 280.7 84.7413 280.62 84.74V84.74Z" fill="#2755A3"/>
<path d="M280.82 109.67C280.688 109.673 280.559 109.633 280.453 109.555C280.346 109.478 280.268 109.367 280.231 109.241C280.193 109.115 280.198 108.98 280.245 108.857C280.292 108.734 280.378 108.629 280.49 108.56L283.2 106.8C283.266 106.755 283.34 106.724 283.419 106.708C283.497 106.693 283.577 106.693 283.656 106.709C283.734 106.724 283.808 106.756 283.874 106.801C283.94 106.845 283.997 106.903 284.04 106.97C284.127 107.107 284.157 107.273 284.124 107.432C284.09 107.591 283.995 107.73 283.86 107.82L281.16 109.58C281.056 109.639 280.939 109.67 280.82 109.67V109.67Z" fill="#2755A3"/>
<path d="M195.88 105.17C195.718 105.17 195.563 105.106 195.449 104.991C195.334 104.877 195.27 104.722 195.27 104.56C195.27 104.398 195.334 104.243 195.449 104.129C195.563 104.014 195.718 103.95 195.88 103.95L199.56 103.74C199.641 103.73 199.722 103.737 199.8 103.762C199.877 103.786 199.949 103.826 200.009 103.88C200.07 103.934 200.118 104 200.151 104.074C200.184 104.149 200.201 104.229 200.2 104.31C200.205 104.39 200.195 104.47 200.169 104.545C200.143 104.621 200.103 104.69 200.049 104.75C199.996 104.809 199.932 104.858 199.86 104.892C199.788 104.927 199.71 104.946 199.63 104.95L195.95 105.17H195.88Z" fill="#2755A3"/>
<path d="M205.37 116.21C205.213 116.21 205.062 116.15 204.949 116.042C204.835 115.934 204.768 115.787 204.76 115.63L204.61 112.23C204.602 112.07 204.657 111.913 204.764 111.793C204.87 111.673 205.02 111.6 205.18 111.59C205.261 111.583 205.342 111.593 205.419 111.619C205.496 111.645 205.566 111.686 205.626 111.741C205.686 111.795 205.734 111.861 205.768 111.935C205.801 112.009 205.819 112.089 205.82 112.17L205.98 115.57C205.984 115.65 205.972 115.73 205.945 115.806C205.918 115.881 205.877 115.951 205.823 116.01C205.769 116.07 205.704 116.118 205.631 116.152C205.559 116.187 205.48 116.206 205.4 116.21H205.37Z" fill="#2755A3"/>
<path d="M197.2 97.59C197.053 97.5917 196.91 97.5382 196.8 97.44C196.678 97.3339 196.603 97.1837 196.592 97.0224C196.581 96.8612 196.634 96.702 196.74 96.58L198.86 94.17C198.909 94.0991 198.972 94.0394 199.046 93.9948C199.12 93.9502 199.202 93.9216 199.287 93.9111C199.373 93.9005 199.46 93.9082 199.542 93.9336C199.624 93.959 199.7 94.0015 199.765 94.0584C199.829 94.1152 199.881 94.1851 199.917 94.2635C199.953 94.3419 199.972 94.4269 199.972 94.513C199.973 94.5991 199.955 94.6844 199.92 94.7631C199.885 94.8419 199.834 94.9124 199.77 94.97L197.65 97.38C197.595 97.4461 197.526 97.4993 197.449 97.5356C197.371 97.5719 197.286 97.5905 197.2 97.59V97.59Z" fill="#2755A3"/>
<path d="M208.26 106.4C208.163 106.401 208.067 106.378 207.982 106.332C207.896 106.287 207.823 106.221 207.77 106.14L205.88 103.52C205.832 103.456 205.798 103.384 205.779 103.306C205.761 103.229 205.758 103.149 205.771 103.07C205.784 102.992 205.813 102.917 205.856 102.85C205.898 102.783 205.954 102.725 206.02 102.68C206.15 102.585 206.313 102.545 206.472 102.57C206.631 102.594 206.774 102.68 206.87 102.81L208.75 105.43C208.798 105.495 208.832 105.568 208.851 105.646C208.87 105.724 208.873 105.805 208.86 105.885C208.847 105.964 208.818 106.04 208.775 106.108C208.732 106.176 208.676 106.234 208.61 106.28C208.51 106.358 208.387 106.4 208.26 106.4V106.4Z" fill="#2755A3"/>
<path d="M212.9 82.2C212.811 82.2014 212.723 82.1833 212.642 82.147C212.561 82.1108 212.488 82.0572 212.43 81.99L210.69 79.99C210.591 79.8671 210.543 79.7106 210.557 79.5533C210.571 79.396 210.645 79.2502 210.764 79.1466C210.884 79.043 211.038 78.9896 211.196 78.9977C211.354 79.0058 211.502 79.0747 211.61 79.19L213.36 81.19C213.412 81.2511 213.451 81.3218 213.476 81.398C213.5 81.4743 213.51 81.5547 213.503 81.6345C213.497 81.7144 213.474 81.7922 213.438 81.8635C213.401 81.9348 213.351 81.9982 213.29 82.05C213.183 82.1467 213.044 82.2002 212.9 82.2Z" fill="#2755A3"/>
<path d="M207.09 84.15C206.934 84.1474 206.784 84.0868 206.67 83.98L204.19 81.65C204.133 81.5941 204.087 81.5272 204.056 81.4534C204.024 81.3795 204.008 81.3002 204.008 81.22C204.008 81.1398 204.024 81.0605 204.056 80.9866C204.087 80.9128 204.133 80.8459 204.19 80.79C204.304 80.6764 204.459 80.6127 204.62 80.6127C204.781 80.6127 204.936 80.6764 205.05 80.79L207.54 83.13C207.654 83.2443 207.717 83.3989 207.717 83.56C207.717 83.7211 207.654 83.8757 207.54 83.99C207.417 84.1003 207.255 84.1578 207.09 84.15V84.15Z" fill="#2755A3"/>
<path d="M207 96.2C206.844 96.1974 206.694 96.1368 206.58 96.03C206.466 95.9157 206.403 95.7612 206.403 95.6C206.403 95.4389 206.466 95.2843 206.58 95.17L208.78 92.84C208.891 92.722 209.045 92.6531 209.207 92.6484C209.369 92.6437 209.527 92.7036 209.645 92.815C209.763 92.9264 209.832 93.0801 209.837 93.2424C209.841 93.4046 209.781 93.562 209.67 93.68L207.47 96C207.41 96.0643 207.337 96.1154 207.256 96.1498C207.175 96.1843 207.088 96.2014 207 96.2V96.2Z" fill="#2755A3"/>
<path d="M212.57 72.22C212.414 72.2174 212.264 72.1568 212.15 72.05C212.036 71.9357 211.973 71.7811 211.973 71.62C211.973 71.4589 212.036 71.3043 212.15 71.19L214.36 68.86C214.416 68.8026 214.483 68.7569 214.557 68.7257C214.63 68.6945 214.71 68.6785 214.79 68.6785C214.87 68.6785 214.95 68.6945 215.023 68.7257C215.097 68.7569 215.164 68.8026 215.22 68.86C215.334 68.9743 215.397 69.1289 215.397 69.29C215.397 69.4511 215.334 69.6057 215.22 69.72L213 72C212.89 72.1259 212.736 72.2046 212.57 72.22V72.22Z" fill="#2755A3"/>
<path d="M203.29 89.88H203.18L200 89.3C199.922 89.2867 199.847 89.258 199.779 89.2155C199.712 89.173 199.654 89.1176 199.609 89.0525C199.563 88.9874 199.531 88.9138 199.514 88.8362C199.497 88.7585 199.496 88.6782 199.51 88.6C199.539 88.4403 199.63 88.2984 199.763 88.2049C199.896 88.1115 200.06 88.0738 200.22 88.1L203.39 88.67C203.469 88.6821 203.545 88.7099 203.614 88.7519C203.682 88.7939 203.741 88.8492 203.788 88.9144C203.834 88.9797 203.868 89.0536 203.885 89.1319C203.903 89.2101 203.904 89.2911 203.89 89.37C203.865 89.5114 203.791 89.6395 203.681 89.7325C203.572 89.8255 203.434 89.8776 203.29 89.88V89.88Z" fill="#2755A3"/>
<path d="M225.63 168.35C225.509 168.351 225.391 168.316 225.29 168.25C225.189 168.184 225.109 168.09 225.06 167.98L223.83 164.98C223.799 164.906 223.783 164.826 223.782 164.746C223.782 164.665 223.798 164.586 223.829 164.511C223.859 164.437 223.904 164.369 223.961 164.313C224.018 164.256 224.086 164.211 224.16 164.18C224.309 164.12 224.475 164.121 224.623 164.183C224.77 164.245 224.888 164.362 224.95 164.51L226.19 167.51C226.221 167.584 226.237 167.664 226.238 167.744C226.238 167.825 226.222 167.904 226.191 167.979C226.161 168.053 226.116 168.121 226.059 168.177C226.002 168.234 225.934 168.279 225.86 168.31C225.786 168.337 225.708 168.35 225.63 168.35Z" fill="#2755A3"/>
<path d="M140.48 198.94C140.394 198.951 140.307 198.944 140.224 198.918C140.141 198.893 140.064 198.85 139.999 198.793C139.934 198.736 139.882 198.665 139.846 198.586C139.81 198.507 139.792 198.422 139.792 198.335C139.792 198.248 139.81 198.163 139.846 198.084C139.882 198.005 139.934 197.934 139.999 197.877C140.064 197.82 140.141 197.777 140.224 197.752C140.307 197.726 140.394 197.719 140.48 197.73C140.54 197.73 146.84 197.73 150.81 194.6C154.78 191.47 156.87 186.08 156.89 186.02C156.953 185.877 157.068 185.763 157.212 185.702C157.356 185.641 157.518 185.638 157.664 185.693C157.811 185.749 157.93 185.858 157.998 185.999C158.066 186.14 158.078 186.301 158.03 186.45C157.94 186.69 155.83 192.23 151.55 195.56C147.27 198.89 140.75 198.94 140.48 198.94Z" fill="white"/>
<path d="M98.63 148.65C98.5476 149.541 98.2875 150.406 97.8649 151.194C97.4424 151.983 96.8661 152.678 96.17 153.24C94.874 154.463 93.2586 155.295 91.51 155.64C89.4354 153.557 87.6525 151.202 86.21 148.64C83.81 144.4 83.75 141.21 83.92 140.49C84.44 138.4 85.5 138.94 85.5 138.94C85.5 138.94 86.19 137.56 87.31 137.58C88.12 137.58 88.45 138.78 88.45 138.78C88.6192 138.57 88.8497 138.417 89.1095 138.344C89.3694 138.27 89.6457 138.279 89.9 138.37C90.69 138.76 90.63 142.01 91.43 143.37C91.8888 144.163 92.414 144.916 93 145.62C93 145.62 93.07 143.2 94.08 143.42C95.09 143.64 95.3 145.34 96.38 146.57C97.0589 147.337 97.8127 148.033 98.63 148.65V148.65Z" fill="#EF6744"/>
<path d="M216.83 300.35C203.17 296.47 201.2 309.52 180.83 310.05C181.36 306.96 181.9 303.69 182.31 300.84C183.43 293.05 183.92 287.84 183.92 287.84C183.92 287.84 184.41 280.12 180.76 279.45C177.61 278.87 174.53 282.02 178.23 288.61C179.23 290.41 174.47 304.41 172.62 309.67C169.45 309.23 169.89 306.11 167.22 302.67C164.55 299.23 160.63 297.91 160.1 298.33C159.57 298.75 160.1 302.71 160.1 302.71C159.426 302.997 158.782 303.353 158.18 303.77C157.56 304.27 156.67 305.03 156.67 305.03C156.67 305.03 153.36 303.13 152.78 303.59C152.39 303.9 152.65 304.72 152.89 306.22C153.247 308.057 153.835 309.841 154.64 311.53C162.83 326.19 180.11 328.29 180.11 328.29C180.11 328.29 197.41 327.19 208.95 325.97C211.241 325.789 213.462 325.101 215.455 323.956C217.447 322.811 219.16 321.238 220.47 319.35C220.735 321.545 220.527 323.772 219.86 325.88C218 332.33 212.81 334.2 208.39 335.61C203.79 337.08 195.63 337.99 196.34 340.81C196.88 342.98 216.24 343.81 224.02 330.36C230.77 318.64 229.57 304 216.83 300.35Z" fill="#EF6744"/>
<path d="M162 321C162 321 154.63 323.77 156.51 326.73C157.75 328.67 160.38 329.31 169.22 329.31C178.06 329.31 178.92 329.18 178.92 329.18C178.92 329.18 179.92 331.93 181.87 332.13C184.79 332.43 187.92 330.37 186.87 327.37C185.67 323.93 181.73 323.04 176.95 322.92C172.17 322.8 162 321 162 321Z" fill="#EF6744"/>
<path d="M182.38 332.78C182.17 332.78 181.96 332.78 181.76 332.78C179.94 332.59 178.87 330.72 178.48 329.86C177.62 329.86 175.31 329.95 169.17 329.95C160.17 329.95 157.37 329.34 155.95 327.09C155.746 326.785 155.615 326.436 155.569 326.072C155.522 325.707 155.56 325.337 155.68 324.99C156.51 322.5 161.2 320.67 161.68 320.48L161.84 320.42H162C162.1 320.42 172.18 322.2 176.87 322.32C181 322.43 185.93 323.08 187.35 327.18C187.58 327.784 187.649 328.437 187.549 329.076C187.449 329.714 187.184 330.316 186.78 330.82C186.231 331.444 185.554 331.943 184.794 332.281C184.035 332.619 183.211 332.79 182.38 332.78ZM179.27 328.54L179.44 328.99C179.68 329.65 180.59 331.4 181.88 331.54C182.616 331.63 183.364 331.543 184.06 331.286C184.756 331.028 185.38 330.608 185.88 330.06C186.155 329.716 186.333 329.305 186.398 328.87C186.463 328.434 186.412 327.989 186.25 327.58C185.33 324.93 182.44 323.68 176.89 323.58C171.9 323.208 166.933 322.574 162.01 321.68C160.61 322.23 157.36 323.8 156.83 325.39C156.769 325.565 156.75 325.753 156.774 325.937C156.799 326.121 156.866 326.297 156.97 326.45C157.97 328.01 160.04 328.75 169.17 328.75C177.65 328.75 178.75 328.63 178.8 328.63L179.27 328.54Z" fill="white"/>
<path d="M160.25 307.52C160.21 307.513 160.169 307.514 160.129 307.524C160.089 307.533 160.052 307.55 160.019 307.575C159.986 307.599 159.959 307.63 159.938 307.665C159.918 307.7 159.905 307.74 159.9 307.78C159.884 307.977 159.825 308.168 159.729 308.341C159.632 308.513 159.5 308.663 159.34 308.78C158.959 308.96 158.524 308.992 158.12 308.87C158.048 308.86 157.975 308.875 157.913 308.914C157.851 308.952 157.805 309.011 157.782 309.081C157.76 309.15 157.762 309.225 157.789 309.292C157.816 309.36 157.866 309.416 157.93 309.45C158.167 309.519 158.413 309.553 158.66 309.55C159.01 309.563 159.357 309.476 159.66 309.3C159.897 309.136 160.096 308.922 160.243 308.673C160.389 308.425 160.481 308.147 160.51 307.86C160.519 307.781 160.497 307.701 160.448 307.638C160.4 307.575 160.329 307.532 160.25 307.52V307.52Z" fill="black"/>
<path d="M164.73 306C164.963 305.828 165.157 305.608 165.297 305.354C165.437 305.1 165.52 304.819 165.54 304.53C165.538 304.455 165.509 304.384 165.459 304.329C165.408 304.273 165.34 304.238 165.265 304.23C165.191 304.221 165.116 304.24 165.055 304.282C164.993 304.324 164.949 304.388 164.93 304.46C164.919 304.655 164.865 304.845 164.774 305.018C164.683 305.19 164.555 305.341 164.4 305.46C164.027 305.654 163.595 305.7 163.19 305.59C163.153 305.578 163.113 305.573 163.074 305.577C163.035 305.58 162.997 305.592 162.962 305.611C162.927 305.629 162.897 305.655 162.873 305.686C162.848 305.717 162.83 305.752 162.82 305.79C162.808 305.828 162.803 305.868 162.807 305.908C162.81 305.948 162.821 305.987 162.84 306.022C162.859 306.058 162.884 306.089 162.915 306.114C162.946 306.14 162.982 306.159 163.02 306.17C163.234 306.232 163.457 306.263 163.68 306.26C164.048 306.279 164.413 306.189 164.73 306V306Z" fill="black"/>
<path d="M167.11 309C167.046 308.951 166.965 308.928 166.885 308.938C166.804 308.947 166.731 308.987 166.68 309.05C166.572 309.2 166.433 309.326 166.272 309.419C166.112 309.512 165.934 309.57 165.75 309.59C165.612 309.578 165.478 309.534 165.36 309.461C165.242 309.388 165.143 309.288 165.07 309.17C165.07 309.17 165.01 309.17 164.98 309.11V307.84C164.981 307.781 164.966 307.722 164.936 307.671C164.906 307.62 164.862 307.578 164.81 307.55C164.756 307.526 164.696 307.518 164.638 307.527C164.579 307.536 164.524 307.561 164.48 307.6L163.26 308.6C163.216 308.633 163.183 308.678 163.165 308.729C163.147 308.781 163.145 308.837 163.16 308.89C163.169 308.944 163.194 308.995 163.231 309.036C163.269 309.076 163.317 309.106 163.37 309.12L164.44 309.45C164.557 309.868 164.525 310.313 164.35 310.71C164.29 310.78 164.214 310.835 164.129 310.871C164.044 310.908 163.952 310.924 163.86 310.92C163.78 310.925 163.705 310.96 163.65 311.017C163.594 311.074 163.562 311.15 163.56 311.23C163.563 311.311 163.596 311.387 163.654 311.443C163.712 311.499 163.789 311.53 163.87 311.53V311.53C164.061 311.539 164.252 311.501 164.426 311.421C164.6 311.341 164.752 311.221 164.87 311.07C165.078 310.754 165.176 310.378 165.15 310C165.334 310.102 165.54 310.157 165.75 310.16V310.16C166.023 310.13 166.287 310.047 166.527 309.915C166.767 309.783 166.979 309.604 167.15 309.39C167.189 309.33 167.207 309.259 167.199 309.188C167.192 309.117 167.161 309.05 167.11 309V309Z" fill="black"/>
<path d="M209.16 304.54C206.99 305.236 205.16 306.72 204.029 308.698C202.898 310.677 202.549 313.007 203.05 315.23C203.675 318.722 205.202 321.99 207.48 324.71C207.48 324.71 196.32 325.17 194.48 327C193.962 327.472 193.608 328.098 193.472 328.785C193.335 329.472 193.422 330.186 193.72 330.82H215.72C215.72 330.82 224.58 320.12 222.29 312.33C221.946 310.953 221.332 309.657 220.484 308.518C219.636 307.38 218.571 306.42 217.35 305.696C216.129 304.971 214.777 304.496 213.371 304.298C211.965 304.099 210.534 304.182 209.16 304.54V304.54Z" fill="#EF6744"/>
<path d="M216 331.43H193.36L193.19 331.11C192.834 330.359 192.726 329.514 192.882 328.698C193.039 327.881 193.451 327.136 194.06 326.57C195.69 324.94 203.18 324.34 206.25 324.16C204.353 321.537 203.056 318.53 202.45 315.35C201.944 312.983 202.333 310.512 203.543 308.416C204.753 306.319 206.697 304.746 209 304V304C210.451 303.62 211.963 303.532 213.449 303.74C214.935 303.947 216.364 304.447 217.656 305.211C218.947 305.974 220.075 306.986 220.973 308.187C221.871 309.388 222.523 310.756 222.89 312.21C225.25 320.21 216.58 330.81 216.21 331.21L216 331.43ZM194.12 330.21H215.42C216.64 328.66 223.69 319.3 221.7 312.5C221.372 311.201 220.791 309.98 219.991 308.906C219.19 307.832 218.186 306.927 217.035 306.241C215.884 305.556 214.61 305.104 213.284 304.912C211.959 304.719 210.608 304.79 209.31 305.12C207.293 305.788 205.594 307.18 204.543 309.027C203.493 310.874 203.164 313.045 203.62 315.12C204.237 318.493 205.711 321.651 207.9 324.29L208.82 325.29L207.48 325.35C203.26 325.52 196.11 326.25 194.9 327.46C194.529 327.802 194.261 328.24 194.127 328.726C193.993 329.213 193.997 329.726 194.14 330.21H194.12Z" fill="white"/>
<path d="M301.94 274.26H301.79C301.712 274.241 301.638 274.207 301.574 274.16C301.509 274.112 301.455 274.052 301.413 273.983C301.372 273.914 301.346 273.838 301.335 273.758C301.324 273.678 301.329 273.598 301.35 273.52C301.35 273.34 306.06 254.52 303.79 244.08L303.48 242.77C301.59 234.96 302.22 232.2 304.37 226.85L304.85 225.47C306.17 221.68 306.94 215.54 305.85 211.14C305.36 209.09 303.4 203.01 303.38 202.95C303.333 202.795 303.348 202.627 303.423 202.483C303.498 202.339 303.626 202.231 303.78 202.18C303.855 202.154 303.935 202.143 304.015 202.149C304.095 202.154 304.172 202.176 304.243 202.212C304.315 202.249 304.377 202.299 304.428 202.361C304.479 202.422 304.517 202.493 304.54 202.57C304.62 202.82 306.54 208.77 307.03 210.85C308.2 215.7 307.3 222.03 305.97 225.85L305.48 227.26C303.38 232.48 302.82 234.97 304.64 242.47L304.95 243.79C307.28 254.52 302.7 273.02 302.5 273.79C302.47 273.918 302.399 274.033 302.298 274.118C302.197 274.203 302.072 274.253 301.94 274.26Z" fill="#EF6744"/>
<path d="M329.7 165.1C328.709 159.482 326.124 154.267 322.252 150.076C318.38 145.886 313.385 142.898 307.863 141.467C302.34 140.036 296.522 140.224 291.103 142.007C285.684 143.79 280.892 147.094 277.298 151.525C273.704 155.955 271.459 161.326 270.832 166.996C270.205 172.667 271.222 178.398 273.761 183.507C276.3 188.616 280.255 192.887 285.153 195.811C290.052 198.735 295.688 200.189 301.39 200L300.47 206.5L309.39 204.94L305.77 199.53C313.496 198.113 320.348 193.697 324.831 187.247C329.314 180.797 331.065 172.836 329.7 165.1V165.1Z" fill="#F1C4D9"/>
<path d="M299.75 207.21L300.69 200.6H300.37C292.77 200.601 285.447 197.751 279.846 192.614C274.246 187.477 270.775 180.426 270.121 172.855C269.466 165.283 271.675 157.742 276.311 151.72C280.947 145.698 287.673 141.634 295.16 140.33C303.091 138.942 311.249 140.761 317.839 145.387C324.429 150.014 328.912 157.069 330.3 165V165C331.634 172.729 329.932 180.674 325.55 187.178C321.168 193.682 314.444 198.243 306.78 199.91L310.42 205.34L299.75 207.21ZM302.1 199.34L301.19 205.73L308.37 204.47L304.75 199.06L305.66 198.9C313.212 197.495 319.907 193.171 324.294 186.865C328.681 180.56 330.408 172.78 329.1 165.21V165.21C327.766 157.597 323.462 150.826 317.136 146.386C310.809 141.946 302.978 140.201 295.365 141.535C287.752 142.869 280.981 147.173 276.541 153.499C272.101 159.826 270.356 167.657 271.69 175.27C272.923 182.179 276.599 188.414 282.048 192.837C287.497 197.259 294.355 199.575 301.37 199.36L302.1 199.34Z" fill="white"/>
<path d="M328.78 235.92H328.63C328.474 235.88 328.34 235.78 328.257 235.641C328.175 235.502 328.15 235.336 328.19 235.18C328.24 234.99 332.9 216.18 330.63 205.73L330.33 204.43C328.43 196.62 329.06 193.86 331.21 188.51L331.69 187.13C333.01 183.34 333.78 177.2 332.69 172.8C332.2 170.75 330.25 164.66 330.23 164.6C330.206 164.524 330.196 164.445 330.203 164.366C330.209 164.287 330.231 164.21 330.268 164.139C330.304 164.069 330.353 164.006 330.414 163.955C330.474 163.903 330.544 163.864 330.62 163.84C330.695 163.816 330.775 163.807 330.854 163.813C330.933 163.819 331.01 163.841 331.081 163.878C331.151 163.914 331.214 163.964 331.265 164.024C331.317 164.085 331.356 164.154 331.38 164.23C331.47 164.48 333.38 170.42 333.88 172.51C335.04 177.35 334.14 183.69 332.81 187.51L332.33 188.91C330.23 194.14 329.66 196.62 331.48 204.13L331.79 205.44C334.12 216.18 329.54 234.67 329.34 235.44C329.31 235.569 329.24 235.686 329.139 235.772C329.038 235.859 328.912 235.91 328.78 235.92V235.92Z" fill="#EF6744"/>
<path d="M356.55 126.76C355.565 121.14 352.984 115.921 349.115 111.726C345.247 107.532 340.253 104.538 334.731 103.103C329.208 101.668 323.389 101.851 317.968 103.63C312.546 105.41 307.751 108.711 304.154 113.141C300.556 117.57 298.308 122.941 297.679 128.612C297.049 134.283 298.063 140.016 300.601 145.127C303.138 150.238 307.092 154.511 311.991 157.437C316.89 160.363 322.527 161.819 328.23 161.63L327.31 168.12L336.23 166.56L332.61 161.15C340.33 159.735 347.178 155.326 351.662 148.885C356.146 142.443 357.903 134.491 356.55 126.76V126.76Z" fill="#F1C4D9"/>
<path d="M326.59 168.87L327.53 162.25H327.21C321.431 162.245 315.773 160.591 310.901 157.481C306.029 154.372 302.146 149.936 299.709 144.696C297.271 139.456 296.379 133.629 297.139 127.899C297.899 122.17 300.278 116.777 303.997 112.353C307.716 107.929 312.621 104.659 318.135 102.926C323.648 101.194 329.542 101.071 335.123 102.572C340.704 104.074 345.741 107.137 349.641 111.402C353.541 115.668 356.143 120.957 357.14 126.65V126.65C358.474 134.378 356.774 142.323 352.394 148.829C348.014 155.335 341.293 159.899 333.63 161.57L337.26 167L326.59 168.87ZM328.94 160.99L328.03 167.38L335.21 166.12L331.59 160.72L332.5 160.55C340.061 159.154 346.767 154.835 351.165 148.529C355.564 142.223 357.301 134.438 356 126.86V126.86C355.04 121.352 352.517 116.237 348.73 112.123C344.944 108.01 340.055 105.072 334.645 103.66C329.236 102.248 323.534 102.421 318.221 104.159C312.907 105.897 308.205 109.127 304.676 113.463C301.146 117.798 298.938 123.058 298.315 128.614C297.691 134.17 298.679 139.787 301.159 144.798C303.639 149.808 307.508 154 312.305 156.872C317.101 159.745 322.622 161.178 328.21 161L328.94 160.99Z" fill="white"/>
<defs>
<linearGradient id="paint0_linear" x1="243.08" y1="205.41" x2="357.83" y2="205.41" gradientUnits="userSpaceOnUse">
<stop offset="0.28" stop-color="#151E27"/>
<stop offset="0.39" stop-color="#192A41"/>
<stop offset="0.58" stop-color="#1F3C6B"/>
<stop offset="0.75" stop-color="#234A8A"/>
<stop offset="0.9" stop-color="#26529C"/>
<stop offset="1" stop-color="#2755A3"/>
</linearGradient>
<linearGradient id="paint1_linear" x1="18484.4" y1="22065.4" x2="25725.4" y2="22065.4" gradientUnits="userSpaceOnUse">
<stop offset="0.28" stop-color="#151E27"/>
<stop offset="0.39" stop-color="#192A41"/>
<stop offset="0.58" stop-color="#1F3C6B"/>
<stop offset="0.75" stop-color="#234A8A"/>
<stop offset="0.9" stop-color="#26529C"/>
<stop offset="1" stop-color="#2755A3"/>
</linearGradient>
<linearGradient id="paint2_linear" x1="191.36" y1="127.66" x2="297.03" y2="127.66" gradientUnits="userSpaceOnUse">
<stop stop-color="#EF6744"/>
<stop offset="0.02" stop-color="#EF6A49"/>
<stop offset="0.2" stop-color="#F08A7C"/>
<stop offset="0.37" stop-color="#F0A3A4"/>
<stop offset="0.53" stop-color="#F1B5C1"/>
<stop offset="0.67" stop-color="#F1C0D3"/>
<stop offset="0.77" stop-color="#F1C4D9"/>
</linearGradient>
<linearGradient id="paint3_linear" x1="10411.8" y1="39898.5" x2="28174.6" y2="30448.9" gradientUnits="userSpaceOnUse">
<stop offset="0.28" stop-color="#151E27"/>
<stop offset="0.39" stop-color="#192A41"/>
<stop offset="0.58" stop-color="#1F3C6B"/>
<stop offset="0.75" stop-color="#234A8A"/>
<stop offset="0.9" stop-color="#26529C"/>
<stop offset="1" stop-color="#2755A3"/>
</linearGradient>
<linearGradient id="paint4_linear" x1="2462.16" y1="2903.69" x2="3140.13" y2="2873.03" gradientUnits="userSpaceOnUse">
<stop offset="0.28" stop-color="#151E27"/>
<stop offset="0.39" stop-color="#192A41"/>
<stop offset="0.58" stop-color="#1F3C6B"/>
<stop offset="0.75" stop-color="#234A8A"/>
<stop offset="0.9" stop-color="#26529C"/>
<stop offset="1" stop-color="#2755A3"/>
</linearGradient>
<linearGradient id="paint5_linear" x1="-27237.3" y1="-12384.7" x2="-27222.8" y2="-12406.7" gradientUnits="userSpaceOnUse">
<stop offset="0.28" stop-color="#151E27"/>
<stop offset="0.39" stop-color="#192A41"/>
<stop offset="0.58" stop-color="#1F3C6B"/>
<stop offset="0.75" stop-color="#234A8A"/>
<stop offset="0.9" stop-color="#26529C"/>
<stop offset="1" stop-color="#2755A3"/>
</linearGradient>
</defs>
</svg>
