<svg width="424" height="405" viewBox="0 0 424 405" fill="none" xmlns="http://www.w3.org/2000/svg">
<path d="M231.37 187.4C231.37 187.4 224.62 221.22 216.13 233.13C203.63 250.66 190.05 250.07 190.05 250.07C190.05 250.07 184.97 217.89 187.68 206.07C190.39 194.25 204.27 168.81 204.27 168.81L217.15 168.47L231.37 187.4Z" fill="#EF6744"/>
<path d="M212.532 105.624L199.284 103.357C198.756 103.267 198.255 103.622 198.164 104.15L193.951 128.772C193.861 129.3 194.216 129.801 194.744 129.891L207.991 132.158C208.519 132.249 209.021 131.894 209.111 131.366L213.324 106.744C213.414 106.216 213.06 105.714 212.532 105.624Z" fill="#151E27"/>
<path d="M211.052 107.62L200.032 105.734C199.591 105.659 199.172 105.955 199.097 106.396L195.784 125.755C195.709 126.196 196.005 126.614 196.446 126.69L207.466 128.575C207.907 128.651 208.326 128.355 208.401 127.914L211.714 108.555C211.789 108.114 211.493 107.696 211.052 107.62Z" fill="url(#paint0_linear)"/>
<path d="M175.58 173.44C201.13 162.24 204.82 138.65 204.82 138.65L195.99 136.27C195.99 136.27 183.74 147.36 172.21 148.12C167.21 148.45 149.21 138.65 144.21 152.68C141.41 160.56 165.66 177.79 175.58 173.44Z" fill="url(#paint1_linear)"/>
<path d="M195.69 136.56C195.69 136.56 196.69 138.31 200.12 139.02C203.55 139.73 204.77 138.95 204.77 138.95C204.77 138.95 207.2 133.73 206.89 132C206.89 131.87 199.08 130.18 199.08 130.18C199.08 130.18 197.49 127.12 196.66 127.85C195.83 128.58 196.34 130.72 196.42 132.46C196.407 133.858 196.16 135.243 195.69 136.56V136.56Z" fill="#EF6744"/>
<path d="M202.76 120.08C202.65 120.077 202.543 120.044 202.452 119.984C202.36 119.924 202.286 119.839 202.24 119.74L200.56 116.2C200.491 116.053 200.483 115.884 200.539 115.731C200.594 115.579 200.708 115.454 200.855 115.385C201.002 115.316 201.171 115.308 201.324 115.364C201.476 115.419 201.601 115.533 201.67 115.68L202.85 118.18L206.26 112.43C206.287 112.34 206.334 112.257 206.397 112.188C206.461 112.12 206.54 112.066 206.628 112.033C206.715 112 206.81 111.987 206.903 111.996C206.997 112.005 207.087 112.035 207.166 112.085C207.246 112.134 207.313 112.201 207.363 112.281C207.413 112.361 207.443 112.451 207.452 112.544C207.461 112.638 207.449 112.732 207.415 112.82C207.382 112.907 207.329 112.986 207.26 113.05L203.26 119.79C203.206 119.875 203.133 119.946 203.046 119.997C202.959 120.047 202.861 120.076 202.76 120.08V120.08Z" fill="white"/>
<path d="M234.42 181.3C237.42 178.45 240.78 167.19 240.78 167.19C243.454 168.247 246.254 168.949 249.11 169.28C258 170.09 274.03 169.28 284.88 159.94C306.12 141.67 316.74 128.43 316.74 128.43L316.9 118.23C316.9 118.23 294.42 125.07 264.28 134.16C239.28 141.71 228.46 143.64 224.05 148.43C217.89 155.12 225.43 189.97 234.42 181.3Z" fill="url(#paint2_linear)"/>
<path d="M178.87 81.85L173.15 83.35C173.15 83.35 168.94 70.54 167.94 65.43C166.94 60.32 167.94 57.07 168.36 56.43C169.59 54.48 170.49 55.43 170.49 55.43C170.49 55.43 171.65 54.26 172.78 54.65C173.6 54.93 173.53 56.25 173.53 56.25C173.606 56.1494 173.702 56.0658 173.811 56.0046C173.921 55.9434 174.043 55.906 174.168 55.8947C174.294 55.8834 174.42 55.8985 174.539 55.939C174.658 55.9795 174.768 56.0446 174.86 56.13C175.53 56.79 174.86 60.23 175.01 61.92C175.121 63.0643 175.376 64.19 175.77 65.27C175.77 65.27 180.93 62.57 181.69 67.02C181.88 68.11 177.77 66.35 178.95 70.17C181.11 77.11 178.87 81.85 178.87 81.85Z" fill="#EF6744"/>
<path d="M246.75 230.58C246.75 230.58 252.11 239.75 252.38 248.58C252.65 257.41 250.84 272.58 250.84 272.58L243.74 265.12L244.44 246.12C244.198 241.615 242.379 237.338 239.3 234.04C235.63 230.04 238.61 231.24 238.61 231.24L246.75 230.58Z" fill="#EF6744"/>
<path d="M244.44 246.16C244.44 246.16 247.98 249.62 247.21 254.23C246.44 258.84 246.04 264.43 247.14 266.34C248.111 267.933 249.389 269.316 250.9 270.41C250.769 273.44 250.866 276.475 251.19 279.49C251.435 281.301 251.585 283.123 251.64 284.95C251.672 285.162 251.635 285.379 251.534 285.569C251.433 285.758 251.273 285.91 251.079 286.002C250.885 286.094 250.667 286.121 250.456 286.079C250.246 286.038 250.054 285.929 249.91 285.77C246.903 283.388 244.692 280.148 243.57 276.48L240.57 265.41C240.57 265.41 241.79 262.41 241.16 261.41C241.082 261.291 240.981 261.188 240.862 261.109C240.744 261.03 240.61 260.976 240.47 260.95C239.62 260.72 239.19 260.36 239.03 259.71L237.12 252.57C237.095 252.173 237.149 251.775 237.28 251.399C237.41 251.023 237.614 250.676 237.88 250.38C238.62 249.356 239.546 248.481 240.61 247.8C241.775 247.023 243.074 246.467 244.44 246.16V246.16Z" fill="#151E27"/>
<path d="M162.61 236.51C162.61 236.51 174.21 256.69 193.75 248.97C218.97 238.97 213.02 210.69 208.69 195.77C205.21 183.77 206.78 178.47 206.78 178.47C206.305 184.599 207.108 190.76 209.137 196.562C211.167 202.365 214.379 207.683 218.57 212.18C232.81 227.18 239.77 236.82 241.57 240.45L243.39 244.08L252.91 247.59C253.635 228.33 250.578 209.114 243.91 191.03C232.85 161.56 222.91 149.3 216.82 147.09C210.73 144.88 185.21 161.97 173.69 179.16C152.65 210.51 162.61 236.51 162.61 236.51Z" fill="url(#paint3_linear)"/>
<path d="M184.98 251.3C170.57 251.3 162.18 236.99 162.08 236.81V236.73C161.98 236.47 152.25 210.07 173.22 178.82C184.71 161.71 210.28 144.06 217.07 146.48C220.83 147.83 231.07 154.86 244.52 190.78C251.194 208.954 254.271 228.252 253.58 247.6L253.52 248.4L243.02 244.53L241.09 240.69C239.16 236.84 232 227.17 218.17 212.56C215.385 209.611 213.029 206.285 211.17 202.68C216.63 227.09 210.88 242.82 194.04 249.49C191.164 250.67 188.088 251.284 184.98 251.3V251.3ZM163.21 236.25C165.334 239.669 168.041 242.688 171.21 245.17C178.11 250.42 185.61 251.49 193.51 248.36C211.51 241.23 216.27 224.07 208.08 195.9C204.59 183.9 206.08 178.48 206.18 178.26L207.37 178.51C207.37 178.69 205.13 197.08 218.99 211.72C232.85 226.36 240.15 236.22 242.12 240.14L243.84 243.56L252.35 246.7C252.888 227.8 249.834 208.971 243.35 191.21C229.67 154.77 219.43 148.64 216.62 147.62C211 145.62 185.62 162.41 174.2 179.5C153.97 209.63 162.72 235.03 163.21 236.25Z" fill="white"/>
<path d="M151.05 140.74L147.91 137.51L148.77 136.71C149.042 136.46 149.247 136.146 149.366 135.797C149.485 135.447 149.514 135.074 149.45 134.71C148.998 132.145 147.802 129.77 146.01 127.88C145.8 127.68 145.58 127.49 145.35 127.3C145.35 127.3 137.35 122.64 135.71 127.88C134.16 132.93 141.71 135.54 142.39 139.8C142.39 139.94 142.39 140.07 142.39 140.21L145.34 144.15C146.478 143.845 147.566 143.377 148.57 142.76C149.491 142.211 150.326 141.531 151.05 140.74V140.74Z" fill="#EF6744"/>
<path d="M142.39 139.83C141.74 135.57 134.16 132.96 135.71 127.91C137.32 122.67 145.35 127.33 145.35 127.33C145.35 127.14 144.65 117.58 135.01 114.61C127.9 112.42 122.65 115.11 118.87 121.68C115.09 128.25 111.58 127.95 106.39 127.19C101.2 126.43 95.21 118.97 84.68 121.68C72.9 124.76 54.11 140.77 58.77 163.86C65.01 194.78 94.67 186.86 98.02 172.67C100.56 161.96 113.11 169.33 122.96 164.22C128.59 161.31 128.09 156.77 130.96 154.69C137.07 150.25 143.57 149.14 142.43 140.24C142.41 140.1 142.41 139.97 142.39 139.83Z" fill="#151E27"/>
<path d="M144.32 131.28C144.252 131.28 144.186 131.259 144.13 131.22C144.074 131.162 144.043 131.085 144.043 131.005C144.043 130.925 144.074 130.848 144.13 130.79L144.79 129.97L142.56 128.69C142.501 128.644 142.461 128.578 142.447 128.504C142.434 128.431 142.447 128.355 142.485 128.29C142.522 128.226 142.582 128.177 142.653 128.153C142.724 128.129 142.801 128.132 142.87 128.16L145.4 129.62C145.436 129.641 145.468 129.67 145.492 129.705C145.516 129.739 145.533 129.778 145.54 129.82C145.551 129.863 145.551 129.909 145.54 129.952C145.53 129.996 145.509 130.036 145.48 130.07L144.61 131.17C144.575 131.211 144.53 131.243 144.479 131.262C144.428 131.282 144.374 131.288 144.32 131.28V131.28Z" fill="black"/>
<path d="M145.52 133.74C145.467 133.747 145.413 133.747 145.36 133.74C145.32 133.732 145.283 133.716 145.249 133.692C145.216 133.669 145.189 133.639 145.168 133.604C145.147 133.569 145.134 133.53 145.129 133.49C145.124 133.45 145.128 133.409 145.14 133.37C145.159 133.293 145.207 133.227 145.275 133.186C145.342 133.145 145.423 133.132 145.5 133.15C145.5 133.15 145.95 133.2 146.36 132.36C146.397 132.288 146.46 132.233 146.536 132.207C146.613 132.18 146.697 132.185 146.77 132.22C146.807 132.237 146.84 132.261 146.867 132.291C146.894 132.322 146.914 132.357 146.927 132.395C146.941 132.433 146.946 132.474 146.943 132.514C146.94 132.555 146.929 132.594 146.91 132.63C146.42 133.6 145.81 133.74 145.52 133.74Z" fill="black"/>
<path d="M139.53 131.67C139.452 131.673 139.376 131.645 139.318 131.593C139.26 131.541 139.225 131.468 139.22 131.39C139.217 131.349 139.223 131.308 139.236 131.27C139.249 131.231 139.27 131.195 139.296 131.165C139.323 131.134 139.356 131.109 139.393 131.091C139.429 131.073 139.469 131.063 139.51 131.06C139.694 131.066 139.878 131.035 140.05 130.968C140.222 130.901 140.378 130.799 140.51 130.67C140.681 130.45 140.769 130.178 140.76 129.9C140.752 129.82 140.776 129.741 140.827 129.679C140.877 129.617 140.95 129.578 141.03 129.57C141.11 129.562 141.189 129.586 141.251 129.637C141.313 129.687 141.352 129.76 141.36 129.84C141.397 130.281 141.26 130.718 140.98 131.06C140.796 131.251 140.575 131.403 140.331 131.508C140.088 131.612 139.825 131.668 139.56 131.67H139.53Z" fill="black"/>
<path d="M178.87 81.85C178.87 81.85 182.56 76.13 183.21 73.28C183.86 70.43 183.29 68.68 182.29 67.76C182 67.49 181.03 67.26 180.92 68.76C180.81 70.26 178.84 72.7 178.51 72.48C178.18 72.26 178.87 81.85 178.87 81.85Z" fill="#EF6744"/>
<path d="M171.98 83.3C171.98 83.3 170.98 110.36 157.71 132.09C145.4 152.26 140.04 139.48 133.84 149.09C127.64 158.7 136.24 174.3 138 181.15C153.41 241.21 170.67 244.72 170.67 244.72C170.67 244.72 158.32 203.54 174.67 179.66C186.53 162.35 176.22 155.35 176.22 155.35C176.22 155.35 182.45 150.1 186.76 120.84C191.66 87.62 180.2 82.23 180.2 82.23L171.98 83.3Z" fill="url(#paint4_linear)"/>
<path d="M145.65 165.36C145.65 165.36 168.81 171.84 181.74 145.3" stroke="white" stroke-linecap="round" stroke-linejoin="round"/>
<path d="M252.61 218.08H252.53C252.371 218.058 252.226 217.974 252.127 217.847C252.029 217.72 251.983 217.56 252 217.4L256.83 176.61C256.835 176.527 256.857 176.446 256.894 176.372C256.931 176.298 256.983 176.232 257.047 176.179C257.11 176.125 257.184 176.086 257.264 176.062C257.343 176.038 257.427 176.03 257.509 176.04C257.591 176.05 257.671 176.076 257.743 176.117C257.815 176.159 257.878 176.214 257.927 176.281C257.977 176.347 258.013 176.423 258.032 176.504C258.051 176.584 258.054 176.668 258.04 176.75L253.21 217.54C253.193 217.688 253.123 217.824 253.012 217.923C252.902 218.023 252.759 218.079 252.61 218.08V218.08Z" fill="#2755A3"/>
<path d="M277.27 308.18C277.11 308.18 276.956 308.117 276.842 308.005C276.728 307.893 276.663 307.74 276.66 307.58C276.657 302.931 274.81 298.472 271.523 295.184C268.237 291.895 263.779 290.045 259.13 290.04H181.21C149.54 290.04 142.84 289.54 142.84 274.95C142.84 261.7 145.7 258.47 157.42 258.47H228.21C228.372 258.47 228.527 258.534 228.641 258.649C228.756 258.763 228.82 258.918 228.82 259.08C228.82 259.242 228.756 259.397 228.641 259.511C228.527 259.626 228.372 259.69 228.21 259.69H157.43C145.82 259.69 144.06 263.12 144.06 274.95C144.06 287.95 148.73 288.83 181.22 288.83H259.13C264.101 288.835 268.867 290.812 272.382 294.328C275.898 297.843 277.875 302.609 277.88 307.58C277.88 307.66 277.864 307.738 277.833 307.812C277.803 307.885 277.758 307.952 277.701 308.008C277.644 308.064 277.577 308.108 277.503 308.137C277.429 308.167 277.35 308.181 277.27 308.18V308.18Z" fill="#2755A3"/>
<path d="M159.51 321.97C157.095 321.97 154.734 321.254 152.725 319.912C150.717 318.569 149.152 316.662 148.228 314.43C147.305 312.199 147.063 309.743 147.535 307.374C148.007 305.005 149.171 302.83 150.88 301.123C152.588 299.415 154.765 298.253 157.134 297.783C159.503 297.313 161.959 297.557 164.189 298.482C166.42 299.408 168.327 300.975 169.667 302.984C171.008 304.993 171.722 307.355 171.72 309.77C171.717 313.007 170.43 316.11 168.14 318.397C165.851 320.685 162.747 321.97 159.51 321.97V321.97ZM159.51 298.78C157.334 298.78 155.208 299.425 153.399 300.634C151.59 301.843 150.18 303.561 149.347 305.57C148.515 307.58 148.297 309.792 148.721 311.926C149.146 314.06 150.193 316.02 151.732 317.558C153.27 319.097 155.23 320.144 157.364 320.569C159.498 320.993 161.71 320.775 163.72 319.943C165.729 319.11 167.447 317.7 168.656 315.891C169.865 314.082 170.51 311.956 170.51 309.78C170.505 306.866 169.343 304.073 167.281 302.015C165.219 299.956 162.424 298.8 159.51 298.8V298.78Z" fill="#2755A3"/>
<path d="M160.19 293.69V310.57L172.33 293.69H160.19Z" fill="white"/>
<path d="M160.21 311.17C160.147 311.18 160.083 311.18 160.02 311.17C159.899 311.132 159.792 311.056 159.717 310.954C159.641 310.851 159.6 310.727 159.6 310.6V293.69C159.6 293.528 159.664 293.373 159.779 293.259C159.893 293.144 160.048 293.08 160.21 293.08H172.35C172.462 293.079 172.572 293.11 172.667 293.168C172.762 293.226 172.84 293.31 172.89 293.41C172.951 293.504 172.983 293.613 172.983 293.725C172.983 293.837 172.951 293.946 172.89 294.04L160.68 310.97C160.621 311.036 160.549 311.088 160.467 311.122C160.386 311.157 160.298 311.173 160.21 311.17V311.17ZM160.82 294.3V308.68L171.16 294.3H160.82Z" fill="#2755A3"/>
<path d="M249.84 321.97C247.425 321.97 245.064 321.254 243.055 319.912C241.047 318.569 239.482 316.662 238.558 314.43C237.635 312.199 237.393 309.743 237.865 307.374C238.337 305.005 239.501 302.83 241.21 301.123C242.918 299.415 245.095 298.253 247.464 297.783C249.833 297.313 252.289 297.557 254.519 298.482C256.75 299.408 258.657 300.975 259.997 302.984C261.338 304.993 262.052 307.355 262.05 309.77C262.047 313.007 260.76 316.11 258.47 318.397C256.181 320.685 253.077 321.97 249.84 321.97ZM249.84 298.78C247.664 298.78 245.538 299.425 243.729 300.634C241.92 301.843 240.51 303.561 239.677 305.57C238.845 307.58 238.627 309.792 239.051 311.926C239.476 314.06 240.523 316.02 242.062 317.558C243.6 319.097 245.56 320.144 247.694 320.569C249.828 320.993 252.04 320.775 254.05 319.943C256.06 319.11 257.777 317.7 258.986 315.891C260.195 314.082 260.84 311.956 260.84 309.78C260.835 306.866 259.673 304.073 257.611 302.015C255.549 299.956 252.754 298.8 249.84 298.8V298.78Z" fill="#2755A3"/>
<path d="M250.52 293.69V310.57L262.66 293.69H250.52Z" fill="white"/>
<path d="M250.52 311.17H250.33C250.209 311.132 250.102 311.056 250.027 310.954C249.951 310.851 249.91 310.727 249.91 310.6V293.69C249.91 293.61 249.926 293.531 249.956 293.457C249.987 293.383 250.032 293.315 250.089 293.259C250.145 293.202 250.213 293.157 250.287 293.126C250.361 293.096 250.44 293.08 250.52 293.08H262.66C262.772 293.079 262.882 293.11 262.977 293.168C263.072 293.226 263.15 293.31 263.2 293.41C263.258 293.505 263.289 293.614 263.289 293.725C263.289 293.836 263.258 293.945 263.2 294.04L251.02 310.97C250.957 311.038 250.879 311.092 250.792 311.126C250.706 311.161 250.613 311.176 250.52 311.17V311.17ZM251.13 294.3V308.68L261.47 294.3H251.13Z" fill="#2755A3"/>
<path d="M143.26 228.47C143.135 228.47 143.013 228.429 142.914 228.353C142.815 228.277 142.743 228.171 142.71 228.05C142.666 227.891 142.685 227.721 142.763 227.576C142.841 227.43 142.973 227.321 143.13 227.27C144.13 226.95 210.39 227.16 230.69 227.27C230.852 227.27 231.007 227.334 231.121 227.449C231.236 227.563 231.3 227.718 231.3 227.88C231.3 228.042 231.236 228.197 231.121 228.311C231.007 228.426 230.852 228.49 230.69 228.49C201.25 228.38 145.13 228.24 143.44 228.49C143.379 228.492 143.319 228.485 143.26 228.47V228.47Z" fill="#2755A3"/>
<path d="M273.07 228.46H253.62C253.54 228.46 253.461 228.444 253.387 228.414C253.313 228.383 253.245 228.338 253.189 228.281C253.132 228.225 253.087 228.157 253.056 228.083C253.026 228.009 253.01 227.93 253.01 227.85C253.01 227.77 253.026 227.691 253.056 227.617C253.087 227.543 253.132 227.475 253.189 227.419C253.245 227.362 253.313 227.317 253.387 227.286C253.461 227.256 253.54 227.24 253.62 227.24H273.07C273.15 227.24 273.229 227.256 273.302 227.287C273.375 227.317 273.442 227.362 273.498 227.419C273.554 227.476 273.598 227.543 273.627 227.617C273.657 227.691 273.671 227.77 273.67 227.85C273.67 228.01 273.607 228.164 273.495 228.278C273.383 228.392 273.23 228.457 273.07 228.46V228.46Z" fill="#2755A3"/>
<path d="M207.84 201.41H138.21C138.048 201.41 137.893 201.346 137.779 201.231C137.664 201.117 137.6 200.962 137.6 200.8C137.6 200.638 137.664 200.483 137.779 200.369C137.893 200.254 138.048 200.19 138.21 200.19H207.83C207.91 200.19 207.989 200.206 208.063 200.236C208.137 200.267 208.205 200.312 208.261 200.369C208.318 200.425 208.363 200.493 208.394 200.567C208.424 200.641 208.44 200.72 208.44 200.8C208.44 200.96 208.377 201.114 208.265 201.228C208.153 201.342 208 201.407 207.84 201.41V201.41Z" fill="#2755A3"/>
<path d="M278.54 201.41H247.97C247.808 201.41 247.653 201.346 247.539 201.231C247.424 201.117 247.36 200.962 247.36 200.8C247.36 200.638 247.424 200.483 247.539 200.369C247.653 200.254 247.808 200.19 247.97 200.19H278.54C278.702 200.19 278.857 200.254 278.971 200.369C279.086 200.483 279.15 200.638 279.15 200.8C279.147 200.961 279.082 201.115 278.968 201.228C278.855 201.342 278.701 201.407 278.54 201.41Z" fill="#2755A3"/>
<path d="M236.01 253.67H148.01C147.867 253.672 147.728 253.623 147.617 253.531C147.507 253.439 147.434 253.311 147.41 253.17L132.62 176.49C132.606 176.402 132.611 176.313 132.633 176.227C132.656 176.141 132.695 176.06 132.75 175.99C132.808 175.922 132.88 175.866 132.961 175.828C133.042 175.79 133.13 175.771 133.22 175.77H206.93C207.092 175.77 207.247 175.834 207.361 175.949C207.476 176.063 207.54 176.218 207.54 176.38C207.54 176.542 207.476 176.697 207.361 176.811C207.247 176.926 207.092 176.99 206.93 176.99H133.93L148.48 252.45H236.01C236.172 252.45 236.327 252.514 236.441 252.629C236.556 252.743 236.62 252.898 236.62 253.06C236.62 253.222 236.556 253.377 236.441 253.491C236.327 253.606 236.172 253.67 236.01 253.67V253.67Z" fill="#2755A3"/>
<path d="M268.37 253.67H253.51C253.348 253.67 253.193 253.606 253.079 253.491C252.964 253.377 252.9 253.222 252.9 253.06C252.9 252.898 252.964 252.743 253.079 252.629C253.193 252.514 253.348 252.45 253.51 252.45H267.87L282.54 177.25H239.62C239.458 177.25 239.303 177.186 239.189 177.071C239.074 176.957 239.01 176.802 239.01 176.64C239.01 176.478 239.074 176.323 239.189 176.209C239.303 176.094 239.458 176.03 239.62 176.03H283.28C283.37 176.028 283.459 176.047 283.54 176.086C283.622 176.124 283.694 176.18 283.75 176.25C283.809 176.318 283.851 176.398 283.874 176.485C283.896 176.571 283.898 176.662 283.88 176.75L268.97 253.18C268.944 253.319 268.87 253.445 268.76 253.535C268.65 253.625 268.512 253.672 268.37 253.67V253.67Z" fill="#2755A3"/>
<path d="M166.41 252.87C166.263 252.869 166.121 252.815 166.011 252.717C165.901 252.62 165.829 252.486 165.81 252.34L156.08 176.75C156.066 176.593 156.114 176.436 156.213 176.313C156.312 176.19 156.456 176.11 156.613 176.091C156.769 176.071 156.928 176.113 157.054 176.208C157.181 176.304 157.265 176.444 157.29 176.6L167.02 252.18C167.037 252.34 166.991 252.5 166.893 252.627C166.794 252.754 166.649 252.838 166.49 252.86L166.41 252.87Z" fill="#2755A3"/>
<path d="M189.26 252.87C189.109 252.869 188.963 252.812 188.851 252.71C188.739 252.609 188.667 252.47 188.65 252.32L181.54 176.73C181.526 176.57 181.576 176.41 181.679 176.287C181.782 176.163 181.93 176.085 182.09 176.07C182.25 176.059 182.408 176.11 182.531 176.212C182.654 176.315 182.732 176.461 182.75 176.62L189.86 252.2C189.868 252.28 189.86 252.36 189.837 252.437C189.814 252.513 189.775 252.584 189.724 252.646C189.673 252.707 189.61 252.758 189.539 252.795C189.468 252.832 189.39 252.854 189.31 252.86L189.26 252.87Z" fill="#2755A3"/>
<path d="M210.41 252.87C210.253 252.87 210.102 252.81 209.989 252.702C209.875 252.594 209.808 252.447 209.8 252.29L207.06 201.05C207.068 200.901 207.132 200.759 207.237 200.653C207.343 200.548 207.484 200.484 207.634 200.476C207.783 200.467 207.931 200.514 208.048 200.607C208.165 200.7 208.244 200.832 208.27 200.98L211.02 252.23C211.024 252.31 211.012 252.39 210.985 252.466C210.958 252.541 210.917 252.611 210.863 252.67C210.809 252.73 210.744 252.778 210.671 252.812C210.599 252.847 210.52 252.866 210.44 252.87H210.41Z" fill="#2755A3"/>
<path d="M231.47 253.48C231.31 253.48 231.156 253.417 231.042 253.305C230.928 253.193 230.863 253.04 230.86 252.88L230.39 227.97C230.387 227.89 230.401 227.809 230.43 227.734C230.459 227.659 230.503 227.591 230.558 227.533C230.614 227.475 230.682 227.429 230.756 227.397C230.83 227.366 230.909 227.35 230.99 227.35V227.35C231.148 227.35 231.301 227.411 231.414 227.522C231.528 227.632 231.595 227.782 231.6 227.94L232.07 252.83C232.068 252.99 232.004 253.144 231.893 253.259C231.781 253.374 231.63 253.442 231.47 253.45V253.48Z" fill="#2755A3"/>
<path d="M133.21 176.97C133.071 176.97 132.937 176.923 132.829 176.835C132.722 176.748 132.648 176.626 132.62 176.49L131.22 170.32L104.22 170.44C104.058 170.44 103.903 170.376 103.789 170.261C103.674 170.147 103.61 169.992 103.61 169.83C103.61 169.668 103.674 169.513 103.789 169.399C103.903 169.284 104.058 169.22 104.22 169.22L131.72 169.1C131.858 169.097 131.992 169.143 132.1 169.228C132.208 169.314 132.282 169.435 132.31 169.57L133.82 176.23C133.838 176.307 133.84 176.386 133.827 176.464C133.814 176.542 133.786 176.616 133.744 176.683C133.702 176.75 133.648 176.808 133.584 176.854C133.519 176.9 133.447 176.932 133.37 176.95L133.21 176.97Z" fill="#2755A3"/>
<path d="M325.31 122.67L325.39 122.8C326.145 124.008 327.098 125.079 328.21 125.97C329.251 126.835 330.45 127.49 331.74 127.9C332.131 128.065 332.551 128.15 332.975 128.15C333.399 128.15 333.819 128.065 334.21 127.9L340.82 123.61C341.126 123.415 341.365 123.132 341.506 122.798C341.647 122.464 341.683 122.095 341.61 121.74C341.591 121.589 341.603 121.437 341.644 121.291C341.686 121.145 341.755 121.009 341.85 120.89C342.64 119.89 346.12 120.17 346.12 120.17L356.38 113.52C360.72 110.7 362.69 106.46 363.72 104.03C363.807 103.832 363.834 103.612 363.797 103.398C363.76 103.185 363.662 102.987 363.515 102.828C363.367 102.67 363.176 102.558 362.965 102.507C362.755 102.456 362.534 102.467 362.33 102.54C360.489 103.201 358.684 103.955 356.92 104.8C353.969 106.119 350.924 107.215 347.81 108.08C347.194 109.953 346.216 111.686 344.93 113.18C343.35 114.93 337.55 116.34 332.62 117.08C327.69 117.82 325.31 122.67 325.31 122.67Z" fill="#151E27"/>
<path d="M316.72 128.45C319.06 125.25 325.29 122.83 325.29 122.83H325.39L325.31 122.7C325.31 122.7 327.66 117.97 332.6 117.23C337.54 116.49 343.33 115.08 344.91 113.33C346.196 111.836 347.174 110.103 347.79 108.23C341.6 110.23 324.63 115.61 322.65 116.33C320.37 117.16 318.79 117.59 316.87 118.26C316.88 118.23 316.73 128.45 316.72 128.45Z" fill="#EF6744"/>
<defs>
<linearGradient id="paint0_linear" x1="198.736" y1="115.386" x2="215.851" y2="98.3769" gradientUnits="userSpaceOnUse">
<stop offset="0.07" stop-color="#EF6744"/>
<stop offset="0.25" stop-color="#F08777"/>
<stop offset="0.43" stop-color="#F0A1A1"/>
<stop offset="0.58" stop-color="#F1B4C0"/>
<stop offset="0.72" stop-color="#F1C0D2"/>
<stop offset="0.81" stop-color="#F1C4D9"/>
</linearGradient>
<linearGradient id="paint1_linear" x1="155.025" y1="169.067" x2="196.141" y2="129.706" gradientUnits="userSpaceOnUse">
<stop offset="0.28" stop-color="#151E27"/>
<stop offset="0.39" stop-color="#192A41"/>
<stop offset="0.58" stop-color="#1F3C6B"/>
<stop offset="0.75" stop-color="#234A8A"/>
<stop offset="0.9" stop-color="#26529C"/>
<stop offset="1" stop-color="#2755A3"/>
</linearGradient>
<linearGradient id="paint2_linear" x1="247.878" y1="171.972" x2="255.114" y2="99.612" gradientUnits="userSpaceOnUse">
<stop offset="0.07" stop-color="#EF6744"/>
<stop offset="0.21" stop-color="#EF7052"/>
<stop offset="0.46" stop-color="#F08878"/>
<stop offset="0.81" stop-color="#F1ADB5"/>
<stop offset="1" stop-color="#F1C4D9"/>
</linearGradient>
<linearGradient id="paint3_linear" x1="-259163" y1="-76033.9" x2="-254185" y2="-84817.6" gradientUnits="userSpaceOnUse">
<stop offset="0.07" stop-color="#EF6744"/>
<stop offset="0.25" stop-color="#F08777"/>
<stop offset="0.43" stop-color="#F0A1A1"/>
<stop offset="0.58" stop-color="#F1B4C0"/>
<stop offset="0.72" stop-color="#F1C0D2"/>
<stop offset="0.81" stop-color="#F1C4D9"/>
</linearGradient>
<linearGradient id="paint4_linear" x1="-506526" y1="-139331" x2="-503621" y2="-147664" gradientUnits="userSpaceOnUse">
<stop offset="0.28" stop-color="#151E27"/>
<stop offset="0.39" stop-color="#192A41"/>
<stop offset="0.58" stop-color="#1F3C6B"/>
<stop offset="0.75" stop-color="#234A8A"/>
<stop offset="0.9" stop-color="#26529C"/>
<stop offset="1" stop-color="#2755A3"/>
</linearGradient>
</defs>
</svg>
