<svg width="424" height="405" viewBox="0 0 424 405" fill="none" xmlns="http://www.w3.org/2000/svg">
<path d="M81.82 311.86L135.13 273.31L183.86 261.12L195.35 249.64L244.12 265.4L305.72 312.52L81.82 311.86Z" fill="#F1C4D9"/>
<path d="M247.08 312.24L199.45 279.03L184.33 260.74C184.28 260.678 184.219 260.626 184.149 260.588C184.08 260.55 184.003 260.526 183.924 260.517C183.845 260.509 183.765 260.516 183.689 260.539C183.612 260.562 183.541 260.6 183.48 260.65C183.356 260.753 183.277 260.901 183.26 261.062C183.244 261.222 183.29 261.383 183.39 261.51L197.96 279.14L121.21 280.23C121.048 280.23 120.893 280.294 120.779 280.409C120.664 280.523 120.6 280.678 120.6 280.84C120.6 281.002 120.664 281.157 120.779 281.271C120.893 281.386 121.048 281.45 121.21 281.45L199.02 280.35H199.15L246.36 313.27C246.464 313.339 246.585 313.377 246.71 313.38C246.84 313.38 246.966 313.339 247.071 313.262C247.176 313.185 247.253 313.077 247.292 312.953C247.331 312.83 247.33 312.697 247.288 312.574C247.246 312.451 247.166 312.344 247.06 312.27L247.08 312.24Z" fill="white"/>
<path d="M162.87 114.63C170.33 114.18 175.65 123.46 180.6 132.37C185.55 141.28 190.85 147.94 197.55 146.37C204.25 144.8 207.07 136.49 214.2 139.37C221.33 142.25 236.2 138.01 245.97 143.14C255.74 148.27 262.65 159.84 270.46 157.14C278.27 154.44 279.57 148.7 290.46 151.2C301.35 153.7 300.3 146.29 317.24 144.41C317.91 144.34 318.54 144.29 319.16 144.26C327.75 135.49 335.93 128.11 340.06 111.6C324.88 113.02 297.46 112.84 296.97 110.85C296.32 108.22 304.97 107.43 304.97 107.43C304.97 107.43 304.32 104.28 309.23 103.18C314.14 102.08 314.77 103.12 314.77 103.12C314.77 103.12 316.71 99.39 325.5 100.2C332.28 100.83 335.4 104.83 335.4 104.83C337.405 104.853 339.407 104.976 341.4 105.2C343.79 89.51 338.98 72.97 316.63 62.48C302.68 55.97 271.63 48.87 239.3 57.16C190.08 69.77 171.12 80.04 143.86 106.16C141.673 108.265 139.609 110.496 137.68 112.84C141.08 115.47 144.15 118.16 146.48 118.14C150.96 118.12 155.4 115.09 162.87 114.63ZM276.04 74.84C276.04 74.84 275.37 72.05 280.45 71.06C285.53 70.07 286.16 71 286.16 71C286.16 71 288.16 67.69 297.26 68.4C304.26 68.95 307.46 72.49 307.46 72.49C311.28 72.49 327.7 73.49 322.12 76.84C317.39 79.68 268.47 80.2 267.81 77.84C267.15 75.48 276.04 74.84 276.04 74.84Z" fill="#F1C4D9"/>
<path d="M248.88 166.36L115.41 167.78C114.26 180.78 115.81 193.61 120.52 204.88C122.25 209.061 124.458 213.027 127.1 216.7C148.64 246.46 188.1 250.17 218.57 244.84C261.1 237.42 285.52 207.39 300.48 171.37C301.3 169.37 302.15 167.53 303.04 165.78L248.88 166.36Z" fill="url(#paint0_linear)"/>
<path d="M317.2 144.44C300.26 146.32 301.27 153.73 290.42 151.23C279.57 148.73 278.27 154.47 270.42 157.17C262.57 159.87 255.69 148.29 245.93 143.17C236.17 138.05 221.28 142.31 214.16 139.4C207.04 136.49 204.21 144.81 197.51 146.4C190.81 147.99 185.51 141.3 180.56 132.4C175.61 123.5 170.29 114.21 162.83 114.66C155.37 115.11 150.92 118.15 146.44 118.2C144.11 118.2 141.04 115.53 137.64 112.9C125.31 127.71 117.34 147.46 115.45 167.04C115.45 167.3 115.39 167.55 115.37 167.81L248.84 166.39L303 165.81C303.13 165.55 303.27 165.31 303.41 165.05C307.179 157.923 312.004 151.406 317.72 145.72L319.08 144.32C318.5 144.32 317.87 144.37 317.2 144.44Z" fill="#151E27"/>
<path d="M325.42 100.23C316.63 99.42 314.69 103.15 314.69 103.15C314.69 103.15 314.06 102.15 309.15 103.21C304.24 104.27 304.89 107.46 304.89 107.46C304.89 107.46 296.28 108.25 296.89 110.88C297.38 112.88 324.8 113.05 339.98 111.63C340.41 109.89 340.81 108.06 341.15 106.1C341.2 105.81 341.24 105.52 341.29 105.23C339.298 105.006 337.295 104.883 335.29 104.86C335.29 104.86 332.2 100.86 325.42 100.23Z" fill="white"/>
<path d="M322.12 76.84C327.7 73.48 311.28 72.45 307.46 72.49C307.46 72.49 304.25 68.95 297.26 68.4C288.18 67.69 286.16 71 286.16 71C286.16 71 285.52 70.08 280.45 71.06C275.38 72.04 276.04 74.84 276.04 74.84C276.04 74.84 267.15 75.56 267.81 77.84C268.47 80.12 317.39 79.68 322.12 76.84Z" fill="white"/>
<path d="M245.18 128.97L239.36 120.97C237.26 120.949 235.163 120.802 233.08 120.53C235.314 114.614 236.146 108.261 235.51 101.97L225.34 103.97C223.119 108.065 220.38 111.856 217.19 115.25C216.695 114.915 216.218 114.555 215.76 114.17C212.16 111.17 206.32 92.89 193.91 99.17C190 98.98 186.33 98.92 186.33 98.92V98.85C186.33 98.85 177.04 93.09 168.99 99.85C159.15 108.09 156.59 122.69 168.99 136.63C168.19 147.96 167.99 157.87 167.99 157.87L202.3 157.59C202.3 157.59 203.18 153.59 204.3 147.99C209.948 146.87 215.195 144.264 219.5 140.44C220.905 139.159 222.24 137.804 223.5 136.38C231.213 135.669 238.645 133.128 245.18 128.97Z" fill="white"/>
<path d="M112.83 277.34L107.83 289.23L156.06 303.41L160.17 292.97C153.806 287.028 146.892 281.704 139.52 277.07C135.912 274.729 132.043 272.819 127.99 271.38L112.83 277.34Z" fill="black"/>
<path d="M123.78 282.32C123.567 282.34 123.353 282.34 123.14 282.32C122.991 282.283 122.861 282.192 122.776 282.063C122.691 281.935 122.658 281.779 122.684 281.627C122.709 281.475 122.791 281.339 122.912 281.245C123.034 281.151 123.187 281.106 123.34 281.12C123.39 281.12 125.72 281.45 129.21 279.38C132.41 277.48 133.21 275.91 133.21 275.9C133.28 275.754 133.406 275.642 133.559 275.589C133.711 275.535 133.879 275.545 134.025 275.615C134.171 275.685 134.283 275.811 134.336 275.963C134.39 276.116 134.38 276.284 134.31 276.43C134.31 276.5 133.38 278.31 129.81 280.43C128.003 281.584 125.922 282.236 123.78 282.32V282.32Z" fill="white"/>
<path d="M127.55 285.26C127.34 285.273 127.13 285.273 126.92 285.26C126.841 285.248 126.765 285.22 126.696 285.178C126.628 285.136 126.569 285.081 126.522 285.016C126.476 284.95 126.442 284.876 126.425 284.798C126.407 284.72 126.406 284.639 126.42 284.56C126.431 284.481 126.458 284.405 126.499 284.337C126.539 284.269 126.594 284.209 126.658 284.163C126.723 284.116 126.796 284.083 126.874 284.065C126.951 284.048 127.032 284.046 127.11 284.06C127.11 284.06 129.5 284.38 132.98 282.32C136.18 280.42 136.98 278.85 136.98 278.83C137.016 278.758 137.066 278.695 137.127 278.642C137.187 278.59 137.258 278.55 137.334 278.525C137.41 278.5 137.491 278.49 137.57 278.496C137.65 278.502 137.728 278.524 137.8 278.56C137.872 278.593 137.936 278.64 137.989 278.699C138.042 278.757 138.083 278.826 138.109 278.901C138.136 278.975 138.146 279.054 138.141 279.133C138.136 279.212 138.115 279.289 138.08 279.36C138.08 279.44 137.15 281.25 133.58 283.36C131.773 284.516 129.693 285.171 127.55 285.26Z" fill="white"/>
<path d="M131.34 288.14C131.13 288.159 130.92 288.159 130.71 288.14C130.561 288.103 130.431 288.012 130.346 287.883C130.261 287.755 130.228 287.599 130.254 287.447C130.279 287.295 130.361 287.159 130.482 287.065C130.604 286.971 130.757 286.926 130.91 286.94C130.91 286.94 133.27 287.28 136.77 285.2C139.98 283.3 140.77 281.73 140.77 281.72C140.85 281.594 140.975 281.501 141.119 281.461C141.263 281.42 141.417 281.434 141.551 281.499C141.686 281.565 141.792 281.677 141.849 281.816C141.906 281.954 141.91 282.109 141.86 282.25C141.86 282.32 140.93 284.13 137.36 286.25C135.556 287.402 133.479 288.054 131.34 288.14V288.14Z" fill="white"/>
<path d="M135.22 290.83C135.007 290.85 134.793 290.85 134.58 290.83C134.501 290.818 134.425 290.79 134.356 290.748C134.288 290.706 134.229 290.651 134.182 290.586C134.136 290.52 134.103 290.446 134.085 290.368C134.067 290.29 134.066 290.209 134.08 290.13C134.107 289.971 134.196 289.829 134.327 289.736C134.458 289.642 134.621 289.604 134.78 289.63C134.78 289.63 137.14 289.97 140.65 287.89C143.85 285.99 144.65 284.42 144.65 284.41C144.721 284.266 144.846 284.156 144.998 284.104C145.149 284.051 145.315 284.061 145.46 284.13C145.604 284.201 145.714 284.325 145.768 284.476C145.822 284.628 145.816 284.794 145.75 284.94C145.75 285.01 144.82 286.82 141.25 288.94C139.443 290.094 137.362 290.746 135.22 290.83V290.83Z" fill="white"/>
<path d="M107.92 289.18L150.8 299.5C151.422 299.651 152.077 299.594 152.664 299.338C153.251 299.081 153.738 298.639 154.05 298.08L158.05 290.97L160.4 293.09C160.761 293.419 161.007 293.854 161.104 294.332C161.201 294.81 161.144 295.307 160.94 295.75L157.63 302.97C157.415 303.446 157.045 303.835 156.579 304.071C156.113 304.307 155.581 304.378 155.07 304.27L108.55 294.35C107.55 294.15 106.32 293.77 106.73 292.3L107.92 289.18Z" fill="#EF6744"/>
<path d="M113.14 276.64L168.41 157.37L199.65 182.43L134.77 273.77L113.14 276.64Z" fill="url(#paint1_linear)"/>
<path d="M112.12 277.39L112.59 276.39L168.18 156.39L200.48 182.3L200.15 182.77L135.15 274.32H134.89L112.12 277.39ZM168.63 158.33L114.16 275.89L134.43 273.21L198.82 182.55L168.63 158.33Z" fill="white"/>
<path d="M149.63 222.54C149.564 222.55 149.496 222.55 149.43 222.54L144.43 220.89C144.354 220.865 144.283 220.825 144.222 220.773C144.162 220.721 144.112 220.657 144.075 220.586C144.039 220.514 144.017 220.436 144.011 220.356C144.005 220.277 144.015 220.196 144.04 220.12C144.065 220.044 144.105 219.974 144.157 219.913C144.209 219.853 144.273 219.803 144.345 219.768C144.417 219.732 144.495 219.712 144.575 219.707C144.655 219.702 144.735 219.713 144.81 219.74L149.81 221.38C149.886 221.405 149.956 221.445 150.017 221.497C150.077 221.549 150.127 221.613 150.162 221.685C150.198 221.757 150.218 221.835 150.223 221.915C150.228 221.995 150.217 222.075 150.19 222.15C150.147 222.264 150.071 222.363 149.971 222.432C149.871 222.502 149.752 222.54 149.63 222.54V222.54Z" fill="white"/>
<path d="M145.35 227.22C145.253 227.22 145.157 227.197 145.071 227.153C144.984 227.11 144.908 227.047 144.85 226.97L141.85 222.82C141.756 222.689 141.718 222.525 141.744 222.366C141.771 222.207 141.859 222.064 141.99 221.97C142.055 221.922 142.128 221.888 142.206 221.869C142.284 221.85 142.365 221.847 142.445 221.86C142.524 221.873 142.6 221.902 142.668 221.945C142.736 221.988 142.794 222.044 142.84 222.11L145.84 226.26C145.934 226.391 145.972 226.555 145.946 226.714C145.919 226.873 145.831 227.016 145.7 227.11C145.596 227.179 145.475 227.217 145.35 227.22V227.22Z" fill="white"/>
<path d="M201.9 235.87L194.73 246.58L239.3 269.83L245.3 260.34C240.203 253.28 234.451 246.718 228.12 240.74C225.037 237.766 221.621 235.159 217.94 232.97L201.9 235.87Z" fill="black"/>
<path d="M213.33 243.03C212.561 243.052 211.794 242.947 211.06 242.72C210.917 242.657 210.803 242.542 210.742 242.398C210.681 242.254 210.678 242.092 210.733 241.946C210.789 241.799 210.898 241.68 211.039 241.612C211.18 241.544 211.341 241.532 211.49 241.58C211.49 241.58 213.76 242.37 217.58 241.01C221.09 239.77 222.19 238.39 222.2 238.37C222.3 238.246 222.445 238.165 222.603 238.144C222.761 238.124 222.921 238.165 223.05 238.26C223.178 238.357 223.262 238.501 223.285 238.66C223.307 238.819 223.266 238.981 223.17 239.11C223.17 239.17 221.9 240.77 217.99 242.16C216.497 242.713 214.921 243.007 213.33 243.03Z" fill="white"/>
<path d="M216.46 246.64C215.692 246.662 214.925 246.557 214.19 246.33C214.041 246.272 213.921 246.157 213.856 246.012C213.79 245.866 213.785 245.7 213.84 245.55C213.867 245.475 213.908 245.405 213.962 245.346C214.016 245.287 214.082 245.239 214.154 245.206C214.227 245.172 214.306 245.153 214.386 245.151C214.466 245.148 214.545 245.161 214.62 245.19C214.62 245.19 216.87 245.98 220.71 244.62C224.22 243.38 225.32 242 225.34 241.98C225.438 241.847 225.585 241.759 225.748 241.735C225.911 241.71 226.077 241.752 226.21 241.85C226.343 241.948 226.431 242.095 226.455 242.258C226.48 242.421 226.438 242.587 226.34 242.72C226.29 242.78 225.06 244.38 221.15 245.77C219.648 246.326 218.062 246.62 216.46 246.64V246.64Z" fill="white"/>
<path d="M219.63 250.21C218.861 250.232 218.095 250.127 217.36 249.9C217.285 249.871 217.217 249.828 217.158 249.773C217.1 249.717 217.054 249.651 217.021 249.578C216.989 249.504 216.971 249.425 216.969 249.345C216.967 249.265 216.981 249.185 217.01 249.11C217.038 249.035 217.08 248.967 217.134 248.909C217.189 248.851 217.254 248.804 217.327 248.772C217.399 248.739 217.478 248.721 217.557 248.719C217.637 248.717 217.716 248.731 217.79 248.76C217.79 248.76 220.06 249.54 223.88 248.19C227.39 246.94 228.49 245.56 228.5 245.55C228.601 245.424 228.746 245.341 228.906 245.318C229.066 245.296 229.229 245.336 229.36 245.43C229.486 245.529 229.569 245.672 229.591 245.831C229.613 245.989 229.574 246.15 229.48 246.28C229.43 246.35 228.2 247.95 224.29 249.33C222.799 249.889 221.222 250.187 219.63 250.21V250.21Z" fill="white"/>
<path d="M222.9 253.6C222.13 253.629 221.362 253.52 220.63 253.28C220.487 253.217 220.373 253.102 220.312 252.958C220.251 252.814 220.248 252.652 220.304 252.506C220.359 252.359 220.468 252.24 220.609 252.172C220.75 252.104 220.911 252.092 221.06 252.14C221.06 252.14 223.33 252.93 227.15 251.57C230.66 250.33 231.76 248.95 231.78 248.93C231.878 248.797 232.025 248.709 232.188 248.685C232.351 248.66 232.517 248.702 232.65 248.8C232.783 248.898 232.871 249.045 232.895 249.208C232.92 249.371 232.878 249.537 232.78 249.67C232.73 249.74 231.5 251.34 227.59 252.72C226.088 253.278 224.502 253.575 222.9 253.6V253.6Z" fill="white"/>
<path d="M194.79 246.54L234.86 264.97C235.441 265.239 236.095 265.309 236.72 265.17C237.346 265.031 237.908 264.69 238.32 264.2L243.63 257.97L245.52 260.51C245.807 260.904 245.962 261.378 245.962 261.865C245.962 262.352 245.807 262.827 245.52 263.22L240.86 269.71C240.555 270.134 240.115 270.442 239.611 270.584C239.108 270.726 238.572 270.693 238.09 270.49L194.38 251.77C193.45 251.38 192.32 250.77 192.99 249.41L194.79 246.54Z" fill="#EF6744"/>
<path d="M197.94 155.32C197.94 155.32 240.48 150.81 251.75 162.92C263.02 175.03 217.94 232.92 217.94 232.92L201.94 235.86C201.94 235.86 203.05 225.17 208.41 209.96C210.984 202.713 214.065 195.655 217.63 188.84C217.63 188.84 201.01 195.32 184.39 195.6C170.02 195.84 161.01 181.8 162.98 171.65C164.95 161.5 168.93 156.97 168.93 156.97L197.94 155.32Z" fill="url(#paint2_linear)"/>
<path d="M201.21 236.62L201.3 235.81C202.543 226.923 204.718 218.191 207.79 209.76C210.228 202.979 213.1 196.362 216.39 189.95C211.93 191.52 198.11 195.95 184.39 196.21C181.143 196.277 177.923 195.601 174.977 194.233C172.03 192.866 169.435 190.843 167.39 188.32C163.24 183.32 161.31 176.93 162.39 171.54C164.39 161.35 168.28 156.79 168.45 156.6L168.62 156.41H168.87L197.87 154.72C199.87 154.51 240.87 150.35 252.17 162.52C263.66 174.87 220.25 230.93 218.4 233.32L218.25 233.5H218.03L201.21 236.62ZM218.99 187.62L218.2 189.08C214.633 195.858 211.539 202.875 208.94 210.08C206.021 218.187 203.901 226.56 202.61 235.08L217.61 232.33C218.94 230.6 229.42 216.92 238.56 202.1C251.3 181.44 255.71 168.03 251.31 163.3C240.38 151.54 198.44 155.84 198.02 155.88L169.27 157.56C168.54 158.56 165.34 163.03 163.65 171.73C162.65 176.73 164.5 182.81 168.43 187.49C170.354 189.869 172.795 191.777 175.568 193.07C178.34 194.362 181.371 195.005 184.43 194.95C200.75 194.67 217.3 188.3 217.43 188.23L218.99 187.62Z" fill="white"/>
<path d="M221.42 186.25C221.33 186.251 221.241 186.231 221.16 186.193C221.079 186.155 221.007 186.099 220.95 186.03C220.849 185.904 220.801 185.744 220.816 185.584C220.831 185.423 220.907 185.275 221.03 185.17L226.77 180.44C226.83 180.388 226.901 180.348 226.977 180.324C227.053 180.299 227.133 180.291 227.212 180.298C227.292 180.306 227.369 180.329 227.439 180.367C227.509 180.405 227.571 180.457 227.62 180.52C227.671 180.582 227.71 180.653 227.734 180.729C227.757 180.806 227.766 180.887 227.758 180.967C227.751 181.046 227.728 181.124 227.69 181.195C227.653 181.266 227.602 181.329 227.54 181.38L221.81 186.11C221.702 186.204 221.563 186.254 221.42 186.25V186.25Z" fill="white"/>
<path d="M222.17 189.49C222.024 189.484 221.884 189.426 221.777 189.327C221.67 189.227 221.603 189.092 221.587 188.946C221.571 188.801 221.608 188.654 221.691 188.534C221.775 188.413 221.898 188.327 222.04 188.29L226.52 187.29C226.678 187.254 226.843 187.283 226.98 187.369C227.117 187.455 227.214 187.592 227.25 187.75C227.286 187.908 227.257 188.073 227.171 188.21C227.085 188.347 226.948 188.444 226.79 188.48L222.3 189.48L222.17 189.49Z" fill="white"/>
<path d="M200.22 123.77C186.93 123.77 182 112.11 181.95 112C181.893 111.848 181.897 111.681 181.96 111.532C182.023 111.383 182.141 111.264 182.29 111.2C182.44 111.141 182.607 111.143 182.755 111.207C182.903 111.271 183.02 111.39 183.08 111.54C183.13 111.64 187.76 122.54 200.22 122.54C217.8 122.54 224.53 104.11 224.59 103.93C224.646 103.779 224.759 103.656 224.905 103.587C225.051 103.518 225.217 103.508 225.37 103.56C225.446 103.587 225.515 103.628 225.575 103.682C225.634 103.736 225.682 103.801 225.717 103.873C225.751 103.946 225.771 104.024 225.775 104.104C225.779 104.184 225.767 104.264 225.74 104.34C225.67 104.53 218.65 123.74 200.22 123.76V123.77Z" fill="#2755A3"/>
<path d="M248.83 92.64L244.9 81.64L235.01 86.97L235.42 88.12L229.94 90.12L228.06 83.75L233.44 81.82L233.88 83.04L244.83 80.73L240.9 69.73L231 74.97L231.42 76.12L210.94 83.47C210.804 84.5058 210.92 85.5591 211.28 86.54C211.626 87.5213 212.206 88.4035 212.97 89.11L214.91 88.42L216.78 94.79L214.94 95.45C214.812 96.4809 214.926 97.5274 215.273 98.5065C215.62 99.4856 216.191 100.37 216.94 101.09L237.41 93.74L237.85 94.96L248.83 92.64Z" fill="black"/>
<path d="M244.82 80.6248C245.324 80.4437 244.853 77.8488 243.769 74.829C242.684 71.8092 241.396 69.5079 240.892 69.6891C240.387 69.8702 240.858 72.4651 241.943 75.4849C243.028 78.5047 244.316 80.806 244.82 80.6248Z" fill="#EF6744"/>
<path d="M248.736 92.0284C249.239 91.8463 248.763 89.2534 247.672 86.2372C246.581 83.221 245.288 80.9235 244.785 81.1056C244.281 81.2877 244.757 83.8806 245.848 86.8968C246.939 89.913 248.232 92.2105 248.736 92.0284Z" fill="#EF6744"/>
<path d="M225.77 104.23C226.565 104.638 227.434 104.883 228.326 104.95C229.217 105.017 230.113 104.905 230.96 104.62C232.689 104.191 234.258 103.275 235.48 101.98C234.885 99.1055 233.875 96.333 232.48 93.75C232.05 92.8087 231.41 91.9786 230.609 91.3233C229.808 90.668 228.868 90.2051 227.86 89.97C226.41 89.6583 224.905 89.7099 223.48 90.12C223.48 90.12 221.89 90.26 221.85 91.7C221.85 92.58 224.47 93.92 225.19 95.32C225.6 96.1274 225.935 96.971 226.19 97.84C226.19 97.84 224.12 96.6 223.76 97.57C223.4 98.54 224.76 99.63 225.18 101.2C225.478 102.188 225.676 103.203 225.77 104.23V104.23Z" fill="#EF6744"/>
<path d="M238.26 108.41L259.71 140.77L287.53 121.17L271.15 105.9L260.27 89.91L238.26 108.41Z" fill="white"/>
<path d="M239.28 120.97C239.147 121.845 239.19 122.737 239.404 123.595C239.619 124.453 240.001 125.261 240.53 125.97C241.485 127.475 242.848 128.679 244.46 129.44C244.46 129.44 248.63 127.97 249.63 125.69C249.63 125.58 245.53 119.41 245.53 119.41C245.53 119.41 246.44 116.31 245.4 116.27C244.36 116.23 243.4 118.27 242.03 119.17C240.66 120.07 239.28 120.97 239.28 120.97Z" fill="#EF6744"/>
<path d="M189.05 93.7C188.957 93.8081 188.895 93.9394 188.87 94.08L189.08 93.69L189.05 93.7Z" fill="#EF6744"/>
<path d="M201.72 88.73L202.1 86.11C202.1 86.11 200.2 85.99 199.72 84.84C199.672 84.7366 199.632 84.6296 199.6 84.52C199.14 83.28 197.26 78.91 194.6 81.93C193.001 83.5597 191.976 85.6659 191.68 87.93C191.56 89.65 192.16 90.41 191.52 91.93L191.46 92.02C190.874 92.8408 190.034 93.4454 189.07 93.74L188.86 94.13L186.32 98.89C186.619 99.5753 187.097 100.167 187.705 100.604C188.312 101.04 189.025 101.305 189.77 101.37C192.04 101.48 193.85 99.22 193.85 99.22L195.32 95.53C197.37 95.39 200.86 94.59 201.93 93.53C203.18 92.34 201.72 88.73 201.72 88.73ZM195.49 84.67C195.263 85.2848 195.118 85.9271 195.06 86.58C195.053 86.6569 195.017 86.7283 194.959 86.7801C194.902 86.8319 194.827 86.8604 194.75 86.86V86.86C194.671 86.8524 194.599 86.815 194.547 86.7556C194.495 86.6961 194.467 86.619 194.47 86.54C194.527 85.8236 194.689 85.1194 194.95 84.45C195.65 82.66 196.58 82.77 196.68 82.79C196.76 82.8019 196.831 82.845 196.879 82.9097C196.927 82.9744 196.947 83.0554 196.935 83.135C196.923 83.2146 196.88 83.2861 196.815 83.334C196.751 83.3818 196.67 83.4019 196.59 83.39C196.59 83.39 196 83.4 195.49 84.67ZM197.63 85.88C197.11 85.82 197.04 86.43 197.03 86.49C197.018 86.5616 196.982 86.6268 196.927 86.6743C196.872 86.7218 196.803 86.7486 196.73 86.75H196.68C196.601 86.7353 196.531 86.6907 196.484 86.6254C196.438 86.5601 196.418 86.4793 196.43 86.4C196.453 86.0861 196.598 85.7936 196.833 85.5845C197.068 85.3754 197.376 85.2661 197.69 85.28C197.73 85.2837 197.77 85.2955 197.805 85.3148C197.841 85.3341 197.873 85.3604 197.898 85.3922C197.923 85.424 197.942 85.4606 197.952 85.4997C197.963 85.5389 197.966 85.5798 197.96 85.62C197.956 85.6591 197.945 85.6971 197.926 85.7316C197.907 85.7661 197.882 85.7964 197.851 85.8207C197.82 85.8451 197.784 85.8629 197.747 85.873C197.709 85.8832 197.669 85.8856 197.63 85.88ZM200.76 90.21C200.434 90.4467 200.043 90.5791 199.64 90.59C199.322 90.6004 199.014 90.4854 198.78 90.27C198.723 90.213 198.691 90.1356 198.691 90.055C198.691 89.9744 198.723 89.897 198.78 89.84C198.837 89.783 198.914 89.7509 198.995 89.7509C199.076 89.7509 199.153 89.783 199.21 89.84C199.21 89.84 199.63 90.21 200.43 89.7C200.498 89.6562 200.58 89.6411 200.659 89.658C200.737 89.6749 200.806 89.7224 200.85 89.79C200.894 89.8576 200.909 89.9399 200.892 90.0186C200.875 90.0974 200.828 90.1662 200.76 90.21V90.21Z" fill="#EF6744"/>
<path d="M200.45 89.7C199.65 90.21 199.25 89.86 199.23 89.84C199.173 89.783 199.096 89.7509 199.015 89.7509C198.934 89.7509 198.857 89.783 198.8 89.84C198.743 89.897 198.711 89.9744 198.711 90.055C198.711 90.1356 198.743 90.213 198.8 90.27C199.034 90.4854 199.342 90.6004 199.66 90.59C200.063 90.5791 200.453 90.4467 200.78 90.21C200.848 90.1662 200.895 90.0974 200.912 90.0186C200.929 89.9399 200.914 89.8576 200.87 89.79C200.826 89.7224 200.757 89.6749 200.679 89.658C200.6 89.6411 200.518 89.6562 200.45 89.7V89.7Z" fill="black"/>
<path d="M196.91 83.14C196.917 83.1005 196.916 83.06 196.908 83.0209C196.899 82.9818 196.882 82.9448 196.859 82.9122C196.836 82.8796 196.806 82.8519 196.772 82.831C196.738 82.81 196.7 82.796 196.66 82.79C196.56 82.79 195.66 82.66 194.93 84.45C194.669 85.1194 194.507 85.8236 194.45 86.54C194.447 86.619 194.474 86.6961 194.527 86.7556C194.579 86.815 194.651 86.8524 194.73 86.86V86.86C194.807 86.8604 194.882 86.8318 194.939 86.7801C194.997 86.7283 195.033 86.6569 195.04 86.58C195.098 85.9271 195.243 85.2848 195.47 84.67C195.98 83.4 196.54 83.41 196.55 83.39C196.59 83.3986 196.632 83.3989 196.672 83.3909C196.712 83.3828 196.751 83.3666 196.784 83.3431C196.818 83.3197 196.847 83.2896 196.868 83.2546C196.89 83.2197 196.904 83.1807 196.91 83.14V83.14Z" fill="black"/>
<path d="M197.71 85.28C197.396 85.2662 197.088 85.3754 196.853 85.5845C196.618 85.7936 196.473 86.0861 196.45 86.4C196.438 86.4794 196.458 86.5602 196.505 86.6254C196.551 86.6907 196.621 86.7353 196.7 86.75H196.75C196.823 86.7486 196.892 86.7218 196.947 86.6743C197.002 86.6268 197.038 86.5616 197.05 86.49C197.05 86.43 197.13 85.82 197.65 85.88C197.689 85.8856 197.729 85.8832 197.767 85.8731C197.804 85.8629 197.84 85.8451 197.871 85.8208C197.902 85.7964 197.927 85.7661 197.946 85.7316C197.965 85.6971 197.976 85.6591 197.98 85.62C197.986 85.5798 197.983 85.5389 197.972 85.4997C197.962 85.4606 197.943 85.424 197.918 85.3922C197.893 85.3604 197.861 85.3341 197.825 85.3148C197.79 85.2955 197.751 85.2837 197.71 85.28V85.28Z" fill="black"/>
<path d="M189.27 93.33L189.12 93.61C189.22 93.49 189.31 93.4 189.27 93.33Z" fill="black"/>
<path d="M189.12 93.61L189.05 93.7L189.12 93.61Z" fill="black"/>
<path d="M200.84 79.1C199.41 76.77 197.78 78.17 197.78 78.17C197.78 78.17 197.58 74.17 195.17 73.47C192.76 72.77 190.8 75.78 190.8 75.78C189.829 75.2356 188.731 74.9597 187.619 74.9808C186.506 75.0019 185.419 75.3192 184.47 75.9C181.41 77.96 182.47 83.54 182.47 83.54C182.47 83.54 179.68 83.95 179.76 87.6C179.87 93.08 186.85 94.7 188.87 93.76L189.01 93.7L189.08 93.61L189.23 93.33C189.23 93.4 189.23 93.49 189.08 93.61V93.69C190.044 93.3954 190.884 92.7908 191.47 91.97L191.53 91.88C192.17 90.39 191.53 89.63 191.69 87.88C192.01 85.6454 193.041 83.5732 194.63 81.97C197.28 78.97 199.16 83.32 199.63 84.56C199.71 84.76 199.75 84.88 199.75 84.88C199.75 84.88 202.28 81.44 200.84 79.1Z" fill="black"/>
<path d="M261.53 134.92C263.805 134.92 265.65 133.075 265.65 130.8C265.65 128.525 263.805 126.68 261.53 126.68C259.255 126.68 257.41 128.525 257.41 130.8C257.41 133.075 259.255 134.92 261.53 134.92Z" fill="#2755A3"/>
<path d="M259.52 133.03L261.43 132.11L263.42 133.03L261.36 128.28L259.52 133.03Z" fill="white"/>
<path d="M241.59 108.61L259.3 93.72L269.21 106.98L250.43 121.74L241.59 108.61Z" fill="#F1C4D9"/>
<path d="M242.89 109.54H242.76C242.06 109.4 241.61 109.34 241.6 109.33C241.521 109.319 241.445 109.292 241.376 109.252C241.307 109.211 241.247 109.157 241.2 109.092C241.152 109.028 241.118 108.955 241.099 108.877C241.08 108.8 241.077 108.719 241.09 108.64C241.115 108.481 241.201 108.339 241.33 108.243C241.459 108.148 241.621 108.107 241.78 108.13C241.78 108.13 242.25 108.2 243.01 108.35C243.161 108.377 243.296 108.461 243.388 108.583C243.48 108.705 243.523 108.858 243.508 109.01C243.492 109.163 243.421 109.304 243.306 109.406C243.192 109.508 243.043 109.563 242.89 109.56V109.54Z" fill="#2755A3"/>
<path d="M266.63 122.13C266.27 122.13 265.937 122.13 265.63 122.13C265.55 122.127 265.472 122.109 265.399 122.076C265.327 122.043 265.262 121.995 265.208 121.937C265.154 121.878 265.112 121.809 265.085 121.734C265.058 121.659 265.046 121.58 265.05 121.5C265.048 121.419 265.064 121.338 265.095 121.264C265.127 121.189 265.174 121.122 265.234 121.067C265.293 121.013 265.364 120.971 265.441 120.946C265.518 120.92 265.599 120.911 265.68 120.92H266.68H267.06C267.4 120.92 267.74 120.92 268.06 120.92C268.14 120.917 268.22 120.929 268.295 120.957C268.371 120.984 268.44 121.027 268.499 121.081C268.558 121.135 268.605 121.201 268.639 121.273C268.673 121.346 268.692 121.425 268.695 121.505C268.698 121.585 268.686 121.665 268.658 121.74C268.631 121.816 268.588 121.885 268.534 121.944C268.48 122.003 268.414 122.05 268.342 122.084C268.269 122.118 268.19 122.137 268.11 122.14C267.78 122.14 267.43 122.14 267.11 122.14L266.63 122.13ZM270.47 121.9C270.32 121.899 270.176 121.844 270.064 121.744C269.952 121.645 269.879 121.508 269.86 121.36C269.843 121.2 269.891 121.039 269.992 120.914C270.093 120.788 270.24 120.708 270.4 120.69C271.22 120.59 272.01 120.46 272.74 120.3C272.899 120.27 273.063 120.302 273.199 120.389C273.335 120.477 273.432 120.613 273.47 120.77C273.503 120.929 273.472 121.095 273.384 121.231C273.296 121.367 273.158 121.464 273 121.5C272.23 121.66 271.4 121.79 270.54 121.89L270.47 121.9ZM263.19 121.83H263.08C262.246 121.68 261.427 121.459 260.63 121.17C260.481 121.112 260.36 120.998 260.293 120.852C260.226 120.707 260.218 120.541 260.27 120.39C260.297 120.315 260.338 120.245 260.392 120.186C260.446 120.127 260.511 120.079 260.584 120.046C260.657 120.012 260.736 119.993 260.816 119.991C260.896 119.988 260.975 120.001 261.05 120.03C261.781 120.294 262.534 120.495 263.3 120.63C263.458 120.662 263.597 120.753 263.689 120.886C263.78 121.018 263.817 121.181 263.79 121.34C263.763 121.475 263.691 121.597 263.586 121.686C263.48 121.775 263.348 121.826 263.21 121.83H263.19ZM258.63 120.16C258.521 120.163 258.414 120.135 258.32 120.08C257.596 119.654 256.901 119.179 256.24 118.66C256.114 118.558 256.034 118.411 256.015 118.25C255.996 118.09 256.041 117.928 256.14 117.8C256.243 117.677 256.39 117.597 256.55 117.579C256.71 117.56 256.871 117.604 257 117.7C257.609 118.191 258.254 118.636 258.93 119.03C259.042 119.099 259.129 119.201 259.178 119.323C259.227 119.445 259.235 119.58 259.201 119.707C259.167 119.834 259.094 119.946 258.991 120.028C258.888 120.11 258.761 120.156 258.63 120.16ZM254.8 117.16C254.641 117.158 254.488 117.097 254.37 116.99C253.81 116.44 253.24 115.85 252.66 115.21C252.563 115.089 252.516 114.936 252.528 114.781C252.54 114.626 252.611 114.482 252.725 114.378C252.84 114.273 252.99 114.216 253.145 114.219C253.3 114.221 253.449 114.282 253.56 114.39C254.12 115.01 254.67 115.58 255.22 116.11C255.334 116.224 255.397 116.379 255.397 116.54C255.397 116.701 255.334 116.856 255.22 116.97C255.125 117.086 254.989 117.161 254.84 117.18L254.8 117.16ZM251.5 113.57C251.413 113.571 251.326 113.552 251.247 113.516C251.167 113.48 251.097 113.426 251.04 113.36L250.83 113.11C250.404 112.629 249.909 112.214 249.36 111.88C249.224 111.794 249.127 111.657 249.091 111.499C249.056 111.342 249.084 111.177 249.17 111.04C249.258 110.906 249.395 110.811 249.552 110.775C249.708 110.74 249.873 110.767 250.01 110.85C250.663 111.25 251.253 111.746 251.76 112.32L251.97 112.57C252.049 112.658 252.1 112.767 252.117 112.883C252.134 113 252.116 113.119 252.066 113.226C252.016 113.332 251.936 113.422 251.835 113.483C251.734 113.544 251.618 113.575 251.5 113.57V113.57ZM247.5 110.88C247.424 110.894 247.346 110.894 247.27 110.88C246.539 110.581 245.791 110.324 245.03 110.11C244.95 110.091 244.874 110.056 244.807 110.007C244.741 109.957 244.685 109.895 244.643 109.824C244.601 109.752 244.575 109.673 244.565 109.591C244.555 109.509 244.561 109.426 244.584 109.346C244.607 109.267 244.646 109.193 244.699 109.129C244.751 109.065 244.817 109.012 244.89 108.974C244.964 108.936 245.044 108.914 245.126 108.908C245.209 108.902 245.292 108.913 245.37 108.94C246.171 109.167 246.958 109.438 247.73 109.75C247.858 109.805 247.963 109.903 248.028 110.026C248.093 110.149 248.114 110.291 248.087 110.428C248.06 110.565 247.987 110.688 247.88 110.777C247.774 110.867 247.639 110.917 247.5 110.92V110.88Z" fill="#2755A3"/>
<path d="M275.27 120.85C275.145 120.851 275.023 120.813 274.921 120.741C274.819 120.669 274.742 120.568 274.7 120.45C274.648 120.297 274.658 120.131 274.727 119.985C274.796 119.839 274.919 119.726 275.07 119.67C275.412 119.552 275.746 119.412 276.07 119.25C276.14 119.211 276.217 119.186 276.297 119.178C276.377 119.169 276.458 119.175 276.535 119.198C276.612 119.22 276.684 119.257 276.747 119.307C276.809 119.358 276.861 119.42 276.9 119.49C276.976 119.632 276.993 119.799 276.948 119.954C276.904 120.109 276.8 120.24 276.66 120.32C276.266 120.507 275.862 120.674 275.45 120.82C275.391 120.837 275.331 120.847 275.27 120.85V120.85Z" fill="#2755A3"/>
<path d="M279.43 119.24C279.43 119.24 269.71 104.79 278.97 104.79C287.91 104.79 279.43 119.24 279.43 119.24Z" fill="#EF6744"/>
<path d="M278.86 111.6C280.103 111.6 281.11 110.593 281.11 109.35C281.11 108.107 280.103 107.1 278.86 107.1C277.617 107.1 276.61 108.107 276.61 109.35C276.61 110.593 277.617 111.6 278.86 111.6Z" fill="white"/>
<path d="M266.08 111.34L252.77 97.97C252.715 97.906 252.648 97.854 252.572 97.8173C252.497 97.7806 252.414 97.7599 252.33 97.7566C252.246 97.7533 252.162 97.7674 252.084 97.7981C252.005 97.8287 251.934 97.8753 251.875 97.9348C251.815 97.9943 251.769 98.0654 251.738 98.1438C251.707 98.2222 251.693 98.306 251.697 98.3901C251.7 98.4742 251.721 98.5567 251.757 98.6324C251.794 98.7081 251.846 98.7754 251.91 98.83L255.29 102.22L249.95 107.72L244.41 104.97C244.339 104.934 244.262 104.913 244.183 104.907C244.104 104.901 244.024 104.911 243.949 104.936C243.873 104.961 243.804 105.001 243.744 105.053C243.684 105.105 243.635 105.169 243.6 105.24C243.564 105.312 243.542 105.39 243.536 105.47C243.53 105.549 243.54 105.63 243.565 105.706C243.59 105.782 243.63 105.853 243.682 105.913C243.735 105.974 243.798 106.024 243.87 106.06L256.43 112.38L260.81 115.44C260.914 115.509 261.035 115.547 261.16 115.55C261.29 115.55 261.416 115.509 261.521 115.432C261.626 115.355 261.703 115.247 261.742 115.123C261.781 115 261.78 114.867 261.738 114.744C261.696 114.621 261.616 114.514 261.51 114.44L257.31 111.52L259.41 106.38L265.22 112.21C265.275 112.268 265.342 112.314 265.416 112.345C265.49 112.376 265.57 112.391 265.65 112.39C265.812 112.389 265.966 112.325 266.08 112.21C266.194 112.094 266.258 111.938 266.258 111.775C266.258 111.612 266.194 111.456 266.08 111.34ZM256.24 110.92L251.09 108.33L256.15 103.11L258.47 105.44L256.24 110.92Z" fill="white"/>
<defs>
<linearGradient id="paint0_linear" x1="115.05" y1="206.33" x2="303.04" y2="206.33" gradientUnits="userSpaceOnUse">
<stop stop-color="#18222D"/>
<stop offset="0.14" stop-color="#1D3456"/>
<stop offset="0.29" stop-color="#214277"/>
<stop offset="0.43" stop-color="#254D8F"/>
<stop offset="0.56" stop-color="#26539E"/>
<stop offset="0.67" stop-color="#2755A3"/>
</linearGradient>
<linearGradient id="paint1_linear" x1="113.14" y1="217.01" x2="199.65" y2="217.01" gradientUnits="userSpaceOnUse">
<stop offset="0.28" stop-color="#151E27"/>
<stop offset="0.39" stop-color="#192A41"/>
<stop offset="0.58" stop-color="#1F3C6B"/>
<stop offset="0.75" stop-color="#234A8A"/>
<stop offset="0.9" stop-color="#26529C"/>
<stop offset="1" stop-color="#2755A3"/>
</linearGradient>
<linearGradient id="paint2_linear" x1="14890.1" y1="15955.8" x2="23140.9" y2="15955.8" gradientUnits="userSpaceOnUse">
<stop offset="0.28" stop-color="#151E27"/>
<stop offset="0.39" stop-color="#192A41"/>
<stop offset="0.58" stop-color="#1F3C6B"/>
<stop offset="0.75" stop-color="#234A8A"/>
<stop offset="0.9" stop-color="#26529C"/>
<stop offset="1" stop-color="#2755A3"/>
</linearGradient>
</defs>
</svg>
