<svg id="Layer_1" enable-background="new 0 0 512 512" height="512" viewBox="0 0 512 512" width="512" xmlns="http://www.w3.org/2000/svg"><g><path d="m256 512c-33.373 0-67.221-10.956-93.539-30.168-32.196-5.025-63.879-21.214-87.479-44.813-23.601-23.6-39.79-55.279-44.817-87.478-19.212-26.324-30.165-60.171-30.165-93.541s10.953-67.217 30.165-93.542c5.027-32.198 21.217-63.878 44.817-87.478s55.283-39.788 87.479-44.813c26.318-19.211 60.166-30.167 93.539-30.167 8.231 0 14.926 6.634 14.999 14.865.137 13.907 7.912 24.398 17.903 29.604 8.502 4.429 10.717 15.599 4.565 22.938-17.288 20.624-4.216 52.099 22.554 54.454 9.548.84 15.868 10.31 12.994 19.444-8.077 25.677 16.041 49.746 41.68 41.679 9.12-2.873 18.608 3.436 19.445 12.999 2.349 26.798 33.853 39.815 54.454 22.549 7.346-6.156 18.512-3.928 22.938 4.563 5.756 11.044 17.048 17.905 29.468 17.905 8.313 0 15.041 6.767 15 15.075-.204 40.532-15.225 72.993-30.165 93.467-5.027 32.198-21.217 63.877-44.817 87.477-23.6 23.599-55.282 39.787-87.479 44.813-26.318 19.213-60.166 30.168-93.539 30.168z" fill="#4b1e0a"/><path d="m349.539 481.832c32.196-5.025 63.879-21.214 87.479-44.813 23.601-23.6 39.79-55.279 44.817-87.477 14.94-20.474 29.961-52.936 30.165-93.467.041-8.308-6.688-15.075-15-15.075-12.42 0-23.712-6.861-29.468-17.905-4.425-8.491-15.591-10.719-22.938-4.563-20.601 17.266-52.105 4.249-54.454-22.549-.837-9.562-10.325-15.871-19.445-12.999-25.639 8.067-49.757-16.002-41.68-41.679 2.874-9.133-3.447-18.604-12.994-19.444-26.77-2.355-39.842-33.829-22.554-54.454 6.151-7.339 3.937-18.509-4.565-22.938-9.992-5.206-17.767-15.697-17.903-29.604-.073-8.231-6.768-14.865-14.999-14.865v512c33.373 0 67.221-10.955 93.539-30.168z" fill="#1e000a"/><path d="m116.86 186.273c-5.858-5.858-5.858-15.355 0-21.213l16.066-16.066c5.857-5.858 15.355-5.858 21.213 0s5.858 15.355 0 21.213l-16.066 16.066c-5.858 5.859-15.357 5.857-21.213 0z" fill="#af6432"/><path d="m373.927 346.941c-5.858-5.858-5.858-15.355 0-21.213l16.066-16.067c5.857-5.858 15.355-5.858 21.213 0s5.858 15.355 0 21.213l-16.066 16.066c-5.858 5.859-15.357 5.857-21.213.001z" fill="#823200"/><path d="m277.527 419.24c-5.858-5.858-5.858-15.355 0-21.213l16.066-16.067c5.857-5.858 15.355-5.858 21.213 0s5.858 15.355 0 21.213l-16.066 16.067c-5.858 5.859-15.356 5.857-21.213 0z" fill="#823200"/><g fill="#af6432"><path d="m181.127 298.74c-5.858-5.858-5.858-15.355 0-21.213l16.066-16.066c5.857-5.858 15.355-5.858 21.213 0s5.858 15.355 0 21.213l-16.066 16.066c-5.858 5.859-15.357 5.857-21.213 0z"/><path d="m197.193 411.207-16.066-16.067c-5.858-5.858-5.858-15.355 0-21.213 5.857-5.857 15.355-5.857 21.213 0l16.066 16.067c5.858 5.858 5.858 15.355 0 21.213-5.859 5.859-15.357 5.856-21.213 0z"/><path d="m100.794 314.807-16.067-16.067c-5.858-5.858-5.858-15.355 0-21.213 5.857-5.858 15.355-5.858 21.213 0l16.067 16.067c5.858 5.858 5.858 15.355 0 21.213-5.858 5.859-15.357 5.857-21.213 0z"/></g><path d="m293.594 314.807-16.066-16.067c-5.858-5.858-5.858-15.355 0-21.213 5.857-5.856 15.355-5.858 21.213 0l16.066 16.067c5.858 5.858 5.858 15.355 0 21.213-5.86 5.859-15.357 5.857-21.213 0z" fill="#823200"/><path d="m229.327 202.34-16.067-16.067c-5.858-5.858-5.858-15.355 0-21.213 5.857-5.858 15.355-5.858 21.213 0l16.067 16.067c5.858 5.858 5.858 15.355 0 21.213-5.858 5.859-15.356 5.857-21.213 0z" fill="#af6432"/></g></svg>