<?xml version="1.0" standalone="no"?>
<!DOCTYPE svg PUBLIC "-//W3C//DTD SVG 20010904//EN"
 "http://www.w3.org/TR/2001/REC-SVG-20010904/DTD/svg10.dtd">
<svg version="1.0" xmlns="http://www.w3.org/2000/svg"
 width="1280.000000pt" height="853.000000pt" viewBox="0 0 1280.000000 853.000000"
 preserveAspectRatio="xMidYMid meet">
<g transform="translate(0.000000,853.000000) scale(0.100000,-0.100000)"
fill="#8bc34a" stroke="none">
<path d="M3232 8278 c-15 -15 -17 -1034 -3 -1057 6 -9 4 -22 -4 -35 -25 -38
-175 -438 -175 -465 1 -59 -43 -56 717 -61 l697 -5 198 -219 c109 -120 196
-222 193 -226 -7 -11 -55 -19 -55 -9 0 4 12 10 28 12 l27 4 -30 1 c-64 3 -87
-52 -30 -71 17 -6 44 -21 60 -35 28 -24 29 -25 5 -17 -14 5 -38 8 -53 7 -16
-2 -42 7 -58 19 -34 24 -62 22 -67 -6 -6 -28 -21 -45 -41 -45 -10 0 -32 -11
-51 -25 -19 -14 -43 -25 -54 -25 -11 0 -27 -7 -37 -16 -16 -14 -20 -14 -48 7
-17 12 -28 26 -25 31 3 4 -10 8 -30 8 -19 0 -36 -5 -38 -12 -3 -7 -13 -5 -31
7 -21 13 -30 15 -41 6 -10 -8 -21 -8 -40 -1 -37 14 -116 12 -146 -3 -28 -14
-39 -55 -18 -68 8 -6 -18 -9 -67 -9 -44 0 -96 0 -115 -1 -19 -1 -48 2 -63 6
-19 5 -38 2 -60 -10 -31 -17 -33 -16 -81 9 -56 30 -116 34 -159 11 -21 -10
-34 -12 -47 -5 -43 23 -93 8 -181 -56 -29 -21 -58 -34 -77 -34 -17 0 -34 -5
-37 -11 -4 -6 -26 -8 -59 -4 -41 5 -55 3 -65 -9 -22 -27 -9 -51 27 -50 19 1
32 -3 32 -10 0 -23 -24 -36 -67 -36 -55 0 -88 -29 -80 -70 7 -30 -14 -56 -69
-83 -32 -17 -60 -44 -52 -52 3 -3 20 6 39 20 19 13 45 30 59 37 14 7 37 20 52
30 14 10 33 15 42 12 19 -7 21 -20 5 -30 -6 -4 -9 -20 -6 -39 4 -27 0 -35 -26
-56 -18 -14 -47 -34 -64 -44 -18 -11 -33 -23 -33 -27 0 -15 17 -8 55 22 21 17
44 30 51 30 7 0 25 11 41 24 26 23 29 23 60 8 32 -15 34 -15 86 21 33 23 65
37 84 37 16 0 51 6 76 14 41 12 47 12 47 0 0 -8 12 -26 26 -39 22 -21 25 -27
14 -40 -11 -14 -14 -13 -26 2 -14 20 -28 12 -39 -25 -6 -22 -4 -23 31 -20 29
2 39 -1 42 -13 2 -10 -6 -19 -19 -22 -22 -6 -22 -7 -5 -26 31 -34 17 -100 -39
-181 -52 -75 -55 -99 -22 -185 8 -22 17 -57 20 -77 l6 -38 -52 1 c-29 0 -250
13 -492 27 l-440 27 -5 523 c-4 450 -7 524 -20 532 -9 6 -362 10 -906 10 -850
0 -892 -1 -907 -18 -15 -17 -17 -74 -17 -614 0 -532 2 -597 16 -609 14 -11 14
-14 1 -24 -19 -14 -217 -518 -217 -554 0 -15 6 -36 14 -47 14 -19 37 -19 1069
-19 1023 0 1056 1 1076 19 12 11 21 31 21 48 0 39 -116 506 -134 540 -11 20
-12 30 -3 41 11 13 67 14 442 7 237 -5 460 -9 497 -9 l66 -1 26 -44 c14 -25
26 -54 26 -66 0 -32 18 -60 40 -60 13 0 21 -9 25 -27 12 -58 21 -78 35 -78 24
0 23 30 -3 82 -13 26 -27 64 -31 85 -4 20 -13 39 -21 42 -8 3 -15 18 -15 33 0
23 5 19 36 -33 59 -96 64 -107 64 -151 0 -56 7 -71 41 -89 22 -11 29 -22 29
-44 0 -45 25 -62 136 -94 92 -26 103 -32 115 -60 11 -23 23 -32 52 -38 20 -4
70 -30 110 -57 39 -27 82 -52 95 -55 18 -6 22 -14 22 -50 0 -34 -6 -48 -31
-72 -49 -46 -62 -86 -49 -149 6 -30 22 -69 35 -87 13 -18 34 -51 46 -73 28
-51 111 -182 140 -218 12 -16 37 -36 55 -44 28 -14 33 -22 39 -66 6 -41 4 -52
-11 -67 -11 -10 -156 -134 -324 -275 -229 -192 -306 -252 -308 -238 -8 49 -14
65 -32 83 -20 20 -39 20 -1234 20 -1212 0 -1213 0 -1240 -21 l-26 -20 0 -778
c0 -757 1 -778 19 -795 20 -18 19 -18 -3 -40 -14 -13 -75 -145 -155 -341 -142
-346 -154 -392 -111 -435 20 -20 33 -20 1450 -20 1577 0 1476 -4 1499 62 10
29 2 70 -80 378 -61 232 -97 350 -109 361 -17 14 -17 16 1 38 18 22 19 52 19
601 l0 577 333 323 332 324 8 -80 c4 -43 12 -131 18 -194 6 -63 17 -131 24
-150 8 -19 20 -55 27 -80 8 -28 21 -49 34 -54 13 -6 25 -26 32 -53 8 -30 19
-46 35 -52 13 -5 29 -17 37 -26 8 -9 31 -23 51 -32 21 -8 40 -21 43 -28 8 -22
66 -47 91 -41 41 10 37 33 -11 61 -45 27 -53 42 -31 64 10 10 7 16 -15 33 -20
14 -28 29 -28 49 0 23 -7 34 -30 47 -33 19 -37 33 -16 51 22 18 25 46 9 80
-18 37 -8 56 36 64 21 4 30 13 33 29 3 20 8 23 38 21 60 -4 80 4 80 35 0 20
-9 32 -33 47 l-32 20 40 3 c50 4 63 15 71 58 3 19 9 34 12 34 4 0 27 -20 52
-44 64 -63 204 -178 280 -230 85 -58 320 -166 468 -215 423 -141 880 -136
1312 14 101 35 372 165 435 208 53 36 177 138 268 220 l87 79 113 -108 c61
-59 208 -200 325 -313 l212 -206 0 -547 c0 -528 1 -549 19 -567 19 -19 19 -20
1 -33 -10 -7 -78 -158 -154 -343 -142 -343 -154 -386 -120 -433 l15 -22 1445
0 1446 0 30 30 c25 26 29 37 26 68 -3 20 -44 183 -92 362 -64 237 -92 329
-106 338 -18 13 -18 14 1 33 18 18 19 42 19 792 l0 774 -23 21 c-23 22 -26 22
-429 22 -347 0 -407 2 -418 15 -7 8 -16 12 -21 9 -5 -3 -9 2 -9 11 0 21 -38
95 -49 95 -18 0 -30 -27 -33 -75 l-3 -50 -192 -3 c-106 -1 -193 1 -193 6 0 4
20 28 45 52 24 24 51 58 60 76 21 45 19 110 -5 144 -35 49 -79 159 -104 257
-17 65 -32 104 -50 122 -13 14 -28 39 -32 54 -6 28 -6 28 15 15 20 -12 24 -10
42 15 29 38 57 35 74 -8 18 -41 43 -57 69 -43 17 9 17 11 -3 25 -21 14 -57 72
-53 85 1 4 -11 21 -27 39 -16 17 -37 49 -47 70 -13 31 -31 47 -76 71 -32 17
-58 35 -58 39 0 5 -21 9 -47 9 -34 0 -53 -6 -69 -21 l-23 -21 -20 40 c-11 22
-25 43 -31 47 -19 12 -48 -5 -60 -35 -10 -24 -16 -28 -30 -20 -25 14 -31 35
-18 71 9 27 8 34 -5 44 -21 15 -22 25 -2 25 26 0 29 30 6 60 -11 16 -21 42
-21 58 0 30 -21 58 -33 45 -4 -3 -7 -1 -7 5 0 6 5 14 10 17 17 11 11 25 -15
35 -15 6 -25 17 -25 29 0 30 -17 34 -34 9 -16 -22 -16 -22 -16 -1 0 11 7 23
15 27 39 14 2 56 -50 56 -28 0 -44 25 -26 43 15 15 14 36 -3 53 -20 19 -33 18
-46 -7 -10 -17 -7 -27 15 -59 15 -21 27 -54 28 -74 1 -20 5 -36 10 -36 4 0 7
5 7 11 0 8 5 7 16 -2 14 -11 14 -13 0 -21 -9 -5 -16 -20 -16 -34 0 -20 6 -26
32 -31 l31 -6 -28 -23 c-16 -13 -32 -21 -37 -18 -4 3 -5 -2 -2 -11 4 -8 -1
-27 -11 -41 -27 -41 -6 -42 28 -1 35 41 57 48 57 18 0 -24 16 -30 58 -20 47
10 42 -14 -8 -34 -29 -11 -40 -21 -40 -37 0 -17 3 -19 19 -10 11 5 23 10 28
10 12 0 33 -50 33 -78 0 -13 5 -33 11 -44 9 -18 9 -20 -4 -15 -9 3 -26 -2 -39
-12 -24 -19 -82 -34 -91 -24 -4 3 0 15 8 27 22 31 18 38 -15 31 -17 -4 -30 -2
-30 3 0 15 31 26 75 26 36 1 40 4 40 26 0 31 -38 40 -65 15 -17 -15 -20 -15
-43 9 -29 29 -67 35 -67 11 0 -8 -4 -15 -10 -15 -18 0 -10 60 10 80 l21 21
-23 19 c-40 34 -63 26 -79 -27 -14 -44 -21 -51 -74 -79 -68 -34 -91 -67 -76
-108 7 -18 20 -27 45 -31 32 -7 34 -9 24 -31 -9 -18 -7 -29 6 -49 9 -14 23
-25 31 -25 9 0 41 -9 72 -20 l57 -20 29 31 c16 18 29 40 30 50 1 11 5 19 9 19
14 0 27 -73 21 -118 -5 -39 -4 -44 13 -40 12 2 21 15 25 33 l6 30 13 -27 c14
-30 50 -38 50 -12 0 9 -9 29 -20 45 -20 27 -20 29 -3 55 l18 27 -33 -6 c-24
-5 -32 -3 -32 8 0 8 6 15 14 15 8 0 16 5 18 11 2 7 12 7 31 -2 21 -9 33 -10
52 -1 37 17 40 16 53 -24 9 -29 8 -41 -4 -59 -19 -30 -8 -37 31 -18 l33 16
-25 22 c-22 18 -25 27 -19 58 4 21 13 37 20 37 14 0 40 -55 37 -78 -1 -6 10
-17 24 -22 14 -5 25 -14 25 -20 0 -20 49 -60 73 -60 13 0 32 -9 42 -20 15 -17
16 -24 6 -47 -7 -15 -11 -56 -10 -92 2 -54 0 -67 -13 -69 -9 -2 -19 6 -23 17
-3 12 -18 24 -33 27 -52 11 -56 14 -44 26 19 19 14 66 -7 78 -27 14 -108 13
-121 -2 -6 -7 -21 -31 -33 -52 -28 -50 -43 -55 -52 -16 -5 25 -11 31 -28 28
-16 -2 -32 -23 -57 -73 -35 -70 -35 -70 -105 -95 -57 -21 -75 -33 -103 -70
-19 -25 -45 -51 -58 -58 -38 -20 -47 -50 -49 -162 -1 -58 -6 -120 -10 -138 -6
-30 -5 -33 11 -28 72 21 71 22 65 -31 l-6 -48 -141 -3 c-169 -3 -176 -7 -184
-104 l-5 -61 -245 203 c-135 111 -253 210 -263 219 -16 16 -14 21 37 91 69 97
152 242 203 355 81 181 152 447 168 638 7 70 9 77 29 77 31 -1 76 -65 76 -110
0 -20 9 -62 19 -93 14 -40 16 -57 8 -57 -24 0 -68 38 -85 71 -16 33 -33 41
-40 20 -2 -5 12 -27 30 -48 19 -21 40 -56 47 -78 7 -22 28 -54 47 -72 20 -19
34 -42 34 -56 0 -14 15 -39 35 -60 19 -19 42 -54 51 -76 11 -29 24 -43 41 -47
32 -8 45 10 37 55 -7 33 -6 33 25 26 25 -5 31 -3 31 9 0 17 -24 30 -72 40 -22
5 -28 12 -28 31 0 18 5 25 20 25 11 0 20 2 20 4 0 2 -13 30 -30 61 -16 31 -30
63 -30 70 0 7 -10 19 -22 28 -39 25 -77 167 -45 167 21 0 97 -78 97 -100 0
-27 16 -25 35 4 9 14 29 29 45 34 53 19 48 82 -15 173 -59 87 -69 139 -25 139
24 0 25 -8 5 -37 -15 -21 -14 -23 10 -39 33 -21 55 -5 55 41 0 37 12 45 68 45
30 0 43 8 82 49 25 27 54 68 65 90 18 41 18 41 74 41 144 0 1016 -21 1019 -25
2 -2 -26 -79 -62 -172 -39 -99 -66 -183 -66 -205 0 -73 -87 -68 1081 -68
l1050 0 24 25 c14 13 25 32 25 41 0 35 -132 539 -145 554 -11 12 -11 17 1 28
12 11 14 109 14 607 0 582 0 595 -20 615 -20 20 -33 20 -908 20 -848 0 -890
-1 -905 -18 -15 -17 -17 -74 -17 -620 0 -390 4 -603 10 -607 29 -18 -14 -23
-262 -29 -150 -3 -365 -8 -478 -11 l-205 -5 48 23 c26 12 52 29 57 37 17 27
11 101 -12 142 -17 31 -20 43 -11 56 6 9 16 16 22 15 6 -2 11 1 11 7 0 14 -35
30 -64 30 -32 0 -47 27 -31 57 6 13 15 20 18 16 4 -3 7 -1 7 5 0 6 -9 16 -20
22 -10 6 -17 16 -14 23 2 7 -11 33 -31 58 -19 24 -35 50 -35 57 0 14 -60 95
-93 125 -24 22 -62 23 -53 2 9 -23 -7 -17 -27 10 -21 30 -15 31 63 14 39 -8
54 -8 66 2 8 7 32 15 52 19 38 6 40 11 26 59 -5 17 -4 22 4 17 7 -4 12 -16 12
-26 0 -11 16 -32 35 -47 25 -20 35 -36 35 -55 0 -21 11 -36 49 -64 35 -26 56
-53 72 -88 l23 -51 7 105 c7 101 6 106 -17 137 -13 17 -24 36 -24 41 0 5 23
12 51 16 28 4 65 17 83 29 17 12 32 23 34 23 2 1 -7 18 -18 37 -12 20 -19 40
-16 45 5 9 41 4 106 -13 l25 -7 -28 26 c-15 14 -53 33 -85 42 -31 8 -63 17
-69 19 -7 3 -13 14 -13 26 0 19 4 21 38 16 20 -3 47 -9 60 -13 30 -9 28 10 -4
30 -32 22 -235 74 -333 87 -90 11 -114 6 -105 -23 4 -14 2 -18 -5 -14 -6 4
-11 16 -11 27 0 22 -3 23 -85 8 -52 -10 -69 -9 -110 5 -27 9 -64 16 -82 16
-19 0 -61 12 -95 26 -56 24 -66 25 -123 15 -83 -15 -109 -13 -71 4 l30 13 -41
7 c-28 4 -40 11 -37 19 7 19 -21 38 -53 34 -37 -4 -39 -39 -3 -48 23 -6 24 -7
6 -17 -22 -12 -13 -33 14 -33 10 0 22 -4 25 -10 4 -6 -6 -10 -24 -10 -16 0
-33 5 -36 10 -3 6 -21 10 -40 10 -19 0 -49 9 -68 20 -29 17 -52 21 -138 21
-57 0 -130 1 -162 2 -56 2 -57 3 -38 19 12 9 21 21 21 27 0 18 -54 40 -108 43
-29 2 -51 6 -49 9 1 4 65 64 142 133 l140 126 712 0 713 0 17 26 c16 26 15 33
-36 243 -29 119 -59 229 -67 245 -9 19 -11 34 -4 46 6 12 10 215 10 528 0 480
-1 510 -18 525 -17 16 -85 17 -774 17 -719 0 -756 -1 -771 -18 -15 -17 -17
-68 -17 -533 0 -397 3 -518 12 -527 9 -9 10 -15 2 -20 -14 -9 -184 -447 -184
-473 0 -44 18 -59 70 -59 28 0 50 -3 50 -6 0 -4 -45 -55 -101 -115 l-101 -109
-28 15 c-44 23 -72 20 -68 -7 2 -18 11 -24 36 -26 33 -3 33 -4 16 -23 -9 -10
-20 -19 -24 -19 -3 0 -51 29 -105 65 -155 103 -432 229 -545 249 -19 4 10 -9
65 -28 190 -65 338 -138 503 -248 l72 -49 -32 -40 c-29 -35 -37 -39 -65 -34
-24 4 -34 1 -42 -12 -9 -17 -10 -17 -28 0 -11 9 -30 17 -42 17 -28 0 -112 61
-106 78 3 7 -4 12 -18 12 -12 0 -53 20 -90 45 -41 26 -75 42 -85 38 -9 -3 11
14 45 37 63 42 83 60 64 60 -5 0 -13 -4 -16 -10 -3 -5 -26 -23 -50 -40 l-44
-31 -90 46 c-50 25 -94 45 -98 44 -5 0 33 -21 82 -47 73 -37 85 -47 65 -49
-56 -8 -72 -14 -66 -28 3 -9 -12 -20 -52 -34 -31 -12 -47 -19 -35 -17 26 5 57
-26 58 -57 0 -15 6 -22 21 -22 20 0 74 -53 74 -73 0 -10 29 -26 43 -24 11 3 8
-5 -8 -22 -13 -12 -21 -13 -40 -4 -30 14 -47 1 -23 -16 17 -12 17 -14 0 -30
-26 -22 -33 -20 -26 8 4 19 1 26 -16 31 -29 9 -48 -9 -30 -29 13 -16 13 -16
-33 -30 -10 -3 -13 3 -10 18 6 30 -27 57 -79 62 -108 12 -105 10 -133 71 -20
44 -23 58 -13 65 10 6 9 8 -4 8 -10 0 -32 28 -57 74 -53 96 -147 215 -212 266
-46 36 -49 40 -23 34 16 -4 37 -11 46 -15 9 -5 27 -5 40 0 19 7 10 11 -52 22
l-75 14 125 5 c115 5 109 6 -65 7 -104 0 -176 -2 -160 -6 26 -6 19 -9 -50 -25
-88 -19 -146 -40 -85 -30 27 4 15 -4 -50 -38 -47 -25 -120 -68 -163 -97 l-77
-52 -73 3 -72 3 105 51 c58 28 126 59 153 69 26 10 46 20 43 22 -6 6 -168 -62
-248 -104 -37 -19 -74 -33 -82 -30 -8 3 -22 19 -30 36 l-16 30 79 30 c113 43
273 87 387 105 147 23 155 25 79 20 -183 -13 -429 -90 -672 -209 -98 -48 -190
-87 -215 -90 -96 -13 -108 -16 -108 -30 0 -7 6 -16 13 -18 6 -3 -15 -6 -48 -6
-34 -1 -83 -10 -114 -21 -66 -26 -88 -21 -41 8 41 26 117 49 215 67 79 14 105
23 105 36 0 16 -51 22 -113 14 -34 -5 -80 -8 -101 -9 l-40 -1 -152 200 c-84
110 -153 203 -153 207 -1 4 29 8 65 10 59 3 69 6 86 29 l20 26 -57 234 c-32
129 -63 239 -70 244 -10 9 -10 14 1 30 12 15 14 107 14 516 0 299 -4 508 -10
523 l-10 26 -768 0 c-584 0 -771 -3 -780 -12z m1512 -94 c3 -9 6 -210 6 -449
0 -353 -3 -435 -14 -444 -9 -8 -211 -10 -737 -9 l-724 3 -3 445 c-1 245 0 451
3 458 3 9 159 12 734 12 655 0 729 -2 735 -16z m4724 -236 c17 -17 17 -889 0
-906 -17 -17 -1439 -17 -1456 0 -17 17 -17 889 0 906 17 17 1439 17 1456 0z
m-3129 -1470 c1 23 1 23 32 5 78 -46 216 -209 277 -330 20 -39 20 -42 4 -47
-28 -8 -162 -18 -162 -13 0 3 4 17 10 31 11 30 26 33 52 9 24 -22 36 -8 14 16
-17 19 -17 20 5 23 12 2 24 9 27 16 4 14 -81 17 -162 6 -53 -8 -57 -20 -26
-71 l20 -33 -35 0 -35 0 -2 68 -2 67 -3 -67 -4 -68 -92 -2 -92 -2 93 -3 92 -4
0 -134 0 -135 -27 -5 c-42 -9 -57 -19 -71 -48 -10 -20 -10 -32 -2 -48 10 -17
19 -20 56 -17 24 2 44 0 44 -4 0 -5 -7 -8 -15 -8 -22 0 -38 -39 -32 -81 4 -32
2 -39 -16 -45 -11 -3 -35 -23 -53 -42 -30 -33 -34 -34 -39 -17 -18 56 -40 95
-50 91 -7 -2 -16 14 -23 38 -15 55 -33 79 -55 70 -30 -11 -31 -48 -3 -89 27
-39 26 -47 -13 -92 -12 -14 -30 -23 -48 -23 l-28 1 28 15 c32 18 50 55 41 90
-8 31 -39 31 -59 0 -9 -13 -25 -26 -36 -29 -11 -3 -17 -11 -14 -19 3 -8 1 -27
-4 -41 l-11 -27 58 0 c46 -1 54 -3 42 -13 -22 -18 -23 -87 -2 -88 28 -2 36 -4
65 -19 24 -12 28 -19 25 -49 -2 -25 -7 -35 -17 -33 -8 2 -42 6 -76 9 l-61 6
-12 -79 c-17 -111 -16 -124 9 -124 11 0 29 5 40 10 15 8 19 7 19 -4 0 -12 -30
-39 -79 -73 -2 -1 -12 -26 -22 -55 -13 -39 -24 -55 -41 -59 -23 -7 -23 -7 -1
-8 17 -1 21 -5 16 -18 -6 -20 -103 -123 -114 -123 -4 0 -10 12 -12 28 -3 23
-4 22 -6 -8 0 -20 -8 -46 -17 -58 -26 -37 -32 -76 -22 -128 5 -27 15 -86 22
-131 15 -98 33 -90 -159 -68 -137 15 -171 18 -164 11 2 -2 79 -12 172 -22
l167 -17 2 -141 2 -141 5 110 c5 96 7 106 17 80 7 -16 26 -47 43 -69 17 -21
31 -43 31 -49 0 -24 56 -81 97 -99 l45 -20 86 28 c102 32 174 35 228 8 l39
-19 3 -112 3 -113 -128 0 c-123 1 -433 16 -439 23 -2 1 -7 54 -13 117 l-10
115 5 -117 c3 -65 1 -118 -3 -118 -70 0 -560 73 -572 86 -3 2 -11 37 -18 77
l-12 72 5 -62 5 -62 -28 10 c-15 4 -50 11 -76 15 -36 4 -58 14 -86 40 -21 19
-43 34 -49 34 -13 0 -65 72 -91 125 -21 45 -55 79 -88 90 -21 6 -23 12 -23 82
0 42 -3 73 -7 69 -4 -4 -6 -38 -5 -76 3 -62 1 -70 -15 -70 -28 0 -60 26 -84
69 -31 56 -60 66 -121 44 -59 -21 -81 -11 -86 36 -3 25 0 31 15 29 28 -3 113
13 113 22 0 12 -58 30 -96 30 -31 0 -34 3 -34 30 0 25 4 30 35 36 45 8 44 18
-4 32 -52 16 -86 15 -101 -3 -17 -20 3 -45 36 -45 23 0 24 -3 24 -75 0 -68 -2
-75 -20 -75 -11 0 -20 -4 -20 -10 0 -5 -8 -10 -19 -10 -28 0 -63 -41 -104
-120 l-36 -70 -21 22 c-26 28 -22 39 20 53 50 17 50 35 0 35 l-41 0 6 34 c6
29 3 36 -15 46 -12 7 -31 9 -42 7 -18 -5 -19 -2 -14 29 9 44 -3 104 -21 111
-8 3 -24 -4 -37 -16 -45 -42 -66 -20 -36 39 22 42 23 81 4 87 -6 2 -29 -15
-52 -37 -53 -52 -85 -52 -90 -1 -4 43 12 81 49 117 26 24 41 29 105 35 59 5
79 11 99 29 33 31 78 19 83 -23 4 -32 31 -37 39 -7 10 37 28 14 31 -38 3 -55
-9 -68 -33 -35 -18 24 -140 26 -140 3 0 -11 16 -16 65 -20 50 -4 70 -10 88
-27 13 -14 34 -23 52 -23 32 0 40 14 14 24 -8 3 -13 10 -9 15 3 5 0 42 -6 82
-13 86 -6 108 49 143 22 14 56 42 76 63 l36 38 -5 -35 c-3 -28 -2 -27 7 8 9
34 20 49 49 68 21 13 46 35 55 49 9 13 25 27 35 30 11 4 48 33 82 64 68 63
105 85 87 51 -15 -28 -13 -33 15 -28 29 6 29 7 10 -56 -8 -27 -15 -56 -14 -65
0 -9 8 11 17 44 10 33 22 60 27 60 6 0 51 -21 100 -47 50 -25 125 -58 168 -73
73 -26 77 -29 78 -59 2 -31 2 -31 6 -3 4 26 7 28 36 23 l32 -6 -29 11 c-27 11
-28 14 -22 58 3 25 17 93 31 150 14 57 24 106 21 108 -4 5 -52 -189 -62 -254
-4 -24 -10 -43 -15 -43 -40 0 -349 141 -349 160 0 12 23 28 52 35 15 4 32 13
39 21 9 11 6 14 -19 14 -17 0 -33 4 -36 9 -10 15 4 39 26 45 18 4 19 7 8 21
-18 22 -11 25 56 26 32 1 65 6 72 11 8 7 12 7 12 0 0 -6 -15 -20 -34 -31 -32
-20 -46 -39 -46 -63 0 -7 17 -9 45 -6 25 3 45 2 45 -3 0 -5 11 -9 25 -9 31 0
33 29 5 75 -16 26 -18 38 -10 66 13 45 14 43 -17 79 -16 19 -29 51 -33 78 -7
41 -4 51 24 94 17 26 35 48 39 48 5 0 21 -8 35 -19 35 -24 120 -66 152 -75 14
-4 -16 13 -66 38 -130 65 -136 76 -62 122 28 18 37 29 30 37 -7 8 -3 20 13 39
23 27 23 27 28 5 3 -12 9 -44 13 -71 6 -42 11 -50 35 -60 16 -6 29 -18 29 -27
0 -32 22 -77 43 -88 20 -11 20 -11 -8 -6 -28 4 -29 4 -7 -7 15 -8 21 -17 16
-27 -27 -64 -74 -206 -71 -214 1 -5 9 10 16 34 7 24 26 79 43 121 23 61 33 76
46 72 13 -5 14 -4 3 4 -15 11 -7 32 13 32 16 0 49 36 69 76 14 26 23 32 60 36
24 3 89 26 146 52 86 39 113 46 164 46 72 0 92 9 83 38 -8 23 20 88 41 96 17
7 16 -2 -2 -54 -8 -23 -15 -48 -14 -54 0 -6 9 13 19 42 33 93 68 159 94 176
14 9 47 17 73 17 26 1 39 4 28 6 -11 3 -29 12 -40 19 -11 8 -27 14 -37 14 -25
0 -23 6 25 91 57 101 130 192 192 241 50 40 50 40 56 16 l7 -23 1 23z m-114
-51 c-64 -64 -134 -164 -176 -249 -27 -57 -42 -64 -81 -40 -27 17 -28 19 -11
34 10 8 35 21 56 28 52 16 34 35 -36 36 -29 0 -67 8 -86 16 l-34 16 44 32 c62
45 171 108 230 132 36 15 46 24 37 30 -9 7 -7 8 7 4 11 -3 38 1 60 9 22 8 43
14 47 15 3 0 -22 -28 -57 -63z m-593 -122 l18 -35 -38 0 c-21 0 -64 -5 -96
-11 -31 -5 -63 -8 -69 -6 -12 4 138 86 158 86 6 0 18 -15 27 -34z m1566 -132
c54 -35 56 -37 32 -44 -14 -4 -50 -8 -80 -8 -64 -1 -94 -15 -70 -31 8 -5 22
-10 30 -10 9 0 4 -9 -15 -24 l-30 -24 -22 26 c-11 15 -19 30 -16 35 2 4 -6 11
-19 16 -13 5 -31 18 -42 29 -18 21 -18 21 20 37 21 8 44 13 50 11 11 -4 42 3
102 23 2 1 29 -16 60 -36z m138 -93 c24 -17 44 -34 44 -39 0 -4 -35 -13 -77
-20 -63 -11 -81 -18 -102 -42 -14 -16 -36 -29 -48 -29 -27 0 -30 15 -5 29 16
10 16 10 0 11 -12 0 -18 8 -18 23 0 39 25 54 158 96 2 1 23 -13 48 -29z m-638
-25 c12 -25 22 -49 22 -53 0 -5 -36 -8 -80 -8 -83 1 -96 9 -64 41 15 15 18 15
35 -1 11 -10 22 -14 27 -10 4 4 -1 13 -11 21 -16 11 -14 13 14 19 22 4 30 10
25 21 -13 35 12 11 32 -30z m-1452 9 c2 -25 1 -26 -64 -22 l-66 3 -51 -48 -50
-49 46 36 c38 29 48 33 53 21 4 -11 21 -15 66 -15 40 0 62 -4 65 -12 10 -31 9
-53 -2 -51 -6 2 -33 -21 -60 -50 -42 -46 -52 -52 -78 -47 -23 4 -30 10 -31 30
-1 14 6 30 14 36 21 16 7 32 -34 40 -47 9 -60 40 -30 73 24 27 102 65 115 57
5 -3 22 1 37 9 45 23 69 19 70 -11z m1214 -3 c0 -10 10 -33 23 -52 l23 -34
-40 -15 c-43 -17 -57 -36 -29 -42 15 -4 14 -7 -9 -18 -15 -7 -32 -26 -39 -42
-23 -56 -29 -38 -29 91 l0 131 50 0 c42 0 50 -3 50 -19z m5531 -11 c18 -10 19
-27 19 -530 0 -503 -1 -520 -19 -530 -11 -5 -70 -10 -131 -10 -96 0 -111 2
-106 15 3 8 2 15 -3 15 -5 0 -14 -7 -21 -15 -11 -13 -103 -15 -718 -15 -642 0
-707 1 -724 17 -17 15 -18 45 -18 524 l0 508 22 15 c20 14 117 16 851 16 552
0 835 -3 848 -10z m-7323 -18 c2 -8 -8 -12 -30 -12 -31 1 -32 1 -13 15 21 17
37 15 43 -3z m-12 -56 l36 -7 -22 -24 c-12 -12 -32 -25 -46 -28 -21 -4 -24 0
-24 24 0 15 -5 29 -12 31 -7 3 -9 12 -5 22 6 15 9 16 21 3 8 -8 31 -18 52 -21z
m2714 11 c0 -20 -4 -22 -47 -18 l-48 3 45 18 c25 10 46 18 48 19 1 1 2 -9 2
-22z m-3195 -7 c11 -12 32 -21 54 -21 33 -2 32 -2 -10 -8 -26 -4 -54 -13 -63
-21 -15 -12 -20 -11 -38 7 -16 17 -18 24 -9 42 15 26 42 27 66 1z m-1810 -20
c17 -19 18 -47 12 -526 -3 -279 -10 -511 -14 -515 -5 -5 -383 -8 -864 -7
l-854 3 -3 519 c-1 375 1 523 9 532 10 12 155 14 854 14 830 0 842 0 860 -20z
m2075 3 c0 -2 -5 -13 -10 -24 -9 -15 -15 -17 -30 -9 -16 9 -18 14 -8 29 9 16
48 19 48 4z m60 -3 c0 -11 -5 -20 -11 -20 -5 0 -7 5 -4 10 3 6 0 10 -7 10 -9
0 -9 3 2 10 20 13 20 13 20 -10z m2962 -12 c-7 -7 -12 -8 -12 -2 0 14 12 26
19 19 2 -3 -1 -11 -7 -17z m-2715 -16 c-23 -25 -22 -72 1 -73 16 -1 16 -2 0
-6 -9 -2 -20 -13 -23 -23 -3 -10 -18 -20 -35 -22 -32 -5 -37 1 -17 21 10 10 8
16 -10 30 -26 22 -21 29 42 63 60 32 63 33 42 10z m2149 -59 c-11 -12 -47 -14
-64 -3 -13 7 -6 9 27 10 24 0 41 -3 37 -7z m-2328 -35 c-3 -7 -13 -15 -24 -17
-16 -3 -17 -1 -5 13 16 19 34 21 29 4z m-68 -13 c-7 -8 -22 -15 -34 -15 -21 1
-21 1 -2 15 27 21 53 20 36 0z m335 -25 c9 -10 15 -26 11 -35 -11 -28 -34 -28
-60 2 -31 35 -32 41 -3 46 12 2 25 5 28 6 3 0 14 -8 24 -19z m253 -35 c4 -4
-100 -155 -107 -155 -10 0 -31 22 -31 32 0 4 9 8 19 8 29 0 36 18 15 41 -16
18 -16 19 10 19 14 0 35 5 46 12 19 12 19 13 -3 36 l-22 24 35 -7 c19 -4 36
-8 38 -10z m-218 -10 c0 -8 -7 -15 -16 -15 -14 0 -14 3 -4 15 7 8 14 15 16 15
2 0 4 -7 4 -15z m-230 -20 c0 -9 -7 -18 -15 -21 -10 -4 -15 -20 -15 -45 0 -34
-5 -42 -32 -59 -18 -11 -37 -21 -41 -23 -5 -1 -12 -18 -16 -36 -8 -44 -34 -62
-57 -40 -14 15 -14 19 0 46 18 35 13 43 -26 43 -15 0 -28 2 -28 5 0 9 85 92
113 110 24 15 59 26 110 34 4 0 7 -6 7 -14z m2035 -4 c-3 -6 -14 -11 -23 -11
-15 1 -15 2 2 15 21 16 32 13 21 -4z m-1805 -31 c-8 -5 -22 -10 -30 -10 -13 0
-13 1 0 10 8 5 22 10 30 10 13 0 13 -1 0 -10z m-1670 -4 c0 -12 -33 -36 -48
-36 -14 1 -12 5 7 20 21 19 41 26 41 16z m3187 -2 c-3 -3 -12 -4 -19 -1 -8 3
-5 6 6 6 11 1 17 -2 13 -5z m263 -35 c0 -6 -4 -7 -10 -4 -5 3 -10 11 -10 16 0
6 5 7 10 4 6 -3 10 -11 10 -16z m-185 -69 c3 -5 -1 -10 -9 -10 -9 0 -16 5 -16
10 0 6 4 10 9 10 6 0 13 -4 16 -10z m-78 -16 c-3 -3 -12 -4 -19 -1 -8 3 -5 6
6 6 11 1 17 -2 13 -5z m-233 -112 c2 -4 1 -14 -4 -22 -7 -11 -11 -11 -24 -1
-9 8 -16 17 -16 22 0 11 37 12 44 1z m-1304 -122 c0 -5 -7 -7 -15 -4 -8 4 -15
8 -15 10 0 2 7 4 15 4 8 0 15 -4 15 -10z m4395 -30 c3 -11 3 -25 0 -31 -4 -6
5 -33 20 -61 l27 -50 -21 -29 c-11 -15 -21 -41 -21 -57 0 -16 -8 -35 -17 -44
-18 -14 -68 -38 -81 -38 -12 0 -45 62 -48 87 -3 23 7 29 66 35 30 4 38 28 39
131 1 60 4 77 15 77 8 0 17 -9 21 -20z m-2795 -122 c16 -17 20 -31 16 -52 -6
-26 -4 -28 20 -23 18 3 34 -3 52 -18 l27 -23 -18 -32 c-21 -35 -15 -50 11 -34
10 6 18 27 20 48 4 50 26 47 50 -7 13 -31 93 -73 118 -63 21 8 14 57 -11 78
-26 22 -12 35 20 18 16 -9 25 -22 25 -37 0 -27 50 -83 74 -83 8 0 27 5 42 10
32 13 35 11 27 -18 -4 -18 -9 -20 -24 -11 -11 5 -34 7 -52 4 -25 -5 -39 -1
-60 15 -15 12 -25 15 -22 8 7 -17 -46 -15 -91 3 -38 15 -61 7 -74 -26 -5 -14
-12 -25 -16 -25 -4 0 -30 13 -58 28 -28 16 -71 35 -96 42 -52 16 -61 26 -54
57 4 13 3 31 -1 40 -14 34 -9 69 15 96 29 33 33 33 60 5z m-274 -14 c-4 -9 -9
-15 -11 -12 -3 3 -3 13 1 22 4 9 9 15 11 12 3 -3 3 -13 -1 -22z m372 -2 c2 -7
-3 -12 -12 -12 -9 0 -16 7 -16 16 0 17 22 14 28 -4z m-188 -47 c0 -11 -13 -15
-51 -15 l-52 0 34 23 c36 25 69 21 69 -8z m3000 -66 c0 -3 -9 -16 -20 -29 -11
-13 -20 -37 -20 -55 0 -35 -20 -58 -60 -70 -14 -4 -32 -13 -40 -20 -8 -7 -52
-15 -97 -19 l-81 -6 -23 32 c-13 17 -31 47 -40 65 -16 31 -16 34 -1 42 14 8
12 11 -13 17 -39 10 -85 64 -55 64 6 0 10 -6 10 -14 0 -7 7 -19 15 -26 13 -11
20 -10 41 0 22 12 26 11 39 -8 9 -11 21 -27 28 -34 6 -8 21 -32 32 -53 28 -56
53 -57 105 -5 23 23 63 51 89 62 55 25 61 32 61 78 l1 35 14 -25 c8 -14 14
-28 15 -31z m-5860 -252 c0 -5 -4 -5 -10 -2 -5 3 -10 14 -10 23 0 15 2 15 10
2 5 -8 10 -19 10 -23z m3895 -47 c-3 -5 -13 -10 -21 -10 -8 0 -14 5 -14 10 0
6 9 10 21 10 11 0 17 -4 14 -10z m-349 -82 c16 -34 41 -78 55 -98 33 -46 59
-95 59 -112 0 -7 -12 7 -26 31 -13 25 -40 61 -59 82 -58 64 -87 115 -80 138
10 33 19 25 51 -41z m615 -58 c20 0 53 7 73 15 l36 15 20 -32 c11 -18 20 -38
20 -44 0 -16 -70 -74 -89 -75 -12 0 -11 -2 3 -8 14 -5 -7 -13 -70 -25 -49 -9
-98 -20 -108 -23 -12 -3 -3 10 22 34 50 48 56 87 17 123 -14 13 -25 32 -25 42
0 17 2 17 33 -2 17 -11 48 -20 68 -20z m-24 -218 c-105 -97 -111 -102 -118
-90 -4 7 -10 -8 -12 -32 -2 -25 -3 -5 -1 44 2 49 5 91 7 93 4 3 132 28 164 32
6 0 -12 -21 -40 -47z m-155 -100 c-2 -46 -8 -79 -12 -72 -4 6 -6 23 -5 39 1
25 -2 27 -35 29 -20 2 -50 -2 -66 -8 l-29 -11 27 27 c20 21 118 83 124 80 1
-1 -1 -39 -4 -84z m1667 2 c-14 -18 -24 -11 -15 11 3 9 11 13 16 10 8 -5 7
-11 -1 -21z m-509 -259 c0 -8 -4 -15 -10 -15 -5 0 -10 7 -10 15 0 8 5 15 10
15 6 0 10 -7 10 -15z m-2240 -212 c0 -2 -9 -3 -20 -3 -18 0 -20 7 -20 58 l1
57 19 -55 c11 -30 19 -56 20 -57z m-1035 58 c66 -11 183 -27 260 -36 77 -9
143 -19 146 -23 3 -4 11 -55 18 -114 7 -58 23 -159 35 -223 l23 -117 -91 7
c-122 9 -417 52 -427 62 -4 4 -20 46 -36 93 -29 84 -29 85 -11 120 29 57 20
120 -24 168 -12 12 -27 38 -34 57 -11 32 -10 35 5 31 9 -3 70 -14 136 -25z
m4115 -29 c0 -15 -2 -15 -10 -2 -13 20 -13 33 0 25 6 -3 10 -14 10 -23z
m-3372 -39 l242 -6 0 -230 0 -230 -231 7 c-127 4 -237 10 -244 12 -8 3 -21 37
-30 76 -20 91 -55 313 -55 357 0 33 0 34 38 27 20 -3 146 -9 280 -13z m323
-25 c18 -33 13 -77 -16 -153 -33 -89 -32 -135 5 -213 17 -35 30 -66 30 -68 0
-2 -17 -4 -38 -4 l-39 0 -6 221 c-4 122 -4 225 -1 230 11 18 53 9 65 -13z
m-1147 -264 c15 -42 25 -78 22 -81 -3 -3 -28 0 -57 7 l-51 13 5 38 c4 31 39
99 51 99 2 0 16 -34 30 -76z m-2 -90 c35 -6 39 -11 87 -108 52 -106 129 -232
188 -304 20 -24 33 -46 30 -48 -6 -6 -193 28 -258 46 -23 7 -56 32 -95 73 -69
72 -139 156 -133 160 2 2 16 8 31 15 39 16 59 53 65 122 5 57 8 61 27 56 12
-3 38 -9 58 -12z m243 -43 c77 -11 176 -23 220 -27 44 -4 87 -10 96 -15 8 -4
21 -33 28 -64 13 -59 65 -215 100 -302 l21 -53 -35 0 c-20 0 -102 7 -183 15
l-147 15 -33 38 c-73 83 -252 378 -252 415 0 5 10 7 23 4 12 -3 85 -15 162
-26z m733 -57 l92 -6 0 -79 0 -79 -47 -42 c-27 -24 -82 -76 -124 -115 -41 -40
-84 -74 -95 -75 -10 0 4 -4 31 -8 l50 -7 -55 0 c-95 -1 -99 1 -142 109 -39 97
-98 281 -98 306 0 13 131 11 388 -4z m221 -31 c7 -16 9 -25 5 -21 -4 4 -27 -8
-51 -28 l-43 -35 -2 28 c-1 19 -3 14 -8 -17 -6 -41 -7 -39 -8 28 l-2 72 48 0
c43 0 50 -3 61 -27z m-1277 -192 c32 -36 56 -66 54 -68 -5 -5 -145 46 -199 74
-41 20 -46 26 -37 43 5 10 10 30 10 44 0 14 9 32 23 41 21 15 23 14 57 -26 19
-24 61 -72 92 -108z m6 -66 c67 -22 96 -38 145 -82 113 -101 222 -177 374
-263 80 -45 82 -47 59 -60 -20 -10 -39 -8 -127 14 -57 15 -135 41 -174 60 -95
44 -239 138 -282 184 -19 20 -32 30 -27 22 10 -18 -46 26 -130 102 -52 47 -58
57 -53 80 l7 27 63 -28 c34 -15 100 -40 145 -56z m3966 6 c3 -5 22 -12 42 -16
35 -6 84 -44 84 -65 0 -6 -58 -10 -170 -10 -93 0 -170 4 -170 8 0 12 59 45
125 69 68 24 82 27 89 14z m-3688 -77 l135 -27 38 -46 c22 -25 70 -73 109
-106 39 -33 66 -63 60 -66 -5 -4 -3 -9 7 -12 10 -5 14 -3 9 5 -5 7 -3 8 6 3
10 -6 8 -12 -9 -27 -13 -10 -20 -18 -15 -18 4 0 5 -2 2 -5 -3 -3 -13 -2 -22 1
-14 5 -15 9 -4 16 9 7 8 8 -6 4 -32 -11 -242 118 -399 244 -76 61 -92 78 -62
66 8 -3 76 -18 151 -32z m426 -60 c85 -6 90 -8 104 -35 8 -16 11 -28 6 -27
-13 4 -141 -120 -133 -128 3 -4 -8 2 -24 13 -50 34 -204 172 -214 191 -9 17
-5 17 81 6 50 -7 131 -16 180 -20z m140 -22 c-7 -2 -10 -8 -6 -13 3 -5 3 -9 0
-9 -3 0 -10 9 -15 19 -9 17 -8 18 11 13 13 -3 17 -7 10 -10z m3311 -84 l15
-23 24 23 c24 22 29 22 269 22 l244 -1 -35 -27 c-19 -15 -48 -39 -65 -54 l-30
-27 33 -1 c28 0 43 10 87 55 l52 55 88 0 c77 0 86 -2 75 -15 -7 -8 -18 -15
-26 -15 -7 0 -17 -6 -21 -13 -4 -7 -45 -39 -90 -71 -45 -32 -92 -69 -104 -82
l-22 -24 27 0 c20 0 45 16 89 58 43 41 94 75 165 110 l103 52 359 0 c313 0
361 -2 374 -16 14 -14 16 -89 16 -679 0 -590 -2 -665 -16 -679 -14 -14 -133
-16 -1166 -16 -1057 0 -1153 1 -1170 17 -17 15 -18 49 -18 676 0 601 2 662 17
679 15 17 40 18 363 18 l348 0 15 -22z m-5653 -27 c6 -13 10 -243 10 -675 0
-643 0 -656 -20 -676 -20 -20 -33 -20 -1163 -20 -1018 0 -1145 2 -1165 16
l-22 15 0 668 c0 505 3 670 12 679 9 9 284 12 1175 12 1139 0 1163 0 1173 -19z
m2011 -162 c19 -6 40 -13 48 -15 8 -3 12 -7 9 -9 -2 -3 -29 4 -59 14 -57 21
-56 29 2 10z m99 -23 c0 -2 -7 -7 -16 -10 -8 -3 -12 -2 -9 4 6 10 25 14 25 6z"/>
<path d="M6344 6345 c0 -60 1 -84 3 -52 2 32 2 81 0 110 -2 29 -3 3 -3 -58z"/>
<path d="M5901 5800 l-12 -41 -43 6 c-30 5 -46 3 -51 -6 -11 -17 22 -39 58
-39 21 0 28 -4 24 -14 -7 -18 -19 -95 -13 -81 3 6 10 29 16 51 9 37 14 43 44
48 19 4 37 13 40 21 6 18 -7 27 -28 19 -26 -10 -36 4 -24 37 6 16 8 32 6 35
-3 2 -10 -14 -17 -36z"/>
<path d="M5844 5565 c-3 -26 -12 -52 -19 -58 -9 -10 -9 -15 2 -25 7 -7 13 -8
13 -3 0 5 17 12 38 14 l37 4 -38 1 c-31 2 -37 5 -33 20 10 34 18 92 13 92 -3
0 -9 -20 -13 -45z"/>
<path d="M5415 5565 c22 -8 49 -13 60 -13 11 0 -2 6 -30 14 -63 17 -84 16 -30
-1z"/>
<path d="M5520 5540 c14 -4 36 -8 50 -8 22 0 22 1 -5 8 -16 4 -39 8 -50 8 -16
0 -15 -2 5 -8z"/>
<path d="M5613 5523 c9 -2 23 -2 30 0 6 3 -1 5 -18 5 -16 0 -22 -2 -12 -5z"/>
<path d="M5673 5513 c9 -2 25 -2 35 0 9 3 1 5 -18 5 -19 0 -27 -2 -17 -5z"/>
<path d="M5748 5503 c12 -2 30 -2 40 0 9 3 -1 5 -23 4 -22 0 -30 -2 -17 -4z"/>
<path d="M5822 5435 c0 -16 2 -22 5 -12 2 9 2 23 0 30 -3 6 -5 -1 -5 -18z"/>
<path d="M5812 5375 c0 -16 2 -22 5 -12 2 9 2 23 0 30 -3 6 -5 -1 -5 -18z"/>
<path d="M5795 5270 c-4 -39 -5 -73 -2 -76 2 -3 8 27 11 67 4 39 5 73 3 76 -3
2 -8 -28 -12 -67z"/>
<path d="M5783 5140 c0 -25 2 -35 4 -22 2 12 2 32 0 45 -2 12 -4 2 -4 -23z"/>
<path d="M5773 5035 c0 -33 2 -45 4 -27 2 18 2 45 0 60 -2 15 -4 0 -4 -33z"/>
<path d="M4765 5010 c-4 -23 -5 -43 -2 -46 2 -3 7 14 11 37 4 23 5 44 2 46 -2
2 -7 -14 -11 -37z"/>
<path d="M5258 5003 c7 -3 16 -2 19 1 4 3 -2 6 -13 5 -11 0 -14 -3 -6 -6z"/>
<path d="M5298 4993 c7 -3 16 -2 19 1 4 3 -2 6 -13 5 -11 0 -14 -3 -6 -6z"/>
<path d="M5350 4980 c14 -4 34 -8 45 -8 16 0 15 2 -5 8 -14 4 -34 8 -45 8 -16
0 -15 -2 5 -8z"/>
<path d="M5428 4963 c6 -2 18 -2 25 0 6 3 1 5 -13 5 -14 0 -19 -2 -12 -5z"/>
<path d="M5761 4949 c-1 -25 -3 -26 -53 -23 -29 1 -39 0 -23 -2 74 -11 74 -11
78 -62 l3 -47 2 47 c2 46 2 47 40 51 l37 4 -37 1 c-32 2 -37 6 -41 30 l-4 27
-2 -26z"/>
<path d="M5163 4925 c0 -22 2 -30 4 -17 2 12 2 30 0 40 -3 9 -5 -1 -4 -23z"/>
<path d="M5483 4953 c9 -2 23 -2 30 0 6 3 -1 5 -18 5 -16 0 -22 -2 -12 -5z"/>
<path d="M4752 4925 c0 -16 2 -22 5 -12 2 9 2 23 0 30 -3 6 -5 -1 -5 -18z"/>
<path d="M5543 4943 c9 -2 23 -2 30 0 6 3 -1 5 -18 5 -16 0 -22 -2 -12 -5z"/>
<path d="M5603 4933 c9 -2 25 -2 35 0 9 3 1 5 -18 5 -19 0 -27 -2 -17 -5z"/>
<path d="M4442 4890 c0 -14 2 -19 5 -12 2 6 2 18 0 25 -3 6 -5 1 -5 -13z"/>
<path d="M4742 4860 c0 -19 2 -27 5 -17 2 9 2 25 0 35 -3 9 -5 1 -5 -18z"/>
<path d="M5153 4835 c0 -27 2 -38 4 -22 2 15 2 37 0 50 -2 12 -4 0 -4 -28z"/>
<path d="M4432 4835 c0 -16 2 -22 5 -12 2 9 2 23 0 30 -3 6 -5 -1 -5 -18z"/>
<path d="M4733 4775 c0 -27 2 -38 4 -22 2 15 2 37 0 50 -2 12 -4 0 -4 -28z"/>
<path d="M4415 4727 c-4 -42 -5 -81 -2 -89 3 -7 6 10 7 37 1 28 5 58 9 68 6
17 8 17 26 -4 26 -28 117 -89 182 -123 82 -41 76 -30 -7 15 -99 54 -168 106
-190 142 l-18 29 -7 -75z"/>
<path d="M5143 4705 c0 -44 2 -61 4 -37 2 23 2 59 0 80 -2 20 -4 1 -4 -43z"/>
<path d="M4720 4654 c-6 -80 -2 -114 9 -95 6 9 15 9 36 1 15 -6 30 -9 32 -6 2
2 -12 9 -31 16 l-35 11 -3 72 -3 72 -5 -71z"/>
<path d="M4168 4594 c-15 -14 -8 -22 26 -28 19 -4 37 -13 40 -21 7 -18 37 -20
54 -3 9 9 17 7 35 -10 23 -22 67 -30 67 -13 0 14 -41 41 -62 41 -9 0 -21 8
-26 17 -7 12 -27 18 -68 21 -33 2 -62 0 -66 -4z"/>
<path d="M5134 4480 c0 -69 1 -104 3 -77 l4 47 42 -5 42 -5 -42 11 -42 10 -4
72 c-1 40 -3 16 -3 -53z"/>
<path d="M4505 4561 c-9 -16 30 -32 43 -19 7 7 12 16 12 20 0 11 -48 10 -55
-1z"/>
<path d="M4835 4535 c17 -8 37 -14 45 -14 8 0 -1 7 -20 14 -46 18 -64 17 -25
0z"/>
<path d="M4901 4515 c7 -7 192 -55 209 -54 8 0 -32 13 -90 29 -107 29 -127 34
-119 25z"/>
<path d="M4300 4451 c0 -25 30 -36 48 -17 19 18 7 36 -24 36 -17 0 -24 -6 -24
-19z"/>
<path d="M4577 4454 c-10 -11 3 -24 24 -24 10 0 19 7 19 15 0 15 -31 21 -43 9z"/>
<path d="M5290 4424 c36 -7 76 -13 90 -12 14 0 -6 6 -45 14 -38 7 -79 13 -90
12 -11 0 9 -6 45 -14z"/>
<path d="M5143 4265 c0 -44 2 -61 4 -37 2 23 2 59 0 80 -2 20 -4 1 -4 -43z"/>
<path d="M5153 4135 c0 -27 2 -38 4 -22 2 15 2 37 0 50 -2 12 -4 0 -4 -28z"/>
<path d="M6392 5083 c2 -27 8 -39 21 -41 22 -4 23 30 2 48 -8 7 -12 16 -9 21
3 5 0 9 -6 9 -7 0 -10 -15 -8 -37z"/>
<path d="M7786 4587 c3 -10 9 -15 12 -12 3 3 0 11 -7 18 -10 9 -11 8 -5 -6z"/>
<path d="M7675 4500 c-18 -19 -17 -20 6 -19 13 0 18 3 11 6 -10 4 -10 8 -1 19
18 22 4 17 -16 -6z"/>
<path d="M7618 4423 c6 -2 18 -2 25 0 6 3 1 5 -13 5 -14 0 -19 -2 -12 -5z"/>
<path d="M6332 3205 c0 -16 2 -22 5 -12 2 9 2 23 0 30 -3 6 -5 -1 -5 -18z"/>
<path d="M6294 3188 l-19 -23 23 19 c12 11 22 21 22 23 0 8 -8 2 -26 -19z"/>
<path d="M6159 3063 c-13 -16 -12 -17 4 -4 16 13 21 21 13 21 -2 0 -10 -8 -17
-17z"/>
<path d="M6114 3018 l-19 -23 23 19 c12 11 22 21 22 23 0 8 -8 2 -26 -19z"/>
<path d="M6452 3316 c7 -8 15 -12 17 -11 5 6 -10 25 -20 25 -5 0 -4 -6 3 -14z"/>
<path d="M5747 2673 c-13 -12 -7 -23 12 -23 26 0 35 16 15 24 -19 7 -19 7 -27
-1z"/>
<path d="M5979 2894 c-11 -14 -11 -16 0 -10 8 5 17 3 22 -5 5 -8 9 -9 9 -4 0
6 -4 16 -9 23 -6 10 -11 9 -22 -4z"/>
<path d="M5924 2838 l-29 -33 33 29 c17 17 32 31 32 33 0 8 -8 1 -36 -29z"/>
<path d="M9490 2815 c10 -12 9 -16 -4 -21 -9 -3 -23 -3 -31 0 -19 7 -39 -38
-30 -71 8 -35 41 -28 70 14 32 48 34 93 4 93 -18 0 -19 -3 -9 -15z"/>
<path d="M6621 6506 c2 -2 36 -6 74 -9 54 -4 61 -4 30 3 -40 9 -112 13 -104 6z"/>
<path d="M6795 6480 c17 -4 39 -8 50 -8 16 0 15 2 -5 8 -14 4 -36 8 -50 8 -22
0 -22 -1 5 -8z"/>
<path d="M6590 6445 c41 -14 80 -24 85 -24 16 1 -88 36 -126 43 -19 3 0 -5 41
-19z"/>
<path d="M6890 6460 c34 -11 60 -11 35 0 -11 5 -29 8 -40 8 -16 0 -15 -2 5 -8z"/>
<path d="M6581 6412 c107 -54 220 -130 293 -196 42 -38 51 -43 67 -33 26 16
18 32 -18 33 -21 0 -55 19 -112 62 -89 67 -194 131 -266 162 -80 34 -64 22 36
-28z"/>
<path d="M6035 6435 c-39 -17 -21 -18 25 0 19 7 28 14 20 14 -8 0 -28 -6 -45
-14z"/>
<path d="M6715 6406 c17 -7 41 -16 55 -20 20 -5 19 -3 -5 8 -16 7 -41 16 -55
20 -20 5 -19 3 5 -8z"/>
<path d="M6810 6370 c8 -5 20 -10 25 -10 6 0 3 5 -5 10 -8 5 -19 10 -25 10 -5
0 -3 -5 5 -10z"/>
<path d="M6870 6345 c14 -8 30 -14 35 -14 6 0 -1 6 -15 14 -14 8 -29 14 -35
14 -5 0 1 -6 15 -14z"/>
<path d="M4594 6185 c-16 -11 -16 -15 -5 -29 15 -18 44 -21 72 -5 24 12 18 24
-20 37 -22 8 -34 7 -47 -3z"/>
<path d="M4445 6183 c-34 -8 -42 -23 -20 -39 18 -13 18 -15 3 -30 -15 -15 -19
-14 -51 10 -18 14 -45 26 -59 26 -36 0 -45 -30 -17 -53 30 -24 174 -23 184 2
4 9 0 20 -9 25 -12 8 -11 12 7 21 46 22 17 52 -38 38z"/>
<path d="M6790 6129 c-57 -14 -64 -17 -28 -13 47 5 147 32 118 32 -8 0 -49 -9
-90 -19z"/>
<path d="M4526 6123 c-5 -13 41 -43 67 -43 17 0 42 28 34 37 -4 3 -27 9 -51
13 -33 5 -46 3 -50 -7z"/>
<path d="M4510 6071 c-14 -4 -25 -13 -25 -21 0 -21 55 -24 80 -6 17 14 18 17
5 26 -17 11 -24 11 -60 1z"/>
<path d="M8990 4353 c0 -10 -7 -27 -15 -37 -21 -28 -19 -39 6 -26 22 12 39 48
32 68 -7 18 -23 15 -23 -5z"/>
<path d="M9765 3990 c-4 -6 -5 -23 -4 -38 2 -18 -4 -35 -20 -51 -18 -18 -20
-25 -10 -37 19 -23 45 -16 83 23 20 21 36 41 36 45 0 4 -13 8 -30 8 -25 0 -30
4 -30 24 0 27 -15 42 -25 26z"/>
<path d="M9834 3875 c-4 -8 -4 -25 -1 -36 4 -15 -2 -28 -21 -44 -23 -20 -24
-25 -13 -39 22 -26 42 -19 87 30 24 25 48 43 54 39 16 -10 12 12 -6 29 -21 21
-27 20 -21 -4 4 -17 0 -20 -24 -20 -24 0 -29 4 -29 24 0 30 -18 44 -26 21z"/>
<path d="M9980 3811 c0 -11 4 -22 9 -25 11 -7 20 14 13 32 -7 19 -22 14 -22
-7z"/>
<path d="M9982 3743 c2 -10 11 -19 21 -21 12 -2 15 1 11 12 -8 22 -36 30 -32
9z"/>
<path d="M10057 3723 c-10 -9 -8 -43 2 -43 5 0 9 11 9 25 0 27 -1 28 -11 18z"/>
<path d="M10125 3650 c-11 -18 48 -95 64 -85 19 11 12 41 -17 68 -31 30 -38
32 -47 17z"/>
<path d="M10195 3540 c-8 -12 21 -60 35 -60 6 0 10 -7 10 -15 0 -8 5 -15 10
-15 20 0 10 56 -13 78 -26 25 -33 27 -42 12z"/>
<path d="M4865 2621 c-4 -8 19 -41 30 -41 2 0 11 7 19 16 20 20 12 34 -19 34
-13 0 -26 -4 -30 -9z"/>
<path d="M4945 2516 c-15 -11 -15 -13 -1 -25 18 -15 46 -8 46 13 0 20 -25 27
-45 12z"/>
</g>
</svg>
