<?xml version="1.0" standalone="no"?>
<!DOCTYPE svg PUBLIC "-//W3C//DTD SVG 1.1//EN" "http://www.w3.org/Graphics/SVG/1.1/DTD/svg11.dtd" >
<svg>
<metadata>
Created by FontForge 20090914 at Fri Apr 12 08:01:41 2013
 By www-data
Copyright 1990-1993 Bitstream Inc.  All rights reserved.
</metadata>
<defs>
<font id="GoudyOldStyleBT-Bold" horiz-adv-x="1024" >
  <font-face 
    font-family="GoudyOlSt BT"
    font-weight="700"
    font-stretch="normal"
    units-per-em="2048"
    panose-1="2 2 6 2 5 3 5 2 3 3"
    ascent="1638"
    descent="-410"
    x-height="863.995"
    cap-height="1440"
    bbox="-342 -483 2447 1972"
    underline-thickness="145"
    underline-position="-137"
    unicode-range="U+0020-U+F002"
  />
<missing-glyph horiz-adv-x="1229" 
d="M102 -362v1806h1024v-1806h-1024zM217 -248h795v1577h-795v-1577z" />
    <glyph glyph-name=".notdef" horiz-adv-x="1229" 
d="M102 -362v1806h1024v-1806h-1024zM217 -248h795v1577h-795v-1577z" />
    <glyph glyph-name="space" unicode=" " horiz-adv-x="553" 
 />
    <glyph glyph-name="exclam" unicode="!" horiz-adv-x="672" 
d="M352 -8c-4 -4 -8.99902 -6.99707 -14.999 -8.99707s-12.667 -3 -20 -3c-6 0 -12.5 1.33301 -19.5 4s-12.5 6 -16.5 10l-127 131c-4 4 -6.83301 8.66699 -8.5 14s-2.5 12.333 -2.5 21c0 6 1.33301 12.167 4 18.5s6.33398 11.833 11.001 16.5l131 129
c3.33301 3.33301 7.66602 5.83301 12.999 7.5s12.666 2.5 21.999 2.5c6 0 12.167 -1.33301 18.5 -4s11.5 -6.33398 15.5 -11.001l125 -129c3.33301 -2.66699 5.83301 -6.83398 7.5 -12.501s2.83398 -12.834 3.50098 -21.501c0 -6 -1.33301 -12.333 -4 -19
s-6.33398 -12 -11.001 -16zM307.001 563.003l-94 761.999c-1.33301 8.66699 -2.33301 17 -3 25s-1 14.667 -1 20c0 31.333 16.333 52.5 49 63.5s94 16.5 184 16.5c14.667 0 26.667 -3.66699 36 -11s14 -17.333 14 -30c-0.666992 -4.66699 -1.5 -12.167 -2.5 -22.5
s-2.5 -22.166 -4.5 -35.499l-116 -793c-2 -14 -5.5 -24.833 -10.5 -32.5s-11.167 -11.5 -18.5 -11.5c-17.333 0 -28.333 16 -33 48v1z" />
    <glyph glyph-name="quotedbl" unicode="&#x22;" horiz-adv-x="694" 
d="M496 856l-74 458.001c-0.666992 5.33301 -1.16699 10.833 -1.5 16.5s-0.5 13.5 -0.5 23.5c0 34 8.5 60.5 25.5 79.5s40.5 28.5 70.5 28.5s53.5 -9.33301 70.5 -28s25.5 -44.667 25.5 -78c0 -8.66699 -1 -20.667 -3 -36c-0.666992 -2.66699 -1 -4.33398 -1 -5.00098
l-73 -459h-39zM160 856.001l-73.999 458.999c-0.666992 4.66699 -1.16699 9.83398 -1.5 15.501s-0.5 13.5 -0.5 23.5c0 34.667 8.16699 61.334 24.5 80.001s39.5 28 69.5 28c31.333 0 55.166 -9.16699 71.499 -27.5s24.5 -45.166 24.5 -80.499
c0 -10.667 -0.166992 -18.834 -0.5 -24.501s-0.833008 -10.834 -1.5 -15.501l-73 -458h-39z" />
    <glyph glyph-name="numbersign" unicode="#" horiz-adv-x="1575" 
d="M977 858h-275l-94 -264h275zM920 1460l-156 -436h268l156 436h182l-156 -436h291l-59 -166h-291l-92 -262h307l-59 -168h-307l-154 -434h-184l155 434h-268l-154 -434h-184l156 434h-301l59 168h301l92 262h-319l61 166h318l155 436h183z" />
    <glyph glyph-name="dollar" unicode="$" horiz-adv-x="1108" 
d="M575 49c82 8 145.167 36.168 189.5 84.501s66.5 113.166 66.5 194.499c0 70.667 -19.333 127.5 -58 170.5s-104.667 80.167 -198 111.5v-561zM494 889.001v432c-69.333 0 -124 -19 -164 -57s-60 -90 -60 -156c0 -52 16.5 -94.5 49.5 -127.5s91.167 -63.5 174.5 -91.5z
M493 -30.999c-108.667 6.66699 -206 31.668 -292 75.001s-129 83.333 -129 120c0 10.667 0.333008 20.667 1 30s1.66699 16.333 3 21l26 168c4 25.333 9 41.833 15 49.5s14.667 11.5 26 11.5c22.667 0 35 -21.333 37 -64c2 -40 7 -73.333 15 -100
c20 -68 57.333 -123.5 112 -166.5s116.667 -65.167 186 -66.5l1 590c-146 42.667 -247.5 91.334 -304.5 146.001s-85.5 128.334 -85.5 221.001c0 105.333 37.667 195.5 113 270.5s167.666 113.167 276.999 114.5v176h81v-174c97.333 -10.667 182.5 -32.834 255.5 -66.501
s109.5 -63.5 109.5 -89.5c0 -8.66699 -0.5 -16.834 -1.5 -24.501s-2.5 -14.5 -4.5 -20.5l-37 -139c-4.66699 -19.333 -9.66699 -32 -15 -38s-13.333 -9 -24 -9c-8.66699 0 -16 1.66699 -22 5s-9 7.66602 -9 12.999c0 6 0.333008 13.167 1 21.5s1 13.5 1 15.5
c0 68.667 -23.333 127.5 -70 176.5s-108 76.833 -184 83.5v-455c152 -41.333 261 -97 327 -167s99 -164.333 99 -283c0 -125.333 -38.167 -227.5 -114.5 -306.5s-180.166 -123.833 -311.499 -134.5v-254h-81z" />
    <glyph glyph-name="percent" unicode="%" horiz-adv-x="1686" 
d="M1083 449c0 -120 18.3311 -215.666 54.998 -286.999s85.334 -107 146.001 -107c52.667 0 93.167 20.667 121.5 62s42.5 100.666 42.5 177.999c0 118 -18.667 213 -56 285s-86.333 108 -147 108c-51.333 0 -91.166 -21 -119.499 -63s-42.5 -100.667 -42.5 -176z
M1260 -5.99902c-104.667 0 -189 34.334 -253 103.001s-96 160 -96 274c0 108.667 34 198.667 102 270s154.333 107 259 107c105.333 0 190 -33.833 254 -101.5s96 -156.834 96 -267.501c0 -112.667 -34 -205 -102 -277s-154.667 -108 -260 -108zM407.998 -28.998l776 1432
h96l-776 -1432h-96zM239.998 1079c0 -119.333 18.167 -214.665 54.5 -285.998s84.833 -107 145.5 -107c53.333 0 94 20.667 122 62s42 100.666 42 177.999c0 117.333 -18.667 212.166 -56 284.499s-86.333 108.5 -147 108.5c-50.667 0 -90.167 -21 -118.5 -63
s-42.5 -101 -42.5 -177zM415.998 625.003c-104.667 0 -188.834 34.333 -252.501 103s-95.5 159.667 -95.5 273c0 109.333 33.833 199.5 101.5 270.5s153.834 106.5 258.501 106.5c105.333 0 190 -33.667 254 -101s96 -156.333 96 -267c0 -112.667 -34 -205 -102 -277
s-154.667 -108 -260 -108z" />
    <glyph glyph-name="ampersand" unicode="&#x26;" horiz-adv-x="1712" 
d="M1194 127c-67.333 -50 -144.168 -88.8311 -230.501 -116.498s-174.166 -41.5 -263.499 -41.5c-180.667 0 -328.167 46.833 -442.5 140.5s-171.5 212.834 -171.5 357.501c0 101.333 29.333 194.5 88 279.5s136 145.5 232 181.5c-16 34 -27.667 66.667 -35 98
s-11 63.333 -11 96c0 94 31.167 171.833 93.5 233.5s140.5 92.5 234.5 92.5c58 0 120.167 -12 186.5 -36s105.833 -36 118.5 -36c10.667 0 23.334 4.16699 38.001 12.5s24.667 12.5 30 12.5s10.333 -2.83301 15 -8.5s7 -11.834 7 -18.501c0 -8.66699 -0.666992 -20 -2 -34
s-2 -23.667 -2 -29c0 -72.667 7 -148 21 -226c4 -21.333 6 -35 6 -41c0 -10.667 -2.66699 -18.667 -8 -24s-13.666 -8 -24.999 -8c-16.667 0 -28.667 15 -36 45c-8 33.333 -17.667 62.666 -29 87.999c-32 68 -76 122.5 -132 163.5s-114 61.5 -174 61.5
c-40 0 -74.5 -13.167 -103.5 -39.5s-43.5 -57.5 -43.5 -93.5c0 -104 63.833 -234.333 191.5 -391s306.167 -322 535.5 -496c26 29.333 44.833 60.5 56.5 93.5s17.5 72.833 17.5 119.5c0 54 -7.83301 95 -23.5 123s-40.834 45.667 -75.501 53
c-14.667 3.33301 -34.334 6.66602 -59.001 9.99902c-49.333 6 -74 19 -74 39c0 11.333 5.16699 20 15.5 26s25.166 9 44.499 9c24.667 0 58.834 -1.66699 102.501 -5s74.834 -5 93.501 -5c19.333 0 46 1.33301 80 4s58.667 4 74 4c14.667 0 24.167 -2 28.5 -6
s6.5 -12 6.5 -24c0 -14 -12.667 -27 -38 -39s-40.666 -34.667 -45.999 -68l-6 -43c-9.33301 -79.333 -24.333 -144 -45 -194s-49.334 -98.667 -86.001 -146c87.333 -74 150.666 -122.5 189.999 -145.5s74 -34.5 104 -34.5c13.333 0 30 2.66699 50 8s33.667 8 41 8
c9.33301 0 16.666 -2.5 21.999 -7.5s8 -11.833 8 -20.5c0 -29.333 -27 -59.333 -81 -90s-112.333 -46 -175 -46c-36.667 0 -75.667 9.5 -117 28.5s-106.666 60.833 -195.999 125.5zM1122 178.002c-115.333 82 -213.498 158.333 -294.498 229s-151.5 141 -211.5 211
c-34.667 42 -72.5 92.833 -113.5 152.5s-68.5 89.5 -82.5 89.5c-34.667 0 -68.334 -20.5 -101.001 -61.5s-49 -89.5 -49 -145.5c0 -58.667 16.5 -120.667 49.5 -186s78.833 -126 137.5 -182c64.667 -62 131.667 -109 201 -141s138.666 -48 207.999 -48
c50 0 95.667 6.66699 137 20s81 34 119 62z" />
    <glyph glyph-name="quotesingle" unicode="'" horiz-adv-x="358" 
d="M160 856l-73.999 458.999c-0.666992 4.66699 -1.16699 9.83398 -1.5 15.501s-0.5 13.5 -0.5 23.5c0 34.667 8.16699 61.334 24.5 80.001s39.5 28 69.5 28c31.333 0 55.166 -9.16699 71.499 -27.5s24.5 -45.166 24.5 -80.499c0 -10.667 -0.166992 -18.834 -0.5 -24.501
s-0.833008 -10.834 -1.5 -15.501l-73 -458h-39z" />
    <glyph glyph-name="parenleft" unicode="(" horiz-adv-x="807" 
d="M471 578c0 -116.667 9.83301 -228 29.5 -334s49.5 -207.667 89.5 -305c22 -56 47 -110.167 75 -162.5s42 -79.5 42 -81.5c0 -8 -4.16699 -15.167 -12.5 -21.5s-17.833 -9.5 -28.5 -9.5c-11.333 0 -30.833 15.833 -58.5 47.5s-63.5 79.5 -107.5 143.5
c-90.667 133.333 -154.667 255.166 -192 365.499s-56 227.833 -56 352.5c0 126.667 20 246.334 60 359.001s106.667 234 200 364l6 8c77.333 108 129.333 162 156 162c8 0 15.167 -2.66699 21.5 -8s9.5 -12 9.5 -20c0 -9.33301 -13 -36.5 -39 -81.5s-48 -89.5 -66 -133.5
l-2 -5c-84.667 -208.667 -127 -422 -127 -640z" />
    <glyph glyph-name="parenright" unicode=")" horiz-adv-x="807" 
d="M324 551c0 116 -10 227.003 -30 333.003s-49.667 208 -89 306c-22.667 55.333 -47.834 109.333 -75.501 162s-41.5 80 -41.5 82c0 7.33301 3.83301 14.166 11.5 20.499s16.834 9.5 27.501 9.5c11.333 0 31.166 -16.167 59.499 -48.5s64.5 -80.166 108.5 -143.499
c90.667 -134 154.667 -255.833 192 -365.5s56 -226.834 56 -351.501c0 -126 -20.333 -245.667 -61 -359s-107.667 -235.333 -201 -366c-54 -74.667 -90.667 -121.334 -110 -140.001s-36.666 -28 -51.999 -28c-8.66699 0 -15.667 2.66699 -21 8s-8 12.333 -8 21
s13 35.167 39 79.5s48 89.166 66 134.499l1 2c85.333 209.333 128 424 128 644z" />
    <glyph glyph-name="asterisk" unicode="*" 
d="M526 1012l-0.00390625 -6.00195c0 -56.667 13.667 -115.5 41 -176.5s41 -100.5 41 -118.5c0 -28 -9 -50.833 -27 -68.5s-41.667 -26.5 -71 -26.5c-30 0 -53.5 8.66699 -70.5 26s-25.5 40.333 -25.5 69c0 18.667 13.333 57.667 40 117s40 115.666 40 168.999v17
c-50.667 -32 -99.834 -80 -147.501 -144s-89.5 -96 -125.5 -96c-22 0 -42.833 11.5 -62.5 34.5s-29.5 47.833 -29.5 74.5c0 24.667 10.667 46.334 32 65.001s47 29 77 31c6.66699 0.666992 16.667 1.33398 30 2.00098c86.667 6 156.334 25.667 209.001 59
c-60.667 34.667 -130.667 54.334 -210 59.001c-9.33301 0 -16.666 0.333008 -21.999 1c-34.667 3.33301 -62.667 13.833 -84 31.5s-32 39.167 -32 64.5c0 27.333 9.33301 52.333 28 75s40 34 64 34c38 0 80.833 -33.167 128.5 -99.5s97.167 -113.166 148.5 -140.499v6
c0 56 -14 115 -42 177s-42 102 -42 120c0 28 9 50.333 27 67s41.667 25 71 25c30 0 53.833 -8.33301 71.5 -25s26.5 -39 26.5 -67c0 -19.333 -13.667 -59 -41 -119s-41 -116.667 -41 -170v-16c50.667 32 99.834 80 147.501 144s89.5 96 125.5 96c22.667 0 44 -11.5 64 -34.5
s30 -47.167 30 -72.5c0 -24.667 -10.667 -46.334 -32 -65.001s-46.666 -29 -75.999 -31c-6 -0.666992 -15.333 -1.33398 -28 -2.00098c-91.333 -6.66699 -162.666 -27.334 -213.999 -62.001c60 -33.333 127.667 -52 203 -56c10.667 0 18.667 -0.333008 24 -1
c38.667 -3.33301 68.834 -13.666 90.501 -30.999s32.5 -39.666 32.5 -66.999s-9.66699 -52 -29 -74s-41 -33 -65 -33c-37.333 0 -79.333 32.833 -126 98.5s-96.334 112.167 -149.001 139.5z" />
    <glyph glyph-name="plus" unicode="+" horiz-adv-x="1706" 
d="M938 1221v-527h514v-166h-514v-528h-170v528h-514v166h514v527h170z" />
    <glyph glyph-name="comma" unicode="," horiz-adv-x="553" 
d="M217 4c0 46.667 -22.1689 90.832 -66.502 132.499s-66.5 66.5 -66.5 74.5c0 16.667 25.333 49.167 76 97.5s89.334 72.5 116.001 72.5c28 0 60 -23.667 96 -71s54 -99.333 54 -156c0 -52 -12.667 -103.667 -38 -155s-63.333 -101.666 -114 -150.999
c-37.333 -36.667 -71.166 -65.167 -101.499 -85.5s-53.833 -30.5 -70.5 -30.5c-10 0 -17.5 2 -22.5 6s-7.5 10 -7.5 18c0 2.66699 24.167 31.5 72.5 86.5s72.5 108.833 72.5 161.5z" />
    <glyph glyph-name="hyphen" unicode="-" horiz-adv-x="676" 
d="M143 254c-6 -2 -11.168 -3.5 -15.501 -4.5s-7.83301 -1.5 -10.5 -1.5c-10 0 -17 2.66699 -21 8s-6 15.666 -6 30.999v114c0 12.667 2.66699 22.667 8 30s14.333 14 27 20l407 153c8.66699 2.66699 14.834 4.33398 18.501 5.00098s6.5 1 8.5 1c8 0 14.5 -3.33301 19.5 -10
s7.5 -16.334 7.5 -29.001v-114c0 -12.667 -2.66699 -22.667 -8 -30s-14.333 -13.666 -27 -18.999z" />
    <glyph glyph-name="period" unicode="." horiz-adv-x="553" 
d="M295 -8c-4 -4 -9 -6.99902 -15 -8.99902s-12.667 -3 -20 -3c-6 0 -12.167 1.33301 -18.5 4s-11.833 6 -16.5 10l-127 131c-4 4 -7 9 -9 15s-3 12.667 -3 20c0 6 1.33301 12.167 4 18.5s6 11.833 10 16.5l131 129c4 3.33301 8.66699 5.83301 14 7.5s12.333 2.5 21 2.5
c6.66699 0 13 -1.33301 19 -4s11.333 -6.33398 16 -11.001l125 -129c4 -4 7 -8.83301 9 -14.5s3 -12.167 3 -19.5c0 -6 -1.33301 -12.333 -4 -19s-6 -12 -10 -16z" />
    <glyph glyph-name="slash" unicode="/" horiz-adv-x="569" 
d="M109 -190h-105l539 1593h104z" />
    <glyph glyph-name="zero" unicode="0" horiz-adv-x="1108" 
d="M240 874c0 -210 37.833 -390.502 113.5 -541.502s163.834 -226.5 264.501 -226.5c84 0 149.167 36.333 195.5 109s69.5 175 69.5 307c0 83.333 -10.333 170.833 -31 262.5s-48.667 174.834 -84 249.501c-40.667 84.667 -86 148.834 -136 192.501s-103.667 65.5 -161 65.5
c-74.667 0 -131.834 -35.667 -171.501 -107s-59.5 -175 -59.5 -311zM57 617.998c0 228 49.832 415.832 149.499 563.499s222.5 221.5 368.5 221.5c133.333 0 246.333 -61.167 339 -183.5s139 -274.833 139 -457.5c0 -97.333 -12.5 -193 -37.5 -287
s-60.5 -178.667 -106.5 -254c-51.333 -83.333 -110 -146.166 -176 -188.499s-138.333 -63.5 -217 -63.5c-133.333 0 -243.166 60.333 -329.499 181s-129.5 276.667 -129.5 468z" />
    <glyph glyph-name="one" unicode="1" horiz-adv-x="1108" 
d="M449 283v782c0 42 -5 70.667 -15 86s-27.667 23 -53 23c-20 0 -43.667 -4.16699 -71 -12.5s-44 -12.5 -50 -12.5c-8 0 -15.5 4 -22.5 12s-10.5 16.333 -10.5 25c0 23.333 38 44 114 62c60 14 108 27.333 144 40c34.667 12.667 70.834 34 108.501 64s61.167 45 70.5 45
c5.33301 0 9.66602 -3.16699 12.999 -9.5s5 -14.833 5 -25.5c0 -2.66699 -1 -10 -3 -22c-7.33301 -53.333 -11 -105.333 -11 -156v-901c0 -94.667 13.833 -154.167 41.5 -178.5s75.834 -36.5 144.501 -36.5c19.333 0 31 -2.33301 35 -7s6 -14 6 -28
c0 -12.667 -4.33301 -22 -13 -28s-22.667 -9 -42 -9c-4 0 -41.5 2 -112.5 6s-140.167 6 -207.5 6c-57.333 0 -115 -2.33301 -173 -7l-87 -7c-6.66699 0 -12 3.5 -16 10.5s-6 15.833 -6 26.5c0 21.333 18.333 34.333 55 39c31.333 4.66699 57.333 10 78 16
c29.333 8.66699 49.666 25 60.999 49s17 73.333 17 148z" />
    <glyph glyph-name="two" unicode="2" horiz-adv-x="1108" 
d="M899 86c-17.333 -35.333 -34.332 -59.168 -50.999 -71.501s-46 -18.5 -88 -18.5c-27.333 0 -98.333 3.33301 -213 10s-215 10 -301 10c-40.667 0 -80.334 -5 -119.001 -15c-7.33301 -2 -12 -3 -14 -3c-10.667 0 -19.5 3.66699 -26.5 11s-10.5 16.666 -10.5 27.999
c0 16.667 15 40.334 45 71.001c19.333 18.667 34.333 34.667 45 48l149 190c124 156.667 214.5 289 271.5 397s85.5 200.333 85.5 277c0 67.333 -21.333 121 -64 161s-100 60 -172 60c-65.333 0 -129.333 -21.833 -192 -65.5s-95.667 -65.5 -99 -65.5
c-8 0 -14.333 2.66699 -19 8s-7 12.333 -7 21c0 11.333 11.167 30.166 33.5 56.499s52.833 55.833 91.5 88.5c45.333 39.333 92.666 68.666 141.999 87.999s101.666 29 156.999 29c108.667 0 194.5 -27.667 257.5 -83s94.5 -130.666 94.5 -225.999
c0 -59.333 -19.167 -125.166 -57.5 -197.499s-116.833 -182.166 -235.5 -329.499l-122 -147c-80 -94.667 -120 -150 -120 -166c0 -9.33301 6.83301 -17.166 20.5 -23.499s30.834 -9.5 51.501 -9.5h223c54.667 0 99.834 4.5 135.501 13.5s65.834 23.5 90.501 43.5
c16 12.667 34.167 32 54.5 58s38.166 39 53.499 39c7.33301 0 13.333 -2.83301 18 -8.5s7 -13.167 7 -22.5c0 -6.66699 -2.33301 -16.334 -7 -29.001s-12 -29.667 -22 -51z" />
    <glyph glyph-name="three" unicode="3" horiz-adv-x="1108" 
d="M623 836l24.001 0.00195312c98 0 173.333 -27.5 226 -82.5s79 -133.5 79 -235.5c0 -156 -53.667 -285.833 -161 -389.5s-240 -155.5 -398 -155.5c-86.667 0 -164.667 19 -234 57s-104 75 -104 111c0 9.33301 2.83301 16.5 8.5 21.5s13.167 7.5 22.5 7.5
c0.666992 0 30.834 -18.5 90.501 -55.5s120.167 -55.5 181.5 -55.5c106 0 192.333 35.667 259 107s100 164 100 278c0 77.333 -18.333 138 -55 182s-86.667 66 -150 66c-26.667 0 -54 -3 -82 -9s-43 -9 -45 -9c-6.66699 0 -12.167 2.83301 -16.5 8.5s-6.5 13.167 -6.5 22.5
c0 15.333 16.667 31 50 47c29.333 13.333 52.333 26.333 69 39c52 38 91 79.5 117 124.5s39 92.833 39 143.5c0 62 -19.167 113 -57.5 153s-86.833 60 -145.5 60c-60.667 0 -119.834 -22.5 -177.501 -67.5s-89.834 -67.5 -96.501 -67.5c-8.66699 0 -15 2 -19 6s-6 10 -6 18
c0 41.333 42.167 90.666 126.5 147.999s176.166 86 275.499 86c88.667 0 161.334 -24.167 218.001 -72.5s85 -110.166 85 -185.499c0 -54.667 -16.667 -105.334 -50 -152.001s-89 -96.334 -167 -149.001z" />
    <glyph glyph-name="four" unicode="4" horiz-adv-x="1108" 
d="M240 559h354.003c11.333 0 19.666 3.5 24.999 10.5s8 17.833 8 32.5v485c-0.666992 7.33301 -1.83398 12.333 -3.50098 15s-4.83398 4 -9.50098 4c-6 0 -22 -14.5 -48 -43.5s-69.333 -81.5 -130 -157.5l-123 -153c-46 -58.667 -75.5 -99 -88.5 -121
s-19.5 -39.667 -19.5 -53c0 -6.66699 2.83301 -11.5 8.5 -14.5s14.5 -4.5 26.5 -4.5zM660.003 -131c-2 -0.666992 -5.00195 -1.16602 -9.00195 -1.49902s-10 -0.5 -18 -0.5c-9.33301 0 -15.833 1.83301 -19.5 5.5s-5.5 10.834 -5.5 21.501c0 3.33301 3.16699 24.333 9.5 63
s9.5 76.334 9.5 113.001v278c0 15.333 -3.5 26.333 -10.5 33s-19.167 10 -36.5 10h-488c-27.333 0 -45 3.16699 -53 9.5s-12 18.166 -12 35.499c0 46 94.667 189 284 429l39 50c168 213.333 279.833 349.666 335.5 408.999s94.834 89 117.501 89
c8.66699 0 14.5 -3.83301 17.5 -11.5s4.5 -27.834 4.5 -60.501v-733c0.666992 -12 2.66699 -19.333 6 -22s11 -4 23 -4h72c13.333 0 27.333 15.667 42 47s28.667 47 42 47c10 0 17.5 -4.16699 22.5 -12.5s7.5 -20.5 7.5 -36.5c0 -30.667 -3.66699 -66.167 -11 -106.5
s-14.333 -69.166 -21 -86.499c-7.33301 -16 -17.166 -27.167 -29.499 -33.5s-37.5 -9.5 -75.5 -9.5h-55c-9.33301 0 -15.5 -1 -18.5 -3s-4.5 -7 -4.5 -15v-17v-387c0 -24 -3.5 -40.833 -10.5 -50.5s-24.5 -17.834 -52.5 -24.501z" />
    <glyph glyph-name="five" unicode="5" horiz-adv-x="1108" 
d="M190 760l83.999 547.003c6 36 13.5 57.167 22.5 63.5s29.5 9.5 61.5 9.5h344c67.333 0 115.833 12.333 145.5 37s46.834 37 51.501 37c6 0 11.333 -1.83301 16 -5.5s7 -7.83398 7 -12.501c0 -12 -3 -26 -9 -42c-0.666992 -2.66699 -1.33398 -4.33398 -2.00098 -5.00098
l-49 -152c-8 -25.333 -17.667 -42.166 -29 -50.499s-37.666 -12.5 -78.999 -12.5h-355c-24 0 -41.833 -6 -53.5 -18s-20.5 -34 -26.5 -66l-24 -150c-1.33301 -11.333 -2.33301 -20.833 -3 -28.5s-1 -13.834 -1 -18.501c0 -12 1.5 -19.833 4.5 -23.5s9.5 -5.5 19.5 -5.5
c5.33301 0 29.5 3.16699 72.5 9.5s83.167 9.5 120.5 9.5c139.333 0 245.166 -32.667 317.499 -98s108.5 -160.333 108.5 -285c0 -154 -53.333 -280.667 -160 -380s-244 -149 -412 -149c-82 0 -154.333 12.167 -217 36.5s-94 49.833 -94 76.5c0 6.66699 3 12 9 16s14 6 24 6
c5.33301 0 34.166 -7.83301 86.499 -23.5s101.833 -23.5 148.5 -23.5c116.667 0 212.167 32.833 286.5 98.5s111.5 149.167 111.5 250.5c0 95.333 -27.167 166.5 -81.5 213.5s-137.166 70.5 -248.499 70.5c-33.333 0 -67.666 -2 -102.999 -6s-54.333 -6 -57 -6
c-15.333 0 -26 2.16699 -32 6.5s-9 12.5 -9 24.5c0 10.667 0.333008 19.667 1 27s1.66699 14.666 3 21.999z" />
    <glyph glyph-name="six" unicode="6" horiz-adv-x="1108" 
d="M299 489c0 -125.333 27.5 -229.335 82.5 -312.002s123.833 -124 206.5 -124c78.667 0 138.5 25.333 179.5 76s61.5 124.334 61.5 221.001c0 124.667 -25.5 224.834 -76.5 300.501s-118.167 113.5 -201.5 113.5c-78 0 -139.5 -24.5 -184.5 -73.5
s-67.5 -116.167 -67.5 -201.5zM348 763.998c62 43.333 119.669 74.666 173.002 93.999s107.666 29 162.999 29c110 0 198 -37.333 264 -112s99 -174.667 99 -300c0 -146 -46.833 -266.167 -140.5 -360.5s-212.834 -141.5 -357.501 -141.5c-148 0 -266.667 52.167 -356 156.5
s-134 243.5 -134 417.5c0 158.667 44.167 306.334 132.5 443.001s208.833 243 361.5 319c66 32.667 131.5 58.167 196.5 76.5s121.167 27.5 168.5 27.5c12 0 21 -2.5 27 -7.5s9 -12.833 9 -23.5c0 -18 -22 -32.667 -66 -44c-48 -12.667 -89.333 -26.667 -124 -42
c-116.667 -51.333 -209 -120.5 -277 -207.5s-114.333 -195.167 -139 -324.5z" />
    <glyph glyph-name="seven" unicode="7" horiz-adv-x="1108" 
d="M743 1171h-359.998c-38 0 -66.333 -4.5 -85 -13.5s-34.667 -25.5 -48 -49.5c-8 -14 -17 -33 -27 -57c-15.333 -37.333 -31 -56 -47 -56c-12.667 0 -22.334 3.5 -29.001 10.5s-10 17.167 -10 30.5c0 12 2 29 6 51s9 43.333 15 64l51 186c4 16 9.16699 26.5 15.5 31.5
s17.5 7.5 33.5 7.5h629c36 0 58.333 -3.66699 67 -11s13 -23.333 13 -48c0 -51.333 -7.5 -105.5 -22.5 -162.5s-42.5 -131.833 -82.5 -224.5l-26 -61c-142 -328 -213 -541.333 -213 -640c0 -45.333 5.33301 -95.166 16 -149.499s16 -86.166 16 -95.499
c0 -20 -17.833 -36.333 -53.5 -49s-79.834 -19 -132.501 -19c-42.667 0 -70.667 12.667 -84 38s-20 76 -20 152c0 133.333 75 311 225 533l78 117c52 81.333 94.667 157.666 128 228.999s50 119.666 50 144.999c0 16.667 -5 27.667 -15 33s-39.333 8 -88 8z" />
    <glyph glyph-name="eight" unicode="8" horiz-adv-x="1108" 
d="M367 653c-34.667 0 -67.333 -23.334 -98 -70.001s-46 -103.667 -46 -171c0 -106.667 30.5 -194.167 91.5 -262.5s139.833 -102.5 236.5 -102.5c96 0 171.167 22.333 225.5 67s81.5 106.334 81.5 185.001c0 60.667 -18.5 111.5 -55.5 152.5s-99.833 78.833 -188.5 113.5
l-96 38c-86 33.333 -136.333 50 -151 50zM281.001 1106c0 -36 9.16699 -67.666 27.5 -94.999s49.166 -54.333 92.499 -81c40.667 -26 81 -46.5 121 -61.5s72 -22.5 96 -22.5c60.667 0 109.334 19.167 146.001 57.5s55 90.166 55 155.499c0 76.667 -26.333 139.167 -79 187.5
s-121 72.5 -205 72.5c-77.333 0 -139 -19.5 -185 -58.5s-69 -90.5 -69 -154.5zM303.001 700c-60.667 37.333 -105.835 80.501 -135.502 129.501s-44.5 104.833 -44.5 167.5c0 113.333 42.167 207.666 126.5 282.999s191.5 113 321.5 113c118 0 213.833 -30 287.5 -90
s110.5 -137.333 110.5 -232c0 -70 -21.167 -128.167 -63.5 -174.5s-105.166 -80.166 -188.499 -101.499c107.333 -35.333 186 -85.5 236 -150.5s75 -149.5 75 -253.5c0 -125.333 -46.167 -226.333 -138.5 -303s-215.5 -115 -369.5 -115
c-137.333 0 -248.833 35.167 -334.5 105.5s-128.5 161.5 -128.5 273.5c0 81.333 20.333 150.666 61 207.999s102.334 104 185.001 140z" />
    <glyph glyph-name="nine" unicode="9" horiz-adv-x="1108" 
d="M807 903c0 118 -27.8311 217.502 -83.498 298.502s-124.167 121.5 -205.5 121.5c-78.667 0 -138.667 -25.333 -180 -76s-62 -124.334 -62 -221.001c0 -124 25.667 -224 77 -300s118.666 -114 201.999 -114c79.333 0 141.166 25.667 185.499 77s66.5 122.666 66.5 213.999
zM758.002 612.002c-62 -42.667 -119.669 -73.833 -173.002 -93.5s-107.666 -29.5 -162.999 -29.5c-110 0 -197.667 37.333 -263 112s-98 174.667 -98 300c0 146.667 46.667 267 140 361s212 141 356 141c148 0 266.667 -52 356 -156s134 -243.333 134 -418
c0 -146 -39.167 -285.5 -117.5 -418.5s-182.166 -235.833 -311.499 -308.5c-77.333 -42.667 -155.5 -76.834 -234.5 -102.501s-141.833 -38.5 -188.5 -38.5c-14 0 -24.667 2.83301 -32 8.5s-11 13.834 -11 24.501c0 18.667 22 33.667 66 45c48 12 89.333 25.667 124 41
c116.667 51.333 209 120.333 277 207s114.333 195 139 325z" />
    <glyph glyph-name="colon" unicode=":" horiz-adv-x="612" 
d="M338 -10c-4 -4 -9.00098 -7.16699 -15.001 -9.5s-12.667 -3.5 -20 -3.5c-6 0 -12.167 1.5 -18.5 4.5s-11.833 6.5 -16.5 10.5l-127 131c-4 4 -7 9 -9 15s-3 12.667 -3 20c0 6 1.33301 12.167 4 18.5s6 11.833 10 16.5l133 129c3.33301 2.66699 7.83301 5 13.5 7
s12.834 3 21.501 3c7.33301 0 14 -1.16699 20 -3.5s11 -5.5 15 -9.5l123 -131c4 -4 7 -8.83301 9 -14.5s3 -12.167 3 -19.5c0 -6 -1.33301 -12.333 -4 -19s-6 -12 -10 -16zM337.999 571c-4 -4 -9 -7 -15 -9s-12.667 -3 -20 -3c-6 0 -12.167 1.33301 -18.5 4
s-11.833 6 -16.5 10l-127 132c-4 4 -7 8.83301 -9 14.5s-3 12.167 -3 19.5c0 6 1.33301 12.333 4 19s6 12 10 16l133 129c4 4 9 7 15 9s12.667 3 20 3c6.66699 0 13 -1.16699 19 -3.5s11.333 -5.83301 16 -10.5l123 -131c4 -4 7 -9 9 -15s3 -12.667 3 -20
c0 -6 -1.33301 -12.167 -4 -18.5s-6 -11.833 -10 -16.5z" />
    <glyph glyph-name="semicolon" unicode=";" horiz-adv-x="612" 
d="M338 575c-4 -3.33301 -8.66699 -5.83398 -14 -7.50098s-12.333 -2.5 -21 -2.5c-6 0 -12.167 1.33301 -18.5 4s-11.833 6.33398 -16.5 11.001l-127 131c-4 4 -7 8.66699 -9 14s-3 11.333 -3 18s1.33301 13.5 4 20.5s6 12.5 10 16.5l133 127c4 4 9 7.16699 15 9.5
s12.667 3.5 20 3.5c6.66699 0 13 -1.33301 19 -4s11.333 -6.33398 16 -11.001l123 -131c4 -4 7 -8.66699 9 -14s3 -11.666 3 -18.999c0 -6 -1.33301 -12.5 -4 -19.5s-6 -12.5 -10 -16.5zM258 3.99902c0 47.333 -22.499 91.5 -67.499 132.5s-67.5 65.833 -67.5 74.5
c0 16 25.333 48.333 76 97s89.334 73 116.001 73c27.333 0 59.166 -23.667 95.499 -71s54.5 -99.333 54.5 -156c0 -53.333 -13.333 -106.833 -40 -160.5s-65.334 -104.167 -116.001 -151.5c-34 -33.333 -66.333 -60 -97 -80s-53.667 -30 -69 -30c-10.667 0 -18.667 2 -24 6
s-8 10 -8 18c0 2.66699 24.5 31.5 73.5 86.5s73.5 108.833 73.5 161.5z" />
    <glyph glyph-name="less" unicode="&#x3c;" horiz-adv-x="1706" 
d="M1442 991l-934 -381l934 -381v-182l-1178 483v160l1178 486v-185z" />
    <glyph glyph-name="equal" unicode="=" horiz-adv-x="1706" 
d="M1452 487v-165h-1198v165h1198zM1452 901v-168h-1198v168h1198z" />
    <glyph glyph-name="greater" unicode="&#x3e;" horiz-adv-x="1706" 
d="M1442 690v-160l-1178 -483v182l934 381l-934 381v185z" />
    <glyph glyph-name="question" unicode="?" horiz-adv-x="784" 
d="M348 -8c-4 -4 -9.00293 -6.99902 -15.0029 -8.99902s-12.667 -3 -20 -3c-6 0 -12.167 1.33301 -18.5 4s-11.5 6 -15.5 10l-127 131c-4 4 -7.16699 9 -9.5 15s-3.5 12.667 -3.5 20c0 6 1.33301 12.167 4 18.5s6.33398 11.833 11.001 16.5l131 129
c2.66699 2.66699 6.83398 5 12.501 7s12.834 3 21.501 3c6.66699 0 13.167 -1.33301 19.5 -4s11.5 -6.33398 15.5 -11.001l125 -129c4 -4 7.16699 -8.83301 9.5 -14.5s3.5 -12.167 3.5 -19.5c0 -6 -1.5 -12.333 -4.5 -19s-6.5 -12 -10.5 -16zM249.997 662.001
c0 47.333 26.333 133.501 79 258.501s79 215.5 79 271.5c0 43.333 -11.167 76.666 -33.5 99.999s-53.5 35 -93.5 35c-40.667 0 -78.167 -15.333 -112.5 -46s-55.833 -46 -64.5 -46c-5.33301 0 -10 2.33301 -14 7s-6 10.667 -6 18c0 38 30.5 79.5 91.5 124.5
s130.167 67.5 207.5 67.5c80.667 0 145.167 -21.5 193.5 -64.5s72.5 -99.167 72.5 -168.5c0 -75.333 -54.333 -180.333 -163 -315c-16.667 -20 -29 -35.333 -37 -46c-45.333 -56 -75.833 -101 -91.5 -135s-23.5 -68 -23.5 -102c0 -14 1.33301 -30.5 4 -49.5s4 -30.5 4 -34.5
c0 -8 -2.33301 -14.5 -7 -19.5s-10.667 -7.5 -18 -7.5c-16.667 0 -32 15.333 -46 46s-21 66 -21 106z" />
    <glyph glyph-name="at" unicode="@" horiz-adv-x="2019" 
d="M1305 823l51.002 170.002h172l-172 -616l-2 -6c-10 -39.333 -15 -69.333 -15 -90c0 -32.667 7.33301 -58 22 -76s34.667 -27 60 -27c22.667 0 50.667 7.33301 84 22s64 33.334 92 56.001c73.333 58.667 129.666 132.667 168.999 222s59 188 59 296
c0 186 -63.667 336 -191 450s-295.333 171 -504 171c-115.333 0 -224.833 -21.667 -328.5 -65s-194.834 -105 -273.501 -185c-81.333 -83.333 -142.5 -178.666 -183.5 -285.999s-61.5 -226.333 -61.5 -357c0 -114.667 19.833 -216.834 59.5 -306.501
s99.5 -167.834 179.5 -234.501c70.667 -58.667 153 -103.667 247 -135s194.667 -47 302 -47c110.667 0 217.667 17.167 321 51.5s204.666 86.833 303.999 157.5l37 -47c-98.667 -74 -203.667 -129.833 -315 -167.5s-227 -56.5 -347 -56.5c-125.333 0 -241 15.5 -347 46.5
s-197.667 75.833 -275 134.5c-100.667 75.333 -177.5 167.666 -230.5 276.999s-79.5 230 -79.5 362c0 135.333 28.667 262.333 86 381s140.666 223 249.999 313c90 74 189.167 130 297.5 168s223.5 57 345.5 57c232 0 417.667 -62.833 557 -188.5s209 -292.834 209 -501.501
c0 -106 -19.667 -205.167 -59 -297.5s-95.333 -171.5 -168 -237.5c-41.333 -36 -84.333 -63.333 -129 -82s-89 -28 -133 -28c-65.333 0 -116.166 17.5 -152.499 52.5s-56.5 85.833 -60.5 152.5c-42.667 -70 -88.5 -121.333 -137.5 -154s-104.167 -49 -165.5 -49
c-89.333 0 -160.166 30.667 -212.499 92s-78.5 144 -78.5 248c0 74.667 16.333 147.667 49 219s79.667 136.333 141 195c45.333 43.333 94.5 76.333 147.5 99s106.833 34 161.5 34c60 0 108.5 -15.833 145.5 -47.5s61.167 -78.167 72.5 -139.5zM1249 772.002
c0 55.333 -12.5 99.4961 -37.5 132.496s-58.167 49.5 -99.5 49.5c-42.667 0 -81.667 -15 -117 -45s-70.666 -79 -105.999 -147c-38 -71.333 -67 -141.166 -87 -209.499s-30 -130.166 -30 -185.499s12.167 -99.666 36.5 -132.999s55.833 -50 94.5 -50
c41.333 0 79.833 13.833 115.5 41.5s71.5 71.834 107.5 132.501c37.333 64 67.166 134 89.499 210s33.5 144 33.5 204z" />
    <glyph glyph-name="A" unicode="A" horiz-adv-x="1556" 
d="M602 604l235.999 -0.000976562c21.333 0 37.5 2.33301 48.5 7s16.5 11.334 16.5 20.001c0 4 -1.66699 11.833 -5 23.5s-7.66602 24.167 -12.999 37.5l-146 347c-4.66699 12 -9.66699 21.333 -15 28s-10.333 10 -15 10c-6 0 -11.667 -2.66699 -17 -8
s-10 -12.666 -14 -21.999l-154 -361c-4 -10 -7.33301 -19.833 -10 -29.5s-4 -16.834 -4 -21.501c0 -12 6 -20.167 18 -24.5s36.667 -6.5 74 -6.5zM237.999 280.999l515.999 1161v1c8 18 18.667 27 32 27c7.33301 0 14.5 -3.33301 21.5 -10s12.833 -15.334 17.5 -26.001
l523 -1221c16.667 -39.333 34.167 -68.5 52.5 -87.5s41.5 -33.5 69.5 -43.5c5.33301 -2 13.333 -4.33301 24 -7c2.66699 -0.666992 4.33398 -1 5.00098 -1l1 -1c30.667 -9.33301 46 -25.333 46 -48c0 -16 -2.16699 -26.5 -6.5 -31.5s-14.5 -7.5 -30.5 -7.5
c-10.667 0 -48.167 3 -112.5 9s-122.833 9 -175.5 9c-75.333 0 -152.333 -5.66699 -231 -17c-16 -2 -25.667 -3 -29 -3c-9.33301 0 -17.166 4 -23.499 12s-9.5 18.333 -9.5 31c0 13.333 15.333 27.666 46 42.999l6 3c36.667 14 61.667 29.833 75 47.5s20 39.5 20 65.5
c0 14 -1.66699 28.833 -5 44.5s-8.33301 30.834 -15 45.501l-58 138c-14.667 36 -29.834 59.667 -45.501 71s-47.5 17 -95.5 17h-22h-267c-58.667 0 -96.667 -6 -114 -18s-32.333 -35.333 -45 -70l-56 -156c-5.33301 -14.667 -9.33301 -27.667 -12 -39
s-4 -21.666 -4 -30.999c0 -30 11.5 -54.5 34.5 -73.5s58.5 -33.167 106.5 -42.5c0.666992 -0.666992 1.66699 -1.16699 3 -1.5s3.66602 -0.5 6.99902 -0.5c30.667 -6 50.334 -12.167 59.001 -18.5s13 -15.166 13 -26.499c0 -14.667 -4 -25.5 -12 -32.5
s-19.667 -10.5 -35 -10.5c-6.66699 0 -39.667 3.33301 -99 10s-114.333 10 -165 10c-39.333 0 -78.666 -3 -117.999 -9s-59.333 -9 -60 -9c-14.667 0 -25.834 3.5 -33.501 10.5s-11.5 17.167 -11.5 30.5c0 18.667 15 34 45 46c18 6.66699 31.667 13 41 19
c22 14.667 41.833 34.834 59.5 60.501s40.167 69.167 67.5 130.5z" />
    <glyph glyph-name="B" unicode="B" horiz-adv-x="1346" 
d="M473 569v-274.001c0 -89.333 15.5 -148.166 46.5 -176.499s89.833 -42.5 176.5 -42.5c102 0 181.833 28.333 239.5 85s86.5 134.667 86.5 234s-35.333 177.833 -106 235.5s-167 86.5 -289 86.5c-65.333 0 -107.333 -7.5 -126 -22.5s-28 -56.833 -28 -125.5zM473 910.999
c0 -45.333 12.833 -74.665 38.5 -87.998s90.167 -20 193.5 -20c84.667 0 145 17.167 181 51.5s54 92.166 54 173.499c0 97.333 -30.333 175.666 -91 234.999s-139.667 89 -237 89c-52 0 -88.167 -12.5 -108.5 -37.5s-30.5 -74.833 -30.5 -149.5v-254zM229 1096
c0 68 -4 115.333 -12 142s-22.333 49.667 -43 69c-12.667 11.333 -27.167 20.333 -43.5 27s-39.5 12 -69.5 16h-2c-42 7.33301 -63 22.333 -63 45c0 13.333 4.66699 23.833 14 31.5s22.333 11.5 39 11.5c2.66699 0 10.667 -0.666992 24 -2c83.333 -8.66699 169 -13 257 -13
c36 0 94.667 2.5 176 7.5s144 7.5 188 7.5c151.333 0 269.833 -31.333 355.5 -94s128.5 -149 128.5 -259c0 -71.333 -18.833 -130.833 -56.5 -178.5s-96.167 -85.5 -175.5 -113.5c98.667 -5.33301 179 -42 241 -110s93 -153 93 -255c0 -63.333 -12.667 -123.833 -38 -181.5
s-60.333 -106.5 -105 -146.5c-47.333 -41.333 -101.666 -71 -162.999 -89s-145 -27 -251 -27c-46.667 0 -92.334 1 -137.001 3s-89 5 -133 9c-11.333 0.666992 -27 1.83398 -47 3.50098s-34.667 2.5 -44 2.5c-37.333 0 -86.333 -3 -147 -9
c-16.667 -1.33301 -28.667 -2.33301 -36 -3c-16.667 -2 -31.334 -3.5 -44.001 -4.5s-23.667 -1.5 -33 -1.5c-15.333 0 -27.333 3.16699 -36 9.5s-13 15.166 -13 26.499c0 13.333 3.33301 24 10 32s22 17.333 46 28c3.33301 2 9.33301 5.16699 18 9.5
s15.334 7.83301 20.001 10.5c28.667 18 49.5 42.667 62.5 74s19.5 71 19.5 119v803z" />
    <glyph glyph-name="C" unicode="C" horiz-adv-x="1475" 
d="M61 670c0 101.333 16.666 199.166 49.999 293.499s81 178.833 143 253.5c67.333 79.333 145.5 139.666 234.5 180.999s185.5 62 289.5 62c128.667 0 261.667 -34 399 -102c30.667 -15.333 49.334 -23 56.001 -23c15.333 0 28 10.667 38 32s21.333 32 34 32
c23.333 -0.666992 35.333 -23.667 36 -69v-23c3.33301 -71.333 9.33301 -144.333 18 -219s13 -113.667 13 -117c0 -12.667 -2.33301 -22 -7 -28s-12 -9 -22 -9c-16.667 0 -35.667 21.5 -57 64.5s-44.333 82.167 -69 117.5c-59.333 82.667 -130.333 147 -213 193
s-169 69 -259 69c-126 0 -229.833 -54.167 -311.5 -162.5s-122.5 -249.166 -122.5 -422.499c0 -76.667 10.167 -151.5 30.5 -224.5s49.166 -139.5 86.499 -199.5c52.667 -85.333 114 -149.666 184 -192.999s148 -65 234 -65c66.667 0 134.167 14 202.5 42
s131.833 67.667 190.5 119c16.667 15.333 37.667 38 63 68s45.333 45 60 45c8.66699 0 15.334 -2.66699 20.001 -8s7 -13 7 -23c0 -17.333 -12.333 -43.5 -37 -78.5s-57.667 -72.167 -99 -111.5c-70 -67.333 -148.333 -118 -235 -152s-181 -51 -283 -51
c-200 0 -362.333 65.5 -487 196.5s-187 301.833 -187 512.5z" />
    <glyph glyph-name="D" unicode="D" horiz-adv-x="1569" 
d="M477 377c0 -122.667 16.666 -202.167 49.999 -238.5s94 -54.5 182 -54.5c164 0 295.667 55.5 395 166.5s149 259.5 149 445.5c0 192 -53.667 348.667 -161 470s-246.666 182 -417.999 182c-78.667 0 -131.167 -11.5 -157.5 -34.5s-39.5 -75.167 -39.5 -156.5v-780z
M228.999 1116c0 66 -6.33496 112.669 -19.002 140.002s-35.667 50.333 -69 69c-17.333 10 -45.166 18 -83.499 24s-57.5 20 -57.5 42c0 13.333 5.16699 23.833 15.5 31.5s24.833 11.5 43.5 11.5c6 0 32.333 -2.16699 79 -6.5s90.667 -6.5 132 -6.5c35.333 0 72 1 110 3
s85.667 5.33301 143 10c3.33301 0 9.33301 0.333008 18 1c71.333 4.66699 123 7 155 7c262 0 463.333 -57.333 604 -172s211 -277.334 211 -488.001c0 -226.667 -77.667 -415.334 -233 -566.001s-352 -226 -590 -226c-27.333 0 -70.5 2 -129.5 6s-104.5 6 -136.5 6
c-116 0 -217.667 -7.33301 -305 -22c-9.33301 -1.33301 -15 -2.33301 -17 -3c-11.333 0 -21.666 4.16699 -30.999 12.5s-14 17.833 -14 28.5c0 20.667 19 40 57 58h1l37 18c28 15.333 48.167 37 60.5 65s18.5 65.667 18.5 113v844z" />
    <glyph glyph-name="E" unicode="E" horiz-adv-x="1196" 
d="M229 1096c0 68 -4.00391 115.335 -12.0039 142.002s-22.333 49.667 -43 69c-12.667 11.333 -27.167 20.333 -43.5 27s-39.5 12 -69.5 16h-2c-42 7.33301 -63 22.333 -63 45c0 13.333 4.66699 23.833 14 31.5s22.333 11.5 39 11.5c2.66699 0 12 -0.666992 28 -2
c104.667 -10 213.334 -15 326.001 -15c116.667 0 239.334 2.5 368.001 7.5s199.334 7.5 212.001 7.5c38 0 61.167 -4.33301 69.5 -13s12.5 -28.334 12.5 -59.001v-43c0 -48.667 0.666992 -99.667 2 -153v-21c0 -17.333 -2.16699 -28.5 -6.5 -33.5s-13.166 -7.5 -26.499 -7.5
c-22 0 -34.5 15.833 -37.5 47.5s-8.16699 55.5 -15.5 71.5c-20.667 42.667 -56.667 72.667 -108 90s-129.333 26 -234 26c-62 0 -105.167 -8.66699 -129.5 -26s-36.5 -48 -36.5 -92v-320c0 -30.667 6.83301 -52.667 20.5 -66s36.167 -20 67.5 -20h66
c46.667 0 83.5 5.33301 110.5 16s50.167 28.667 69.5 54c9.33301 12.667 19.666 32 30.999 58c17.333 39.333 36.333 59 57 59c11.333 0 19.666 -3.33301 24.999 -10s8 -17.667 8 -33c0 -2.66699 -0.666992 -9 -2 -19c-4 -45.333 -6 -91 -6 -137
c0 -73.333 4.33301 -150 13 -230c2 -19.333 3 -31.333 3 -36c0 -13.333 -3 -23.166 -9 -29.499s-14.667 -9.5 -26 -9.5c-22 0 -35.667 18 -41 54c-4 26 -8.66699 46.667 -14 62c-15.333 40 -37.666 67.833 -66.999 83.5s-76 23.5 -140 23.5h-80
c-33.333 0 -56 -7.16699 -68 -21.5s-18 -45.5 -18 -93.5v-319c0 -84.667 10.667 -137.334 32 -158.001s65.333 -31 132 -31c68 0 135.167 10.833 201.5 32.5s120.5 50.5 162.5 86.5c29.333 24 55 54.333 77 91s39.333 55 52 55c8.66699 0 15.667 -3.83301 21 -11.5
s8 -17.5 8 -29.5c0 -26.667 -7.66699 -62.667 -23 -108s-34.333 -84 -57 -116c-28 -40 -63.833 -69.333 -107.5 -88s-97.834 -28 -162.501 -28c-28 0 -84.667 3 -170 9s-156.333 9 -213 9c-69.333 0 -140.166 -3 -212.499 -9s-109.5 -9 -111.5 -9
c-15.333 0 -27.333 3.16699 -36 9.5s-13 15.166 -13 26.499c0 13.333 3.33301 24 10 32s22 17.333 46 28c3.33301 2 9.33301 5.16699 18 9.5s15.334 7.83301 20.001 10.5c28.667 18 49.5 42.667 62.5 74s19.5 71 19.5 119v803z" />
    <glyph glyph-name="F" unicode="F" horiz-adv-x="1133" 
d="M229 1096c0 68 -4.00488 115.335 -12.0049 142.002s-22.333 49.667 -43 69c-12.667 11.333 -27.167 20.333 -43.5 27s-39.5 12 -69.5 16h-2c-42 7.33301 -63 22.333 -63 45c0 13.333 4.66699 23.833 14 31.5s23 11.5 41 11.5c2.66699 0 10.667 -0.666992 24 -2
c118.667 -10 253.334 -15 404.001 -15c149.333 0 302.666 4 459.999 12c35.333 2 57 3 65 3c24.667 0 41.334 -4.83301 50.001 -14.5s13 -28.834 13 -57.501v-217c0 -17.333 -2.16699 -28.5 -6.5 -33.5s-13.166 -7.5 -26.499 -7.5c-22 0 -34.5 15.833 -37.5 47.5
s-8.16699 55.5 -15.5 71.5c-20.667 42.667 -56.667 72.667 -108 90s-129.333 26 -234 26c-62 0 -105.167 -8.66699 -129.5 -26s-36.5 -48 -36.5 -92v-320c0 -30.667 6.83301 -52.667 20.5 -66s36.167 -20 67.5 -20h66c46.667 0 83.5 5.33301 110.5 16s50.167 28.667 69.5 54
c9.33301 12.667 19.666 32 30.999 58c17.333 39.333 36.333 59 57 59c12 0 20.5 -3.16699 25.5 -9.5s7.5 -17.5 7.5 -33.5c0 -1.33301 -0.333008 -5.33301 -1 -12c-3.33301 -41.333 -5 -83.333 -5 -126c0 -92.667 4 -179 12 -259c1.33301 -12 2 -19 2 -21
c0 -14 -3 -24.667 -9 -32s-14.667 -11 -26 -11c-22.667 0 -36 16.667 -40 50c-4 28 -9 50 -15 66c-15.333 40 -37.666 67.833 -66.999 83.5s-76 23.5 -140 23.5h-80c-33.333 0 -56 -7.16699 -68 -21.5s-18 -45.5 -18 -93.5v-309c0 -54 9 -97.833 27 -131.5
s45.333 -58.167 82 -73.5c6.66699 -2.66699 14.334 -5.16699 23.001 -7.5s21.334 -5.16602 38.001 -8.49902c30.667 -4.66699 50.667 -10.834 60 -18.501s14 -18.5 14 -32.5c0 -14.667 -4.33301 -25.5 -13 -32.5s-21.334 -10.5 -38.001 -10.5c-12.667 0 -50.667 3 -114 9
s-119.666 9 -168.999 9c-52 0 -109.5 -3 -172.5 -9s-99.167 -9 -108.5 -9c-15.333 0 -27.333 3.16699 -36 9.5s-13 15.166 -13 26.499c0 13.333 3.33301 24 10 32s22 17.333 46 28c3.33301 2 9.33301 5.16699 18 9.5s15.334 7.83301 20.001 10.5
c28.667 18 49.5 42.667 62.5 74s19.5 71 19.5 119v803z" />
    <glyph glyph-name="G" unicode="G" horiz-adv-x="1575" 
d="M1389 274c0 -11.333 0.333984 -24.501 1.00098 -39.501s1 -24.167 1 -27.5c0 -25.333 -22.333 -48.666 -67 -69.999c-16 -7.33301 -28.667 -13.333 -38 -18c-102 -51.333 -201.5 -90.5 -298.5 -117.5s-185.833 -40.5 -266.5 -40.5
c-199.333 0 -360.166 62.5 -482.499 187.5s-183.5 289.833 -183.5 494.5c0 231.333 70.167 424.666 210.5 579.999s314.5 233 522.5 233c108 0 216.5 -21.5 325.5 -64.5s166.5 -64.5 172.5 -64.5c20 0 35.667 8.16699 47 24.5s22.333 24.5 33 24.5
c9.33301 0 16.5 -3.66699 21.5 -11s7.5 -18.666 7.5 -33.999c0 -3.33301 -0.666992 -12.333 -2 -27c-4.66699 -56.667 -7 -111 -7 -163c0 -36.667 1.5 -74.5 4.5 -113.5s4.5 -59.167 4.5 -60.5c0 -18.667 -2.33301 -30.834 -7 -36.501s-14 -8.5 -28 -8.5
c-16.667 0 -30 16.667 -40 50c-12.667 42.667 -27.334 81 -44.001 115c-39.333 80 -105.333 147.5 -198 202.5s-187.667 82.5 -285 82.5c-143.333 0 -258.166 -54.667 -344.499 -164s-129.5 -256 -129.5 -440c0 -212.667 44.167 -383.334 132.5 -512.001
s204.833 -193 349.5 -193c63.333 0 123.666 11.167 180.999 33.5s98 49.5 122 81.5c11.333 16.667 20.666 44.167 27.999 82.5s11 81.833 11 130.5c0 58 -9.66699 101 -29 129s-53.666 48 -102.999 60c-9.33301 2 -22.666 4 -39.999 6
c-4.66699 0.666992 -8 1.33398 -10 2.00098h-4c-35.333 6 -53.333 19.667 -54 41c0 14 4.16699 24.333 12.5 31s21.166 10 38.499 10c14.667 0 52.5 -3.16699 113.5 -9.5s114.167 -9.5 159.5 -9.5c68.667 0 141.667 4 219 12c20.667 2 33.667 3 39 3
c17.333 0 30.166 -3 38.499 -9s12.5 -14.667 12.5 -26c0 -19.333 -15.667 -33.666 -47 -42.999v0c-12.667 -3.33301 -23.167 -7 -31.5 -11s-15.833 -8.66699 -22.5 -14c-16.667 -14 -28.5 -33.333 -35.5 -58s-10.5 -60 -10.5 -106v-125z" />
    <glyph glyph-name="H" unicode="H" horiz-adv-x="1651" 
d="M229 1096c0 68 -4.00488 115.332 -12.0049 141.999s-22.333 49.667 -43 69c-12.667 11.333 -27.167 20.333 -43.5 27s-39.5 12 -69.5 16h-2c-42 7.33301 -63 22.333 -63 45c0 12.667 4.83301 23 14.5 31s22.5 12 38.5 12c4.66699 0 36.667 -2.83301 96 -8.5
s116 -8.5 170 -8.5c79.333 0 163 5 251 15c21.333 2.66699 34.666 4 39.999 4c12.667 0 22.334 -3.5 29.001 -10.5s10 -16.5 10 -28.5c0 -10 -2.83301 -18.167 -8.5 -24.5s-18.5 -13.166 -38.5 -20.499c-1.33301 -0.666992 -3.66602 -1.66699 -6.99902 -3
c-26.667 -10.667 -47 -22 -61 -34c-19.333 -17.333 -33 -37.833 -41 -61.5s-12 -64.5 -12 -122.5v-19v-231c0 -19.333 5.33301 -34.5 16 -45.5s26 -16.5 46 -16.5h573c19.333 0 34.5 5.5 45.5 16.5s16.5 26.167 16.5 45.5v211c0 65.333 -4.33301 111.833 -13 139.5
s-23.667 51.5 -45 71.5c-13.333 11.333 -28 20.333 -44 27s-38.333 12 -67 16h-2c-42 7.33301 -63 22.333 -63 45c0 12.667 4.83301 23 14.5 31s22.5 12 38.5 12c4.66699 0 36.5 -2.83301 95.5 -8.5s115.167 -8.5 168.5 -8.5c79.333 0 163 5 251 15
c22 2.66699 35.333 4 40 4c12.667 0 22.334 -3.5 29.001 -10.5s10 -16.5 10 -28.5c0 -10 -2.83301 -18.167 -8.5 -24.5s-18.5 -13.166 -38.5 -20.499c-1.33301 -0.666992 -4.33301 -2 -9 -4c-25.333 -10.667 -44 -21.667 -56 -33c-20.667 -18 -35.167 -39.333 -43.5 -64
s-12.5 -71 -12.5 -139v-817c0 -53.333 8 -96.666 24 -129.999s41 -58.333 75 -75c6 -2.66699 12.833 -5.16699 20.5 -7.5s18.834 -5.16602 33.501 -8.49902c1.33301 0 2.66602 -0.333008 3.99902 -1c41.333 -9.33301 62 -25.333 62 -48c0 -16 -3.83301 -27.5 -11.5 -34.5
s-20.167 -10.5 -37.5 -10.5c-8.66699 0 -42.167 3 -100.5 9s-112.166 9 -161.499 9c-51.333 0 -108.333 -3 -171 -9s-99 -9 -109 -9c-16 0 -28.333 3.16699 -37 9.5s-13 15.166 -13 26.499c0 13.333 3.33301 24 10 32s22 17.333 46 28c3.33301 2 9.33301 5.16699 18 9.5
s15.334 7.83301 20.001 10.5c28.667 18 49.667 42.667 63 74s20 71 20 119v354c0 19.333 -5.5 34.5 -16.5 45.5s-26.167 16.5 -45.5 16.5h-573c-20 0 -35.333 -5.5 -46 -16.5s-16 -26.167 -16 -45.5v-348c0 -54 9 -97.833 27 -131.5s45.333 -58.167 82 -73.5
c12 -4.66699 29.667 -9.66699 53 -15c3.33301 -0.666992 5.33301 -1 6 -1c30.667 -4.66699 50.667 -10.834 60 -18.501s14 -18.5 14 -32.5c0 -14.667 -4.16699 -25.5 -12.5 -32.5s-21.166 -10.5 -38.499 -10.5c-12.667 0 -50.834 3 -114.501 9s-120.5 9 -170.5 9
c-52 0 -109.167 -3 -171.5 -9s-98.833 -9 -109.5 -9c-15.333 0 -27.333 3.16699 -36 9.5s-13 15.166 -13 26.499c0 13.333 3.33301 24 10 32s22 17.333 46 28c3.33301 2 9.33301 5.16699 18 9.5s15.334 7.83301 20.001 10.5c28.667 18 49.5 42.667 62.5 74s19.5 71 19.5 119
v803z" />
    <glyph glyph-name="I" unicode="I" horiz-adv-x="725" 
d="M240 1096c0 76 -4.16797 126.832 -12.501 152.499s-23.5 47.167 -45.5 64.5c-22 15.333 -55.667 27.333 -101 36c-2 0 -4 0.333008 -6 1c-28 2.66699 -46.5 7.33398 -55.5 14.001s-13.5 17 -13.5 31c0 13.333 4.5 23.833 13.5 31.5s21.5 11.5 37.5 11.5c4 0 13 -1 27 -3
c60 -8 117.333 -12 172 -12c124.667 0 236.667 5 336 15c11.333 1.33301 18 2 20 2c14 0 24.667 -3.33301 32 -10s11 -16.334 11 -29.001c0 -20 -17.167 -35 -51.5 -45s-58.166 -21.667 -71.499 -35c-16.667 -16.667 -28.667 -40.334 -36 -71.001s-11 -75.334 -11 -134.001
v-817c0 -58 8.66699 -104 26 -138s43.666 -57 78.999 -69c11.333 -3.33301 29.333 -7.33301 54 -12c4.66699 -1.33301 7.66699 -2 9 -2c32 -5.33301 52.667 -11.5 62 -18.5s14 -17.167 14 -30.5c0 -15.333 -4.66699 -26.666 -14 -33.999s-23.666 -11 -42.999 -11
c-15.333 0 -54.666 3 -117.999 9s-119 9 -167 9c-48.667 0 -103.667 -3 -165 -9s-97.666 -9 -108.999 -9c-15.333 0 -27.5 3.33301 -36.5 10s-13.5 15.334 -13.5 26.001c0 13.333 3.5 24 10.5 32s23.5 17.333 49.5 28c6 3.33301 14.167 7.5 24.5 12.5
s17.166 8.16699 20.499 9.5c23.333 12.667 41.166 35.334 53.499 68.001s18.5 73.667 18.5 123v803z" />
    <glyph glyph-name="J" unicode="J" horiz-adv-x="725" 
d="M260 1096c0 68 -3.99902 115.332 -11.999 141.999s-22.333 49.667 -43 69c-12.667 11.333 -27.167 20.333 -43.5 27s-39.5 12 -69.5 16h-2c-42 7.33301 -63 22.333 -63 45c0 13.333 4.5 23.833 13.5 31.5s22.167 11.5 39.5 11.5c2.66699 0 33.667 -2.83301 93 -8.5
s117 -8.5 173 -8.5c78.667 0 157.667 5.33301 237 16c16 2 25.667 3 29 3c11.333 0 19.666 -3.5 24.999 -10.5s8 -17.167 8 -30.5c0 -10 -2.33301 -18.167 -7 -24.5s-15 -13.166 -31 -20.499l-6 -3c-20.667 -10 -36.667 -20.667 -48 -32
c-16.667 -18 -28.334 -39.5 -35.001 -64.5s-10 -71.167 -10 -138.5v-958c0 -62 -9.66699 -120.333 -29 -175s-50 -110.334 -92 -167.001c-48 -66 -95.833 -115.667 -143.5 -149s-94.167 -50 -139.5 -50c-48 0 -86.167 10 -114.5 30s-42.5 47 -42.5 81
c0 56.667 5.33301 102.834 16 138.501s24.334 53.5 41.001 53.5c18 0 47.333 -24.167 88 -72.5s70.667 -72.5 90 -72.5c28 0 48 17.167 60 51.5s18 91.5 18 171.5v1098z" />
    <glyph glyph-name="K" unicode="K" horiz-adv-x="1464" 
d="M229 403l-0.00390625 693c0 68 -4 115.333 -12 142s-22.333 49.667 -43 69c-23.333 21.333 -58.833 35.5 -106.5 42.5s-71.5 22.167 -71.5 45.5c0 12.667 4.83301 23 14.5 31s22.5 12 38.5 12c4.66699 0 36.667 -2.83301 96 -8.5s116 -8.5 170 -8.5
c66.667 0 141.334 4 224.001 12c12 1.33301 20.667 2.33301 26 3c3.33301 0 8 0.333008 14 1c14 2 23 3 27 3c12.667 0 22.334 -3.5 29.001 -10.5s10 -16.5 10 -28.5c0 -10 -2.83301 -18.167 -8.5 -24.5s-18.5 -13.166 -38.5 -20.499
c-1.33301 -0.666992 -3.66602 -1.66699 -6.99902 -3c-26.667 -10.667 -47 -22 -61 -34c-19.333 -17.333 -33 -37.833 -41 -61.5s-12 -64.5 -12 -122.5v-19v-342c0 -24 1.5 -39.5 4.5 -46.5s8.5 -10.5 16.5 -10.5c4.66699 0 10.667 1.83301 18 5.5s14.333 8.5 21 14.5
l233 221c86.667 82 154.834 153.833 204.501 215.5s74.5 104.834 74.5 129.501c0 13.333 -4.5 24.666 -13.5 33.999s-21.167 15.666 -36.5 18.999l-24 3c-31.333 3.33301 -47 18.666 -47 45.999c0 10.667 3 18.167 9 22.5s16.667 6.5 32 6.5c18 0 51.667 -2.16699 101 -6.5
s89.333 -6.5 120 -6.5c34.667 0 74.167 2.5 118.5 7.5s71.833 7.5 82.5 7.5c18 0 30.667 -2.83301 38 -8.5s11 -15.167 11 -28.5c0 -21.333 -17 -36.666 -51 -45.999c-26 -7.33301 -47.333 -15.333 -64 -24c-26.667 -14 -65.167 -40.833 -115.5 -80.5
s-102.5 -85.167 -156.5 -136.5l-219 -209c-14.667 -14 -25.5 -26.167 -32.5 -36.5s-10.5 -18.5 -10.5 -24.5c0 -8.66699 2.66699 -18.667 8 -30s13.333 -24 24 -38l383 -518c28 -38 54 -70.167 78 -96.5s46 -46.166 66 -59.499c20.667 -14.667 43.834 -25.167 69.501 -31.5
s38.5 -16.833 38.5 -31.5c0 -17.333 -3.66699 -29.5 -11 -36.5s-20 -10.5 -38 -10.5c-18.667 0 -45.667 2 -81 6s-61 6 -77 6s-36.667 -1.66699 -62 -5s-42 -5 -50 -5c-14 0 -28.5 5.33301 -43.5 16s-29.167 25.667 -42.5 45l-424 592
c-8.66699 11.333 -14.5 18.333 -17.5 21s-6.16699 4 -9.5 4c-2.66699 -0.666992 -6.66699 -2.83398 -12 -6.50098s-12.333 -9.16699 -21 -16.5l-65 -57c-10 -8 -17 -18.5 -21 -31.5s-6 -33.833 -6 -62.5v-103v-41c0 -82.667 5.33301 -140 16 -172s29 -57 55 -75
c9.33301 -6.66699 19.5 -12.167 30.5 -16.5s24.167 -7.83301 39.5 -10.5c0.666992 0 1.33398 -0.333008 2.00098 -1c38.667 -9.33301 58 -25.333 58 -48c0 -17.333 -3.33301 -29.166 -10 -35.499s-18.334 -9.5 -35.001 -9.5c-10 0 -43 3 -99 9s-106.333 9 -151 9
c-51.333 0 -108.333 -3 -171 -9s-99.334 -9 -110.001 -9c-15.333 0 -27.333 3.16699 -36 9.5s-13 15.166 -13 26.499c0 12.667 3.5 23.167 10.5 31.5s22.167 17.833 45.5 28.5l8 4c26 12.667 45 25 57 37c20.667 19.333 35 43.5 43 72.5s12 77.167 12 144.5v65z" />
    <glyph glyph-name="L" unicode="L" horiz-adv-x="1169" 
d="M242 1096c0 65.333 -4.33691 111.834 -13.0039 139.501s-23.667 51.5 -45 71.5c-12.667 11.333 -27.167 20.333 -43.5 27s-38.833 12 -67.5 16h-1c-42.667 7.33301 -64 22.333 -64 45c0 13.333 4.5 23.833 13.5 31.5s21.5 11.5 37.5 11.5
c5.33301 0 37.666 -2.83301 96.999 -8.5s116 -8.5 170 -8.5c78.667 0 162 5 250 15c22 2.66699 35.333 4 40 4c12.667 0 22.334 -3.5 29.001 -10.5s10 -16.5 10 -28.5c0 -10 -2.83301 -18.167 -8.5 -24.5s-18.167 -13.166 -37.5 -20.499c-2 -0.666992 -5.33301 -2 -10 -4
c-24.667 -10.667 -43.334 -21.667 -56.001 -33c-20.667 -18 -35.167 -39.333 -43.5 -64s-12.5 -71 -12.5 -139v-827c0 -88.667 11 -142.334 33 -161.001s65 -28 129 -28c68.667 0 136.167 10.833 202.5 32.5s120.5 50.5 162.5 86.5c28.667 24.667 53.834 55.167 75.501 91.5
s38.834 54.5 51.501 54.5c8.66699 0 15.834 -4 21.501 -12s8.5 -17.667 8.5 -29c0 -26.667 -7.66699 -62.667 -23 -108s-34 -84 -56 -116c-28 -39.333 -64.167 -68.5 -108.5 -87.5s-99.166 -28.5 -164.499 -28.5c-28 0 -84.333 3 -169 9s-155.334 9 -212.001 9
c-69.333 0 -140.166 -3 -212.499 -9s-109.166 -9 -110.499 -9c-16 0 -28.667 3.16699 -38 9.5s-14 15.166 -14 26.499c0 13.333 3.33301 24 10 32s22 17.333 46 28l16.5 8l24.5 12c28 18 48.667 42.667 62 74s20 71 20 119v803z" />
    <glyph glyph-name="M" unicode="M" horiz-adv-x="1849" 
d="M221 399l22.9961 520.993c0 5.33301 0.333008 19 1 41s1 41 1 57c0 86 -6.66699 151.333 -20 196s-35.333 80.334 -66 107.001c-17.333 14.667 -40.666 26.334 -69.999 35.001c-2.66699 0.666992 -4.66699 1.33398 -6 2.00098
c-19.333 4.66699 -31.333 9.83398 -36 15.501s-7 14.167 -7 25.5c0 13.333 3 22.833 9 28.5s16 8.5 30 8.5c3.33301 0 5.83301 -0.166992 7.5 -0.5s3.83398 -0.833008 6.50098 -1.5c4 -0.666992 11 -1.66699 21 -3c48 -5.33301 93 -8 135 -8
c21.333 0 44.833 1.16699 70.5 3.5s40.5 3.5 44.5 3.5c2 0 4.5 0.333008 7.5 1s5.83301 1 8.5 1c14 0 25 -3.5 33 -10.5s17.333 -22.833 28 -47.5l453 -972c4.66699 -10.667 9.16699 -18.167 13.5 -22.5s9.5 -6.5 15.5 -6.5c5.33301 0 10.333 2 15 6s9 10 13 18l494 1000
c6 12 13 20.5 21 25.5s19.333 7.5 34 7.5c2.66699 0 6.83398 -0.5 12.501 -1.5s10.5 -1.5 14.5 -1.5c6.66699 -1.33301 14.334 -2.33301 23.001 -3s23.334 -1 44.001 -1s39.667 0.5 57 1.5s33 2.5 47 4.5c10 2 19.667 3.66699 29 5s17.666 2 24.999 2
c16 0 26.833 -3 32.5 -9s8.5 -17.333 8.5 -34c0 -17.333 -13.5 -28.5 -40.5 -33.5s-53.167 -14.5 -78.5 -28.5c-22.667 -12.667 -39.167 -32.5 -49.5 -59.5s-15.5 -65.167 -15.5 -114.5v-18l22 -821c1.33301 -64.667 7.66602 -112.167 18.999 -142.5s30.333 -55.5 57 -75.5
c11.333 -8.66699 23.166 -15.5 35.499 -20.5s26.833 -8.16699 43.5 -9.5c1.33301 -0.666992 2.66602 -1 3.99902 -1c24 -6 36 -18 36 -36s-3.5 -30 -10.5 -36s-21.167 -9 -42.5 -9c-5.33301 0 -34.5 2.33301 -87.5 7s-103.167 7 -150.5 7c-48 0 -98.333 -2.66699 -151 -8
s-81.667 -8 -87 -8c-17.333 0 -29.833 3.16699 -37.5 9.5s-11.5 16.833 -11.5 31.5c0 16.667 13.667 30.334 41 41.001c18 7.33301 31.667 14 41 20c23.333 16 39.833 35.167 49.5 57.5s14.5 54.5 14.5 96.5v43l-27 637c-0.666992 14 -2.66699 25.667 -6 35
s-6.66602 14 -9.99902 14c-4.66699 0 -10.5 -4.66699 -17.5 -14s-14.833 -22.333 -23.5 -39l-432 -874l-2 -5c-13.333 -28.667 -28.666 -43 -45.999 -43c-15.333 0 -28.333 12.333 -39 37c-2 4.66699 -4 8.66699 -6 12l-399 881l-3 6c-9.33301 21.333 -18 32.333 -26 33
c-4.66699 0 -8.5 -4.5 -11.5 -13.5s-5.16699 -22.5 -6.5 -40.5l-18 -508v-38v-50c0 -67.333 7.33301 -117.833 22 -151.5s39.334 -59.5 74.001 -77.5c10.667 -4.66699 28 -9.66699 52 -15c2 -0.666992 3.66699 -1 5 -1c22.667 -3.33301 37.5 -8.5 44.5 -15.5
s10.5 -17.5 10.5 -31.5c0 -13.333 -3.16699 -22.5 -9.5 -27.5s-19.5 -7.5 -39.5 -7.5c-10.667 0 -28 1 -52 3c-4.66699 0 -8.33398 0.333008 -11.001 1c-2.66699 0 -6.66699 0.333008 -12 1c-52 6 -94.333 9 -127 9c-36.667 0 -83 -3.33301 -139 -10
c-11.333 -1.33301 -19 -2 -23 -2c-3.33301 -0.666992 -7.66602 -1 -12.999 -1c-20.667 -2 -34.334 -3 -41.001 -3c-7.33301 0 -14.166 4.16699 -20.499 12.5s-9.5 18.5 -9.5 30.5c0 16 18.667 31.333 56 46l1 1c2 0.666992 5.33301 2 10 4c28 12.667 48 24.334 60 35.001
c18 16.667 31.833 47.334 41.5 92.001s16.167 108.667 19.5 192z" />
    <glyph glyph-name="N" unicode="N" horiz-adv-x="1630" 
d="M240 537l-0.00195312 513.996c0 66 -5 119.167 -15 159.5s-25.667 71.166 -47 92.499c-14.667 14.667 -30.5 26 -47.5 34s-38.833 13 -65.5 15h-1c-32 4.66699 -48 18.334 -48 41.001c0 16 3 27.167 9 33.5s16.667 9.5 32 9.5c6.66699 0 13.834 -0.333008 21.501 -1
l33.5 -3c16 -3.33301 29 -5.66602 39 -6.99902s19.667 -2 29 -2c12.667 0 25.834 0.666992 39.501 2s31.5 3.66602 53.5 6.99902l51.5 3c11.667 0.666992 22.167 1 31.5 1c36.667 0 76.667 -26 120 -78c3.33301 -4 5.66602 -6.66699 6.99902 -8l705 -846
c17.333 -21.333 33.333 -38 48 -50s26 -18 34 -18c10 0 17.167 7.83301 21.5 23.5s6.5 40.834 6.5 75.501v522c0 78.667 -6 136.334 -18 173.001s-32.333 64.334 -61 83.001c-30.667 19.333 -68.5 33.5 -113.5 42.5s-67.5 23.5 -67.5 43.5c0 12 3.83301 21.167 11.5 27.5
s18.834 9.5 33.501 9.5c11.333 0 23.166 -0.5 35.499 -1.5s25.5 -2.83301 39.5 -5.5c18 -2 37.333 -3.5 58 -4.5s42.667 -1.5 66 -1.5c24.667 0 50.167 0.666992 76.5 2s57.833 3.66602 94.5 6.99902c16 2 31 3.5 45 4.5s26.667 1.5 38 1.5c15.333 0 26 -2.83301 32 -8.5
s9 -15.167 9 -28.5c0 -19.333 -14 -34.166 -42 -44.499s-48.667 -20.833 -62 -31.5c-25.333 -19.333 -43 -43.666 -53 -72.999s-15.667 -83.333 -17 -162l-12 -1039c0 -29.333 -2.16699 -51 -6.5 -65s-11.166 -21 -20.499 -21c-22.667 0 -54.667 24.667 -96 74
c-8 10 -14.333 17.667 -19 23l-841 994c-9.33301 11.333 -19 20.833 -29 28.5s-17 11.5 -21 11.5c-8 0 -14 -7.16699 -18 -21.5s-6 -35.833 -6 -64.5v-478c0 -148.667 5 -249 15 -301s27.333 -90.667 52 -116c18.667 -18.667 53.334 -32.334 104.001 -41.001h2
c31.333 -4.66699 52 -10.667 62 -18s15 -17.666 15 -30.999c0 -17.333 -3.16699 -28.833 -9.5 -34.5s-21.166 -8.5 -44.499 -8.5c-4 0 -30 3.33301 -78 10s-93.667 10 -137 10c-46 0 -94.833 -3 -146.5 -9s-79.834 -9 -84.501 -9c-12.667 0 -22.334 4.16699 -29.001 12.5
s-10 20.5 -10 36.5s15.667 28.667 47 38l2 1c0.666992 0 2.66699 0.666992 6 2c38 13.333 64 29 78 47c20 24 35.333 71.833 46 143.5s16 162.5 16 272.5z" />
    <glyph glyph-name="O" unicode="O" horiz-adv-x="1645" 
d="M319 791c0 -219.333 48.667 -396.833 146 -532.5s225 -203.5 383 -203.5c147.333 0 264 49.833 350 149.5s129 236.167 129 409.5c0 221.333 -49.833 402 -149.5 542s-227.167 210 -382.5 210c-149.333 0 -266 -50.667 -350 -152s-126 -242.333 -126 -423zM57 696
c0 218.667 74.5 401 223.5 547s336.833 219 563.5 219c214.667 0 392.167 -69.667 532.5 -209s210.5 -314 210.5 -524c0 -221.333 -74.333 -405 -223 -551s-338.334 -219 -569.001 -219c-213.333 0 -389.666 69.667 -528.999 209s-209 315.333 -209 528z" />
    <glyph glyph-name="P" unicode="P" horiz-adv-x="1235" 
d="M229 1096c0 65.333 -3.83691 112 -11.5039 140s-21.5 51.667 -41.5 71s-53 33.333 -99 42c-1.33301 0 -2.33301 0.333008 -3 1h-2c-40 6.66699 -60 21.667 -60 45c0 13.333 4.33301 23.833 13 31.5s20.667 11.5 36 11.5c2.66699 0 32.334 -2.83301 89.001 -8.5
s111.667 -8.5 165 -8.5c61.333 0 133.833 3.5 217.5 10.5s136.834 10.5 159.501 10.5c151.333 0 270.5 -36 357.5 -108s130.5 -169.333 130.5 -292c0 -118.667 -40.5 -217.167 -121.5 -295.5s-182.5 -117.5 -304.5 -117.5c-65.333 0 -117.166 7.16699 -155.499 21.5
s-57.5 33.833 -57.5 58.5c0 7.33301 2.83301 13.833 8.5 19.5s12.834 8.5 21.501 8.5c1.33301 0 11.833 -1.66699 31.5 -5s39.5 -5 59.5 -5c86 0 150.833 23 194.5 69s65.5 114.333 65.5 205c0 106 -28.5 191 -85.5 255s-133.167 96 -228.5 96
c-50.667 0 -85.167 -13 -103.5 -39s-27.5 -94.333 -27.5 -205v-809c0 -54.667 7.5 -98.5 22.5 -131.5s38.167 -57.5 69.5 -73.5c6 -2.66699 12.667 -5.16699 20 -7.5s18.333 -5.16602 33 -8.49902c1.33301 0 2.33301 -0.333008 3 -1c39.333 -9.33301 59 -25.333 59 -48
c0 -16 -4 -27.5 -12 -34.5s-21 -10.5 -39 -10.5c-4 0 -33.667 3 -89 9s-109 9 -161 9c-53.333 0 -111.333 -3 -174 -9s-98.334 -9 -107.001 -9c-15.333 0 -27.333 3.16699 -36 9.5s-13 15.166 -13 26.499c0 13.333 3.33301 24 10 32s22 17.333 46 28
c3.33301 2 9.33301 5.16699 18 9.5s15.334 7.83301 20.001 10.5c28.667 18 49.5 42.667 62.5 74s19.5 71 19.5 119v803z" />
    <glyph glyph-name="Q" unicode="Q" horiz-adv-x="1645" 
d="M319 797c0 -217.333 48.667 -393.168 146 -527.501s225 -201.5 383 -201.5c148 0 264.833 49.333 350.5 148s128.5 234.334 128.5 407.001c0 218 -49.833 396.333 -149.5 535s-227.167 208 -382.5 208c-149.333 0 -266 -50.167 -350 -150.5s-126 -239.833 -126 -418.5z
M365 101.998c-102 73.333 -178.833 159.5 -230.5 258.5s-77.5 210.167 -77.5 333.5c0 221.333 74.167 404.666 222.5 549.999s336.5 218 564.5 218c216.667 0 394.667 -69.167 534 -207.5s209 -314.833 209 -529.5c0 -180 -52.167 -335 -156.5 -465
s-247.5 -217.333 -429.5 -262c92 -67.333 165.333 -114.166 220 -140.499s103.667 -39.5 147 -39.5c38.667 0 75 8.83301 109 26.5s53 26.5 57 26.5c7.33301 0 13.333 -2.66699 18 -8s7 -12.333 7 -21c0 -35.333 -38.333 -77.833 -115 -127.5s-156 -74.5 -238 -74.5
c-48 0 -99.833 11.5 -155.5 34.5s-140.167 72.167 -253.5 147.5c-20 12.667 -47.333 31 -82 55c-127.333 87.333 -211.333 131 -252 131c-35.333 0 -67.333 -11.833 -96 -35.5s-50 -56.167 -64 -97.5c-5.33301 -16 -11 -37.667 -17 -65
c-9.33301 -44 -24.666 -66 -45.999 -66c-14.667 0 -24.834 5.66699 -30.501 17s-8.5 31 -8.5 59c0 66 14.167 123.5 42.5 172.5s68.833 85.5 121.5 109.5z" />
    <glyph glyph-name="R" unicode="R" horiz-adv-x="1436" 
d="M229 1096c0 68.667 -3.83301 116.334 -11.5 143.001s-20.834 49.334 -39.501 68.001c-19.333 19.333 -51 33.333 -95 42c-2 0 -3.66699 0.333008 -5 1h-2c-40 6.66699 -60 21.667 -60 45c0 13.333 4.5 23.5 13.5 30.5s21.833 10.5 38.5 10.5c5.33301 0 18.333 -1 39 -3
c81.333 -8 157 -12 227 -12c35.333 0 95 3.16699 179 9.5s150 9.5 198 9.5c153.333 0 271.5 -33.333 354.5 -100s124.5 -161.667 124.5 -285c0 -82 -21.833 -150 -65.5 -204s-110.5 -96 -200.5 -126c12 -6 23.333 -15.167 34 -27.5s23 -31.833 37 -58.5l207 -383
c30.667 -54.667 56.167 -90.834 76.5 -108.501s44.166 -26.5 71.499 -26.5c8 0 18 0.666992 30 2s19.667 2 23 2c10 0 17.333 -2.16699 22 -6.5s7 -11.833 7 -22.5c0 -25.333 -22.833 -49.333 -68.5 -72s-95.5 -34 -149.5 -34c-61.333 0 -118 26.833 -170 80.5
s-111.333 148.834 -178 285.501c-2.66699 5.33301 -6.33398 13.333 -11.001 24c-72.667 152 -120 237.667 -142 257c-14.667 12.667 -31.334 21.667 -50.001 27s-52 8 -100 8c-34 0 -56.833 -5 -68.5 -15s-17.5 -29 -17.5 -57v-301c0 -54.667 7.33301 -98.5 22 -131.5
s37.667 -57.5 69 -73.5c9.33301 -4.66699 24.333 -9.66699 45 -15c2.66699 -0.666992 4.33398 -1 5.00098 -1s1.33398 -0.333008 2.00098 -1c38.667 -9.33301 58 -25.333 58 -48c0 -16.667 -3.66699 -28.334 -11 -35.001s-20 -10 -38 -10c-6 0 -36.333 3 -91 9
s-106.334 9 -155.001 9c-53.333 0 -111.666 -3 -174.999 -9s-98.666 -9 -105.999 -9c-15.333 0 -27.333 3.16699 -36 9.5s-13 15.166 -13 26.499c0 13.333 3.33301 24 10 32s22 17.333 46 28c3.33301 2 9.33301 5.16699 18 9.5s15.334 7.83301 20.001 10.5
c28.667 18 49.5 42.667 62.5 74s19.5 71 19.5 119v803zM481 860c0 -44.667 9.5 -72.167 28.5 -82.5s62.167 -15.5 129.5 -15.5c109.333 0 186.833 18.833 232.5 56.5s68.5 100.167 68.5 187.5c0 108 -29.667 193 -89 255s-141 93 -245 93
c-46.667 0 -79.167 -10.833 -97.5 -32.5s-27.5 -65.5 -27.5 -131.5v-330z" />
    <glyph glyph-name="S" unicode="S" horiz-adv-x="1118" 
d="M160 113l-65.999 294.995c-2 8 -3.83301 15.667 -5.5 23s-2.5 11.666 -2.5 12.999c0 18.667 3 31.334 9 38.001s16.667 10 32 10s31 -22.5 47 -67.5s34.333 -86.167 55 -123.5c42.667 -75.333 94.834 -134.5 156.501 -177.5s124.834 -64.5 189.501 -64.5
c82 0 149.333 25 202 75s79 115.333 79 196c0 101.333 -101.333 195.666 -304 282.999l-32 14c-0.666992 0 -1.33398 0.333008 -2.00098 1c-268.667 114.667 -403 260.334 -403 437.001c0 110 38.167 202.667 114.5 278s172.5 113 288.5 113c59.333 0 121 -11.667 185 -35
s104.667 -35 122 -35c19.333 0 37.5 4.5 54.5 13.5s27.5 13.5 31.5 13.5c13.333 0 22.833 -3.33301 28.5 -10s8.5 -18.334 8.5 -35.001c0 -7.33301 -0.666992 -18.833 -2 -34.5s-2 -28.167 -2 -37.5c0 -33.333 4.83301 -80.166 14.5 -140.499s14.5 -101.5 14.5 -123.5
c0 -16.667 -2.33301 -28 -7 -34s-12.667 -9 -24 -9c-20.667 0 -37.334 22.167 -50.001 66.5s-30.667 86.5 -54 126.5c-35.333 57.333 -82.833 103 -142.5 137s-122.167 51 -187.5 51c-66 0 -120.333 -19.167 -163 -57.5s-64 -86.166 -64 -143.499
c0 -56 20.333 -103.5 61 -142.5s116 -79.5 226 -121.5l56 -21c134 -51.333 222.333 -97.666 265 -138.999c40 -38.667 70.5 -85 91.5 -139s31.5 -113.333 31.5 -178c0 -138 -41.5 -249.667 -124.5 -335s-191.167 -128 -324.5 -128c-54.667 0 -116.834 11.333 -186.501 34
s-112.5 35.334 -128.5 38.001c-2.66699 0.666992 -6.16699 1.33398 -10.5 2.00098s-7.83301 1.33398 -10.5 2.00098c-35.333 4 -57 25.667 -65 65l-1.5 3c-0.333008 0.666992 -0.5 2 -0.5 4z" />
    <glyph glyph-name="T" unicode="T" horiz-adv-x="1423" 
d="M586 1221c0 42 -7.17188 68.168 -21.5049 78.501s-52.166 15.5 -113.499 15.5c-103.333 0 -175.666 -8 -216.999 -24s-71 -44.333 -89 -85c-12.667 -27.333 -24.334 -61 -35.001 -101c-12 -46 -31 -69 -57 -69c-11.333 0 -19.666 3.66699 -24.999 11s-8 18.666 -8 33.999
c0 4 2 17 6 39c14 81.333 23.667 159 29 233c2.66699 38.667 7.83398 62.5 15.501 71.5s22.5 13.5 44.5 13.5c8.66699 0 50.834 -2.16699 126.501 -6.5s146.167 -6.5 211.5 -6.5h485c68 0 141.833 1.83301 221.5 5.5s125.834 5.5 138.501 5.5c34 0 55 -3.83301 63 -11.5
s13 -23.5 15 -47.5l17 -210v-18c0 -22 -1.66699 -35 -5 -39s-11.333 -6 -24 -6c-24 0 -40.667 16.667 -50 50c-7.33301 26 -15.333 47.667 -24 65c-18 35.333 -45.833 59.833 -83.5 73.5s-102.5 20.5 -194.5 20.5h-17c-74 0 -118.333 -5.83301 -133 -17.5
s-22 -38.834 -22 -81.501v-915c0 -56.667 8.5 -100.667 25.5 -132s45.5 -55.666 85.5 -72.999c12 -4.66699 31.333 -9.66699 58 -15c2 -0.666992 3.66699 -1 5 -1c0.666992 0 1.66699 -0.333008 3 -1c44 -10 66 -26.667 66 -50c0 -14.667 -4.5 -25.5 -13.5 -32.5
s-22.167 -10.5 -39.5 -10.5c-9.33301 0 -46.5 3 -111.5 9s-124.833 9 -179.5 9c-56.667 0 -122 -3.33301 -196 -10s-118.333 -10 -133 -10c-18 0 -32.167 3.83301 -42.5 11.5s-15.5 18.167 -15.5 31.5c0 21.333 20.333 37 61 47h1c4 1.33301 12.667 3.83301 26 7.5
s24.333 7.16699 33 10.5c38.667 16 67.167 40.333 85.5 73s27.5 76 27.5 130v928z" />
    <glyph glyph-name="U" unicode="U" horiz-adv-x="1612" 
d="M219 1155c0 59.333 -5.83008 101.331 -17.4971 125.998s-35.834 43.334 -72.501 56.001c-16.667 6.66699 -38.334 12.667 -65.001 18c-2 0 -3.66699 0.333008 -5 1c-24 4 -39.167 9 -45.5 15s-9.5 15.333 -9.5 28s4 21.667 12 27s21.667 8 41 8
c8.66699 0 39.334 -2.5 92.001 -7.5s100.667 -7.5 144 -7.5c58 0 118.167 3.5 180.5 10.5s96.166 10.5 101.499 10.5c19.333 0 33.5 -3 42.5 -9s13.5 -15.333 13.5 -28c0 -19.333 -16.667 -33.666 -50 -42.999h-1c-10.667 -2.66699 -20.167 -5.83398 -28.5 -9.50098
s-16.166 -7.5 -23.499 -11.5c-24.667 -14 -41.667 -40.333 -51 -79s-14 -124 -14 -256v-357c0 -108.667 4.33301 -187.834 13 -237.501s23.334 -92.5 44.001 -128.5c34.667 -60.667 80.667 -107.334 138 -140.001s122 -49 194 -49c68 0 130.167 12 186.5 36
s103.5 58.333 141.5 103c39.333 46.667 67.5 105.334 84.5 176.001s25.5 173.334 25.5 308.001v354c0 88 -6.83301 150.167 -20.5 186.5s-37.5 61.5 -71.5 75.5c-20 8 -48.333 15.333 -85 22c-48.667 8.66699 -73 24.667 -73 48c0 12 4 20.833 12 26.5s21.333 8.5 40 8.5
c8.66699 0 25.667 -1 51 -3c6 -0.666992 10.667 -1 14 -1c6 -0.666992 15.667 -2 29 -4c48.667 -6 88.334 -9 119.001 -9c21.333 0 42.666 1 63.999 3s47.666 6 78.999 12c2.66699 0 7 0.333008 13 1c17.333 2 29.333 3 36 3c16 0 27.5 -2.66699 34.5 -8
s10.5 -13.666 10.5 -24.999c0 -18 -14 -32.333 -42 -43c-2.66699 -1.33301 -4.33398 -2 -5.00098 -2c-12.667 -3.33301 -23.334 -7 -32.001 -11s-16.334 -8.66699 -23.001 -14c-17.333 -12 -29.166 -38.5 -35.499 -79.5s-9.5 -137.167 -9.5 -288.5v-262
c0 -246 -52 -430.5 -156 -553.5s-259.667 -184.5 -467 -184.5c-195.333 0 -336.333 53.333 -423 160s-130 282.667 -130 528v500z" />
    <glyph glyph-name="V" unicode="V" horiz-adv-x="1556" 
d="M735 -12l-524.002 1222c-16.667 40 -33 68.833 -49 86.5s-36.333 31.167 -61 40.5c-8.66699 3.33301 -19.667 7 -33 11c-40 12.667 -60 30.334 -60 53.001c0 12.667 3.5 22 10.5 28s17.833 9 32.5 9c9.33301 0 20.5 -0.5 33.5 -1.5s28.167 -2.83301 45.5 -5.5
c37.333 -4 73.333 -7 108 -9s69.334 -3 104.001 -3c40.667 0 79.5 1.33301 116.5 4s73.167 7 108.5 13c2.66699 0 6.66699 0.333008 12 1c10 2 16.333 3 19 3c10 0 18.667 -3.83301 26 -11.5s11 -16.834 11 -27.501c0 -18.667 -18 -35.667 -54 -51l-19 -8
c-26.667 -12 -45.834 -26.5 -57.501 -43.5s-17.5 -39.5 -17.5 -67.5c0 -14 2 -29.167 6 -45.5s12.333 -40.166 25 -71.499l303 -729c4.66699 -12 9.83398 -21.5 15.501 -28.5s10.834 -10.5 15.501 -10.5c5.33301 0 10.5 2.66699 15.5 8s9.5 13 13.5 23l293 661
c12 28 21.333 56 28 84s10 54 10 78c0 38.667 -9.33301 70.334 -28 95.001s-46.334 42.334 -83.001 53.001c-8 2 -20.333 4.66699 -37 8c-42 8 -63 22.333 -63 43c0 14 3.66699 24.333 11 31s19 10 35 10c8.66699 0 22.667 -1 42 -3s33 -3 41 -3
c2.66699 -0.666992 6 -1.33398 10 -2.00098c63.333 -8.66699 114 -13 152 -13c28 0 62.667 3.66699 104 11c12 2 20.667 3.33301 26 4c8 2 15.333 3.5 22 4.5s12.667 1.5 18 1.5c14 0 24 -2.83301 30 -8.5s9 -14.5 9 -26.5c0 -22 -17.667 -40.667 -53 -56
c-4.66699 -2 -9 -4 -13 -6c-9.33301 -4 -21 -16.833 -35 -38.5s-28.667 -49.5 -44 -83.5l-549 -1239l-1 -2c-8 -18 -18.667 -27 -32 -27c-8 0 -15.167 2.83301 -21.5 8.5s-12.166 14.5 -17.499 26.5z" />
    <glyph glyph-name="W" unicode="W" horiz-adv-x="2109" 
d="M778 363c2.66699 -7.33301 5.50098 -12.6719 8.50098 -16.0049s6.5 -5 10.5 -5c3.33301 0 6.66602 1.5 9.99902 4.5s6 6.83301 8 11.5l221 473c2.66699 4.66699 4.66699 11 6 19s2 17 2 27c0 6.66699 -0.5 12.834 -1.5 18.501s-2.5 11.167 -4.5 16.5l-108 294
c-16.667 45.333 -31.334 77.833 -44.001 97.5s-26.334 32.5 -41.001 38.5c-5.33301 2 -13 4.66699 -23 8c-34.667 12.667 -52 29 -52 49c0 13.333 2.66699 22.5 8 27.5s16.333 7.5 33 7.5c8.66699 0 18.334 -0.5 29.001 -1.5s23 -2.83301 37 -5.5
c27.333 -2.66699 54.333 -4.66699 81 -6s53.334 -2 80.001 -2c35.333 0 69.333 1.33301 102 4s63 6.33398 91 11.001c2.66699 0 7 0.666992 13 2c8.66699 1.33301 14.667 2 18 2c10 0 18.167 -3.33301 24.5 -10s9.5 -15 9.5 -25c0 -11.333 -4.5 -21 -13.5 -29
s-21.167 -13.333 -36.5 -16c-20 -4 -34.333 -12.833 -43 -26.5s-13 -33.5 -13 -59.5c0 -21.333 3 -46.833 9 -76.5s14 -58.167 24 -85.5l247 -684c3.33301 -6.66699 6.83301 -12 10.5 -16s7.16699 -6.33301 10.5 -7c5.33301 0 10.333 2.33301 15 7s8.66699 11.334 12 20.001
l215 606c11.333 33.333 19.833 63.333 25.5 90s8.5 50.667 8.5 72c0 39.333 -8 71.5 -24 96.5s-39.667 42.5 -71 52.5c-6 2 -14.333 4.33301 -25 7c-37.333 10 -56 25.667 -56 47c0 14 3.5 23.667 10.5 29s19.833 8 38.5 8c11.333 0 23.166 -0.5 35.499 -1.5
s25.166 -2.5 38.499 -4.5c8 -1.33301 19.667 -3 35 -5c40.667 -5.33301 72.667 -8 96 -8c26.667 0 60.667 3.66699 102 11c12 2 20.667 3.33301 26 4c9.33301 2 17.333 3.5 24 4.5s12.667 1.5 18 1.5c13.333 0 22.833 -2.83301 28.5 -8.5s8.5 -15.167 8.5 -28.5
c0 -20 -16 -37.333 -48 -52c-9.33301 -4 -15.666 -7.33301 -18.999 -10c-19.333 -11.333 -38.333 -33.833 -57 -67.5s-40 -84.834 -64 -153.501l-416 -1138c-2.66699 -10.667 -6.5 -18.167 -11.5 -22.5s-12.167 -6.5 -21.5 -6.5c-7.33301 0 -14.666 3.16699 -21.999 9.5
s-13 14.833 -17 25.5l-270 741c-2 4.66699 -4 8.16699 -6 10.5s-4 3.5 -6 3.5c-4 0 -7.66699 -1.16699 -11 -3.5s-6 -5.83301 -8 -10.5l-344 -747v-2c-8.66699 -18 -19.667 -27 -33 -27c-7.33301 0 -14.666 3.16699 -21.999 9.5s-13 14.833 -17 25.5l-446 1218
c-12.667 34.667 -31.334 63.834 -56.001 87.501s-54.334 41.167 -89.001 52.5c-25.333 7.33301 -42 14.833 -50 22.5s-12 17.834 -12 30.501c0 14 3.33301 24 10 30s17.667 9 33 9c9.33301 0 20 -0.5 32 -1.5s25 -2.5 39 -4.5l30 -3
c61.333 -6.66699 111.666 -10 150.999 -10c46.667 0 103.667 3.66699 171 11c16 2 27.333 3.33301 34 4c2.66699 0 7.33398 0.333008 14.001 1c16.667 2 27.667 3 33 3c8.66699 0 16.334 -3.66699 23.001 -11s10 -15.333 10 -24c0 -13.333 -18.5 -30.833 -55.5 -52.5
s-55.5 -55.5 -55.5 -101.5c0 -16.667 2.66699 -37.167 8 -61.5s13 -50.166 23 -77.499z" />
    <glyph glyph-name="X" unicode="X" horiz-adv-x="1460" 
d="M328 297l272.002 344c4 5.33301 7 11 9 17s3 12.667 3 20c0 9.33301 -4.33301 21.666 -13 36.999c-0.666992 0.666992 -1 1.33398 -1 2.00098l-266 391c-30.667 44.667 -62.667 86.334 -96 125.001s-60.666 66.667 -81.999 84c-16.667 12.667 -41.667 24 -75 34
s-50 25.333 -50 46c0 13.333 3.83301 22.833 11.5 28.5s20.834 8.5 39.501 8.5c28 0 72.167 -1.83301 132.5 -5.5s106.833 -5.5 139.5 -5.5c45.333 0 94.666 2.83301 147.999 8.5s84.666 8.5 93.999 8.5c18 0 30.667 -3 38 -9s11 -16 11 -30c0 -20.667 -14 -34 -42 -40
c-2.66699 -0.666992 -4.33398 -1 -5.00098 -1c-24.667 -6.66699 -42.5 -16.834 -53.5 -30.501s-16.5 -32.167 -16.5 -55.5c0 -11.333 2.66699 -23.666 8 -36.999s13 -27 23 -41l193 -281c5.33301 -8 10.833 -14.333 16.5 -19s10.834 -7 15.501 -7s9.66699 1.83301 15 5.5
s10.666 9.16699 15.999 16.5l199 250c22.667 28.667 37.5 51.334 44.5 68.001s10.5 33.667 10.5 51c0 22 -4.83301 38.167 -14.5 48.5s-28.167 18.833 -55.5 25.5l-29 6c-35.333 6.66699 -53 20.334 -53 41.001c0 11.333 3.5 20 10.5 26s17.167 9 30.5 9
c10 0 20.667 -0.5 32 -1.5s25 -2.83301 41 -5.5c20.667 -2 43.167 -3.5 67.5 -4.5s51.5 -1.5 81.5 -1.5c22.667 0 45.5 0.666992 68.5 2s47.167 3.66602 72.5 6.99902c12.667 2 24 3.5 34 4.5s19 1.5 27 1.5c15.333 0 26.333 -3 33 -9s10 -15.333 10 -28
c0 -24.667 -18.333 -40.667 -55 -48c-20.667 -4.66699 -36.667 -9.33398 -48 -14.001c-25.333 -11.333 -58.166 -36.333 -98.499 -75s-86.5 -90 -138.5 -154l-223 -279c-5.33301 -6 -9.33301 -12.167 -12 -18.5s-4 -12.833 -4 -19.5c0 -6 1.16699 -12.333 3.5 -19
s5.16602 -12 8.49902 -16l320 -463c33.333 -48.667 65.5 -90.834 96.5 -126.501s56.833 -60.5 77.5 -74.5c10 -7.33301 25.333 -15 46 -23c28 -10.667 42 -24 42 -40c0 -14.667 -4.33301 -25.5 -13 -32.5s-21.667 -10.5 -39 -10.5c-20.667 0 -58.5 2.66699 -113.5 8
s-99.5 8 -133.5 8c-48.667 0 -99 -3 -151 -9s-80.333 -9 -85 -9c-18 0 -32 3.66699 -42 11s-15 17.333 -15 30c0 17.333 18.667 32.833 56 46.5s56 35.5 56 65.5c0 15.333 -3.83301 32.5 -11.5 51.5s-18.834 38.833 -33.501 59.5l-213 307
c-4.66699 8 -9.16699 14.167 -13.5 18.5s-7.83301 6.5 -10.5 6.5c-4 -0.666992 -8 -2.5 -12 -5.5s-9.33301 -8.5 -16 -16.5l-206 -263c-25.333 -32.667 -43.166 -59.5 -53.499 -80.5s-15.5 -39.833 -15.5 -56.5c0 -24 7.16699 -43.167 21.5 -57.5s36.166 -24.5 65.499 -30.5
c9.33301 -2 21.333 -3.66699 36 -5c35.333 -4 53 -16 53 -36c0 -15.333 -5 -26.666 -15 -33.999s-25.667 -11 -47 -11c-6.66699 0 -32.667 2.66699 -78 8s-87.333 8 -126 8c-36.667 0 -78.5 -2.66699 -125.5 -8s-76.167 -8 -87.5 -8c-16.667 0 -29.834 3.5 -39.501 10.5
s-14.5 16.5 -14.5 28.5c0 17.333 18.333 32.666 55 45.999c16.667 6 29.334 11 38.001 15c32 16.667 63.5 39.5 94.5 68.5s72.5 76.5 124.5 142.5z" />
    <glyph glyph-name="Y" unicode="Y" horiz-adv-x="1350" 
d="M551 403l-0.00195312 146c0 34 -9 66.333 -27 97c-0.666992 1.33301 -1.33398 2.33301 -2.00098 3l-297 549c-18.667 36 -39.834 67.333 -63.501 94s-45.5 44.667 -65.5 54c-10 4 -25.667 8 -47 12c-39.333 8 -59 23 -59 45c0 12.667 4.5 22 13.5 28s22.833 9 41.5 9
c3.33301 0 12.666 -1 27.999 -3c77.333 -8 154.666 -12 231.999 -12c64 0 131 4 201 12c17.333 2 28.333 3 33 3c20 0 33.167 -2.5 39.5 -7.5s9.5 -14.167 9.5 -27.5c0 -16.667 -19.167 -32 -57.5 -46s-57.5 -36.333 -57.5 -67c0 -10 2.5 -22.333 7.5 -37
s12.167 -30.334 21.5 -47.001l229 -436c3.33301 -6 6.83301 -10.833 10.5 -14.5s7.16699 -5.5 10.5 -5.5c4.66699 0 9.16699 2 13.5 6s9.16602 10.667 14.499 20l195 359c1.33301 2.66699 3.66602 7 6.99902 13c22.667 42 34 74.333 34 97c0 26 -7.66699 48 -23 66
s-38 31 -68 39c-12.667 3.33301 -29.667 6 -51 8c-38 4.66699 -57 18.334 -57 41.001c0 12.667 3.83301 22 11.5 28s19.5 9 35.5 9c4.66699 0 16 -1 34 -3c64.667 -6.66699 125.667 -10 183 -10c25.333 0 57.833 2.5 97.5 7.5s65.834 7.5 78.501 7.5
c18.667 0 31.667 -2.66699 39 -8s11 -14.333 11 -27c0 -20.667 -13.667 -34.667 -41 -42c-10 -2.66699 -17.667 -5 -23 -7c-20 -8 -40.667 -23.5 -62 -46.5s-41.666 -51.833 -60.999 -86.5l-297 -545c-8 -14.667 -13.667 -28.167 -17 -40.5s-5 -26.833 -5 -43.5v-12v-246
c0 -78 4.83301 -131.5 14.5 -160.5s27.167 -52.167 52.5 -69.5c15.333 -8.66699 40.666 -16.334 75.999 -23.001c6.66699 -1.33301 11.334 -2.33301 14.001 -3c34.667 -4.66699 57.334 -11 68.001 -19s16 -19.333 16 -34s-4.16699 -25.5 -12.5 -32.5
s-21.166 -10.5 -38.499 -10.5c-10.667 0 -48.167 3 -112.5 9s-123.166 9 -176.499 9c-55.333 0 -119.666 -3.33301 -192.999 -10s-118 -10 -134 -10c-18 0 -32.167 3.83301 -42.5 11.5s-15.5 18.167 -15.5 31.5c0 22.667 23 39 69 49h1
c18.667 2.66699 34.334 6.16699 47.001 10.5s24.334 9.5 35.001 15.5c31.333 17.333 52.833 39.333 64.5 66s17.5 76.334 17.5 149.001v88z" />
    <glyph glyph-name="Z" unicode="Z" horiz-adv-x="1186" 
d="M629 1044c28.667 53.333 52.1689 102.831 70.502 148.498s27.5 76.167 27.5 91.5s-14.333 26.333 -43 33s-77 10 -145 10c-76 0 -139.5 -8 -190.5 -24s-86.5 -38.667 -106.5 -68c-18 -25.333 -32.667 -55.166 -44 -89.499s-26.666 -51.5 -45.999 -51.5
c-12 0 -20.5 2.5 -25.5 7.5s-7.5 13.833 -7.5 26.5c0 8 3.66699 36.833 11 86.5s11 94.834 11 135.501v14c0 31.333 3.16699 50.833 9.5 58.5s18.166 11.5 35.499 11.5c3.33301 0 12.333 -0.666992 27 -2c103.333 -8.66699 211.333 -13 324 -13c145.333 0 294 5 446 15
c33.333 2.66699 53.666 4 60.999 4c15.333 0 27.166 -2 35.499 -6s12.5 -9.66699 12.5 -17s-1.83301 -16 -5.5 -26s-9.5 -22.333 -17.5 -37l-633 -1164c-4.66699 -8.66699 -8.16699 -16.834 -10.5 -24.501s-3.5 -15.167 -3.5 -22.5c0 -12 8.5 -20 25.5 -24s57.5 -6 121.5 -6
h43c82 0 152.833 7.83301 212.5 23.5s111.834 39.834 156.501 72.501c26.667 19.333 54.167 47.333 82.5 84s48.5 55 60.5 55c8 0 14.167 -4.33301 18.5 -13s6.5 -20.667 6.5 -36c0 -86.667 -28.333 -159.834 -85 -219.501s-130.667 -89.5 -222 -89.5
c-10.667 0 -36.334 1 -77.001 3c-147.333 8.66699 -284.333 13 -411 13c-54.667 0 -109.167 -1.66699 -163.5 -5s-82.5 -5 -84.5 -5c-12 0 -20.333 1.83301 -25 5.5s-7 9.83398 -7 18.501c0 11.333 8.66699 31 26 59l19 32z" />
    <glyph glyph-name="bracketleft" unicode="[" horiz-adv-x="807" 
d="M717 1421v-80h-176c-26.667 0 -45 -5.5 -55 -16.5s-15 -34.167 -15 -69.5v-1398c0 -36 4.83301 -59.333 14.5 -70s28.167 -16 55.5 -16h176v-80h-445v1730h445z" />
    <glyph glyph-name="backslash" unicode="\" horiz-adv-x="569" 
d="M109 1403l538 -1593h-104l-539 1593h105z" />
    <glyph glyph-name="bracketright" unicode="]" horiz-adv-x="807" 
d="M90 -309v80h176c26 0 43.833 5.16699 53.5 15.5s14.5 33.833 14.5 70.5v1398c0 36.667 -4.83301 60.167 -14.5 70.5s-27.5 15.5 -53.5 15.5h-176v80h445v-1730h-445z" />
    <glyph glyph-name="asciicircum" unicode="^" horiz-adv-x="2048" 
d="M1130 1462l502 -565h-104l-506 397l-506 -397h-104l503 565h215z" />
    <glyph glyph-name="underscore" unicode="_" 
d="M1024 -311v-172h-1024v172h1024z" />
    <glyph glyph-name="grave" unicode="`" 
d="M688 983l-74 0.000976562l-301 184c-32 20 -54 37.167 -66 51.5s-18 30.833 -18 49.5c0 21.333 7.5 39.666 22.5 54.999s32.833 23 53.5 23c16 0 33.333 -5.5 52 -16.5s37 -26.167 55 -45.5z" />
    <glyph glyph-name="a" unicode="a" horiz-adv-x="940" 
d="M602 98c-61.333 -42 -121.167 -73.3311 -179.5 -93.998s-117.833 -31 -178.5 -31c-58 0 -103 17.167 -135 51.5s-48 82.833 -48 145.5c0 88.667 38.5 159 115.5 211s209.167 95 396.5 129c0 4.66699 0.333008 11.667 1 21s1 16 1 20c0 88.667 -16.5 154.167 -49.5 196.5
s-84.5 63.5 -154.5 63.5c-38 0 -64.333 -6.66699 -79 -20s-22 -38 -22 -74v-17c0 -35.333 -12.333 -60.5 -37 -75.5s-62.667 -22.5 -114 -22.5c-17.333 0 -29.166 3.66699 -35.499 11s-9.5 21.333 -9.5 42c0 60 34.667 112.667 104 158s155.333 68 258 68
c68 0 127.5 -9 178.5 -27s92.5 -44.667 124.5 -80c18 -20 30.667 -45 38 -75s11 -85.667 11 -167v-303c0 -58.667 4.16699 -93.334 12.5 -104.001s27.5 -16 57.5 -16c5.33301 0 12.166 0.666992 20.499 2s14.5 2 18.5 2c7.33301 0 14 -2.5 20 -7.5s9 -10.833 9 -17.5
c0 -20.667 -20.167 -42.834 -60.5 -66.501s-81.166 -35.5 -122.499 -35.5c-28 0 -53.833 9.33301 -77.5 28s-44.834 46.667 -63.501 84zM574.999 449.002c-103.333 -20.667 -177.833 -49.168 -223.5 -85.501s-68.5 -85.166 -68.5 -146.499c0 -40 10.333 -69.833 31 -89.5
s52 -29.5 94 -29.5c60 0 102.833 9.83301 128.5 29.5s38.5 57.167 38.5 112.5v18v191z" />
    <glyph glyph-name="b" unicode="b" horiz-adv-x="1051" 
d="M338 672v-412c0 -59.333 23 -107.333 69 -144s105 -55 177 -55s128.167 26.333 168.5 79s60.5 126 60.5 220c0 113.333 -28.333 207 -85 281s-128 111 -214 111c-36.667 0 -69 -6.33301 -97 -19s-54.333 -33 -79 -61zM123 174l0.00195312 1038
c0 38.667 -2.66699 65.334 -8 80.001s-14.333 26.334 -27 35.001c-9.33301 5.33301 -24 9.33301 -44 12h-3c-17.333 0 -28.833 2.5 -34.5 7.5s-8.5 12.833 -8.5 23.5c0 12.667 3.16699 22 9.5 28s22.833 11.667 49.5 17c18.667 3.33301 35.5 6.83301 50.5 10.5
s30.5 8.5 46.5 14.5c35.333 12.667 71.166 28 107.499 46s57.833 27 64.5 27c8.66699 0 15.5 -3.33301 20.5 -10s7.5 -16 7.5 -28c0 -0.666992 -2.33301 -37.667 -7 -111s-7 -146.333 -7 -219v-387c70.667 56 126 92.167 166 108.5s83.667 24.5 131 24.5
c103.333 0 187.5 -36.833 252.5 -110.5s97.5 -169.167 97.5 -286.5c0 -150 -44.333 -273.167 -133 -369.5s-200.667 -144.5 -336 -144.5c-92 0 -176 24 -252 72c-16.667 10.667 -27.667 16 -33 16c-10 0 -24.833 -14.333 -44.5 -43s-36.834 -43 -51.501 -43
c-6.66699 0 -12.667 2 -18 6s-8 8.66699 -8 14c0 4.66699 2 26 6 64s6 74 6 108z" />
    <glyph glyph-name="c" unicode="c" horiz-adv-x="938" 
d="M61 385c0 139.333 48.3291 257.5 144.996 354.5s211 145.5 343 145.5c74 0 138.5 -16.667 193.5 -50s82.5 -67.333 82.5 -102c0 -24.667 -19.167 -52.334 -57.5 -83.001s-68.166 -46 -89.499 -46c-14.667 0 -26 15.667 -34 47c-4 14.667 -7.66699 26.334 -11 35.001
c-15.333 39.333 -36.666 68.333 -63.999 87s-62 28 -104 28c-65.333 0 -115.166 -22.5 -149.499 -67.5s-51.5 -110.5 -51.5 -196.5c0 -130 28.333 -234.333 85 -313s130.667 -118 222 -118c62 0 124 17.833 186 53.5s95 53.5 99 53.5c9.33301 0 15.833 -2.16699 19.5 -6.5
s5.5 -11.833 5.5 -22.5c0 -36.667 -44.333 -81.667 -133 -135s-185.667 -80 -291 -80c-119.333 0 -215.166 38.167 -287.499 114.5s-108.5 176.833 -108.5 301.5z" />
    <glyph glyph-name="d" unicode="d" horiz-adv-x="1063" 
d="M709 680c-30.667 40 -66.334 71.166 -107.001 93.499s-81.667 33.5 -123 33.5c-74 0 -131.667 -27.167 -173 -81.5s-62 -130.166 -62 -227.499c0 -107.333 28.333 -197.666 85 -270.999s124.334 -110 203.001 -110c48 0 89.5 9.66699 124.5 29s52.5 43.666 52.5 72.999
v461zM715 114.999c-53.333 -51.333 -103.503 -87.832 -150.503 -109.499s-98.5 -32.5 -154.5 -32.5c-104 0 -187 34.5 -249 103.5s-93 160.167 -93 273.5c0 158 42.667 286.333 128 385s195.333 148 330 148c38.667 0 72.834 -3.66699 102.501 -11
s57.834 -18.666 84.501 -33.999v346c0 54.667 -3.33301 89.167 -10 103.5s-19.667 25.5 -39 33.5c-9.33301 4 -22.333 7.33301 -39 10h-2c-0.666992 0 -2 0.333008 -4 1c-26 4 -39 14.667 -39 32c0 11.333 3.16699 19.666 9.5 24.999s22.833 10.666 49.5 15.999
c4 1.33301 10 3 18 5c26 7.33301 46.333 13.666 61 18.999c40.667 14.667 81.334 32 122.001 52s63 30 67 30c8 0 14.833 -2 20.5 -6s8.5 -8.66699 8.5 -14c0 -2 -0.666992 -8 -2 -18c-6.66699 -49.333 -10 -98.666 -10 -147.999v-1075c0 -48 3.83301 -80.167 11.5 -96.5
s21.167 -29.166 40.5 -38.499c5.33301 -2.66699 10.5 -4.66699 15.5 -6s12.5 -3 22.5 -5h3c23.333 -4.66699 35.333 -14 36 -28c-0.666992 -20 -17.667 -31.667 -51 -35c-23.333 -2 -43 -4.66699 -59 -8c-61.333 -12.667 -120.333 -30.334 -177 -53.001
c-14 -6 -22.333 -9 -25 -9c-10 0 -17 3.5 -21 10.5s-5.66699 18.5 -5 34.5v99z" />
    <glyph glyph-name="e" unicode="e" horiz-adv-x="936" 
d="M342 553l143 -0.000976562c66.667 0 110.667 3.5 132 10.5s32 25.167 32 54.5c0 58.667 -18.667 107.5 -56 146.5s-84 58.5 -140 58.5c-53.333 0 -97.833 -21.667 -133.5 -65s-53.5 -96.666 -53.5 -159.999c0 -18 5.16699 -30 15.5 -36s30.5 -9 60.5 -9zM350 493.999
c-36 0 -58.333 -3.33301 -67 -10s-13 -22 -13 -46c0 -86.667 30.333 -163.667 91 -231s133.667 -101 219 -101c60.667 0 119.5 17.833 176.5 53.5s88.833 53.5 95.5 53.5c8 -0.666992 13.667 -3.16699 17 -7.5s5 -11.5 5 -21.5c0 -39.333 -44.833 -85 -134.5 -137
s-186.5 -78 -290.5 -78c-111.333 0 -203.833 39.833 -277.5 119.5s-110.5 181.167 -110.5 304.5c0 142.667 39.333 260 118 352s178.667 138 300 138c108.667 0 201 -34.5 277 -103.5s114 -146.5 114 -232.5c0 -23.333 -3.83301 -38 -11.5 -44s-30.167 -9 -67.5 -9h-441z
" />
    <glyph glyph-name="f" unicode="f" horiz-adv-x="627" 
d="M184 723c0 16 -2.50098 27.498 -7.50098 34.498s-13.167 10.5 -24.5 10.5h-89c-8.66699 0 -15.5 1.5 -20.5 4.5s-7.5 6.83301 -7.5 11.5c0 29.333 3.16699 49.666 9.5 60.999s18.833 17 37.5 17h70c22 0.666992 34.5 37.5 37.5 110.5s15.5 137.167 37.5 192.5
c36 90 95.667 169.5 179 238.5s160.333 103.5 231 103.5c34 0 62 -6.33301 84 -19s33 -28.667 33 -48c0 -36.667 -10.167 -78.334 -30.5 -125.001s-40.166 -70 -59.499 -70c-12.667 0 -29.334 22.167 -50.001 66.5s-48.667 66.5 -84 66.5c-44 0 -76.167 -23.667 -96.5 -71
s-30.5 -124.666 -30.5 -231.999v-188c0 -11.333 2.5 -18.333 7.5 -21s15.5 -4 31.5 -4h82c20 0 40 6.83301 60 20.5s30.667 20.5 32 20.5c5.33301 0 9.5 -1.83301 12.5 -5.5s4.5 -8.5 4.5 -14.5s-4.16699 -20.667 -12.5 -44s-16.5 -41 -24.5 -53
c-5.33301 -6.66699 -13 -11.334 -23 -14.001s-25 -4 -45 -4h-90c-14 0 -23.667 -2.5 -29 -7.5s-8 -14.833 -8 -29.5v-479c0 -53.333 3.33301 -89.666 10 -108.999s18.334 -35.666 35.001 -48.999c12.667 -9.33301 31 -18 55 -26c3.33301 -1.33301 5.33301 -2 6 -2
c18 -4.66699 29.5 -9.66699 34.5 -15s7.5 -12.666 7.5 -21.999c0 -13.333 -3.66699 -23.166 -11 -29.499s-18.666 -9.5 -33.999 -9.5c-7.33301 0 -31.5 2.66699 -72.5 8s-78.5 8 -112.5 8c-63.333 0 -125.333 -4.66699 -186 -14c-10.667 -1.33301 -17.334 -2 -20.001 -2
c-11.333 0 -20.333 2.83301 -27 8.5s-10 12.834 -10 21.501c0 7.33301 2.33301 14 7 20s13.667 13 27 21l3 2c47.333 31.333 71 76.666 71 135.999v37v487z" />
    <glyph glyph-name="g" unicode="g" horiz-adv-x="924" 
d="M559 -90l-148.999 8c-12.667 0.666992 -24.5 1.16699 -35.5 1.5s-21.833 0.5 -32.5 0.5c-42 0 -71.333 -8.16699 -88 -24.5s-25 -44.833 -25 -85.5c0 -48 18.667 -85.333 56 -112s89.666 -40 156.999 -40c90 0 158.667 12.667 206 38s71 62.333 71 111
c0 34 -12.167 58.833 -36.5 74.5s-65.5 25.167 -123.5 28.5zM266.001 586c0 -70.667 15.333 -128.666 46 -173.999s70 -68 118 -68c52 0 93.667 19.667 125 59s47 92 47 158c0 81.333 -15.667 145.333 -47 192s-73.666 70 -126.999 70
c-52.667 0 -92.834 -20.333 -120.501 -61s-41.5 -99.334 -41.5 -176.001zM236.001 319.001c-59.333 32 -101.838 67.999 -127.505 107.999s-38.5 89.333 -38.5 148c0 90 34 163.833 102 221.5s153.333 86.5 256 86.5c72 0 136.667 -11.667 194 -35s86.333 -35 87 -35
c48.667 0 85.834 21.5 111.501 64.5s40.834 64.5 45.501 64.5c8 0 14.167 -4 18.5 -12s6.5 -19 6.5 -33c0 -74.667 -8.16699 -129.334 -24.5 -164.001s-43.833 -55.667 -82.5 -63c0.666992 -0.666992 1 -1.66699 1 -3c9.33301 -43.333 14 -71.666 14 -84.999
c0 -87.333 -33.667 -158.333 -101 -213s-154.666 -82 -261.999 -82c-24 0 -49 0.666992 -75 2s-40 2 -42 2c-24.667 0 -44 -8 -58 -24s-21 -38 -21 -66c0 -32 10.5 -54.333 31.5 -67s57.5 -19 109.5 -19c35.333 0 59.5 0.166992 72.5 0.5s22.833 0.833008 29.5 1.5h19
c154.667 0 256.834 -15.667 306.501 -47s74.5 -86.666 74.5 -165.999c0 -99.333 -43.167 -175.833 -129.5 -229.5s-209.166 -80.5 -368.499 -80.5c-107.333 0 -187.833 15.333 -241.5 46s-80.5 76.334 -80.5 137.001c0 41.333 11 74.333 33 99s59.667 45.667 113 63
c-27.333 26 -48.5 55.167 -63.5 87.5s-22.5 65.166 -22.5 98.499c0 34 9.5 67.5 28.5 100.5s47.167 64.167 84.5 93.5z" />
    <glyph glyph-name="h" unicode="h" horiz-adv-x="1147" 
d="M166 236v953.996c0 49.333 -2.83301 81.833 -8.5 97.5s-15.834 28.167 -30.501 37.5c-10.667 5.33301 -27 9.33301 -49 12h-2c-20.667 2 -34 5.5 -40 10.5s-9 12.5 -9 22.5c0 12 3.33301 20.833 10 26.5s24.334 11.167 53.001 16.5c21.333 3.33301 40.5 7 57.5 11
s34.167 9.33301 51.5 16c36.667 12 72.667 26.833 108 44.5s55.333 26.5 60 26.5c8.66699 0 15.5 -4.16699 20.5 -12.5s7.5 -19.833 7.5 -34.5c0 -5.33301 -0.666992 -19.666 -2 -42.999c-5.33301 -96 -8 -187.333 -8 -274v-406c54 51.333 106.167 89.166 156.5 113.499
s101.166 36.5 152.499 36.5c98.667 0 172.834 -35 222.501 -105s74.5 -175 74.5 -315v-219c0 -53.333 3.33301 -89.666 10 -108.999s18.334 -35.666 35.001 -48.999c12.667 -9.33301 31 -18 55 -26c3.33301 -1.33301 5.33301 -2 6 -2c18 -4.66699 29.5 -9.66699 34.5 -15
s7.5 -12.666 7.5 -21.999c0 -13.333 -3.66699 -23.166 -11 -29.499s-18.666 -9.5 -33.999 -9.5c-7.33301 0 -31.5 2.66699 -72.5 8s-78.5 8 -112.5 8c-63.333 0 -126 -4.66699 -188 -14c-11.333 -1.33301 -18.333 -2 -21 -2c-10.667 0 -19.334 3 -26.001 9s-10 14 -10 24
c0 7.33301 2.16699 13.833 6.5 19.5s13.833 12.167 28.5 19.5c1.33301 0.666992 3.33301 2 6 4c15.333 9.33301 26.666 18 33.999 26c13.333 14 22.5 30.333 27.5 49s7.5 50.334 7.5 95.001v202c0 114 -16 195.5 -48 244.5s-83.667 73.5 -155 73.5
c-62 0 -108.5 -14.667 -139.5 -44s-46.5 -72.666 -46.5 -129.999v-330c0 -52 3.83301 -87.833 11.5 -107.5s21.5 -36.5 41.5 -50.5c10 -6.66699 21 -12.334 33 -17.001s26.667 -8.66699 44 -12c0.666992 0 2 -0.333008 4 -1c28 -8.66699 42 -21.667 42 -39
c0 -11.333 -4.5 -20 -13.5 -26s-21.5 -9 -37.5 -9c-11.333 0 -39.5 2.66699 -84.5 8s-84.5 8 -118.5 8c-66.667 0 -131 -4.66699 -193 -14c-9.33301 -1.33301 -15.333 -2 -18 -2c-10.667 0 -19.5 3 -26.5 9s-10.5 14 -10.5 24c0 7.33301 2 13.666 6 18.999
s13 11.666 27 18.999c28 15.333 47.333 33.833 58 55.5s16 49.834 16 84.501v35z" />
    <glyph glyph-name="i" unicode="i" horiz-adv-x="561" 
d="M133 1223c0 21.333 20.168 55.666 60.501 102.999s67.166 71 80.499 71c15.333 0 41.5 -22.667 78.5 -68s55.5 -78.666 55.5 -99.999c0 -22 -19 -53.833 -57 -95.5s-65 -62.5 -81 -62.5c-20 0 -47.833 20.333 -83.5 61s-53.5 71 -53.5 91zM166.001 236
l-0.00292969 360.004c0 48.667 -2.83301 80.667 -8.5 96s-15.834 27.666 -30.501 36.999c-10.667 5.33301 -27 9.33301 -49 12h-2c-20.667 2 -34 5.5 -40 10.5s-9 12.5 -9 22.5c0 12 3.33301 20.833 10 26.5s24.334 11.167 53.001 16.5
c21.333 3.33301 40.333 7.16602 57 11.499s33.334 9.5 50.001 15.5c39.333 13.333 76.833 29 112.5 47s54.167 27 55.5 27c8 0 14 -3.66699 18 -11s6 -19 6 -35c0 -1.33301 -0.333008 -6.33301 -1 -15c-2 -44 -3 -88.667 -3 -134v-471c0 -50.667 3.33301 -86.167 10 -106.5
s18.334 -37.5 35.001 -51.5c12 -9.33301 30.333 -18 55 -26c3.33301 -1.33301 5.66602 -2 6.99902 -2c0.666992 -0.666992 2 -1.33398 4 -2.00098c26 -8.66699 39 -21.667 39 -39c0 -11.333 -4 -20 -12 -26s-19.333 -9 -34 -9c-7.33301 0 -31.166 2.66699 -71.499 8
s-77.166 8 -110.499 8c-66.667 0 -131 -4.66699 -193 -14c-9.33301 -1.33301 -15.333 -2 -18 -2c-10.667 0 -19.5 3 -26.5 9s-10.5 14 -10.5 24c0 7.33301 2 13.666 6 18.999s13 11.666 27 18.999c28 15.333 47.333 33.833 58 55.5s16 49.834 16 84.501v35z" />
    <glyph glyph-name="j" unicode="j" horiz-adv-x="551" 
d="M143 1223c0 20.667 18.833 54.167 56.5 100.5s66.167 69.5 85.5 69.5s46.333 -22.167 81 -66.5s52 -76.833 52 -97.5c0 -22 -18.333 -53.5 -55 -94.5s-64 -61.5 -82 -61.5c-22 0 -50.5 20 -85.5 60s-52.5 70 -52.5 90zM176 596c0 48.667 -2.83301 80.6689 -8.5 96.002
s-15.834 27.666 -30.501 36.999c-10.667 5.33301 -27 9.33301 -49 12h-1c-20.667 2 -33.834 5.33301 -39.501 10s-8.5 12.334 -8.5 23.001c0 12 3.33301 20.833 10 26.5s23.667 11.167 51 16.5c21.333 3.33301 40.333 7.16602 57 11.499s33.334 9.5 50.001 15.5
c40 13.333 77.667 29 113 47s53.666 27 54.999 27c8.66699 -0.666992 14.834 -4.5 18.501 -11.5s5.5 -18.5 5.5 -34.5v-14c-2.66699 -44.667 -4 -89.667 -4 -135v-668c0 -47.333 -6.16699 -90.833 -18.5 -130.5s-33.5 -82.834 -63.5 -129.501
c-47.333 -74.667 -92.166 -128.167 -134.499 -160.5s-88.166 -48.5 -137.499 -48.5c-38 0 -68 6.66699 -90 20s-33 31.333 -33 54c0 44.667 5.66699 84.5 17 119.5s24.666 52.5 39.999 52.5c18 0 40.833 -21.167 68.5 -63.5s52.167 -63.5 73.5 -63.5c22 0 37.333 13 46 39
s13 79.333 13 160v692z" />
    <glyph glyph-name="k" unicode="k" horiz-adv-x="1118" 
d="M166 1192l-0.000976562 19.9932c0 38.667 -2.66699 65.334 -8 80.001s-14.333 26.334 -27 35.001c-9.33301 5.33301 -24 9.33301 -44 12h-3c-17.333 0 -28.833 2.5 -34.5 7.5s-8.5 12.833 -8.5 23.5c0 12 3 20.833 9 26.5s22.667 11.834 50 18.501
c15.333 2.66699 31 6.5 47 11.5s32.667 10.833 50 17.5c36 13.333 72.333 28.166 109 44.499s57 24.5 61 24.5c8.66699 0 15.5 -3.33301 20.5 -10s7.5 -16 7.5 -28c0 -0.666992 -2 -37.667 -6 -111s-6 -146.333 -6 -219v-678l258 225c21.333 18.667 35.5 32.834 42.5 42.501
s10.5 18.834 10.5 27.501c0 10 -2.66699 17.667 -8 23s-17.666 10 -36.999 14c-20 3.33301 -33.167 8 -39.5 14s-9.5 15 -9.5 27c0 10 2.83301 17.167 8.5 21.5s15.834 6.5 30.501 6.5c10.667 0 33.667 -2 69 -6s65.666 -6 90.999 -6c26 0 58.667 2.33301 98 7s66 7 80 7
c15.333 0 26.666 -3 33.999 -9s11 -15 11 -27c0 -8.66699 -2.66699 -15.334 -8 -20.001s-19 -9.66699 -41 -15c-3.33301 -1.33301 -9 -3 -17 -5c-47.333 -14 -87.333 -30.333 -120 -49c-48 -26.667 -93.833 -59.834 -137.5 -99.501s-65.5 -65.167 -65.5 -76.5
c0 -16 28.167 -67.667 84.5 -155s118.833 -170.666 187.5 -249.999c41.333 -47.333 83.833 -78.333 127.5 -93s65.5 -28.667 65.5 -42c0 -12.667 -3.83301 -21.667 -11.5 -27s-20.167 -8 -37.5 -8c-16 0 -40 1.66699 -72 5s-56 5 -72 5c-12 0 -29.167 -1.33301 -51.5 -4
s-38.5 -4 -48.5 -4c-20 0 -41.5 12 -64.5 36s-62.833 79.667 -119.5 167l-119 184c-10.667 16.667 -19.667 29 -27 37s-13.333 12 -18 12c-2.66699 0 -5.83398 -1 -9.50098 -3s-6.83398 -4.33301 -9.50098 -7l-55 -49v-121c0 -53.333 3.33301 -89.666 10 -108.999
s18.334 -35.666 35.001 -48.999c12 -9.33301 30.667 -18.333 56 -27c2.66699 -0.666992 4.33398 -1 5.00098 -1c18.667 -5.33301 30.167 -10.5 34.5 -15.5s6.5 -12.167 6.5 -21.5c0 -13.333 -3.66699 -23.166 -11 -29.499s-18.666 -9.5 -33.999 -9.5
c-6.66699 0 -30.5 2.66699 -71.5 8s-78.5 8 -112.5 8c-63.333 0 -126 -4.66699 -188 -14c-11.333 -1.33301 -18.333 -2 -21 -2c-11.333 0 -20.333 2.83301 -27 8.5s-10 12.834 -10 21.501c0 12 11 25.333 33 40l3 2h-1c50.667 31.333 76 77 76 137v37v956z" />
    <glyph glyph-name="l" unicode="l" horiz-adv-x="547" 
d="M166 1192l-0.00195312 19.9951c0 38.667 -2.66699 65.334 -8 80.001s-14.333 26.334 -27 35.001c-9.33301 5.33301 -24 9.33301 -44 12h-3c-17.333 0 -28.833 2.5 -34.5 7.5s-8.5 12.833 -8.5 23.5c0 13.333 3.66699 23.166 11 29.499s26 12.166 56 17.499
c14.667 1.33301 30.167 3.83301 46.5 7.5s33.166 8.83398 50.499 15.501c29.333 10 61.333 24.667 96 44s56.667 29 66 29c8.66699 0 15.5 -3.33301 20.5 -10s7.5 -16 7.5 -28c0 -0.666992 -2 -37.667 -6 -111s-6 -146.333 -6 -219v-893
c0 -53.333 3.33301 -89.666 10 -108.999s18.334 -35.666 35.001 -48.999c12 -9.33301 30.667 -18.333 56 -27c2.66699 -0.666992 4.33398 -1 5.00098 -1c18.667 -5.33301 30.167 -10.5 34.5 -15.5s6.5 -12.167 6.5 -21.5c0 -13.333 -3.66699 -23.166 -11 -29.499
s-18.666 -9.5 -33.999 -9.5c-6.66699 0 -30.5 2.66699 -71.5 8s-78.5 8 -112.5 8c-63.333 0 -126 -4.66699 -188 -14c-11.333 -1.33301 -18.333 -2 -21 -2c-11.333 0 -20.333 2.83301 -27 8.5s-10 12.834 -10 21.501c0 12 11 25.333 33 40l3 2h-1
c50.667 31.333 76 77 76 137v37v956z" />
    <glyph glyph-name="m" unicode="m" horiz-adv-x="1669" 
d="M166 236l0.000976562 360.001c0 48.667 -2.83301 80.667 -8.5 96s-15.834 27.666 -30.501 36.999c-10.667 5.33301 -27 9.33301 -49 12h-2c-20.667 2 -34 5.5 -40 10.5s-9 12.5 -9 22.5c0 12 3.33301 20.833 10 26.5s24.334 11.167 53.001 16.5
c4.66699 1.33301 11.667 3 21 5c35.333 8 64.666 16 87.999 24c34 12 69.5 26.5 106.5 43.5s58.167 25.5 63.5 25.5s10.333 -2.16699 15 -6.5s7 -8.83301 7 -13.5v-35l-6 -119c52.667 52 102.334 90 149.001 114s94 36 142 36c54.667 0 101.834 -14.333 141.501 -43
s72.167 -72.334 97.5 -131.001c68 65.333 125.667 110.666 173 135.999s95.666 38 144.999 38c93.333 0 162.666 -34.333 207.999 -103s68 -174.334 68 -317.001v-219c0 -46.667 3.5 -81.167 10.5 -103.5s19.167 -40.5 36.5 -54.5c12.667 -9.33301 31 -18 55 -26
c3.33301 -1.33301 5.66602 -2 6.99902 -2c0.666992 -0.666992 1.33398 -1 2.00098 -1c26 -7.33301 39 -19.333 39 -36c0 -13.333 -3.66699 -23.166 -11 -29.499s-18.666 -9.5 -33.999 -9.5c-7.33301 0 -31.5 2.66699 -72.5 8s-78.167 8 -111.5 8
c-64 0 -126 -4.66699 -186 -14c-9.33301 -1.33301 -15 -2 -17 -2c-10 0 -18.333 3 -25 9s-10 14 -10 24c0 12.667 9.66699 25.167 29 37.5s33 22.833 41 31.5c10.667 13.333 18.334 28.5 23.001 45.5s7 42.833 7 77.5v21v202c0 114.667 -14 196.334 -42 245.001
s-74 73 -138 73c-56 0 -98 -14.667 -126 -44s-42 -72.666 -42 -129.999v-330c0 -50.667 3.33301 -86.167 10 -106.5s18.334 -37.5 35.001 -51.5c12 -9.33301 30.333 -18 55 -26c3.33301 -1.33301 5.66602 -2 6.99902 -2c0 -0.666992 0.666992 -1 2 -1
c26 -7.33301 39 -19.333 39 -36c0 -13.333 -3.66699 -23.166 -11 -29.499s-18.666 -9.5 -33.999 -9.5c-8 0 -31.833 2.66699 -71.5 8s-74.834 8 -105.501 8c-64.667 0 -125.334 -4.66699 -182.001 -14c-8 -1.33301 -12.667 -2 -14 -2c-9.33301 0 -16.833 3 -22.5 9
s-8.5 14 -8.5 24c0 6.66699 2.16699 12.834 6.5 18.501s12.166 12.167 23.499 19.5c2 1.33301 4.33301 3 7 5c12 9.33301 21 18 27 26c10 13.333 17.167 28.666 21.5 45.999s6.5 43 6.5 77v21v202c0 113.333 -14.333 194.666 -43 243.999s-75 74 -139 74
c-56 0 -98 -14.667 -126 -44s-42 -72.666 -42 -129.999v-330c0 -50.667 3.33301 -86.167 10 -106.5s19 -37.5 37 -51.5c14.667 -9.33301 34 -18 58 -26c4 -1.33301 6.66699 -2 8 -2v-1c30 -6.66699 45 -20 45 -40c0 -11.333 -4 -20 -12 -26s-19.667 -9 -35 -9
c-9.33301 0 -35 2.66699 -77 8s-79.333 8 -112 8c-66.667 0 -131 -4.66699 -193 -14c-9.33301 -1.33301 -15.333 -2 -18 -2c-10.667 0 -19.5 3 -26.5 9s-10.5 14 -10.5 24c0 7.33301 2 13.666 6 18.999s13 11.666 27 18.999c28 15.333 47.333 33.833 58 55.5
s16 49.834 16 84.501v35z" />
    <glyph glyph-name="n" unicode="n" horiz-adv-x="1147" 
d="M166 236l0.000976562 360.002c0 48.667 -2.83301 80.667 -8.5 96s-15.834 27.666 -30.501 36.999c-10.667 5.33301 -27 9.33301 -49 12h-2c-20.667 2 -34 5.5 -40 10.5s-9 12.5 -9 22.5c0 12 3.33301 20.833 10 26.5s24.334 11.167 53.001 16.5
c4.66699 1.33301 11.667 3 21 5c35.333 8 64.666 16 87.999 24c34 12 69.5 26.5 106.5 43.5s58.167 25.5 63.5 25.5s10.333 -2.16699 15 -6.5s7 -8.83301 7 -13.5v-35l-6 -119c54.667 52 107 90 157 114s100.667 36 152 36c99.333 0 173.333 -34.833 222 -104.5
s73 -174.834 73 -315.501v-219c0 -48.667 3.5 -83.667 10.5 -105s19.167 -39 36.5 -53c12.667 -9.33301 31 -18 55 -26c3.33301 -1.33301 5.66602 -2 6.99902 -2c0 -0.666992 0.666992 -1 2 -1c26 -7.33301 39 -19.333 39 -36c0 -13.333 -3.66699 -23.166 -11 -29.499
s-18.666 -9.5 -33.999 -9.5c-7.33301 0 -31.5 2.66699 -72.5 8s-78.5 8 -112.5 8c-63.333 0 -126 -4.66699 -188 -14c-11.333 -1.33301 -18.333 -2 -21 -2c-10.667 0 -19.334 3 -26.001 9s-10 14 -10 24c0 13.333 10.5 26 31.5 38s35.5 22.333 43.5 31
c12 12.667 20.5 26.834 25.5 42.501s7.5 39.167 7.5 70.5v31v202c0 115.333 -15.667 197.166 -47 245.499s-82.666 72.5 -153.999 72.5c-62 0 -108.5 -14.667 -139.5 -44s-46.5 -72.666 -46.5 -129.999v-330c0 -52 3.83301 -87.833 11.5 -107.5s21.5 -36.5 41.5 -50.5
c10 -6.66699 21 -12.334 33 -17.001s26.667 -8.66699 44 -12c0.666992 0 2 -0.333008 4 -1c28 -8.66699 42 -21.667 42 -39c0 -11.333 -4.5 -20 -13.5 -26s-21.5 -9 -37.5 -9c-11.333 0 -39.5 2.66699 -84.5 8s-84.5 8 -118.5 8c-66.667 0 -131 -4.66699 -193 -14
c-9.33301 -1.33301 -15.333 -2 -18 -2c-10.667 0 -19.5 3 -26.5 9s-10.5 14 -10.5 24c0 7.33301 2 13.666 6 18.999s13 11.666 27 18.999c28 15.333 47.333 33.833 58 55.5s16 49.834 16 84.501v35z" />
    <glyph glyph-name="o" unicode="o" horiz-adv-x="1057" 
d="M262 530c0 -142 28.166 -259.333 84.499 -352s128.5 -139 216.5 -139c72.667 0 129.834 24.833 171.501 74.5s62.5 118.167 62.5 205.5c0 145.333 -28 265 -84 359s-126.333 141 -211 141c-76 0 -135 -25.167 -177 -75.5s-63 -121.5 -63 -213.5zM52.999 416
c0 133.333 46.165 246.167 138.498 338.5s203.833 138.5 334.5 138.5c143.333 0 258.833 -41.333 346.5 -124s131.5 -191.667 131.5 -327c0 -136 -46.667 -249.167 -140 -339.5s-210.666 -135.5 -351.999 -135.5c-133.333 0 -243.166 42.333 -329.499 127
s-129.5 192 -129.5 322z" />
    <glyph glyph-name="p" unicode="p" horiz-adv-x="1063" 
d="M358 182c30 -39.333 65.167 -69.667 105.5 -91s83.833 -32 130.5 -32c72.667 0 129 26 169 78s60 125.667 60 221c0 115.333 -26 209.833 -78 283.5s-118 110.5 -198 110.5c-36.667 0 -70.5 -6.66699 -101.5 -20s-60.167 -33.333 -87.5 -60v-490zM137 -193.001v794.997
c0 44 -3 74.333 -9 91s-17.333 29.334 -34 38.001c-5.33301 3.33301 -11.833 5.83301 -19.5 7.5s-16.167 2.5 -25.5 2.5c-16.667 2 -27.334 5.16699 -32.001 9.5s-7 11.5 -7 21.5c0 12 3.83301 21.167 11.5 27.5s26.5 12.833 56.5 19.5
c2 0.666992 4.33301 1.33398 7 2.00098c22.667 4.66699 41.667 9.66699 57 15c42.667 14 84.667 30.667 126 50s64 29 68 29c9.33301 0 16 -3 20 -9s6 -16.667 6 -32l-4 -126c54 48.667 105.667 84.334 155 107.001s101 34 155 34c102 0 182.333 -35.833 241 -107.5
s88 -170.5 88 -296.5c0 -145.333 -44.667 -267 -134 -365s-198 -147 -326 -147c-30 0 -59.167 4.16699 -87.5 12.5s-58.833 21.5 -91.5 39.5v-226c0 -26.667 4.66699 -49.667 14 -69s23.333 -35 42 -47c12.667 -9.33301 31.334 -16.666 56.001 -21.999
c2.66699 -0.666992 4.33398 -1 5.00098 -1h1c32 -6.66699 48 -19.667 48 -39c0 -12.667 -4.5 -22.334 -13.5 -29.001s-22.167 -10 -39.5 -10c-2.66699 0 -9.66699 0.666992 -21 2c-68 6.66699 -139.333 10 -214 10c-47.333 0 -94.333 -3.33301 -141 -10
c-9.33301 -1.33301 -15 -2 -17 -2c-9.33301 0 -16.833 3.16699 -22.5 9.5s-8.5 14.166 -8.5 23.499c0 8.66699 2.33301 16 7 22s14 13 28 21c5.33301 2.66699 10.166 5.5 14.499 8.5s8.5 6.16699 12.5 9.5c10 10 17.167 22.333 21.5 37s6.5 39.334 6.5 74.001v20z" />
    <glyph glyph-name="q" unicode="q" horiz-adv-x="1051" 
d="M705 186l-0.000976562 422.001c0 31.333 -2.16699 55.666 -6.5 72.999s-11.166 32 -20.499 44c-21.333 26 -50.666 47.5 -87.999 64.5s-75 25.5 -113 25.5c-76 0 -134.833 -26.5 -176.5 -79.5s-62.5 -128.167 -62.5 -225.5c0 -109.333 28.667 -201.833 86 -277.5
s124.666 -113.5 201.999 -113.5c26 0 52.5 5 79.5 15s60.167 27.333 99.5 52zM704.999 111.001c-59.333 -48 -113.829 -82.6641 -163.496 -103.997s-101.167 -32 -154.5 -32c-94.667 0 -172.334 36.833 -233.001 110.5s-91 169.5 -91 287.5
c0 150 43.167 273.167 129.5 369.5s195.5 144.5 327.5 144.5c94.667 0 182 -21 262 -63c14.667 -7.33301 23.667 -11 27 -11c11.333 0 26.666 17.833 45.999 53.5s36.666 53.5 51.999 53.5c8 0 13.833 -3.16699 17.5 -9.5s5.5 -16.166 5.5 -29.499
c0 -2.66699 -0.666992 -23.834 -2 -63.501s-2 -78.834 -2 -117.501v-944c0 -22.667 4 -41.667 12 -57s23.667 -30.333 47 -45c12 -7.33301 20.167 -14 24.5 -20s6.5 -12.333 6.5 -19c0 -9.33301 -2.83301 -17.166 -8.5 -23.499s-13.167 -9.5 -22.5 -9.5
c-1.33301 0 -6 0.666992 -14 2c-55.333 6.66699 -120.333 10 -195 10c-38.667 0 -78.334 -2 -119.001 -6s-62.334 -6 -65.001 -6c-17.333 0 -30.5 3.33301 -39.5 10s-13.5 16.334 -13.5 29.001c0 19.333 16 32.333 48 39h1c8.66699 1.33301 17.334 3.16602 26.001 5.49902
s16.667 5.16602 24 8.49902c22.667 11.333 39.5 27.166 50.5 47.499s16.5 46.166 16.5 77.499v312z" />
    <glyph glyph-name="r" unicode="r" horiz-adv-x="766" 
d="M166 236l0.00195312 360.004c0 48.667 -2.83301 80.667 -8.5 96s-15.834 27.666 -30.501 36.999c-10.667 5.33301 -27 9.33301 -49 12h-2c-20.667 2 -34 5.5 -40 10.5s-9 12.5 -9 22.5c0 12 3.33301 20.833 10 26.5s24.334 11.167 53.001 16.5
c4.66699 1.33301 11.667 3 21 5c35.333 8 64.666 16 87.999 24c34 12 69.5 26.5 106.5 43.5s58.167 25.5 63.5 25.5s10.333 -2.33301 15 -7s7 -9 7 -13v-35l-6 -166c42.667 60 82.167 105.833 118.5 137.5s67.166 47.5 92.499 47.5c31.333 0 66.166 -15.667 104.499 -47
s57.5 -60.333 57.5 -87c0 -24.667 -12.167 -58.334 -36.5 -101.001s-45.833 -64 -64.5 -64c-10.667 0 -33.667 14.333 -69 43s-66.666 43 -93.999 43c-37.333 0 -64.833 -17 -82.5 -51s-26.5 -87.333 -26.5 -160v-203c0 -52 3.83301 -87.833 11.5 -107.5
s21.5 -36.5 41.5 -50.5c10 -6.66699 21 -12.334 33 -17.001s26.667 -8.66699 44 -12c0.666992 0 2 -0.333008 4 -1c28 -8.66699 42 -21.667 42 -39c0 -11.333 -4.5 -20 -13.5 -26s-21.5 -9 -37.5 -9c-11.333 0 -39.5 2.66699 -84.5 8s-84.5 8 -118.5 8
c-66.667 0 -131 -4.66699 -193 -14c-9.33301 -1.33301 -15.333 -2 -18 -2c-10.667 0 -19.5 3 -26.5 9s-10.5 14 -10.5 24c0 7.33301 2 13.666 6 18.999s13 11.666 27 18.999c28 15.333 47.333 33.833 58 55.5s16 49.834 16 84.501v35z" />
    <glyph glyph-name="s" unicode="s" horiz-adv-x="782" 
d="M86 127c0 40.667 -1.66504 82.3359 -4.99805 125.003c-0.666992 9.33301 -1 15.333 -1 18c0 14 2.33301 23.667 7 29s12.667 8 24 8c16.667 0 28.334 -13.667 35.001 -41c8 -30.667 18 -57.334 30 -80.001c28 -51.333 59.5 -89.666 94.5 -114.999s73.833 -38 116.5 -38
c44.667 0 80.5 12.667 107.5 38s40.5 59.666 40.5 102.999c0 37.333 -11.167 67.166 -33.5 89.499s-79.5 50.5 -171.5 84.5c-91.333 33.333 -154.5 70.166 -189.5 110.499s-52.5 93.5 -52.5 159.5c0 82 29.333 147.333 88 196s138 73 238 73c74 0 128.5 -6 163.5 -18
s54.167 -36.333 57.5 -73l8 -104v-30c0 -5.33301 -2.83301 -10.5 -8.5 -15.5s-11.834 -7.5 -18.501 -7.5c-13.333 0 -26.333 12.667 -39 38c-8 17.333 -15.333 30.666 -22 39.999c-23.333 34 -51.5 59.833 -84.5 77.5s-69.167 26.5 -108.5 26.5s-69.833 -9 -91.5 -27
s-32.5 -43.667 -32.5 -77c0 -32 11.167 -58.667 33.5 -80s66.166 -44.666 131.499 -69.999c0.666992 0 2 -0.333008 4 -1c190 -72 285 -170 285 -294c0 -93.333 -30.333 -166.5 -91 -219.5s-145 -79.5 -253 -79.5c-36.667 0 -89 7.33301 -157 22
c-34.667 7.33301 -61.334 12.333 -80.001 15c-10.667 2 -17.5 5 -20.5 9s-4.5 12.667 -4.5 26v12v70z" />
    <glyph glyph-name="t" unicode="t" horiz-adv-x="666" 
d="M166 250l-0.00292969 472.999c0 16 -2.66699 27.5 -8 34.5s-13.666 10.5 -24.999 10.5h-43c-16.667 0 -27.667 1.83301 -33 5.5s-8 10.167 -8 19.5c0 8.66699 21.5 32.834 64.5 72.501s82.167 79.5 117.5 119.5c22 24 45.667 54 71 90c26 35.333 45.333 53 58 53
c8 0 13.833 -2.83301 17.5 -8.5s5.5 -14.167 5.5 -25.5v-35v-158c0 -17.333 2.33301 -28.166 7 -32.499s15.334 -6.5 32.001 -6.5h106c20.667 0 40.834 6.83301 60.501 20.5s30.5 20.5 32.5 20.5c5.33301 0 9.66602 -2 12.999 -6s5 -9.33301 5 -16
c0 -36.667 -9 -64.667 -27 -84s-43.667 -29 -77 -29h-115c-14 0 -23.667 -2.5 -29 -7.5s-8 -14.833 -8 -29.5v-463c0 -70.667 7.33301 -117.667 22 -141s40.667 -35 78 -35c29.333 0 59 6.16699 89 18.5s47.667 18.5 53 18.5c8.66699 0 15.834 -2.33301 21.501 -7
s8.5 -10.667 8.5 -18c0 -26.667 -29.667 -55.834 -89 -87.501s-123 -47.5 -191 -47.5c-78 0 -132.333 19.167 -163 57.5s-46 112.833 -46 223.5z" />
    <glyph glyph-name="u" unicode="u" horiz-adv-x="1147" 
d="M762 131c-54.667 -51.333 -106.997 -89.001 -156.997 -113.001s-100.667 -36 -152 -36c-99.333 0 -173.333 34.667 -222 104s-73 174.333 -73 315v217c0 59.333 -3.16699 98.833 -9.5 118.5s-16.833 34.167 -31.5 43.5c-2.66699 2 -6.5 3.83301 -11.5 5.5
s-13.167 3.5 -24.5 5.5c-22.667 3.33301 -38 8.5 -46 15.5s-12 16.833 -12 29.5c0 11.333 3.16699 19.833 9.5 25.5s15.833 8.5 28.5 8.5c3.33301 0 8.83301 -0.333008 16.5 -1s13.834 -1 18.501 -1c69.333 0 142.666 6.66699 219.999 20c20.667 3.33301 34 5 40 5
c10.667 -0.666992 18.167 -3.66699 22.5 -9s6.5 -14 6.5 -26c0 -4 -0.666992 -14.333 -2 -31c-5.33301 -68 -8 -132 -8 -192v-203c0 -115.333 15.667 -197 47 -245s82.333 -72 153 -72c62 0 108.667 14.833 140 44.5s47 73.5 47 131.5v350c0 47.333 -3 80 -9 98
s-16.333 32 -31 42c-2.66699 1.33301 -6.33398 2.83301 -11.001 4.5s-12 3.16699 -22 4.5c-24.667 4 -41.167 9.5 -49.5 16.5s-12.5 16.833 -12.5 29.5c0 11.333 3.16699 19.833 9.5 25.5s16.166 8.5 29.499 8.5c2.66699 0 8.16699 -0.333008 16.5 -1s14.833 -1 19.5 -1
c69.333 0 142.666 6.66699 219.999 20c21.333 3.33301 35 5 41 5c9.33301 0 16 -2.66699 20 -8s6 -14.333 6 -27c0 -2 -0.333008 -8 -1 -18c-4.66699 -65.333 -7 -133.666 -7 -204.999v-387c0 -48.667 2.83301 -80.834 8.5 -96.501s15.834 -27.834 30.501 -36.501
c10.667 -5.33301 27 -9.33301 49 -12c0.666992 -0.666992 1.66699 -1 3 -1c20 -1.33301 33 -4.5 39 -9.5s9 -12.5 9 -22.5c0 -16 -6.5 -27.167 -19.5 -33.5s-45.833 -10.166 -98.5 -11.499c-5.33301 -1.33301 -10.666 -2 -15.999 -2h-26
c-28 -1.33301 -59.833 -7.16602 -95.5 -17.499s-56.834 -15.5 -63.501 -15.5c-14.667 0 -25.834 3 -33.501 9s-11.5 14.667 -11.5 26v22z" />
    <glyph glyph-name="v" unicode="v" horiz-adv-x="991" 
d="M170 616c-16 35.333 -31.1641 65.6689 -45.4971 91.002s-27.833 45.666 -40.5 60.999c-4.66699 6 -14.667 12.667 -30 20c-2.66699 1.33301 -4.33398 2.33301 -5.00098 3c-0.666992 0 -2 0.666992 -4 2c-22 12 -33 24 -33 36c0 10 4.16699 18.333 12.5 25
s18.5 10 30.5 10c3.33301 0 9.66602 -0.666992 18.999 -2c4.66699 -0.666992 8.66699 -1.33398 12 -2.00098c18.667 -2.66699 39.5 -4.66699 62.5 -6s47.167 -2 72.5 -2c33.333 0 64.666 0.666992 93.999 2s56 3.33301 80 6
c3.33301 0.666992 7.66602 1.33398 12.999 2.00098c12 1.33301 20 2 24 2c12.667 0 22.334 -2.66699 29.001 -8s10 -13.666 10 -24.999c0 -16.667 -18.833 -30.667 -56.5 -42s-56.5 -26.666 -56.5 -45.999c0 -12 1.33301 -23.5 4 -34.5s6.33398 -21.5 11.001 -31.5l153 -355
c6 -14.667 12.667 -27 20 -37s13 -15 17 -15c4.66699 0 11 4.66699 19 14s15.333 20.333 22 33l133 277c8 15.333 15.167 35.333 21.5 60s9.5 43.667 9.5 57c0 20 -4.16699 36.333 -12.5 49s-21.5 21.667 -39.5 27c-6 2 -15.333 4.33301 -28 7
c-31.333 6.66699 -47 19 -47 37c0 10 3.83301 17.667 11.5 23s18.167 8 31.5 8c6.66699 0 13.667 -0.166992 21 -0.5s19 -1.5 35 -3.5c4 -0.666992 10 -1.33398 18 -2.00098c20.667 -2.66699 37 -4 49 -4c14 0 28.5 0.666992 43.5 2s29.833 3.33301 44.5 6
c6 0 13.333 0.333008 22 1s14.334 1 17.001 1c15.333 0 26.333 -2.33301 33 -7s10 -12.667 10 -24s-12.5 -24.833 -37.5 -40.5s-46.833 -42.167 -65.5 -79.5l-288 -592c-24 -50.667 -44.333 -87.334 -61 -110.001s-31.334 -34 -44.001 -34
c-8.66699 0 -16.834 3.66699 -24.501 11s-15.167 18.666 -22.5 33.999z" />
    <glyph glyph-name="w" unicode="w" horiz-adv-x="1434" 
d="M162 616c-12.667 32.667 -26.8271 62.666 -42.4941 89.999s-29.5 48 -41.5 62c-6 6.66699 -19.167 15.167 -39.5 25.5s-30.5 22.166 -30.5 35.499c0 10 4 18.333 12 25s17.667 10 29 10c3.33301 0 8.66602 -0.666992 15.999 -2c4 -0.666992 7.66699 -1.33398 11 -2.00098
c18.667 -2.66699 39.5 -4.66699 62.5 -6s47.167 -2 72.5 -2c16.667 0 33.834 0.333008 51.501 1s39.167 1.66699 64.5 3c14.667 2 28.167 3.5 40.5 4.5s24.166 1.5 35.499 1.5s19.333 -2.33301 24 -7s7 -12.667 7 -24c0 -16.667 -14.667 -30.667 -44 -42
s-44 -26.666 -44 -45.999c0 -8.66699 1.16699 -18.334 3.5 -29.001s6.16602 -23 11.499 -37l133 -345c5.33301 -14 11.166 -25 17.499 -33s11.833 -12 16.5 -12c5.33301 0 11.666 4.33301 18.999 13s15.333 21 24 37l95 169c7.33301 13.333 12.833 26.666 16.5 39.999
s5.5 27.333 5.5 42c0 10 -0.833008 19.833 -2.5 29.5s-4.16699 18.834 -7.5 27.501l-33 82c-5.33301 13.333 -12.833 25 -22.5 35s-25.5 20.333 -47.5 31l-4 2c-24 13.333 -36 27 -36 41c0 7.33301 4 13.833 12 19.5s18.333 8.5 31 8.5c2.66699 0 8.66699 -0.666992 18 -2
c4.66699 -0.666992 8.66699 -1.33398 12 -2.00098c16 -2.66699 33.833 -4.66699 53.5 -6s40.167 -2 61.5 -2c14.667 0 30.667 0.333008 48 1s40.666 1.66699 69.999 3c18.667 2 36.334 3.5 53.001 4.5s32.667 1.5 48 1.5c12.667 0 22 -2.5 28 -7.5s9 -12.833 9 -23.5
c0 -16.667 -18.5 -31 -55.5 -43s-55.5 -27 -55.5 -45c0 -10.667 1.16699 -21.167 3.5 -31.5s6.16602 -21.5 11.499 -33.5l133 -334c5.33301 -12.667 11.166 -23 17.499 -31s11.5 -12 15.5 -12c7.33301 0 15 9.66699 23 29c3.33301 7.33301 5.66602 12.666 6.99902 15.999
l113 248c9.33301 22 16.833 43 22.5 63s8.5 36.667 8.5 50c0 20.667 -4.33301 37.5 -13 50.5s-22 22.5 -40 28.5c-4.66699 2 -9.66699 3.66699 -15 5s-10 2 -14 2c-18.667 3.33301 -30.5 7.5 -35.5 12.5s-7.5 12.833 -7.5 23.5c0 12.667 3.83301 21.334 11.5 26.001
s23.5 7 47.5 7c8.66699 0 24 -1 46 -3c3.33301 -0.666992 5.66602 -1 6.99902 -1c5.33301 -0.666992 12.333 -1.33398 21 -2.00098c22.667 -2.66699 40.334 -4 53.001 -4c14 0 33 1.33301 57 4c8 1.33301 13.333 2 16 2c5.33301 0.666992 10.5 1.16699 15.5 1.5
s11.167 0.5 18.5 0.5c12 0 20.333 -2.16699 25 -6.5s7 -11.833 7 -22.5c0 -17.333 -8.33301 -29.666 -25 -36.999s-26.667 -12.666 -30 -15.999c-10 -9.33301 -21.833 -26.666 -35.5 -51.999s-32.5 -64.666 -56.5 -117.999l-260 -573
c-10 -21.333 -18.667 -36.666 -26 -45.999s-14.333 -14 -21 -14c-7.33301 0 -14.833 4 -22.5 12s-14.5 19 -20.5 33l-170 422c-3.33301 8 -7.16602 14.5 -11.499 19.5s-8.83301 7.5 -13.5 7.5s-9 -2 -13 -6s-9 -11.333 -15 -22l-179 -345
c-25.333 -51.333 -43.333 -84.333 -54 -99s-20 -22 -28 -22c-7.33301 0 -14.833 4 -22.5 12s-14.5 19 -20.5 33z" />
    <glyph glyph-name="x" unicode="x" horiz-adv-x="1008" 
d="M401 391l-234.998 313.999c-27.333 36 -58.5 62.667 -93.5 80s-52.5 32 -52.5 44s3.5 20.833 10.5 26.5s17.167 8.5 30.5 8.5c2.66699 0 26 -2 70 -6s86.333 -6 127 -6c46.667 0 94.167 2 142.5 6s73.166 6 74.499 6c13.333 0 23.166 -2.66699 29.499 -8
s9.5 -13.666 9.5 -24.999c0 -18 -14.333 -31.667 -43 -41c-2 -0.666992 -3.66699 -1.33398 -5 -2.00098c-19.333 -4.66699 -32.5 -10.667 -39.5 -18s-10.5 -17 -10.5 -29c0 -6.66699 2.33301 -15 7 -25s11 -20 19 -30l105 -143l158 159c10.667 11.333 18 20.833 22 28.5
s6 15.5 6 23.5c0 20 -16.333 33.333 -49 40s-49 19 -49 37c0 12.667 2.66699 21.334 8 26.001s15 7 29 7c2 0 7 -0.333008 15 -1s15.333 -1 22 -1c1.33301 0 3.33301 -0.333008 6 -1c43.333 -6 80 -9 110 -9c15.333 0 35.666 1.33301 60.999 4
c9.33301 1.33301 15.666 2 18.999 2c6 0 13.667 0.333008 23 1s15.333 1 18 1c15.333 0 25 -1.66699 29 -5s6 -9.66602 6 -18.999c0 -11.333 -2.66699 -20.333 -8 -27s-19.333 -13.667 -42 -21c-1.33301 -0.666992 -4 -1.66699 -8 -3c-43.333 -18 -78 -40 -104 -66
l-227 -234l262 -338c34 -44.667 70 -73.667 108 -87c0 -0.666992 0.333008 -1 1 -1s1.66699 -0.333008 3 -1c12.667 -5.33301 19 -14.333 19 -27c0 -14 -4.16699 -24 -12.5 -30s-22.5 -9 -42.5 -9c-23.333 0 -59.166 2.33301 -107.499 7s-84.833 7 -109.5 7
c-32 0 -66.5 -2 -103.5 -6s-57.833 -6 -62.5 -6c-17.333 0 -29.166 2.33301 -35.499 7s-9.5 12.667 -9.5 24c0 20 14.667 35.5 44 46.5s44 26.833 44 47.5c0 7.33301 -1.83301 15.5 -5.5 24.5s-8.5 17.5 -14.5 25.5l-126 163l-127 -129c-18 -18 -31.333 -34.333 -40 -49
s-13 -27.667 -13 -39c0 -21.333 16.667 -37.666 50 -48.999h1c16 -4.66699 27.167 -10 33.5 -16s9.5 -13.667 9.5 -23c0 -12.667 -2.83301 -21.334 -8.5 -26.001s-15.834 -7 -30.501 -7c-4 0 -20.5 1.33301 -49.5 4s-55.5 4 -79.5 4c-34 0 -70.333 -2 -109 -6
c-11.333 -1.33301 -18.666 -2 -21.999 -2c-18.667 0 -30.167 2 -34.5 6s-6.5 11.667 -6.5 23c0 14 17.167 30.167 51.5 48.5s70.5 47.166 108.5 86.499z" />
    <glyph glyph-name="y" unicode="y" horiz-adv-x="944" 
d="M426 43l-322.006 640.995c-23.333 48 -49.833 82.5 -79.5 103.5s-44.5 34.833 -44.5 41.5c0 10 4.16699 18.333 12.5 25s18.5 10 30.5 10c2.66699 0 8.66699 -0.666992 18 -2c4.66699 -0.666992 8.66699 -1.33398 12 -2.00098c17.333 -2.66699 37.5 -4.66699 60.5 -6
s47.833 -2 74.5 -2c31.333 0 60.833 0.666992 88.5 2s52.834 3.33301 75.501 6c4.66699 0.666992 10 1.33398 16 2.00098c12 1.33301 19.667 2 23 2c16.667 0 28.667 -2.5 36 -7.5s11 -13.5 11 -25.5c0 -15.333 -17 -29 -51 -41c-2 -0.666992 -3.33301 -1.33398 -4 -2.00098
c-23.333 -6.66699 -38.666 -13.167 -45.999 -19.5s-11 -14.833 -11 -25.5c0 -12 1.16699 -23.833 3.5 -35.5s5.83301 -21.5 10.5 -29.5l180 -356c10 -19.333 17.5 -32.166 22.5 -38.499s9.83301 -9.5 14.5 -9.5s11.834 5.83301 21.501 17.5s16.834 23.834 21.501 36.501
l98 259c7.33301 18.667 13 37.334 17 56.001s6 37 6 55c0 23.333 -3.5 41.833 -10.5 55.5s-18.167 24.167 -33.5 31.5c-6.66699 2.66699 -18.667 5.33398 -36 8.00098c-32.667 5.33301 -49 16 -49 32c0 14 3.83301 23.667 11.5 29s24.167 8 49.5 8
c7.33301 0 14.833 -0.166992 22.5 -0.5s19.5 -1.5 35.5 -3.5c3.33301 0 13 -1 29 -3s28.667 -3 38 -3c11.333 0 22.833 0.666992 34.5 2s24.834 3.33301 39.501 6c5.33301 0 11.5 0.333008 18.5 1s11.833 1 14.5 1c14.667 0 25.834 -2.66699 33.501 -8s11.5 -13 11.5 -23
c0 -8 -13 -20.833 -39 -38.5s-48 -49.167 -66 -94.5l-413 -1034c-8.66699 -20.667 -20.334 -35 -35.001 -43s-38.667 -12 -72 -12c-20.667 0 -34.667 1.83301 -42 5.5s-11 9.83398 -11 18.501c0 11.333 5.33301 25 16 41c4 5.33301 7 9.66602 9 12.999l147 239
c6.66699 10.667 11.334 20.834 14.001 30.501s4 19.5 4 29.5c0 8 -1.33301 16.833 -4 26.5s-6.66699 19.834 -12 30.501z" />
    <glyph glyph-name="z" unicode="z" horiz-adv-x="784" 
d="M57 57l424.001 553c6.66699 8.66699 11.834 16.667 15.501 24s5.5 13.666 5.5 18.999c0 7.33301 -5.5 12.666 -16.5 15.999s-28.167 5 -51.5 5h-180c-23.333 0 -41.166 -3.66699 -53.499 -11s-23.833 -20 -34.5 -38c-6.66699 -10.667 -13 -24.334 -19 -41.001
c-8.66699 -24.667 -23.667 -37 -45 -37c-8.66699 0 -14.834 1.33301 -18.501 4s-5.5 7.33398 -5.5 14.001c0 4 0.166992 7.33301 0.5 10s0.833008 5 1.5 7l53 231c5.33301 19.333 11.166 32.333 17.499 39s16.833 10 31.5 10c11.333 0 32.166 -1.33301 62.499 -4
s54.5 -4 72.5 -4h224c18.667 0 45.5 1.66699 80.5 5s59.833 5 74.5 5c12 0 21.5 -1.66699 28.5 -5s10.5 -7.66602 10.5 -12.999c0 -6.66699 -2.66699 -14.834 -8 -24.501s-17 -26.167 -35 -49.5l-383 -508l-4 -6c-13.333 -18.667 -20 -33 -20 -43
c0 -13.333 19.333 -23.5 58 -30.5s95 -10.5 169 -10.5c68 0 121.5 11.667 160.5 35l58.5 35c5.33301 0 9 -2.16699 11 -6.5s3 -11.166 3 -20.499c0 -54 -25.667 -105.333 -77 -154s-111 -73 -179 -73c-16.667 0 -58 3 -124 9s-123.333 9 -172 9
c-37.333 0 -74.333 -1.66699 -111 -5c-7.33301 -0.666992 -12 -1 -14 -1c-9.33301 0 -16.5 1.83301 -21.5 5.5s-7.5 8.83398 -7.5 15.501c0 7.33301 4 16 12 26c2.66699 3.33301 4.66699 6 6 8z" />
    <glyph glyph-name="braceleft" unicode="{" 
d="M849 1458c-84.667 -0.666992 -142.83 -18.666 -174.497 -53.999s-47.5 -105.333 -47.5 -210v-137c0 -150 -18.833 -252.5 -56.5 -307.5s-107.167 -93.167 -208.5 -114.5c101.333 -21.333 170.833 -59.5 208.5 -114.5s56.5 -157.5 56.5 -307.5v-137
c0 -104.667 15.667 -174.334 47 -209.001s89.666 -52.334 174.999 -53.001l1 -58h-10c-148 0 -249.833 24.667 -305.5 74s-83.5 140 -83.5 272v201c0 107.333 -19.333 181.833 -58 223.5s-110.334 66.834 -215.001 75.501v68c106 10 178 35.333 216 76s57 115 57 223v200
c0 133.333 28.167 224.5 84.5 273.5s161.166 73.5 314.499 73.5z" />
    <glyph glyph-name="bar" unicode="|" 
d="M602 1565v-2048h-178v2048h178z" />
    <glyph glyph-name="braceright" unicode="}" 
d="M575 1169l0.00292969 -199.998c0 -108 19 -182.333 57 -223s110 -66 216 -76v-68c-104.667 -8.66699 -176.334 -33.5 -215.001 -74.5s-58 -115.833 -58 -224.5v-201c0 -131.333 -28 -221.833 -84 -271.5s-158.333 -74.5 -307 -74.5h-10l1 58
c85.333 0.666992 143.666 18.334 174.999 53.001s47 104.334 47 209.001v137c0 151.333 18.833 254.166 56.5 308.499s107.167 92.166 208.5 113.499c-100.667 21.333 -170 59.166 -208 113.499s-57 157.166 -57 308.499v137c0 104.667 -15.833 174.667 -47.5 210
s-89.834 53.333 -174.501 54l-1 58h10c148.667 0 251 -24.833 307 -74.5s84 -140.5 84 -272.5z" />
    <glyph glyph-name="asciitilde" unicode="~" horiz-adv-x="1706" 
d="M1530 600c-68.667 -47.333 -134.501 -82.668 -197.501 -106.001s-124.167 -35 -183.5 -35c-29.333 0 -60.166 2.83301 -92.499 8.5s-65.166 14.5 -98.499 26.5c-16.667 5.33301 -42 14 -76 26c-141.333 49.333 -247.666 74 -318.999 74
c-54.667 0 -112.667 -12.667 -174 -38s-131.666 -66 -210.999 -122v187c70.667 48 138 83.833 202 107.5s125.667 35.5 185 35.5c41.333 0 83.166 -4 125.499 -12s98.5 -24 168.5 -48c8.66699 -2.66699 22.667 -7.66699 42 -15c109.333 -38.667 192.666 -58 249.999 -58
c56.667 0 115.667 12.333 177 37s128.666 63.334 201.999 116.001v-184z" />
    <glyph glyph-name="nonbreakingspace" unicode="&#xa0;" horiz-adv-x="1108" 
 />
    <glyph glyph-name="exclamdown" unicode="&#xa1;" horiz-adv-x="672" 
d="M317 1440c4 3.33301 8.66699 5.83398 14 7.50098s12.333 2.5 21 2.5c6 0 12.333 -1.33301 19 -4s12 -6 16 -10l127 -131c4 -4.66699 7 -9.66699 9 -15s3 -11.333 3 -18s-1.33301 -13.5 -4 -20.5s-6 -12.5 -10 -16.5l-133 -127c-4 -4 -9 -7 -15 -9s-12.667 -3 -20 -3
c-6.66699 0 -13 1.16699 -19 3.5s-11.333 5.83301 -16 10.5l-123 131c-4 4 -7 8.66699 -9 14s-3 11.666 -3 18.999c0 6 1.33301 12.667 4 20s6 13 10 17zM362 866.001l95 -759.999c1.33301 -8.66699 2.33301 -16.834 3 -24.501s1 -15.167 1 -22.5
c0 -30.667 -16.5 -51.5 -49.5 -62.5s-95.167 -16.5 -186.5 -16.5c-14 0 -25.667 3.66699 -35 11s-14 17 -14 29c0 4.66699 0.5 12 1.5 22s2.5 21.667 4.5 35l119 795c2 14 5.5 24.667 10.5 32s11.167 11 18.5 11c17.333 0 28 -15.667 32 -47v-2z" />
    <glyph glyph-name="cent" unicode="&#xa2;" horiz-adv-x="1108" 
d="M414 231l190.002 562.001c-16 13.333 -31.333 22.666 -46 27.999s-31.334 8 -50.001 8c-62.667 0 -110.834 -22.833 -144.501 -68.5s-50.5 -110.834 -50.5 -195.501c0 -65.333 8.5 -126.166 25.5 -182.499s42.167 -106.833 75.5 -151.5zM238.002 -286.999
l105.999 313.999c-72.667 32.667 -129.667 82.834 -171 150.501s-62 144.5 -62 230.5c0 141.333 48.167 260.833 144.5 358.5s208.5 146.5 336.5 146.5c12.667 0 23 -0.166992 31 -0.5s15.333 -0.5 22 -0.5l86 253h84l-90 -274c33.333 -12.667 61.833 -32 85.5 -58
s35.5 -49 35.5 -69c0 -24.667 -19 -52.667 -57 -84s-67.667 -47 -89 -47c-12.667 0 -22.667 12 -30 36c-3.33301 12.667 -7 23 -11 31l-180 -528c22.667 -12.667 44.5 -22 65.5 -28s42.833 -9 65.5 -9c56 0 111.833 18.167 167.5 54.5s85.167 54.5 88.5 54.5
c8 0 13.833 -2.16699 17.5 -6.5s5.5 -11.833 5.5 -22.5c0 -37.333 -42.167 -82.5 -126.5 -135.5s-171.166 -79.5 -260.499 -79.5c-15.333 0 -40.333 1.33301 -75 4h-5l-98 -291h-86z" />
    <glyph glyph-name="sterling" unicode="&#xa3;" horiz-adv-x="1108" 
d="M319 150c-29.333 24 -55.498 41.5 -78.498 52.5s-44.5 16.5 -64.5 16.5c-26 0 -46.833 -7.5 -62.5 -22.5s-23.5 -35.5 -23.5 -61.5c0 -24.667 7.66699 -44.167 23 -58.5s36.333 -21.5 63 -21.5c29.333 0 56.666 8.33301 81.999 25s45.666 40 60.999 70zM459.002 205
c40.667 -12.667 80.6699 -22.002 120.003 -28.002s79 -9 119 -9c70.667 0 125.667 10.333 165 31s68.333 54.667 87 102c12 28.667 21.333 62.667 28 102c6 36 19.333 54 40 54c12.667 0 21.667 -3.5 27 -10.5s8 -19.167 8 -36.5c0 -132 -33.167 -238.833 -99.5 -320.5
s-153.5 -122.5 -261.5 -122.5c-52.667 0 -103.834 10 -153.501 30s-100.834 51 -153.501 93c-33.333 -40.667 -67.5 -70.667 -102.5 -90s-72.5 -29 -112.5 -29c-46.667 0 -84.334 14.167 -113.001 42.5s-43 65.5 -43 111.5c0 48.667 16.333 88.5 49 119.5
s74.334 46.5 125.001 46.5c21.333 0 45 -3.66699 71 -11s58.333 -19.333 97 -36c4 20 6.83301 37.833 8.5 53.5s2.5 30.5 2.5 44.5c0 45.333 -6.5 96.666 -19.5 153.999s-32.5 122 -58.5 194h-178c-12 0.666992 -19.5 2.66699 -22.5 6s-4.5 14.333 -4.5 33c0 18 2 29 6 33
s13.667 6 29 6h143c-18.667 49.333 -32.5 95 -41.5 137s-13.5 81 -13.5 117c0 120.667 37.167 219.167 111.5 295.5s170.833 114.5 289.5 114.5c90.667 0 173.167 -21.5 247.5 -64.5s111.5 -83.167 111.5 -120.5c0 -9.33301 -3.33301 -20.166 -10 -32.499
s-15.667 -24.5 -27 -36.5l-78 -82c-10.667 -10.667 -18.667 -17.5 -24 -20.5s-11 -4.5 -17 -4.5c-10 0 -17.333 4.16699 -22 12.5s-7 22.5 -7 42.5v37c0 70.667 -15.333 122.167 -46 154.5s-79.334 48.5 -146.001 48.5c-59.333 0 -106.666 -19.667 -141.999 -59
s-53 -92.666 -53 -159.999c0 -40.667 8 -92.5 24 -155.5s40.333 -137.5 73 -223.5h180c11.333 0 18.5 -1.66699 21.5 -5s4.5 -14.666 4.5 -33.999c0 -18 -2 -29 -6 -33s-13.333 -6 -28 -6h-152c9.33301 -38.667 16.166 -73.167 20.499 -103.5s6.5 -57.833 6.5 -82.5
c0 -44 -6.33301 -89.5 -19 -136.5s-33 -101.167 -61 -162.5z" />
    <glyph glyph-name="currency" unicode="&#xa4;" horiz-adv-x="1241" 
d="M913 885c0 79.333 -28.499 147.666 -85.499 204.999s-125.167 86 -204.5 86c-80 0 -148.5 -28.667 -205.5 -86s-85.5 -125.666 -85.5 -204.999c0 -80 28.167 -148.167 84.5 -204.5s125.166 -84.5 206.499 -84.5c80.667 0 149.167 28.167 205.5 84.5
s84.5 124.5 84.5 204.5zM371.001 1227c36.667 27.333 75.6689 47.833 117.002 61.5s85.666 20.5 132.999 20.5s92 -6.83301 134 -20.5s81 -34.167 117 -61.5l203 203l94 -93l-204 -204c26 -36 45.667 -74.833 59 -116.5s20 -85.5 20 -131.5
c0 -46.667 -6.66699 -90.834 -20 -132.501s-33 -80.167 -59 -115.5l204 -205l-94 -92l-203 205c-38 -28 -77.333 -48.667 -118 -62s-84.334 -20 -131.001 -20c-48 0 -93 6.83301 -135 20.5s-81 34.167 -117 61.5l-203 -205l-92 92l203 205
c-26.667 35.333 -46.667 73.833 -60 115.5s-20 85.834 -20 132.501c0 46 6.66699 89.833 20 131.5s33.333 80.5 60 116.5l-203 204l92 93z" />
    <glyph glyph-name="yen" unicode="&#xa5;" horiz-adv-x="1350" 
d="M559 383l0.00292969 171.995h-508v104h459l-115 201h-344v103h285l-98 176c-19.333 34 -40.333 63.5 -63 88.5s-44 41.833 -64 50.5c-10.667 5.33301 -26 9.33301 -46 12h-2l-1 1c-37.333 6.66699 -56 21.334 -56 44.001c0 11.333 4.16699 19.666 12.5 24.999
s21.166 8 38.499 8c4.66699 0 15.667 -0.666992 33 -2c69.333 -6.66699 135.666 -10 198.999 -10c80 0 156 3 228 9c10 0.666992 16 1 18 1c18 0 30.333 -2.5 37 -7.5s10 -13.5 10 -25.5c0 -16 -18.833 -30.5 -56.5 -43.5s-56.5 -33.833 -56.5 -62.5
c0 -8.66699 2.33301 -19.5 7 -32.5s12 -28.833 22 -47.5l225 -414c2.66699 -5.33301 5.83398 -9.66602 9.50098 -12.999s7.16699 -5 10.5 -5c5.33301 0 10.166 1.83301 14.499 5.5s9.16602 9.83398 14.499 18.501l193 340v2c26 42.667 39 77.667 39 105
c0 25.333 -7.5 46.333 -22.5 63s-36.833 28.334 -65.5 35.001c-13.333 3.33301 -31.333 6.33301 -54 9c-36.667 4 -55 16.667 -55 38c0 12.667 4.16699 21.667 12.5 27s21.833 8 40.5 8c2.66699 0 10 -0.666992 22 -2c62.667 -5.33301 125.667 -8 189 -8
c28.667 0 62.334 2 101.001 6s63 6 73 6c17.333 0 29.833 -2.83301 37.5 -8.5s11.5 -14.5 11.5 -26.5c0 -11.333 -22.333 -27.666 -67 -48.999s-84.334 -62.333 -119.001 -123l-111 -198h299v-103h-358l-115 -201h473v-104h-505v-195c0 -100.667 6.16699 -166.667 18.5 -198
s34.833 -54.666 67.5 -69.999c7.33301 -3.33301 16.166 -6.33301 26.499 -9s26.5 -5.66699 48.5 -9c1.33301 0 3 -0.333008 5 -1c50 -7.33301 75 -22.666 75 -45.999c0 -14 -4.16699 -24.333 -12.5 -31s-21.166 -10 -38.499 -10c-10.667 0 -46.834 2.66699 -108.501 8
s-117.5 8 -167.5 8c-45.333 0 -103.666 -3 -174.999 -9s-119 -9 -143 -9c-18.667 0 -33.167 3.5 -43.5 10.5s-15.5 17.167 -15.5 30.5c0 12 4.16699 21.167 12.5 27.5s26.833 12.166 55.5 17.499c18.667 2.66699 34.667 6 48 10s25 8.66699 35 14
c31.333 17.333 52.5 38.5 63.5 63.5s16.5 71.5 16.5 139.5v86z" />
    <glyph glyph-name="brokenbar" unicode="&#xa6;" 
d="M602 408v-758h-178v758h178zM602 1432v-758h-178v758h178z" />
    <glyph glyph-name="section" unicode="&#xa7;" 
d="M260 723c0 -32 10.833 -65 32.5 -99s55.167 -70.667 100.5 -110c75.333 -65.333 127.833 -107 157.5 -125s55.834 -27 78.501 -27c37.333 0 69.166 12.333 95.499 37s39.5 54.667 39.5 90c0 33.333 -12 68.166 -36 104.499s-61.333 76.833 -112 121.5
c-63.333 56.667 -110 93.334 -140 110.001s-58.333 25 -85 25c-36.667 0 -67.667 -12.5 -93 -37.5s-38 -54.833 -38 -89.5zM646 305c63.333 -53.333 110.499 -104.501 141.499 -153.501s46.5 -97.5 46.5 -145.5c0 -76 -32.667 -137.333 -98 -184s-153 -70 -263 -70
c-90.667 0 -165.167 20.333 -223.5 61s-87.5 92 -87.5 154c0 40.667 12.333 73.334 37 98.001s57.334 37 98.001 37c32.667 0 60 -10.667 82 -32s33 -48 33 -80c0 -27.333 -10.667 -52.333 -32 -75s-32 -37.334 -32 -44.001c0 -18.667 11.667 -34 35 -46s54 -18 92 -18
c54 0 96.5 12.833 127.5 38.5s46.5 60.167 46.5 103.5c0 56 -65 140.333 -195 253c-2 2 -4 3.66699 -6 5l-180 155c-59.333 51.333 -103.5 100.5 -132.5 147.5s-43.5 92.833 -43.5 137.5c0 73.333 26.167 133.333 78.5 180s121.833 72 208.5 76
c-70 60.667 -119 113 -147 157s-42 89.333 -42 136c0 80.667 30.333 144.834 91 192.501s143 71.5 247 71.5c88 0 159.833 -20.167 215.5 -60.5s83.5 -91.833 83.5 -154.5c0 -40 -11.5 -72.167 -34.5 -96.5s-53.833 -36.5 -92.5 -36.5c-34.667 0 -63.667 10.167 -87 30.5
s-35 45.833 -35 76.5c0 22 10.5 45.333 31.5 70s31.5 41.334 31.5 50.001c0 17.333 -11.333 32.666 -34 45.999s-49.667 20 -81 20c-46 0 -83 -12.333 -111 -37s-42 -56.667 -42 -96c0 -36 12.667 -72.167 38 -108.5s81.666 -91.833 168.999 -166.5l178 -149
c58.667 -50 102.334 -99 131.001 -147s43 -96.667 43 -146c0 -70 -26 -127.667 -78 -173s-121.333 -71 -208 -77z" />
    <glyph glyph-name="dieresis" unicode="&#xa8;" 
d="M719 1024c-2.66699 -2.66699 -6.00293 -4.66797 -10.0029 -6.00098s-9 -2 -15 -2c-5.33301 0 -10.166 0.833008 -14.499 2.5s-8.16602 4.16699 -11.499 7.5l-90 94c-3.33301 2.66699 -5.66602 6 -6.99902 10s-2 9 -2 15c0 4.66699 1 9 3 13s4.66699 7.66699 8 11l94 93
c2.66699 2.66699 6 4.66699 10 6s8.66699 2 14 2c6 0 11 -0.666992 15 -2s7.33301 -3.33301 10 -6l90 -95c2.66699 -2.66699 4.66699 -6.16699 6 -10.5s2 -9.5 2 -15.5c0 -4.66699 -0.833008 -9.16699 -2.5 -13.5s-4.16699 -8.16602 -7.5 -11.499zM349.997 1024
c-2.66699 -2.66699 -6.00098 -4.66797 -10.001 -6.00098s-8.66699 -2 -14 -2c-4.66699 0 -9.16699 0.833008 -13.5 2.5s-8.16602 4.16699 -11.499 7.5l-92 94c-2.66699 2.66699 -4.66699 6 -6 10s-2 9 -2 15c0 4.66699 0.833008 9 2.5 13s4.16699 7.66699 7.5 11l96 93
c2.66699 2.66699 6 4.66699 10 6s9 2 15 2c5.33301 0 10 -0.666992 14 -2s7.33301 -3.33301 10 -6l88 -95c3.33301 -2.66699 6 -6.5 8 -11.5s3 -9.83301 3 -14.5s-1 -9.16699 -3 -13.5s-4.66699 -8.16602 -8 -11.499z" />
    <glyph glyph-name="copyright" unicode="&#xa9;" horiz-adv-x="1683" 
d="M1165 1100l2.00098 -319.998h-47c-21.333 89.333 -55.333 157.166 -102 203.499s-104 69.5 -172 69.5c-77.333 0 -136 -31.333 -176 -94s-60 -154.334 -60 -275.001c0 -122.667 21.667 -216.5 65 -281.5s106.333 -97.5 189 -97.5c54.667 0 105 14.5 151 43.5
s88 72.5 126 130.5l43 -26c-42 -72 -92 -125.5 -150 -160.5s-124.667 -52.5 -200 -52.5c-118 0 -217.167 41.333 -297.5 124s-120.5 184.667 -120.5 306c0 122.667 39.833 225.667 119.5 309s178.167 125 295.5 125c53.333 0 104.666 -11 153.999 -33s75.333 -33 78 -33
c18.667 0 32.5 4.66699 41.5 14s15.5 25.333 19.5 48h41zM1464 678.002c0 82.667 -16.002 163.169 -48.002 241.502s-77.333 146.5 -136 204.5c-57.333 57.333 -124 101.833 -200 133.5s-154.667 47.5 -236 47.5c-84 0 -164.333 -16 -241 -48s-144 -77.667 -202 -137
c-58.667 -60 -103.667 -127.833 -135 -203.5s-47 -155.167 -47 -238.5c0 -84 15.833 -163.833 47.5 -239.5s77.167 -143.167 136.5 -202.5c60.667 -60.667 127.834 -106.334 201.501 -137.001s152.834 -46 237.501 -46c84 0 163.5 15.667 238.5 47
s141.5 76.666 199.5 135.999c58.667 59.333 104 127.5 136 204.5s48 156.167 48 237.5zM843.999 1401c93.333 0 184.167 -18.5 272.5 -55.5s166.166 -88.833 233.499 -155.5c67.333 -68 119.666 -146.5 156.999 -235.5s56 -181.167 56 -276.5
c0 -94.667 -18.5 -186 -55.5 -274s-89.5 -166.667 -157.5 -236c-67.333 -68 -144.333 -119.833 -231 -155.5s-179 -53.5 -277 -53.5c-96.667 0 -188.167 17.667 -274.5 53s-164.166 87.333 -233.499 156c-69.333 69.333 -122.166 147.5 -158.499 234.5
s-54.5 178.833 -54.5 275.5c0 95.333 18 186.833 54 274.5s88.333 166.167 157 235.5c68 68 146.333 120.5 235 157.5s181 55.5 277 55.5z" />
    <glyph glyph-name="ordfeminine" unicode="&#xaa;" horiz-adv-x="705" 
d="M86 670h567v-113h-567v113zM422 1135c-70 -12.667 -121 -31.168 -153 -55.501s-48 -57.166 -48 -98.499c0 -24.667 6.83301 -43.5 20.5 -56.5s33.5 -19.5 59.5 -19.5c42 0 72.667 6.16699 92 18.5s29 31.5 29 57.5v29v125zM600 1202l-0.000976562 -250
c0 -14.667 2.83301 -24.834 8.5 -30.501s16.5 -8.5 32.5 -8.5c2 0 6.66699 0.333008 14 1s13.666 1 18.999 1c7.33301 0 13.833 -2.33301 19.5 -7s8.5 -10.334 8.5 -17.001c0 -17.333 -15.5 -34.666 -46.5 -51.999s-63.167 -26 -96.5 -26
c-23.333 0 -43.666 5.83301 -60.999 17.5s-33.666 30.5 -48.999 56.5c-44.667 -28 -88.834 -49 -132.501 -63s-85.834 -21 -126.501 -21c-49.333 0 -87.166 12.5 -113.499 37.5s-39.5 60.833 -39.5 107.5c0 63.333 28.833 113.833 86.5 151.5s155.834 68.5 294.501 92.5
c0 6.66699 0.333008 14.667 1 24s1 15 1 17c0 52 -12 91.333 -36 118s-59 40 -105 40c-24 0 -41 -3.83301 -51 -11.5s-15 -20.5 -15 -38.5v-14c0 -31.333 -10.167 -53.166 -30.5 -65.499s-51.833 -18.5 -94.5 -18.5c-16 0 -27.167 3.5 -33.5 10.5s-9.5 19.833 -9.5 38.5
c0 42 27.5 79.833 82.5 113.5s121.833 50.5 200.5 50.5c96.667 0 166.167 -18.167 208.5 -54.5s63.5 -102.833 63.5 -199.5z" />
    <glyph glyph-name="guillemotleft" unicode="&#xab;" horiz-adv-x="969" 
d="M666 449c49.333 -68 90.333 -130.834 123 -188.501s49 -93.834 49 -108.501c0 -6.66699 -1.16699 -11.5 -3.5 -14.5s-6.16602 -4.5 -11.499 -4.5c-9.33301 0 -50.833 36.167 -124.5 108.5s-150.834 139.166 -231.501 200.499v13c80 60.667 156.667 127.334 230 200.001
s115.333 109 126 109c6 0 10 -1 12 -3s3 -6.33301 3 -13c0 -15.333 -16.333 -52.166 -49 -110.499s-73.667 -121.166 -123 -188.499zM334 448.999c49.333 -68 90.335 -130.834 123.002 -188.501s49 -93.834 49 -108.501c0 -6.66699 -1.16699 -11.5 -3.5 -14.5
s-5.83301 -4.5 -10.5 -4.5c-10 0 -51.833 36.167 -125.5 108.5s-150.834 139.166 -231.501 200.499v13c80 60.667 156.667 127.334 230 200.001s115.666 109 126.999 109c5.33301 0 9 -1 11 -3s3 -6.33301 3 -13c0 -15.333 -16.333 -52.166 -49 -110.499
s-73.667 -121.166 -123 -188.499z" />
    <glyph glyph-name="logicalnot" unicode="&#xac;" horiz-adv-x="1706" 
d="M1452 862v-502h-166v336h-1032v166h1198z" />
    <glyph glyph-name="sfthyphen" unicode="&#xad;" horiz-adv-x="676" 
d="M143 254c-6 -2 -11.168 -3.5 -15.501 -4.5s-7.83301 -1.5 -10.5 -1.5c-10 0 -17 2.66699 -21 8s-6 15.666 -6 30.999v114c0 12.667 2.66699 22.667 8 30s14.333 14 27 20l407 153c8.66699 2.66699 14.834 4.33398 18.501 5.00098s6.5 1 8.5 1c8 0 14.5 -3.33301 19.5 -10
s7.5 -16.334 7.5 -29.001v-114c0 -12.667 -2.66699 -22.667 -8 -30s-14.333 -13.666 -27 -18.999z" />
    <glyph glyph-name="registered" unicode="&#xae;" horiz-adv-x="1683" 
d="M748 981l-0.000976562 -258c9.33301 -0.666992 18.333 -1.16699 27 -1.5s17.334 -0.5 26.001 -0.5c66.667 0 118.167 14.667 154.5 44s54.5 71.333 54.5 126c0 46.667 -15.5 84.667 -46.5 114s-71.5 44 -121.5 44c-31.333 0 -54.833 -5.83301 -70.5 -17.5
s-23.5 -28.5 -23.5 -50.5zM865.999 1096c96.667 0 174.17 -18.3311 232.503 -54.998s87.5 -84 87.5 -142c0 -56 -21.833 -100.333 -65.5 -133s-116.167 -58 -217.5 -76c64 -16.667 113.167 -41 147.5 -73s57.5 -74.333 69.5 -127c4 -16 7.33301 -38.333 10 -67
c6 -60.667 24 -91 54 -91c19.333 0 34 11.333 44 34s15 55.667 15 99h49v-23c0 -56.667 -14.333 -99.834 -43 -129.501s-71 -44.5 -127 -44.5c-30.667 0 -57.334 4.83301 -80.001 14.5s-40.334 24.167 -53.001 43.5c-16 26 -25 63.167 -27 111.5s-4.66699 79.5 -8 93.5
c-10.667 49.333 -30.834 85.833 -60.501 109.5s-70.167 35.5 -121.5 35.5h-24v-246c0 -32.667 7.5 -55.834 22.5 -69.501s43.5 -22.5 85.5 -26.5v-47h-389v47c42.667 2 72.167 9.83301 88.5 23.5s24.5 37.834 24.5 72.501v520c0 34.667 -7.83301 58.667 -23.5 72
s-45.5 21.666 -89.5 24.999v49h399zM1464 678.002c0 81.333 -16.1689 161.334 -48.502 240.001s-77.5 147.334 -135.5 206.001c-57.333 57.333 -124 101.833 -200 133.5s-154.667 47.5 -236 47.5c-84 0 -164.333 -16 -241 -48s-144 -77.667 -202 -137
c-59.333 -60 -104.5 -127.667 -135.5 -203s-46.5 -155 -46.5 -239s15.833 -163.833 47.5 -239.5s77.167 -143.167 136.5 -202.5c60.667 -60.667 127.834 -106.334 201.501 -137.001s152.834 -46 237.501 -46c84 0 163.5 15.667 238.5 47s141.5 76.666 199.5 135.999
c59.333 60 104.833 128.167 136.5 204.5s47.5 155.5 47.5 237.5zM844 1401c96 0 189 -19 279 -57s168.333 -91.333 235 -160c65.333 -68 115.833 -146.5 151.5 -235.5s53.5 -181.833 53.5 -278.5c0 -92 -19.833 -182.833 -59.5 -272.5s-95.167 -169.5 -166.5 -239.5
c-67.333 -66.667 -143.333 -116.5 -228 -149.5s-178.667 -49.5 -282 -49.5c-90 0 -178 18.167 -264 54.5s-162.333 87.833 -229 154.5c-70 69.333 -123 147.333 -159 234s-54 178.667 -54 276c0 95.333 18.167 187 54.5 275s88.5 166.333 156.5 235
c68 68 146.333 120.5 235 157.5s181 55.5 277 55.5z" />
    <glyph glyph-name="macron" unicode="&#xaf;" 
d="M242 1077v140h540v-140h-540z" />
    <glyph glyph-name="degree" unicode="&#xb0;" horiz-adv-x="674" 
d="M522 1165c0 51.333 -17.833 95.002 -53.5 131.002s-79.167 54 -130.5 54s-95.166 -18 -131.499 -54s-54.5 -79.667 -54.5 -131c0 -50.667 18.167 -94.334 54.5 -131.001s80.166 -55 131.499 -55s94.833 18.167 130.5 54.5s53.5 80.166 53.5 131.499zM338 1460
c82 0 151.667 -28.999 209 -86.999s86 -128 86 -210c0 -80.667 -29 -150 -87 -208s-128 -87 -210 -87s-151.333 28.5 -208 85.5s-85 126.833 -85 209.5c0 83.333 28.667 153.666 86 210.999s127 86 209 86z" />
    <glyph glyph-name="plusminus" unicode="&#xb1;" horiz-adv-x="1706" 
d="M1452 182v-168h-1198v168h1198zM938 1206v-334h514v-165h-514v-334h-170v334h-514v165h514v334h170z" />
    <glyph glyph-name="twosuperior" unicode="&#xb2;" horiz-adv-x="731" 
d="M594 600c-11.333 -20.667 -22.6641 -34.668 -33.9971 -42.001s-30.666 -11 -57.999 -11c-18 0 -65 2 -141 6s-142.333 6 -199 6c-25.333 0 -51 -3.33301 -77 -10c-6 -1.33301 -9.66699 -2 -11 -2c-6.66699 0 -12.5 2.33301 -17.5 7s-7.5 10.334 -7.5 17.001
c0 9.33301 8.16699 21.5 24.5 36.5s28.166 26.833 35.499 35.5l100 113c80.667 93.333 139.667 172.666 177 237.999s56 121 56 167c0 40.667 -13.833 73 -41.5 97s-64.834 36 -111.501 36c-44 0 -86.667 -13.333 -128 -40s-63 -40 -65 -40
c-4.66699 0 -8.83398 1.83301 -12.501 5.5s-5.5 8.16699 -5.5 13.5c0 6.66699 7.5 17.834 22.5 33.501s35.5 33.167 61.5 52.5c28 23.333 58.333 40.833 91 52.5s67.667 17.5 105 17.5c72 0 128.667 -16.5 170 -49.5s62 -78.167 62 -135.5c0 -36 -12.833 -76 -38.5 -120
s-77.167 -109 -154.5 -195l-80 -88c-52.667 -58 -79 -91.667 -79 -101c0 -5.33301 4.5 -10 13.5 -14s20.167 -6 33.5 -6h147c37.333 0 67.666 2.66699 90.999 8s43 14.333 59 27c10 7.33301 21.833 18.666 35.5 33.999s25.5 23 35.5 23c4.66699 0 8.66699 -1.66699 12 -5
s5 -7.66602 5 -12.999c0 -3.33301 -1.5 -8.5 -4.5 -15.5s-8.5 -17.833 -16.5 -32.5z" />
    <glyph glyph-name="threesuperior" unicode="&#xb3;" horiz-adv-x="731" 
d="M412 1051l15.998 0.000976562c64 0 113.5 -16.5 148.5 -49.5s52.5 -80.167 52.5 -141.5c0 -93.333 -35.333 -171.333 -106 -234s-158.334 -94 -263.001 -94c-57.333 0 -108.833 11.5 -154.5 34.5s-68.5 45.167 -68.5 66.5c0 6 1.66699 10.5 5 13.5s8.33301 4.5 15 4.5
c4.66699 0 14.667 -5 30 -15c53.333 -34.667 103.666 -52 150.999 -52c68.667 0 125 21.5 169 64.5s66 98.5 66 166.5c0 46 -12 82.5 -36 109.5s-57 40.5 -99 40.5c-18 0 -36.167 -2.16699 -54.5 -6.5s-28.166 -6.5 -29.499 -6.5c-4 0 -7.33301 1.83301 -10 5.5
s-4 8.16699 -4 13.5c0 10 10.667 19.667 32 29c19.333 8.66699 34.333 16.667 45 24c34.667 22.667 60.5 47.334 77.5 74.001s25.5 55.334 25.5 86.001c0 37.333 -12.667 68.166 -38 92.499s-57 36.5 -95 36.5c-40 0 -79.167 -13.667 -117.5 -41s-60.166 -41 -65.499 -41
c-4.66699 0 -8.16699 1.16699 -10.5 3.5s-3.5 5.83301 -3.5 10.5c0 25.333 27.833 55.166 83.5 89.499s115.834 51.5 180.501 51.5c58.667 0 106.834 -14.5 144.501 -43.5s56.5 -66.167 56.5 -111.5c0 -32.667 -11 -62.834 -33 -90.501s-58.667 -57.5 -110 -89.5z" />
    <glyph glyph-name="acute" unicode="&#xb4;" 
d="M336 983l276 300.999c18 19.333 36.333 34.5 55 45.5s36 16.5 52 16.5c20.667 0 38.5 -7.66699 53.5 -23s22.5 -33.666 22.5 -54.999c0 -18.667 -6 -35.167 -18 -49.5s-34 -31.5 -66 -51.5l-301 -184h-74z" />
    <glyph glyph-name="mu" unicode="&#xb5;" horiz-adv-x="1184" 
d="M68 373l107.995 512.003h207l-100 -467c-6.66699 -30.667 -11.834 -58 -15.501 -82s-5.5 -43 -5.5 -57c0 -42.667 12.333 -76.334 37 -101.001s58.667 -37 102 -37c58 0 104.333 17.833 139 53.5s60 91.5 76 167.5l111 523h209l-113 -533l-3 -15
c-10 -46.667 -15 -83.334 -15 -110.001c0 -28 7.5 -50 22.5 -66s36.167 -24 63.5 -24c26.667 0 50.334 7.16699 71.001 21.5s40 37.166 58 68.499c6 11.333 13.667 27.666 23 48.999c16.667 40 33.667 60 51 60c7.33301 0 12.833 -2.5 16.5 -7.5s5.5 -12.833 5.5 -23.5
c0 -18.667 -5.66699 -47.167 -17 -85.5s-24.666 -71.833 -39.999 -100.5c-27.333 -48 -59.166 -84 -95.499 -108s-77.5 -36 -123.5 -36c-56 0 -99.167 18.333 -129.5 55s-46.166 88.667 -47.499 156c-28 -69.333 -64.5 -121.833 -109.5 -157.5s-97.167 -53.5 -156.5 -53.5
c-66 0 -118.167 19.333 -156.5 58s-61.166 94.667 -68.499 168c-15.333 -82.667 -31.333 -187.667 -48 -315c-26 -204 -70.667 -306 -134 -306c-31.333 0 -55.666 8.83301 -72.999 26.5s-26 42.5 -26 74.5c0 34.667 23 128.834 69 282.501s82 290.167 108 409.5z" />
    <glyph glyph-name="paragraph" unicode="&#xb6;" 
d="M969 1380h-117v-1380h-129v1380h-168v-1380h-131v784c-112 4 -201.5 37.667 -268.5 101s-100.5 145 -100.5 245c0 105.333 35.667 189.833 107 253.5s166 95.5 284 95.5h523v-99z" />
    <glyph glyph-name="periodcentered" unicode="&#xb7;" horiz-adv-x="553" 
d="M276 852c45.333 0 84 -16.667 116 -50s48 -74 48 -122c0 -44 -15.667 -81 -47 -111s-70.333 -45 -117 -45c-46 0 -84.667 15 -116 45s-47 67 -47 111c0 48 15.833 88.667 47.5 122s70.167 50 115.5 50z" />
    <glyph glyph-name="cedilla" unicode="&#xb8;" 
d="M242 -379l37.0029 90c38.667 -24.667 78.167 -43.834 118.5 -57.501s77.833 -20.5 112.5 -20.5c38 0 66 7.33301 84 22s27 37.667 27 69c0 28.667 -9.33301 50.167 -28 64.5s-46.334 21.5 -83.001 21.5c-2.66699 0 -8.16699 -0.5 -16.5 -1.5s-22.5 -2.83301 -42.5 -5.5
v197h65v-115c10.667 1.33301 21.167 2.33301 31.5 3s23.166 1 38.499 1c53.333 0 96.333 -15.167 129 -45.5s49 -70.166 49 -119.499c0 -56 -19.833 -99.833 -59.5 -131.5s-94.834 -47.5 -165.501 -47.5c-38.667 0 -81.167 5.83301 -127.5 17.5s-102.833 31.167 -169.5 58.5
z" />
    <glyph glyph-name="onesuperior" unicode="&#xb9;" horiz-adv-x="731" 
d="M297 719l0.00390625 468.998c0 25.333 -3.33301 42.5 -10 51.5s-18.334 13.5 -35.001 13.5c-13.333 0 -29 -2.33301 -47 -7s-29 -7 -33 -7c-4.66699 0 -9.5 2.33301 -14.5 7s-7.5 9.33398 -7.5 14.001c0 14.667 26 27.334 78 38.001c39.333 8 70.666 15.667 93.999 23
c22 8 45.5 20.833 70.5 38.5s40.167 26.5 45.5 26.5c4 0 7.16699 -1.83301 9.5 -5.5s3.5 -8.5 3.5 -14.5c0 -1.33301 -0.666992 -5.33301 -2 -12c-6 -32.667 -9 -64 -9 -94v-541c0 -57.333 9.16699 -93.166 27.5 -107.499s50.166 -21.5 95.499 -21.5
c13.333 0 21.5 -1.5 24.5 -4.5s4.5 -8.5 4.5 -16.5c-0.666992 -8 -3.66699 -13.667 -9 -17s-14.666 -5 -27.999 -5c-2.66699 0 -27.334 1 -74.001 3s-92.334 3 -137.001 3c-43.333 0 -91 -2 -143 -6c-15.333 -1.33301 -25 -2 -29 -2s-7.33301 2 -10 6s-4 9.33301 -4 16
c0 12.667 11.667 20.334 35 23.001c20.667 2.66699 38.334 6 53.001 10c19.333 5.33301 32.666 15.166 39.999 29.499s11 44.166 11 89.499z" />
    <glyph glyph-name="ordmasculine" unicode="&#xba;" horiz-adv-x="793" 
d="M84 670h625v-113h-625v113zM377 1397c-54.667 0 -96.667 -16.667 -126 -50s-44 -81 -44 -143c0 -98 20.167 -178.833 60.5 -242.5s92.5 -95.5 156.5 -95.5c51.333 0 91.5 16.333 120.5 49s43.5 78 43.5 136c0 98.667 -20.167 181 -60.5 247s-90.5 99 -150.5 99zM395 1462
c108.667 0 197 -29.3311 265 -87.998s102 -135 102 -229c0 -100.667 -35.833 -183.5 -107.5 -248.5s-162.167 -97.5 -271.5 -97.5c-103.333 0 -187.833 30.167 -253.5 90.5s-98.5 137.166 -98.5 230.499c0 95.333 35.333 176.166 106 242.499s156.667 99.5 258 99.5z" />
    <glyph glyph-name="guillemotright" unicode="&#xbb;" horiz-adv-x="969" 
d="M629 449c-50.667 68 -92.332 130.833 -124.999 188.5s-49 93.5 -49 107.5c0 6.66699 1.33301 11.5 4 14.5s6.66699 4.5 12 4.5c9.33301 0 50.5 -36.167 123.5 -108.5s149.833 -139.166 230.5 -200.499v-13c-80 -60.667 -156.333 -127.334 -229 -200.001
s-114.334 -109 -125.001 -109c-7.33301 0.666992 -11.833 2 -13.5 4s-2.5 6.33301 -2.5 13c0 14.667 16.5 51 49.5 109s74.5 121.333 124.5 190zM297.002 449c-50 68 -91.501 130.833 -124.501 188.5s-49.5 93.5 -49.5 107.5c0 6 1.33301 10.667 4 14s6.66699 5 12 5
c9.33301 0 50.5 -36.167 123.5 -108.5s150.167 -139.166 231.5 -200.499v-13c-80.667 -60.667 -157.167 -127.334 -229.5 -200.001s-114.166 -109 -125.499 -109c-6.66699 0 -11 1.16699 -13 3.5s-3 6.83301 -3 13.5c0 14.667 16.5 51 49.5 109s74.5 121.333 124.5 190z" />
    <glyph glyph-name="onequarter" unicode="&#xbc;" horiz-adv-x="1737" 
d="M1192 313h223c7.33301 0 12.666 2 15.999 6s5 10.333 5 19v270c-0.666992 4 -1.5 6.66699 -2.5 8s-3.16699 2 -6.5 2s-14 -8.66699 -32 -26s-44.667 -45.333 -80 -84l-78 -86l-4 -5c-42.667 -50.667 -64 -81.667 -64 -93c0.666992 -4 2.83398 -6.83301 6.50098 -8.5
s9.16699 -2.5 16.5 -2.5zM1456 -74l-15.998 -0.00195312c-6.66699 0.666992 -11.167 1.83398 -13.5 3.50098s-3.5 5.5 -3.5 11.5c0 1.33301 2.16699 13 6.5 35s6.5 43 6.5 63v156c0 8.66699 -2.5 14.834 -7.5 18.501s-12.833 5.5 -23.5 5.5h-307
c-16.667 0 -27.667 1.66699 -33 5s-8 10 -8 20c0 26 61.333 107.667 184 245l21 23c102 116 171.167 191.5 207.5 226.5s61.833 52.5 76.5 52.5c5.33301 0 9.16602 -2.16699 11.499 -6.5s3.5 -15.166 3.5 -32.499v-412c0 -6 1.16699 -9.83301 3.5 -11.5
s7.16602 -2.5 14.499 -2.5h45c8 0 16.833 8.83301 26.5 26.5s18.5 26.5 26.5 26.5c6.66699 -0.666992 11.5 -3.33398 14.5 -8.00098s4.5 -11.667 4.5 -21c0 -16.667 -2.5 -36.5 -7.5 -59.5s-9.5 -38.833 -13.5 -47.5c-4 -8 -10 -14 -18 -18s-23.667 -6 -47 -6h-35
c-6 0 -9.83301 -0.666992 -11.5 -2s-2.5 -4 -2.5 -8v-10v-215c0 -14 -2.33301 -23.833 -7 -29.5s-16 -10.167 -34 -13.5zM356.002 -29.002l920 1432h104l-919 -1432h-105zM283.002 761.998v437.999c0 24 -3.16699 40.333 -9.5 49s-17.5 13 -33.5 13
c-12.667 0 -27.667 -2.5 -45 -7.5s-27.666 -7.5 -30.999 -7.5c-5.33301 0.666992 -10.166 3.16699 -14.499 7.5s-6.5 8.83301 -6.5 13.5c0.666992 13.333 25.334 25 74.001 35c37.333 8 66.666 15.333 87.999 22c22 7.33301 44.833 19.333 68.5 36s38.5 25 44.5 25
c3.33301 0 6.16602 -1.83301 8.49902 -5.5s3.5 -8.5 3.5 -14.5c0 -1.33301 -0.666992 -5.33301 -2 -12c-5.33301 -30 -8 -58.667 -8 -86v-506c0 -53.333 8.66699 -86.833 26 -100.5s47.666 -20.5 90.999 -20.5c12.667 0 20.167 -1.16699 22.5 -3.5s3.5 -7.16602 3.5 -14.499
s-2.83301 -12.666 -8.5 -15.999s-14.5 -5 -26.5 -5c-2 0 -25.333 1 -70 3s-88 3 -130 3c-36 0 -72.333 -1.33301 -109 -4l-55 -4c-4 0 -7.33301 2 -10 6s-4 9 -4 15c0 12 11.667 19.667 35 23c19.333 2 35.333 5 48 9c19.333 4.66699 32.5 13.667 39.5 27
s10.5 40.666 10.5 81.999z" />
    <glyph glyph-name="onehalf" unicode="&#xbd;" horiz-adv-x="1737" 
d="M1608 49c-11.333 -20 -22.5 -33.502 -33.5 -40.502s-29.167 -10.5 -54.5 -10.5c-17.333 0 -62.166 1.66699 -134.499 5s-135.5 5 -189.5 5c-26.667 0 -51.667 -2.66699 -75 -8c-4.66699 -1.33301 -7.66699 -2 -9 -2c-6.66699 0 -12.5 2.16699 -17.5 6.5
s-7.5 9.5 -7.5 15.5c0 10 9.33301 23 28 39c13.333 12 23.333 21.667 30 29l94 107c78.667 88 135.834 162.167 171.501 222.5s53.5 111.5 53.5 153.5c0 38 -13.5 68 -40.5 90s-63.167 33 -108.5 33c-41.333 0 -81.666 -11.833 -120.999 -35.5s-59.666 -35.5 -60.999 -35.5
c-5.33301 0 -9.33301 1.16699 -12 3.5s-4.33398 5.83301 -5.00098 10.5c0 7.33301 7.16699 18.5 21.5 33.5s33.166 31.167 56.499 48.5c28 22 57.667 38.333 89 49s64.333 16 99 16c69.333 0 123.666 -15.5 162.999 -46.5s59 -73.5 59 -127.5
c0 -33.333 -12.667 -70.666 -38 -111.999s-74.333 -101.666 -147 -180.999l-75 -82c-50.667 -54 -76 -85.333 -76 -94c0 -5.33301 4 -9.66602 12 -12.999s19 -5 33 -5h141c34 0 62.333 2.66699 85 8s41.334 13.666 56.001 24.999c11.333 6.66699 23.166 17.167 35.499 31.5
s23.166 21.5 32.499 21.5c5.33301 0 9.33301 -1.5 12 -4.5s4 -6.83301 4 -11.5s-1.5 -11 -4.5 -19s-7.5 -17 -13.5 -27zM356 -29.002l920 1432h104l-919 -1432h-105zM283 761.998v437.999c0 24 -3.16699 40.333 -9.5 49s-17.5 13 -33.5 13c-12.667 0 -27.667 -2.5 -45 -7.5
s-27.666 -7.5 -30.999 -7.5c-5.33301 0.666992 -10.166 3.16699 -14.499 7.5s-6.5 8.83301 -6.5 13.5c0.666992 13.333 25.334 25 74.001 35c37.333 8 66.666 15.333 87.999 22c22 7.33301 44.833 19.333 68.5 36s38.5 25 44.5 25c3.33301 0 6.16602 -1.83301 8.49902 -5.5
s3.5 -8.5 3.5 -14.5c0 -1.33301 -0.666992 -5.33301 -2 -12c-5.33301 -30 -8 -58.667 -8 -86v-506c0 -53.333 8.66699 -86.833 26 -100.5s47.666 -20.5 90.999 -20.5c12.667 0 20.167 -1.16699 22.5 -3.5s3.5 -7.16602 3.5 -14.499s-2.83301 -12.666 -8.5 -15.999
s-14.5 -5 -26.5 -5c-2 0 -25.333 1 -70 3s-88 3 -130 3c-36 0 -72.333 -1.33301 -109 -4l-55 -4c-4 0 -7.33301 2 -10 6s-4 9 -4 15c0 12 11.667 19.667 35 23c19.333 2 35.333 5 48 9c19.333 4.66699 32.5 13.667 39.5 27s10.5 40.666 10.5 81.999z" />
    <glyph glyph-name="threequarters" unicode="&#xbe;" horiz-adv-x="1739" 
d="M1192 313h223c7.33301 0 12.666 2 15.999 6s5 10.333 5 19v270c-0.666992 4 -1.5 6.66699 -2.5 8s-3.16699 2 -6.5 2s-14 -8.66699 -32 -26s-44.667 -45.333 -80 -84l-78 -86l-4 -5c-42.667 -50.667 -64 -81.667 -64 -93c0.666992 -4 2.83398 -6.83301 6.50098 -8.5
s9.16699 -2.5 16.5 -2.5zM1456 -74l-15.998 -0.00195312c-6.66699 0.666992 -11.167 1.83398 -13.5 3.50098s-3.5 5.5 -3.5 11.5c0 1.33301 2.16699 13 6.5 35s6.5 43 6.5 63v156c0 8.66699 -2.5 14.834 -7.5 18.501s-12.833 5.5 -23.5 5.5h-307
c-16.667 0 -27.667 1.66699 -33 5s-8 10 -8 20c0 26 61.333 107.667 184 245l21 23c102 116 171.167 191.5 207.5 226.5s61.833 52.5 76.5 52.5c5.33301 0 9.16602 -2.16699 11.499 -6.5s3.5 -15.166 3.5 -32.499v-412c0 -6 1.16699 -9.83301 3.5 -11.5
s7.16602 -2.5 14.499 -2.5h45c8 0 16.833 8.83301 26.5 26.5s18.5 26.5 26.5 26.5c6.66699 -0.666992 11.5 -3.33398 14.5 -8.00098s4.5 -11.667 4.5 -21c0 -16.667 -2.5 -36.5 -7.5 -59.5s-9.5 -38.833 -13.5 -47.5c-4 -8 -10 -14 -18 -18s-23.667 -6 -47 -6h-35
c-6 0 -9.83301 -0.666992 -11.5 -2s-2.5 -4 -2.5 -8v-10v-215c0 -14 -2.33301 -23.833 -7 -29.5s-16 -10.167 -34 -13.5zM356.002 -29.002l920 1432h104l-919 -1432h-105zM393.002 1071l15.0029 0.000976562c62 0 109.5 -15.167 142.5 -45.5s49.5 -73.833 49.5 -130.5
c0 -87.333 -33.833 -160 -101.5 -218s-151.167 -87 -250.5 -87c-55.333 0 -104.666 10.5 -147.999 31.5s-65 41.833 -65 62.5c0 4.66699 1.66699 8.16699 5 10.5s7.66602 3.5 12.999 3.5c1.33301 0 20.833 -10.167 58.5 -30.5s75.5 -30.5 113.5 -30.5
c67.333 0 122.166 20.167 164.499 60.5s63.5 92.5 63.5 156.5c0 42.667 -11.5 76.167 -34.5 100.5s-54.5 36.5 -94.5 36.5c-17.333 0 -35 -1.66699 -53 -5s-27.667 -5 -29 -5c-3.33301 0 -6.33301 1.83301 -9 5.5s-4 7.83398 -4 12.501c0 8.66699 9.66699 17 29 25
s34.333 15.667 45 23c32.667 21.333 57.167 44.666 73.5 69.999s24.5 52.333 24.5 81c0 34.667 -12 63.167 -36 85.5s-54.333 33.5 -91 33.5c-38 0 -75.333 -12.667 -112 -38s-57.334 -38 -62.001 -38s-8.16699 1.16699 -10.5 3.5s-3.5 5.83301 -3.5 10.5
c0 23.333 26.5 50.666 79.5 81.999s110.5 47 172.5 47c56 0 101.667 -13.333 137 -40s53 -61 53 -103c0 -30.667 -10.333 -59.167 -31 -85.5s-55.334 -54.5 -104.001 -84.5z" />
    <glyph glyph-name="questiondown" unicode="&#xbf;" horiz-adv-x="784" 
d="M410 1440c4 4 8.83301 7.00098 14.5 9.00098s12.167 3 19.5 3c6 0 12.333 -1.33301 19 -4s12 -6 16 -10l129 -131c3.33301 -3.33301 5.83301 -7.83301 7.5 -13.5s2.5 -12.834 2.5 -21.501c0 -6 -1.33301 -12.333 -4 -19s-6 -12 -10 -16l-131 -129c-4 -4 -9 -7 -15 -9
s-12.667 -3 -20 -3c-6.66699 0 -13 1.16699 -19 3.5s-11.333 5.83301 -16 10.5l-124 131c-4 4 -6.83301 8.66699 -8.5 14s-2.5 12.333 -2.5 21c0 6.66699 1.16699 13.167 3.5 19.5s5.5 11.5 9.5 15.5zM508 770.001c0 -48 -26.334 -134.668 -79.001 -260.001
s-79 -216 -79 -272c0 -43.333 11 -76.5 33 -99.5s53.333 -34.5 94 -34.5c40 0 77.333 15.5 112 46.5s56 46.5 64 46.5c6 0 11 -2.66699 15 -8s6 -11.666 6 -18.999c0 -38 -30.5 -79.167 -91.5 -123.5s-130.167 -66.5 -207.5 -66.5c-80.667 0 -145.167 21.167 -193.5 63.5
s-72.5 98.166 -72.5 167.499c0 77.333 56.333 186.333 169 327l29 35c48 60 79.5 106 94.5 138s22.5 64.667 22.5 98c0 14 -1.33301 30.333 -4 49s-4 30.334 -4 35.001c0 7.33301 2.33301 13.666 7 18.999s10.334 8 17.001 8c17.333 0 33 -15.167 47 -45.5
s21 -65.166 21 -104.499z" />
    <glyph glyph-name="Agrave" unicode="&#xc0;" horiz-adv-x="1556" 
d="M602 604l235.999 -0.000976562c21.333 0 37.5 2.33301 48.5 7s16.5 11.334 16.5 20.001c0 4 -1.66699 11.833 -5 23.5s-7.66602 24.167 -12.999 37.5l-146 347c-4.66699 12 -9.66699 21.333 -15 28s-10.333 10 -15 10c-6 0 -11.667 -2.66699 -17 -8
s-10 -12.666 -14 -21.999l-154 -361c-4 -10 -7.33301 -19.833 -10 -29.5s-4 -16.834 -4 -21.501c0 -12 6 -20.167 18 -24.5s36.667 -6.5 74 -6.5zM237.999 280.999l515.999 1161v1c8 18 18.667 27 32 27c7.33301 0 14.5 -3.33301 21.5 -10s12.833 -15.334 17.5 -26.001
l523 -1221c16.667 -39.333 34.167 -68.5 52.5 -87.5s41.5 -33.5 69.5 -43.5c5.33301 -2 13.333 -4.33301 24 -7c2.66699 -0.666992 4.33398 -1 5.00098 -1l1 -1c30.667 -9.33301 46 -25.333 46 -48c0 -16 -2.16699 -26.5 -6.5 -31.5s-14.5 -7.5 -30.5 -7.5
c-10.667 0 -48.167 3 -112.5 9s-122.833 9 -175.5 9c-75.333 0 -152.333 -5.66699 -231 -17c-16 -2 -25.667 -3 -29 -3c-9.33301 0 -17.166 4 -23.499 12s-9.5 18.333 -9.5 31c0 13.333 15.333 27.666 46 42.999l6 3c36.667 14 61.667 29.833 75 47.5s20 39.5 20 65.5
c0 14 -1.66699 28.833 -5 44.5s-8.33301 30.834 -15 45.501l-58 138c-14.667 36 -29.834 59.667 -45.501 71s-47.5 17 -95.5 17h-22h-267c-58.667 0 -96.667 -6 -114 -18s-32.333 -35.333 -45 -70l-56 -156c-5.33301 -14.667 -9.33301 -27.667 -12 -39
s-4 -21.666 -4 -30.999c0 -30 11.5 -54.5 34.5 -73.5s58.5 -33.167 106.5 -42.5c0.666992 -0.666992 1.66699 -1.16699 3 -1.5s3.66602 -0.5 6.99902 -0.5c30.667 -6 50.334 -12.167 59.001 -18.5s13 -15.166 13 -26.499c0 -14.667 -4 -25.5 -12 -32.5
s-19.667 -10.5 -35 -10.5c-6.66699 0 -39.667 3.33301 -99 10s-114.333 10 -165 10c-39.333 0 -78.666 -3 -117.999 -9s-59.333 -9 -60 -9c-14.667 0 -25.834 3.5 -33.501 10.5s-11.5 17.167 -11.5 30.5c0 18.667 15 34 45 46c18 6.66699 31.667 13 41 19
c22 14.667 41.833 34.834 59.5 60.501s40.167 69.167 67.5 130.5zM953.998 1571l-74 0.000976562l-301 184c-32 20 -54 37.167 -66 51.5s-18 30.833 -18 49.5c0 21.333 7.5 39.666 22.5 54.999s32.833 23 53.5 23c16 0 33.333 -5.5 52 -16.5s37 -26.167 55 -45.5z" />
    <glyph glyph-name="Aacute" unicode="&#xc1;" horiz-adv-x="1556" 
d="M602 604l235.999 -0.000976562c21.333 0 37.5 2.33301 48.5 7s16.5 11.334 16.5 20.001c0 4 -1.66699 11.833 -5 23.5s-7.66602 24.167 -12.999 37.5l-146 347c-4.66699 12 -9.66699 21.333 -15 28s-10.333 10 -15 10c-6 0 -11.667 -2.66699 -17 -8
s-10 -12.666 -14 -21.999l-154 -361c-4 -10 -7.33301 -19.833 -10 -29.5s-4 -16.834 -4 -21.501c0 -12 6 -20.167 18 -24.5s36.667 -6.5 74 -6.5zM237.999 280.999l515.999 1161v1c8 18 18.667 27 32 27c7.33301 0 14.5 -3.33301 21.5 -10s12.833 -15.334 17.5 -26.001
l523 -1221c16.667 -39.333 34.167 -68.5 52.5 -87.5s41.5 -33.5 69.5 -43.5c5.33301 -2 13.333 -4.33301 24 -7c2.66699 -0.666992 4.33398 -1 5.00098 -1l1 -1c30.667 -9.33301 46 -25.333 46 -48c0 -16 -2.16699 -26.5 -6.5 -31.5s-14.5 -7.5 -30.5 -7.5
c-10.667 0 -48.167 3 -112.5 9s-122.833 9 -175.5 9c-75.333 0 -152.333 -5.66699 -231 -17c-16 -2 -25.667 -3 -29 -3c-9.33301 0 -17.166 4 -23.499 12s-9.5 18.333 -9.5 31c0 13.333 15.333 27.666 46 42.999l6 3c36.667 14 61.667 29.833 75 47.5s20 39.5 20 65.5
c0 14 -1.66699 28.833 -5 44.5s-8.33301 30.834 -15 45.501l-58 138c-14.667 36 -29.834 59.667 -45.501 71s-47.5 17 -95.5 17h-22h-267c-58.667 0 -96.667 -6 -114 -18s-32.333 -35.333 -45 -70l-56 -156c-5.33301 -14.667 -9.33301 -27.667 -12 -39
s-4 -21.666 -4 -30.999c0 -30 11.5 -54.5 34.5 -73.5s58.5 -33.167 106.5 -42.5c0.666992 -0.666992 1.66699 -1.16699 3 -1.5s3.66602 -0.5 6.99902 -0.5c30.667 -6 50.334 -12.167 59.001 -18.5s13 -15.166 13 -26.499c0 -14.667 -4 -25.5 -12 -32.5
s-19.667 -10.5 -35 -10.5c-6.66699 0 -39.667 3.33301 -99 10s-114.333 10 -165 10c-39.333 0 -78.666 -3 -117.999 -9s-59.333 -9 -60 -9c-14.667 0 -25.834 3.5 -33.501 10.5s-11.5 17.167 -11.5 30.5c0 18.667 15 34 45 46c18 6.66699 31.667 13 41 19
c22 14.667 41.833 34.834 59.5 60.501s40.167 69.167 67.5 130.5zM601.998 1571l276 300.999c18 19.333 36.333 34.5 55 45.5s36 16.5 52 16.5c20.667 0 38.5 -7.66699 53.5 -23s22.5 -33.666 22.5 -54.999c0 -18.667 -6 -35.167 -18 -49.5s-34 -31.5 -66 -51.5l-301 -184
h-74z" />
    <glyph glyph-name="Acircumflex" unicode="&#xc2;" horiz-adv-x="1556" 
d="M602 604l235.999 -0.000976562c21.333 0 37.5 2.33301 48.5 7s16.5 11.334 16.5 20.001c0 4 -1.66699 11.833 -5 23.5s-7.66602 24.167 -12.999 37.5l-146 347c-4.66699 12 -9.66699 21.333 -15 28s-10.333 10 -15 10c-6 0 -11.667 -2.66699 -17 -8
s-10 -12.666 -14 -21.999l-154 -361c-4 -10 -7.33301 -19.833 -10 -29.5s-4 -16.834 -4 -21.501c0 -12 6 -20.167 18 -24.5s36.667 -6.5 74 -6.5zM237.999 280.999l515.999 1161v1c8 18 18.667 27 32 27c7.33301 0 14.5 -3.33301 21.5 -10s12.833 -15.334 17.5 -26.001
l523 -1221c16.667 -39.333 34.167 -68.5 52.5 -87.5s41.5 -33.5 69.5 -43.5c5.33301 -2 13.333 -4.33301 24 -7c2.66699 -0.666992 4.33398 -1 5.00098 -1l1 -1c30.667 -9.33301 46 -25.333 46 -48c0 -16 -2.16699 -26.5 -6.5 -31.5s-14.5 -7.5 -30.5 -7.5
c-10.667 0 -48.167 3 -112.5 9s-122.833 9 -175.5 9c-75.333 0 -152.333 -5.66699 -231 -17c-16 -2 -25.667 -3 -29 -3c-9.33301 0 -17.166 4 -23.499 12s-9.5 18.333 -9.5 31c0 13.333 15.333 27.666 46 42.999l6 3c36.667 14 61.667 29.833 75 47.5s20 39.5 20 65.5
c0 14 -1.66699 28.833 -5 44.5s-8.33301 30.834 -15 45.501l-58 138c-14.667 36 -29.834 59.667 -45.501 71s-47.5 17 -95.5 17h-22h-267c-58.667 0 -96.667 -6 -114 -18s-32.333 -35.333 -45 -70l-56 -156c-5.33301 -14.667 -9.33301 -27.667 -12 -39
s-4 -21.666 -4 -30.999c0 -30 11.5 -54.5 34.5 -73.5s58.5 -33.167 106.5 -42.5c0.666992 -0.666992 1.66699 -1.16699 3 -1.5s3.66602 -0.5 6.99902 -0.5c30.667 -6 50.334 -12.167 59.001 -18.5s13 -15.166 13 -26.499c0 -14.667 -4 -25.5 -12 -32.5
s-19.667 -10.5 -35 -10.5c-6.66699 0 -39.667 3.33301 -99 10s-114.333 10 -165 10c-39.333 0 -78.666 -3 -117.999 -9s-59.333 -9 -60 -9c-14.667 0 -25.834 3.5 -33.501 10.5s-11.5 17.167 -11.5 30.5c0 18.667 15 34 45 46c18 6.66699 31.667 13 41 19
c22 14.667 41.833 34.834 59.5 60.501s40.167 69.167 67.5 130.5zM482.998 1571l227 350h134l229 -350h-74l-221 197l-221 -197h-74z" />
    <glyph glyph-name="Atilde" unicode="&#xc3;" horiz-adv-x="1556" 
d="M602 604l235.999 -0.000976562c21.333 0 37.5 2.33301 48.5 7s16.5 11.334 16.5 20.001c0 4 -1.66699 11.833 -5 23.5s-7.66602 24.167 -12.999 37.5l-146 347c-4.66699 12 -9.66699 21.333 -15 28s-10.333 10 -15 10c-6 0 -11.667 -2.66699 -17 -8
s-10 -12.666 -14 -21.999l-154 -361c-4 -10 -7.33301 -19.833 -10 -29.5s-4 -16.834 -4 -21.501c0 -12 6 -20.167 18 -24.5s36.667 -6.5 74 -6.5zM237.999 280.999l515.999 1161v1c8 18 18.667 27 32 27c7.33301 0 14.5 -3.33301 21.5 -10s12.833 -15.334 17.5 -26.001
l523 -1221c16.667 -39.333 34.167 -68.5 52.5 -87.5s41.5 -33.5 69.5 -43.5c5.33301 -2 13.333 -4.33301 24 -7c2.66699 -0.666992 4.33398 -1 5.00098 -1l1 -1c30.667 -9.33301 46 -25.333 46 -48c0 -16 -2.16699 -26.5 -6.5 -31.5s-14.5 -7.5 -30.5 -7.5
c-10.667 0 -48.167 3 -112.5 9s-122.833 9 -175.5 9c-75.333 0 -152.333 -5.66699 -231 -17c-16 -2 -25.667 -3 -29 -3c-9.33301 0 -17.166 4 -23.499 12s-9.5 18.333 -9.5 31c0 13.333 15.333 27.666 46 42.999l6 3c36.667 14 61.667 29.833 75 47.5s20 39.5 20 65.5
c0 14 -1.66699 28.833 -5 44.5s-8.33301 30.834 -15 45.501l-58 138c-14.667 36 -29.834 59.667 -45.501 71s-47.5 17 -95.5 17h-22h-267c-58.667 0 -96.667 -6 -114 -18s-32.333 -35.333 -45 -70l-56 -156c-5.33301 -14.667 -9.33301 -27.667 -12 -39
s-4 -21.666 -4 -30.999c0 -30 11.5 -54.5 34.5 -73.5s58.5 -33.167 106.5 -42.5c0.666992 -0.666992 1.66699 -1.16699 3 -1.5s3.66602 -0.5 6.99902 -0.5c30.667 -6 50.334 -12.167 59.001 -18.5s13 -15.166 13 -26.499c0 -14.667 -4 -25.5 -12 -32.5
s-19.667 -10.5 -35 -10.5c-6.66699 0 -39.667 3.33301 -99 10s-114.333 10 -165 10c-39.333 0 -78.666 -3 -117.999 -9s-59.333 -9 -60 -9c-14.667 0 -25.834 3.5 -33.501 10.5s-11.5 17.167 -11.5 30.5c0 18.667 15 34 45 46c18 6.66699 31.667 13 41 19
c22 14.667 41.833 34.834 59.5 60.501s40.167 69.167 67.5 130.5zM1061 1888c-14.667 -74 -38.167 -130.334 -70.5 -169.001s-73.166 -58 -122.499 -58c-8.66699 0 -17.334 0.5 -26.001 1.5s-17.667 2.5 -27 4.5l-107 27c-11.333 2.66699 -21.5 4.66699 -30.5 6
s-16.5 2 -22.5 2c-28 0 -49.5 -6.5 -64.5 -19.5s-27.5 -36.5 -37.5 -70.5h-58c14.667 76 38.5 133.5 71.5 172.5s74.833 58.5 125.5 58.5c8.66699 0 18.667 -0.666992 30 -2s22.333 -3.33301 33 -6l110 -27c7.33301 -1.33301 15.333 -2.66602 24 -3.99902
s17.334 -2 26.001 -2c23.333 0 42.166 7.16699 56.499 21.5s24.833 35.833 31.5 64.5h58z" />
    <glyph glyph-name="Adieresis" unicode="&#xc4;" horiz-adv-x="1556" 
d="M602 604l235.999 -0.000976562c21.333 0 37.5 2.33301 48.5 7s16.5 11.334 16.5 20.001c0 4 -1.66699 11.833 -5 23.5s-7.66602 24.167 -12.999 37.5l-146 347c-4.66699 12 -9.66699 21.333 -15 28s-10.333 10 -15 10c-6 0 -11.667 -2.66699 -17 -8
s-10 -12.666 -14 -21.999l-154 -361c-4 -10 -7.33301 -19.833 -10 -29.5s-4 -16.834 -4 -21.501c0 -12 6 -20.167 18 -24.5s36.667 -6.5 74 -6.5zM237.999 280.999l515.999 1161v1c8 18 18.667 27 32 27c7.33301 0 14.5 -3.33301 21.5 -10s12.833 -15.334 17.5 -26.001
l523 -1221c16.667 -39.333 34.167 -68.5 52.5 -87.5s41.5 -33.5 69.5 -43.5c5.33301 -2 13.333 -4.33301 24 -7c2.66699 -0.666992 4.33398 -1 5.00098 -1l1 -1c30.667 -9.33301 46 -25.333 46 -48c0 -16 -2.16699 -26.5 -6.5 -31.5s-14.5 -7.5 -30.5 -7.5
c-10.667 0 -48.167 3 -112.5 9s-122.833 9 -175.5 9c-75.333 0 -152.333 -5.66699 -231 -17c-16 -2 -25.667 -3 -29 -3c-9.33301 0 -17.166 4 -23.499 12s-9.5 18.333 -9.5 31c0 13.333 15.333 27.666 46 42.999l6 3c36.667 14 61.667 29.833 75 47.5s20 39.5 20 65.5
c0 14 -1.66699 28.833 -5 44.5s-8.33301 30.834 -15 45.501l-58 138c-14.667 36 -29.834 59.667 -45.501 71s-47.5 17 -95.5 17h-22h-267c-58.667 0 -96.667 -6 -114 -18s-32.333 -35.333 -45 -70l-56 -156c-5.33301 -14.667 -9.33301 -27.667 -12 -39
s-4 -21.666 -4 -30.999c0 -30 11.5 -54.5 34.5 -73.5s58.5 -33.167 106.5 -42.5c0.666992 -0.666992 1.66699 -1.16699 3 -1.5s3.66602 -0.5 6.99902 -0.5c30.667 -6 50.334 -12.167 59.001 -18.5s13 -15.166 13 -26.499c0 -14.667 -4 -25.5 -12 -32.5
s-19.667 -10.5 -35 -10.5c-6.66699 0 -39.667 3.33301 -99 10s-114.333 10 -165 10c-39.333 0 -78.666 -3 -117.999 -9s-59.333 -9 -60 -9c-14.667 0 -25.834 3.5 -33.501 10.5s-11.5 17.167 -11.5 30.5c0 18.667 15 34 45 46c18 6.66699 31.667 13 41 19
c22 14.667 41.833 34.834 59.5 60.501s40.167 69.167 67.5 130.5zM984.998 1612c-2.66699 -2.66699 -6.00293 -4.66797 -10.0029 -6.00098s-9 -2 -15 -2c-5.33301 0 -10.166 0.833008 -14.499 2.5s-8.16602 4.16699 -11.499 7.5l-90 94
c-3.33301 2.66699 -5.66602 6 -6.99902 10s-2 9 -2 15c0 4.66699 1 9 3 13s4.66699 7.66699 8 11l94 93c2.66699 2.66699 6 4.66699 10 6s8.66699 2 14 2c6 0 11 -0.666992 15 -2s7.33301 -3.33301 10 -6l90 -95c2.66699 -2.66699 4.66699 -6.16699 6 -10.5s2 -9.5 2 -15.5
c0 -4.66699 -0.833008 -9.16699 -2.5 -13.5s-4.16699 -8.16602 -7.5 -11.499zM615.995 1612c-2.66699 -2.66699 -6.00098 -4.66797 -10.001 -6.00098s-8.66699 -2 -14 -2c-4.66699 0 -9.16699 0.833008 -13.5 2.5s-8.16602 4.16699 -11.499 7.5l-92 94
c-2.66699 2.66699 -4.66699 6 -6 10s-2 9 -2 15c0 4.66699 0.833008 9 2.5 13s4.16699 7.66699 7.5 11l96 93c2.66699 2.66699 6 4.66699 10 6s9 2 15 2c5.33301 0 10 -0.666992 14 -2s7.33301 -3.33301 10 -6l88 -95c3.33301 -2.66699 6 -6.5 8 -11.5s3 -9.83301 3 -14.5
s-1 -9.16699 -3 -13.5s-4.66699 -8.16602 -8 -11.499z" />
    <glyph glyph-name="Aring" unicode="&#xc5;" horiz-adv-x="1556" 
d="M647 1735c0 -38.667 13 -71 39 -97s58 -39 96 -39c37.333 0 69.333 13.167 96 39.5s40 58.5 40 96.5c0 37.333 -13.333 69.166 -40 95.499s-58.667 39.5 -96 39.5c-38 0 -70 -13.167 -96 -39.5s-39 -58.166 -39 -95.499zM545 1735c0 66 22.833 122 68.5 168
s101.834 69 168.501 69c66 0 122.167 -23 168.5 -69s69.5 -102 69.5 -168c0 -66.667 -23.167 -123 -69.5 -169s-102.5 -69 -168.5 -69c-66.667 0 -122.834 23 -168.501 69s-68.5 102.333 -68.5 169zM602 604l235.999 -0.000976562c21.333 0 37.5 2.33301 48.5 7
s16.5 11.334 16.5 20.001c0 4 -1.66699 11.833 -5 23.5s-7.66602 24.167 -12.999 37.5l-146 347c-4.66699 12 -9.66699 21.333 -15 28s-10.333 10 -15 10c-6 0 -11.667 -2.66699 -17 -8s-10 -12.666 -14 -21.999l-154 -361c-4 -10 -7.33301 -19.833 -10 -29.5
s-4 -16.834 -4 -21.501c0 -12 6 -20.167 18 -24.5s36.667 -6.5 74 -6.5zM237.999 280.999l515.998 1161v1c8 18 18.667 27 32 27c7.33301 0 14.5 -3.33301 21.5 -10s12.833 -15.334 17.5 -26.001l523 -1221c16.667 -39.333 34.167 -68.5 52.5 -87.5s41.5 -33.5 69.5 -43.5
c5.33301 -2 13.333 -4.33301 24 -7c2.66699 -0.666992 4.33398 -1 5.00098 -1l1 -1c30.667 -9.33301 46 -25.333 46 -48c0 -16 -2.16699 -26.5 -6.5 -31.5s-14.5 -7.5 -30.5 -7.5c-10.667 0 -48.167 3 -112.5 9s-122.833 9 -175.5 9c-75.333 0 -152.333 -5.66699 -231 -17
c-16 -2 -25.667 -3 -29 -3c-9.33301 0 -17.166 4 -23.499 12s-9.5 18.333 -9.5 31c0 13.333 15.333 27.666 46 42.999l6 3c36.667 14 61.667 29.833 75 47.5s20 39.5 20 65.5c0 14 -1.66699 28.833 -5 44.5s-8.33301 30.834 -15 45.501l-58 138
c-14.667 36 -29.834 59.667 -45.501 71s-47.5 17 -95.5 17h-22h-267c-58.667 0 -96.667 -6 -114 -18s-32.333 -35.333 -45 -70l-56 -156c-5.33301 -14.667 -9.33301 -27.667 -12 -39s-4 -21.666 -4 -30.999c0 -30 11.5 -54.5 34.5 -73.5s58.5 -33.167 106.5 -42.5
c2.66699 -0.666992 6 -1.33398 10 -2.00098c48 -10 72 -25 72 -45c0 -14.667 -4 -25.5 -12 -32.5s-19.667 -10.5 -35 -10.5c-6.66699 0 -39.667 3.33301 -99 10s-114.333 10 -165 10c-39.333 0 -78.666 -3 -117.999 -9s-59.333 -9 -60 -9
c-14.667 0 -25.834 3.5 -33.501 10.5s-11.5 17.167 -11.5 30.5c0 18.667 14.667 34 44 46l1 1c6.66699 2 13.334 4.5 20.001 7.5s13.667 6.5 21 10.5c22 14.667 41.833 34.834 59.5 60.501s40.167 69.167 67.5 130.5z" />
    <glyph glyph-name="AE" unicode="&#xc6;" horiz-adv-x="1913" 
d="M512 612h399.001c10.667 0 18.834 3.16699 24.501 9.5s8.5 15.5 8.5 27.5v627c0 17.333 -1.16699 27.833 -3.5 31.5s-6.5 5.5 -12.5 5.5c-4.66699 0 -8.83398 -1.33301 -12.501 -4s-7.83398 -7.66699 -12.501 -15l-412 -629c-2.66699 -4.66699 -5 -9.5 -7 -14.5
s-3 -9.5 -3 -13.5c0 -8 2.66699 -14.167 8 -18.5s13 -6.5 23 -6.5zM944.001 463c0 12 -4.49805 22.166 -13.498 30.499s-20.833 12.5 -35.5 12.5h-442c-27.333 0 -47.166 -3.16699 -59.499 -9.5s-23.5 -18.166 -33.5 -35.499l-116 -192c-6 -10 -11 -22.667 -15 -38
s-6 -30.333 -6 -45c0 -24 8.83301 -43.667 26.5 -59s49.167 -29.666 94.5 -42.999c10.667 -3.33301 25 -7 43 -11c31.333 -7.33301 47 -22 47 -44c0 -16 -4.16699 -27.167 -12.5 -33.5s-23.166 -9.5 -44.499 -9.5c-2 0 -32.667 3 -92 9s-117.333 9 -174 9
c-44.667 0 -91.334 -3.33301 -140.001 -10c-12 -1.33301 -20 -2 -24 -2c-16.667 0 -27.667 2.5 -33 7.5s-8 14.833 -8 29.5c0 20 11.5 34.833 34.5 44.5s41.5 20.834 55.5 33.501c14.667 12.667 33.334 34.5 56.001 65.5s62 89.5 118 175.5l592 914
c6 8.66699 10.5 17.167 13.5 25.5s4.5 16.166 4.5 23.499c0 12.667 -4.16699 22.5 -12.5 29.5s-24.166 12.167 -47.499 15.5l-4 1c-33.333 7.33301 -50 21.333 -50 42c0 14 2.66699 24 8 30s14.666 9 27.999 9c2 0 8.33301 -0.666992 19 -2c124 -10 277.667 -15 461 -15
c106 0 217.5 2.83301 334.5 8.5s180.833 8.5 191.5 8.5c30.667 0 50.334 -4 59.001 -12s13 -24.667 13 -50l2 -190v-39c0 -17.333 -2.33301 -28.5 -7 -33.5s-13.334 -7.5 -26.001 -7.5c-22 0 -34.5 15.667 -37.5 47s-8.16699 55 -15.5 71
c-20.667 43.333 -56.667 73.666 -108 90.999s-129.333 26 -234 26c-62 0 -105.167 -8.66699 -129.5 -26s-36.5 -48 -36.5 -92v-320c0 -31.333 6.5 -53.5 19.5 -66.5s35.167 -19.5 66.5 -19.5h67c46.667 0 83.667 5.33301 111 16s50.666 28.667 69.999 54
c8.66699 12 20.5 34.833 35.5 68.5s31.833 50.5 50.5 50.5c10.667 0 19 -4.16699 25 -12.5s9 -19.166 9 -32.499c0 -0.666992 -1.33301 -14.5 -4 -41.5s-4 -54.167 -4 -81.5c0 -62 2.5 -125.5 7.5 -190.5s7.5 -98.5 7.5 -100.5c0 -14.667 -2.66699 -25.5 -8 -32.5
s-13.666 -10.5 -24.999 -10.5c-22 0 -36 18.333 -42 55c-4 24 -8.33301 43 -13 57c-15.333 40 -37.833 67.833 -67.5 83.5s-76.167 23.5 -139.5 23.5h-80c-33.333 0 -56 -7.16699 -68 -21.5s-18 -45.5 -18 -93.5v-319c0 -84.667 10.667 -137.334 32 -158.001
s65.333 -31 132 -31c68 0 135.167 10.833 201.5 32.5s120.5 50.5 162.5 86.5c29.333 24.667 54.666 55.167 75.999 91.5s38.333 54.5 51 54.5c8.66699 0 16 -4 22 -12s9 -17.667 9 -29c0 -26.667 -7.83301 -62.667 -23.5 -108s-34.5 -84 -56.5 -116
c-27.333 -40 -63.833 -69.667 -109.5 -89s-100.5 -29 -164.5 -29c-26.667 0 -74.5 3.66699 -143.5 11s-125.167 11 -168.5 11c-102.667 0 -213.334 -6 -332.001 -18c-31.333 -2.66699 -51 -4 -59 -4c-14.667 0 -26.5 3.5 -35.5 10.5s-13.5 16.167 -13.5 27.5
c0 13.333 3.33301 24 10 32s21.667 17.333 45 28c3.33301 2 9.66602 5.33301 18.999 10s16.333 8.33398 21 11.001c27.333 17.333 47.666 41.666 60.999 72.999s20 71 20 119v170z" />
    <glyph glyph-name="Ccedilla" unicode="&#xc7;" horiz-adv-x="1475" 
d="M61 670c0 101.333 16.666 199.166 49.999 293.499s81 178.833 143 253.5c67.333 79.333 145.5 139.666 234.5 180.999s185.5 62 289.5 62c128.667 0 261.667 -34 399 -102c30.667 -15.333 49.334 -23 56.001 -23c15.333 0 28 10.667 38 32s21.333 32 34 32
c23.333 -0.666992 35.333 -23.667 36 -69v-23c3.33301 -71.333 9.33301 -144.333 18 -219s13 -113.667 13 -117c0 -12.667 -2.33301 -22 -7 -28s-12 -9 -22 -9c-16.667 0 -35.667 21.5 -57 64.5s-44.333 82.167 -69 117.5c-59.333 82.667 -130.333 147 -213 193
s-169 69 -259 69c-126 0 -229.833 -54.167 -311.5 -162.5s-122.5 -249.166 -122.5 -422.499c0 -76.667 10.167 -151.5 30.5 -224.5s49.166 -139.5 86.499 -199.5c52.667 -85.333 114 -149.666 184 -192.999s148 -65 234 -65c66.667 0 134.167 14 202.5 42
s131.833 67.667 190.5 119c16.667 15.333 37.667 38 63 68s45.333 45 60 45c8.66699 0 15.334 -2.66699 20.001 -8s7 -13 7 -23c0 -17.333 -12.333 -43.5 -37 -78.5s-57.667 -72.167 -99 -111.5c-70 -67.333 -148.333 -118 -235 -152s-181 -51 -283 -51
c-200 0 -362.333 65.5 -487 196.5s-187 301.833 -187 512.5zM466.999 -379l37.0029 90c38.667 -24.667 78.167 -43.834 118.5 -57.501s77.833 -20.5 112.5 -20.5c38 0 66 7.33301 84 22s27 37.667 27 69c0 28.667 -9.33301 50.167 -28 64.5s-46.334 21.5 -83.001 21.5
c-2.66699 0 -8.16699 -0.5 -16.5 -1.5s-22.5 -2.83301 -42.5 -5.5v197h65v-115c10.667 1.33301 21.167 2.33301 31.5 3s23.166 1 38.499 1c53.333 0 96.333 -15.167 129 -45.5s49 -70.166 49 -119.499c0 -56 -19.833 -99.833 -59.5 -131.5s-94.834 -47.5 -165.501 -47.5
c-38.667 0 -81.167 5.83301 -127.5 17.5s-102.833 31.167 -169.5 58.5z" />
    <glyph glyph-name="Egrave" unicode="&#xc8;" horiz-adv-x="1196" 
d="M229 1096c0 68 -4.00391 115.335 -12.0039 142.002s-22.333 49.667 -43 69c-12.667 11.333 -27.167 20.333 -43.5 27s-39.5 12 -69.5 16h-2c-42 7.33301 -63 22.333 -63 45c0 13.333 4.66699 23.833 14 31.5s22.333 11.5 39 11.5c2.66699 0 12 -0.666992 28 -2
c104.667 -10 213.334 -15 326.001 -15c116.667 0 239.334 2.5 368.001 7.5s199.334 7.5 212.001 7.5c38 0 61.167 -4.33301 69.5 -13s12.5 -28.334 12.5 -59.001v-43c0 -48.667 0.666992 -99.667 2 -153v-21c0 -17.333 -2.16699 -28.5 -6.5 -33.5s-13.166 -7.5 -26.499 -7.5
c-22 0 -34.5 15.833 -37.5 47.5s-8.16699 55.5 -15.5 71.5c-20.667 42.667 -56.667 72.667 -108 90s-129.333 26 -234 26c-62 0 -105.167 -8.66699 -129.5 -26s-36.5 -48 -36.5 -92v-320c0 -30.667 6.83301 -52.667 20.5 -66s36.167 -20 67.5 -20h66
c46.667 0 83.5 5.33301 110.5 16s50.167 28.667 69.5 54c9.33301 12.667 19.666 32 30.999 58c17.333 39.333 36.333 59 57 59c11.333 0 19.666 -3.33301 24.999 -10s8 -17.667 8 -33c0 -2.66699 -0.666992 -9 -2 -19c-4 -45.333 -6 -91 -6 -137
c0 -73.333 4.33301 -150 13 -230c2 -19.333 3 -31.333 3 -36c0 -13.333 -3 -23.166 -9 -29.499s-14.667 -9.5 -26 -9.5c-22 0 -35.667 18 -41 54c-4 26 -8.66699 46.667 -14 62c-15.333 40 -37.666 67.833 -66.999 83.5s-76 23.5 -140 23.5h-80
c-33.333 0 -56 -7.16699 -68 -21.5s-18 -45.5 -18 -93.5v-319c0 -84.667 10.667 -137.334 32 -158.001s65.333 -31 132 -31c68 0 135.167 10.833 201.5 32.5s120.5 50.5 162.5 86.5c29.333 24 55 54.333 77 91s39.333 55 52 55c8.66699 0 15.667 -3.83301 21 -11.5
s8 -17.5 8 -29.5c0 -26.667 -7.66699 -62.667 -23 -108s-34.333 -84 -57 -116c-28 -40 -63.833 -69.333 -107.5 -88s-97.834 -28 -162.501 -28c-28 0 -84.667 3 -170 9s-156.333 9 -213 9c-69.333 0 -140.166 -3 -212.499 -9s-109.5 -9 -111.5 -9
c-15.333 0 -27.333 3.16699 -36 9.5s-13 15.166 -13 26.499c0 13.333 3.33301 24 10 32s22 17.333 46 28c3.33301 2 9.33301 5.16699 18 9.5s15.334 7.83301 20.001 10.5c28.667 18 49.5 42.667 62.5 74s19.5 71 19.5 119v803zM773.996 1571l-74 0.000976562l-301 184
c-32 20 -54 37.167 -66 51.5s-18 30.833 -18 49.5c0 21.333 7.5 39.666 22.5 54.999s32.833 23 53.5 23c16 0 33.333 -5.5 52 -16.5s37 -26.167 55 -45.5z" />
    <glyph glyph-name="Eacute" unicode="&#xc9;" horiz-adv-x="1196" 
d="M229 1096c0 68 -4.00391 115.335 -12.0039 142.002s-22.333 49.667 -43 69c-12.667 11.333 -27.167 20.333 -43.5 27s-39.5 12 -69.5 16h-2c-42 7.33301 -63 22.333 -63 45c0 13.333 4.66699 23.833 14 31.5s22.333 11.5 39 11.5c2.66699 0 12 -0.666992 28 -2
c104.667 -10 213.334 -15 326.001 -15c116.667 0 239.334 2.5 368.001 7.5s199.334 7.5 212.001 7.5c38 0 61.167 -4.33301 69.5 -13s12.5 -28.334 12.5 -59.001v-43c0 -48.667 0.666992 -99.667 2 -153v-21c0 -17.333 -2.16699 -28.5 -6.5 -33.5s-13.166 -7.5 -26.499 -7.5
c-22 0 -34.5 15.833 -37.5 47.5s-8.16699 55.5 -15.5 71.5c-20.667 42.667 -56.667 72.667 -108 90s-129.333 26 -234 26c-62 0 -105.167 -8.66699 -129.5 -26s-36.5 -48 -36.5 -92v-320c0 -30.667 6.83301 -52.667 20.5 -66s36.167 -20 67.5 -20h66
c46.667 0 83.5 5.33301 110.5 16s50.167 28.667 69.5 54c9.33301 12.667 19.666 32 30.999 58c17.333 39.333 36.333 59 57 59c11.333 0 19.666 -3.33301 24.999 -10s8 -17.667 8 -33c0 -2.66699 -0.666992 -9 -2 -19c-4 -45.333 -6 -91 -6 -137
c0 -73.333 4.33301 -150 13 -230c2 -19.333 3 -31.333 3 -36c0 -13.333 -3 -23.166 -9 -29.499s-14.667 -9.5 -26 -9.5c-22 0 -35.667 18 -41 54c-4 26 -8.66699 46.667 -14 62c-15.333 40 -37.666 67.833 -66.999 83.5s-76 23.5 -140 23.5h-80
c-33.333 0 -56 -7.16699 -68 -21.5s-18 -45.5 -18 -93.5v-319c0 -84.667 10.667 -137.334 32 -158.001s65.333 -31 132 -31c68 0 135.167 10.833 201.5 32.5s120.5 50.5 162.5 86.5c29.333 24 55 54.333 77 91s39.333 55 52 55c8.66699 0 15.667 -3.83301 21 -11.5
s8 -17.5 8 -29.5c0 -26.667 -7.66699 -62.667 -23 -108s-34.333 -84 -57 -116c-28 -40 -63.833 -69.333 -107.5 -88s-97.834 -28 -162.501 -28c-28 0 -84.667 3 -170 9s-156.333 9 -213 9c-69.333 0 -140.166 -3 -212.499 -9s-109.5 -9 -111.5 -9
c-15.333 0 -27.333 3.16699 -36 9.5s-13 15.166 -13 26.499c0 13.333 3.33301 24 10 32s22 17.333 46 28c3.33301 2 9.33301 5.16699 18 9.5s15.334 7.83301 20.001 10.5c28.667 18 49.5 42.667 62.5 74s19.5 71 19.5 119v803zM421.996 1571l276 300.999
c18 19.333 36.333 34.5 55 45.5s36 16.5 52 16.5c20.667 0 38.5 -7.66699 53.5 -23s22.5 -33.666 22.5 -54.999c0 -18.667 -6 -35.167 -18 -49.5s-34 -31.5 -66 -51.5l-301 -184h-74z" />
    <glyph glyph-name="Ecircumflex" unicode="&#xca;" horiz-adv-x="1196" 
d="M229 1096c0 68 -4.00391 115.335 -12.0039 142.002s-22.333 49.667 -43 69c-12.667 11.333 -27.167 20.333 -43.5 27s-39.5 12 -69.5 16h-2c-42 7.33301 -63 22.333 -63 45c0 13.333 4.66699 23.833 14 31.5s22.333 11.5 39 11.5c2.66699 0 12 -0.666992 28 -2
c104.667 -10 213.334 -15 326.001 -15c116.667 0 239.334 2.5 368.001 7.5s199.334 7.5 212.001 7.5c38 0 61.167 -4.33301 69.5 -13s12.5 -28.334 12.5 -59.001v-43c0 -48.667 0.666992 -99.667 2 -153v-21c0 -17.333 -2.16699 -28.5 -6.5 -33.5s-13.166 -7.5 -26.499 -7.5
c-22 0 -34.5 15.833 -37.5 47.5s-8.16699 55.5 -15.5 71.5c-20.667 42.667 -56.667 72.667 -108 90s-129.333 26 -234 26c-62 0 -105.167 -8.66699 -129.5 -26s-36.5 -48 -36.5 -92v-320c0 -30.667 6.83301 -52.667 20.5 -66s36.167 -20 67.5 -20h66
c46.667 0 83.5 5.33301 110.5 16s50.167 28.667 69.5 54c9.33301 12.667 19.666 32 30.999 58c17.333 39.333 36.333 59 57 59c11.333 0 19.666 -3.33301 24.999 -10s8 -17.667 8 -33c0 -2.66699 -0.666992 -9 -2 -19c-4 -45.333 -6 -91 -6 -137
c0 -73.333 4.33301 -150 13 -230c2 -19.333 3 -31.333 3 -36c0 -13.333 -3 -23.166 -9 -29.499s-14.667 -9.5 -26 -9.5c-22 0 -35.667 18 -41 54c-4 26 -8.66699 46.667 -14 62c-15.333 40 -37.666 67.833 -66.999 83.5s-76 23.5 -140 23.5h-80
c-33.333 0 -56 -7.16699 -68 -21.5s-18 -45.5 -18 -93.5v-319c0 -84.667 10.667 -137.334 32 -158.001s65.333 -31 132 -31c68 0 135.167 10.833 201.5 32.5s120.5 50.5 162.5 86.5c29.333 24 55 54.333 77 91s39.333 55 52 55c8.66699 0 15.667 -3.83301 21 -11.5
s8 -17.5 8 -29.5c0 -26.667 -7.66699 -62.667 -23 -108s-34.333 -84 -57 -116c-28 -40 -63.833 -69.333 -107.5 -88s-97.834 -28 -162.501 -28c-28 0 -84.667 3 -170 9s-156.333 9 -213 9c-69.333 0 -140.166 -3 -212.499 -9s-109.5 -9 -111.5 -9
c-15.333 0 -27.333 3.16699 -36 9.5s-13 15.166 -13 26.499c0 13.333 3.33301 24 10 32s22 17.333 46 28c3.33301 2 9.33301 5.16699 18 9.5s15.334 7.83301 20.001 10.5c28.667 18 49.5 42.667 62.5 74s19.5 71 19.5 119v803zM302.996 1571l227 350h134l229 -350h-74
l-221 197l-221 -197h-74z" />
    <glyph glyph-name="Edieresis" unicode="&#xcb;" horiz-adv-x="1196" 
d="M229 1096c0 68 -4.00391 115.335 -12.0039 142.002s-22.333 49.667 -43 69c-12.667 11.333 -27.167 20.333 -43.5 27s-39.5 12 -69.5 16h-2c-42 7.33301 -63 22.333 -63 45c0 13.333 4.66699 23.833 14 31.5s22.333 11.5 39 11.5c2.66699 0 12 -0.666992 28 -2
c104.667 -10 213.334 -15 326.001 -15c116.667 0 239.334 2.5 368.001 7.5s199.334 7.5 212.001 7.5c38 0 61.167 -4.33301 69.5 -13s12.5 -28.334 12.5 -59.001v-43c0 -48.667 0.666992 -99.667 2 -153v-21c0 -17.333 -2.16699 -28.5 -6.5 -33.5s-13.166 -7.5 -26.499 -7.5
c-22 0 -34.5 15.833 -37.5 47.5s-8.16699 55.5 -15.5 71.5c-20.667 42.667 -56.667 72.667 -108 90s-129.333 26 -234 26c-62 0 -105.167 -8.66699 -129.5 -26s-36.5 -48 -36.5 -92v-320c0 -30.667 6.83301 -52.667 20.5 -66s36.167 -20 67.5 -20h66
c46.667 0 83.5 5.33301 110.5 16s50.167 28.667 69.5 54c9.33301 12.667 19.666 32 30.999 58c17.333 39.333 36.333 59 57 59c11.333 0 19.666 -3.33301 24.999 -10s8 -17.667 8 -33c0 -2.66699 -0.666992 -9 -2 -19c-4 -45.333 -6 -91 -6 -137
c0 -73.333 4.33301 -150 13 -230c2 -19.333 3 -31.333 3 -36c0 -13.333 -3 -23.166 -9 -29.499s-14.667 -9.5 -26 -9.5c-22 0 -35.667 18 -41 54c-4 26 -8.66699 46.667 -14 62c-15.333 40 -37.666 67.833 -66.999 83.5s-76 23.5 -140 23.5h-80
c-33.333 0 -56 -7.16699 -68 -21.5s-18 -45.5 -18 -93.5v-319c0 -84.667 10.667 -137.334 32 -158.001s65.333 -31 132 -31c68 0 135.167 10.833 201.5 32.5s120.5 50.5 162.5 86.5c29.333 24 55 54.333 77 91s39.333 55 52 55c8.66699 0 15.667 -3.83301 21 -11.5
s8 -17.5 8 -29.5c0 -26.667 -7.66699 -62.667 -23 -108s-34.333 -84 -57 -116c-28 -40 -63.833 -69.333 -107.5 -88s-97.834 -28 -162.501 -28c-28 0 -84.667 3 -170 9s-156.333 9 -213 9c-69.333 0 -140.166 -3 -212.499 -9s-109.5 -9 -111.5 -9
c-15.333 0 -27.333 3.16699 -36 9.5s-13 15.166 -13 26.499c0 13.333 3.33301 24 10 32s22 17.333 46 28c3.33301 2 9.33301 5.16699 18 9.5s15.334 7.83301 20.001 10.5c28.667 18 49.5 42.667 62.5 74s19.5 71 19.5 119v803zM804.996 1612
c-2.66699 -2.66699 -6.00293 -4.66797 -10.0029 -6.00098s-9 -2 -15 -2c-5.33301 0 -10.166 0.833008 -14.499 2.5s-8.16602 4.16699 -11.499 7.5l-90 94c-3.33301 2.66699 -5.66602 6 -6.99902 10s-2 9 -2 15c0 4.66699 1 9 3 13s4.66699 7.66699 8 11l94 93
c2.66699 2.66699 6 4.66699 10 6s8.66699 2 14 2c6 0 11 -0.666992 15 -2s7.33301 -3.33301 10 -6l90 -95c2.66699 -2.66699 4.66699 -6.16699 6 -10.5s2 -9.5 2 -15.5c0 -4.66699 -0.833008 -9.16699 -2.5 -13.5s-4.16699 -8.16602 -7.5 -11.499zM435.993 1612
c-2.66699 -2.66699 -6.00098 -4.66797 -10.001 -6.00098s-8.66699 -2 -14 -2c-4.66699 0 -9.16699 0.833008 -13.5 2.5s-8.16602 4.16699 -11.499 7.5l-92 94c-2.66699 2.66699 -4.66699 6 -6 10s-2 9 -2 15c0 4.66699 0.833008 9 2.5 13s4.16699 7.66699 7.5 11l96 93
c2.66699 2.66699 6 4.66699 10 6s9 2 15 2c5.33301 0 10 -0.666992 14 -2s7.33301 -3.33301 10 -6l88 -95c3.33301 -2.66699 6 -6.5 8 -11.5s3 -9.83301 3 -14.5s-1 -9.16699 -3 -13.5s-4.66699 -8.16602 -8 -11.499z" />
    <glyph glyph-name="Igrave" unicode="&#xcc;" horiz-adv-x="725" 
d="M240 1096c0 76 -4.16797 126.832 -12.501 152.499s-23.5 47.167 -45.5 64.5c-22 15.333 -55.667 27.333 -101 36c-2 0 -4 0.333008 -6 1c-28 2.66699 -46.5 7.33398 -55.5 14.001s-13.5 17 -13.5 31c0 13.333 4.5 23.833 13.5 31.5s21.5 11.5 37.5 11.5c4 0 13 -1 27 -3
c60 -8 117.333 -12 172 -12c124.667 0 236.667 5 336 15c11.333 1.33301 18 2 20 2c14 0 24.667 -3.33301 32 -10s11 -16.334 11 -29.001c0 -20 -17.167 -35 -51.5 -45s-58.166 -21.667 -71.499 -35c-16.667 -16.667 -28.667 -40.334 -36 -71.001s-11 -75.334 -11 -134.001
v-817c0 -58 8.66699 -104 26 -138s43.666 -57 78.999 -69c11.333 -3.33301 29.333 -7.33301 54 -12c4.66699 -1.33301 7.66699 -2 9 -2c32 -5.33301 52.667 -11.5 62 -18.5s14 -17.167 14 -30.5c0 -15.333 -4.66699 -26.666 -14 -33.999s-23.666 -11 -42.999 -11
c-15.333 0 -54.666 3 -117.999 9s-119 9 -167 9c-48.667 0 -103.667 -3 -165 -9s-97.666 -9 -108.999 -9c-15.333 0 -27.5 3.33301 -36.5 10s-13.5 15.334 -13.5 26.001c0 13.333 3.5 24 10.5 32s23.5 17.333 49.5 28c6 3.33301 14.167 7.5 24.5 12.5
s17.166 8.16699 20.499 9.5c23.333 12.667 41.166 35.334 53.499 68.001s18.5 73.667 18.5 123v803zM537.999 1571l-74 0.000976562l-301 184c-32 20 -54 37.167 -66 51.5s-18 30.833 -18 49.5c0 21.333 7.5 39.666 22.5 54.999s32.833 23 53.5 23
c16 0 33.333 -5.5 52 -16.5s37 -26.167 55 -45.5z" />
    <glyph glyph-name="Iacute" unicode="&#xcd;" horiz-adv-x="725" 
d="M240 1096c0 76 -4.16797 126.832 -12.501 152.499s-23.5 47.167 -45.5 64.5c-22 15.333 -55.667 27.333 -101 36c-2 0 -4 0.333008 -6 1c-28 2.66699 -46.5 7.33398 -55.5 14.001s-13.5 17 -13.5 31c0 13.333 4.5 23.833 13.5 31.5s21.5 11.5 37.5 11.5c4 0 13 -1 27 -3
c60 -8 117.333 -12 172 -12c124.667 0 236.667 5 336 15c11.333 1.33301 18 2 20 2c14 0 24.667 -3.33301 32 -10s11 -16.334 11 -29.001c0 -20 -17.167 -35 -51.5 -45s-58.166 -21.667 -71.499 -35c-16.667 -16.667 -28.667 -40.334 -36 -71.001s-11 -75.334 -11 -134.001
v-817c0 -58 8.66699 -104 26 -138s43.666 -57 78.999 -69c11.333 -3.33301 29.333 -7.33301 54 -12c4.66699 -1.33301 7.66699 -2 9 -2c32 -5.33301 52.667 -11.5 62 -18.5s14 -17.167 14 -30.5c0 -15.333 -4.66699 -26.666 -14 -33.999s-23.666 -11 -42.999 -11
c-15.333 0 -54.666 3 -117.999 9s-119 9 -167 9c-48.667 0 -103.667 -3 -165 -9s-97.666 -9 -108.999 -9c-15.333 0 -27.5 3.33301 -36.5 10s-13.5 15.334 -13.5 26.001c0 13.333 3.5 24 10.5 32s23.5 17.333 49.5 28c6 3.33301 14.167 7.5 24.5 12.5
s17.166 8.16699 20.499 9.5c23.333 12.667 41.166 35.334 53.499 68.001s18.5 73.667 18.5 123v803zM185.999 1571l276 300.999c18 19.333 36.333 34.5 55 45.5s36 16.5 52 16.5c20.667 0 38.5 -7.66699 53.5 -23s22.5 -33.666 22.5 -54.999c0 -18.667 -6 -35.167 -18 -49.5
s-34 -31.5 -66 -51.5l-301 -184h-74z" />
    <glyph glyph-name="Icircumflex" unicode="&#xce;" horiz-adv-x="725" 
d="M240 1096c0 76 -4.16797 126.832 -12.501 152.499s-23.5 47.167 -45.5 64.5c-22 15.333 -55.667 27.333 -101 36c-2 0 -4 0.333008 -6 1c-28 2.66699 -46.5 7.33398 -55.5 14.001s-13.5 17 -13.5 31c0 13.333 4.5 23.833 13.5 31.5s21.5 11.5 37.5 11.5c4 0 13 -1 27 -3
c60 -8 117.333 -12 172 -12c124.667 0 236.667 5 336 15c11.333 1.33301 18 2 20 2c14 0 24.667 -3.33301 32 -10s11 -16.334 11 -29.001c0 -20 -17.167 -35 -51.5 -45s-58.166 -21.667 -71.499 -35c-16.667 -16.667 -28.667 -40.334 -36 -71.001s-11 -75.334 -11 -134.001
v-817c0 -58 8.66699 -104 26 -138s43.666 -57 78.999 -69c11.333 -3.33301 29.333 -7.33301 54 -12c4.66699 -1.33301 7.66699 -2 9 -2c32 -5.33301 52.667 -11.5 62 -18.5s14 -17.167 14 -30.5c0 -15.333 -4.66699 -26.666 -14 -33.999s-23.666 -11 -42.999 -11
c-15.333 0 -54.666 3 -117.999 9s-119 9 -167 9c-48.667 0 -103.667 -3 -165 -9s-97.666 -9 -108.999 -9c-15.333 0 -27.5 3.33301 -36.5 10s-13.5 15.334 -13.5 26.001c0 13.333 3.5 24 10.5 32s23.5 17.333 49.5 28c6 3.33301 14.167 7.5 24.5 12.5
s17.166 8.16699 20.499 9.5c23.333 12.667 41.166 35.334 53.499 68.001s18.5 73.667 18.5 123v803zM66.999 1571l227 350h134l229 -350h-74l-221 197l-221 -197h-74z" />
    <glyph glyph-name="Idieresis" unicode="&#xcf;" horiz-adv-x="725" 
d="M240 1096c0 76 -4.16797 126.832 -12.501 152.499s-23.5 47.167 -45.5 64.5c-22 15.333 -55.667 27.333 -101 36c-2 0 -4 0.333008 -6 1c-28 2.66699 -46.5 7.33398 -55.5 14.001s-13.5 17 -13.5 31c0 13.333 4.5 23.833 13.5 31.5s21.5 11.5 37.5 11.5c4 0 13 -1 27 -3
c60 -8 117.333 -12 172 -12c124.667 0 236.667 5 336 15c11.333 1.33301 18 2 20 2c14 0 24.667 -3.33301 32 -10s11 -16.334 11 -29.001c0 -20 -17.167 -35 -51.5 -45s-58.166 -21.667 -71.499 -35c-16.667 -16.667 -28.667 -40.334 -36 -71.001s-11 -75.334 -11 -134.001
v-817c0 -58 8.66699 -104 26 -138s43.666 -57 78.999 -69c11.333 -3.33301 29.333 -7.33301 54 -12c4.66699 -1.33301 7.66699 -2 9 -2c32 -5.33301 52.667 -11.5 62 -18.5s14 -17.167 14 -30.5c0 -15.333 -4.66699 -26.666 -14 -33.999s-23.666 -11 -42.999 -11
c-15.333 0 -54.666 3 -117.999 9s-119 9 -167 9c-48.667 0 -103.667 -3 -165 -9s-97.666 -9 -108.999 -9c-15.333 0 -27.5 3.33301 -36.5 10s-13.5 15.334 -13.5 26.001c0 13.333 3.5 24 10.5 32s23.5 17.333 49.5 28c6 3.33301 14.167 7.5 24.5 12.5
s17.166 8.16699 20.499 9.5c23.333 12.667 41.166 35.334 53.499 68.001s18.5 73.667 18.5 123v803zM568.999 1612c-2.66699 -2.66699 -6.00293 -4.66797 -10.0029 -6.00098s-9 -2 -15 -2c-5.33301 0 -10.166 0.833008 -14.499 2.5s-8.16602 4.16699 -11.499 7.5l-90 94
c-3.33301 2.66699 -5.66602 6 -6.99902 10s-2 9 -2 15c0 4.66699 1 9 3 13s4.66699 7.66699 8 11l94 93c2.66699 2.66699 6 4.66699 10 6s8.66699 2 14 2c6 0 11 -0.666992 15 -2s7.33301 -3.33301 10 -6l90 -95c2.66699 -2.66699 4.66699 -6.16699 6 -10.5s2 -9.5 2 -15.5
c0 -4.66699 -0.833008 -9.16699 -2.5 -13.5s-4.16699 -8.16602 -7.5 -11.499zM199.996 1612c-2.66699 -2.66699 -6.00098 -4.66797 -10.001 -6.00098s-8.66699 -2 -14 -2c-4.66699 0 -9.16699 0.833008 -13.5 2.5s-8.16602 4.16699 -11.499 7.5l-92 94
c-2.66699 2.66699 -4.66699 6 -6 10s-2 9 -2 15c0 4.66699 0.833008 9 2.5 13s4.16699 7.66699 7.5 11l96 93c2.66699 2.66699 6 4.66699 10 6s9 2 15 2c5.33301 0 10 -0.666992 14 -2s7.33301 -3.33301 10 -6l88 -95c3.33301 -2.66699 6 -6.5 8 -11.5s3 -9.83301 3 -14.5
s-1 -9.16699 -3 -13.5s-4.66699 -8.16602 -8 -11.499z" />
    <glyph glyph-name="Eth" unicode="&#xd0;" horiz-adv-x="1569" 
d="M477 377c0 -122.667 16.666 -202.167 49.999 -238.5s94 -54.5 182 -54.5c164 0 295.667 55.5 395 166.5s149 259.5 149 445.5c0 192 -53.667 348.667 -161 470s-246.666 182 -417.999 182c-78.667 0 -131.167 -11.5 -157.5 -34.5s-39.5 -75.167 -39.5 -156.5v-338h387
v-108h-387v-334zM228.999 1116c0 66 -6.33496 112.669 -19.002 140.002s-35.667 50.333 -69 69c-17.333 10 -44.833 18 -82.5 24s-56.5 20 -56.5 42c0 14 4.83301 24.667 14.5 32s23.834 11 42.501 11c6 0 32.333 -2.16699 79 -6.5s90.667 -6.5 132 -6.5
c35.333 0 72 1 110 3s85.667 5.33301 143 10c3.33301 0 9.33301 0.333008 18 1c71.333 4.66699 123 7 155 7c262 0 463.333 -57.333 604 -172s211 -277.334 211 -488.001c0 -226.667 -77.667 -415.334 -233 -566.001s-352 -226 -590 -226c-27.333 0 -70.5 2 -129.5 6
s-104.5 6 -136.5 6c-116 0 -217.667 -7.33301 -305 -22c-9.33301 -1.33301 -15 -2.33301 -17 -3c-11.333 0 -21.666 4.16699 -30.999 12.5s-14 17.833 -14 28.5c0 20.667 19 40 57 58h1l37 18c28 15.333 48.167 37 60.5 65s18.5 65.667 18.5 113v439h-227v108h227v297z" />
    <glyph glyph-name="Ntilde" unicode="&#xd1;" horiz-adv-x="1630" 
d="M240 537l-0.00195312 513.996c0 66 -5 119.167 -15 159.5s-25.667 71.166 -47 92.499c-14.667 14.667 -30.5 26 -47.5 34s-38.833 13 -65.5 15h-1c-32 4.66699 -48 18.334 -48 41.001c0 16 3 27.167 9 33.5s16.667 9.5 32 9.5c6.66699 0 13.834 -0.333008 21.501 -1
l33.5 -3c16 -3.33301 29 -5.66602 39 -6.99902s19.667 -2 29 -2c12.667 0 25.834 0.666992 39.501 2s31.5 3.66602 53.5 6.99902l51.5 3c11.667 0.666992 22.167 1 31.5 1c36.667 0 76.667 -26 120 -78c3.33301 -4 5.66602 -6.66699 6.99902 -8l705 -846
c17.333 -21.333 33.333 -38 48 -50s26 -18 34 -18c10 0 17.167 7.83301 21.5 23.5s6.5 40.834 6.5 75.501v522c0 78.667 -6 136.334 -18 173.001s-32.333 64.334 -61 83.001c-30.667 19.333 -68.5 33.5 -113.5 42.5s-67.5 23.5 -67.5 43.5c0 12 3.83301 21.167 11.5 27.5
s18.834 9.5 33.501 9.5c11.333 0 23.166 -0.5 35.499 -1.5s25.5 -2.83301 39.5 -5.5c18 -2 37.333 -3.5 58 -4.5s42.667 -1.5 66 -1.5c24.667 0 50.167 0.666992 76.5 2s57.833 3.66602 94.5 6.99902c16 2 31 3.5 45 4.5s26.667 1.5 38 1.5c15.333 0 26 -2.83301 32 -8.5
s9 -15.167 9 -28.5c0 -19.333 -14 -34.166 -42 -44.499s-48.667 -20.833 -62 -31.5c-25.333 -19.333 -43 -43.666 -53 -72.999s-15.667 -83.333 -17 -162l-12 -1039c0 -29.333 -2.16699 -51 -6.5 -65s-11.166 -21 -20.499 -21c-22.667 0 -54.667 24.667 -96 74
c-8 10 -14.333 17.667 -19 23l-841 994c-9.33301 11.333 -19 20.833 -29 28.5s-17 11.5 -21 11.5c-8 0 -14 -7.16699 -18 -21.5s-6 -35.833 -6 -64.5v-478c0 -148.667 5 -249 15 -301s27.333 -90.667 52 -116c18.667 -18.667 53.334 -32.334 104.001 -41.001h2
c31.333 -4.66699 52 -10.667 62 -18s15 -17.666 15 -30.999c0 -17.333 -3.16699 -28.833 -9.5 -34.5s-21.166 -8.5 -44.499 -8.5c-4 0 -30 3.33301 -78 10s-93.667 10 -137 10c-46 0 -94.833 -3 -146.5 -9s-79.834 -9 -84.501 -9c-12.667 0 -22.334 4.16699 -29.001 12.5
s-10 20.5 -10 36.5s15.667 28.667 47 38l2 1c0.666992 0 2.66699 0.666992 6 2c38 13.333 64 29 78 47c20 24 35.333 71.833 46 143.5s16 162.5 16 272.5zM1098 1888c-14.667 -74 -38.167 -130.334 -70.5 -169.001s-73.166 -58 -122.499 -58
c-8.66699 0 -17.334 0.5 -26.001 1.5s-17.667 2.5 -27 4.5l-107 27c-11.333 2.66699 -21.5 4.66699 -30.5 6s-16.5 2 -22.5 2c-28 0 -49.5 -6.5 -64.5 -19.5s-27.5 -36.5 -37.5 -70.5h-58c14.667 76 38.5 133.5 71.5 172.5s74.833 58.5 125.5 58.5
c8.66699 0 18.667 -0.666992 30 -2s22.333 -3.33301 33 -6l110 -27c7.33301 -1.33301 15.333 -2.66602 24 -3.99902s17.334 -2 26.001 -2c23.333 0 42.166 7.16699 56.499 21.5s24.833 35.833 31.5 64.5h58z" />
    <glyph glyph-name="Ograve" unicode="&#xd2;" horiz-adv-x="1645" 
d="M319 791c0 -219.333 48.667 -396.833 146 -532.5s225 -203.5 383 -203.5c147.333 0 264 49.833 350 149.5s129 236.167 129 409.5c0 221.333 -49.833 402 -149.5 542s-227.167 210 -382.5 210c-149.333 0 -266 -50.667 -350 -152s-126 -242.333 -126 -423zM57 696
c0 218.667 74.5 401 223.5 547s336.833 219 563.5 219c214.667 0 392.167 -69.667 532.5 -209s210.5 -314 210.5 -524c0 -221.333 -74.333 -405 -223 -551s-338.334 -219 -569.001 -219c-213.333 0 -389.666 69.667 -528.999 209s-209 315.333 -209 528zM999 1571
l-74 0.000976562l-301 184c-32 20 -54 37.167 -66 51.5s-18 30.833 -18 49.5c0 21.333 7.5 39.666 22.5 54.999s32.833 23 53.5 23c16 0 33.333 -5.5 52 -16.5s37 -26.167 55 -45.5z" />
    <glyph glyph-name="Oacute" unicode="&#xd3;" horiz-adv-x="1645" 
d="M319 791c0 -219.333 48.667 -396.833 146 -532.5s225 -203.5 383 -203.5c147.333 0 264 49.833 350 149.5s129 236.167 129 409.5c0 221.333 -49.833 402 -149.5 542s-227.167 210 -382.5 210c-149.333 0 -266 -50.667 -350 -152s-126 -242.333 -126 -423zM57 696
c0 218.667 74.5 401 223.5 547s336.833 219 563.5 219c214.667 0 392.167 -69.667 532.5 -209s210.5 -314 210.5 -524c0 -221.333 -74.333 -405 -223 -551s-338.334 -219 -569.001 -219c-213.333 0 -389.666 69.667 -528.999 209s-209 315.333 -209 528zM647 1571
l276 300.999c18 19.333 36.333 34.5 55 45.5s36 16.5 52 16.5c20.667 0 38.5 -7.66699 53.5 -23s22.5 -33.666 22.5 -54.999c0 -18.667 -6 -35.167 -18 -49.5s-34 -31.5 -66 -51.5l-301 -184h-74z" />
    <glyph glyph-name="Ocircumflex" unicode="&#xd4;" horiz-adv-x="1645" 
d="M319 791c0 -219.333 48.667 -396.833 146 -532.5s225 -203.5 383 -203.5c147.333 0 264 49.833 350 149.5s129 236.167 129 409.5c0 221.333 -49.833 402 -149.5 542s-227.167 210 -382.5 210c-149.333 0 -266 -50.667 -350 -152s-126 -242.333 -126 -423zM57 696
c0 218.667 74.5 401 223.5 547s336.833 219 563.5 219c214.667 0 392.167 -69.667 532.5 -209s210.5 -314 210.5 -524c0 -221.333 -74.333 -405 -223 -551s-338.334 -219 -569.001 -219c-213.333 0 -389.666 69.667 -528.999 209s-209 315.333 -209 528zM528 1571l227 350
h134l229 -350h-74l-221 197l-221 -197h-74z" />
    <glyph glyph-name="Otilde" unicode="&#xd5;" horiz-adv-x="1645" 
d="M319 791c0 -219.333 48.667 -396.833 146 -532.5s225 -203.5 383 -203.5c147.333 0 264 49.833 350 149.5s129 236.167 129 409.5c0 221.333 -49.833 402 -149.5 542s-227.167 210 -382.5 210c-149.333 0 -266 -50.667 -350 -152s-126 -242.333 -126 -423zM57 696
c0 218.667 74.5 401 223.5 547s336.833 219 563.5 219c214.667 0 392.167 -69.667 532.5 -209s210.5 -314 210.5 -524c0 -221.333 -74.333 -405 -223 -551s-338.334 -219 -569.001 -219c-213.333 0 -389.666 69.667 -528.999 209s-209 315.333 -209 528zM1106 1888
c-14.667 -74 -38.167 -130.334 -70.5 -169.001s-73.166 -58 -122.499 -58c-8.66699 0 -17.334 0.5 -26.001 1.5s-17.667 2.5 -27 4.5l-107 27c-11.333 2.66699 -21.5 4.66699 -30.5 6s-16.5 2 -22.5 2c-28 0 -49.5 -6.5 -64.5 -19.5s-27.5 -36.5 -37.5 -70.5h-58
c14.667 76 38.5 133.5 71.5 172.5s74.833 58.5 125.5 58.5c8.66699 0 18.667 -0.666992 30 -2s22.333 -3.33301 33 -6l110 -27c7.33301 -1.33301 15.333 -2.66602 24 -3.99902s17.334 -2 26.001 -2c23.333 0 42.166 7.16699 56.499 21.5s24.833 35.833 31.5 64.5h58z" />
    <glyph glyph-name="Odieresis" unicode="&#xd6;" horiz-adv-x="1645" 
d="M319 791c0 -219.333 48.667 -396.833 146 -532.5s225 -203.5 383 -203.5c147.333 0 264 49.833 350 149.5s129 236.167 129 409.5c0 221.333 -49.833 402 -149.5 542s-227.167 210 -382.5 210c-149.333 0 -266 -50.667 -350 -152s-126 -242.333 -126 -423zM57 696
c0 218.667 74.5 401 223.5 547s336.833 219 563.5 219c214.667 0 392.167 -69.667 532.5 -209s210.5 -314 210.5 -524c0 -221.333 -74.333 -405 -223 -551s-338.334 -219 -569.001 -219c-213.333 0 -389.666 69.667 -528.999 209s-209 315.333 -209 528zM1030 1612
c-2.66699 -2.66699 -6.00293 -4.66797 -10.0029 -6.00098s-9 -2 -15 -2c-5.33301 0 -10.166 0.833008 -14.499 2.5s-8.16602 4.16699 -11.499 7.5l-90 94c-3.33301 2.66699 -5.66602 6 -6.99902 10s-2 9 -2 15c0 4.66699 1 9 3 13s4.66699 7.66699 8 11l94 93
c2.66699 2.66699 6 4.66699 10 6s8.66699 2 14 2c6 0 11 -0.666992 15 -2s7.33301 -3.33301 10 -6l90 -95c2.66699 -2.66699 4.66699 -6.16699 6 -10.5s2 -9.5 2 -15.5c0 -4.66699 -0.833008 -9.16699 -2.5 -13.5s-4.16699 -8.16602 -7.5 -11.499zM660.997 1612
c-2.66699 -2.66699 -6.00098 -4.66797 -10.001 -6.00098s-8.66699 -2 -14 -2c-4.66699 0 -9.16699 0.833008 -13.5 2.5s-8.16602 4.16699 -11.499 7.5l-92 94c-2.66699 2.66699 -4.66699 6 -6 10s-2 9 -2 15c0 4.66699 0.833008 9 2.5 13s4.16699 7.66699 7.5 11l96 93
c2.66699 2.66699 6 4.66699 10 6s9 2 15 2c5.33301 0 10 -0.666992 14 -2s7.33301 -3.33301 10 -6l88 -95c3.33301 -2.66699 6 -6.5 8 -11.5s3 -9.83301 3 -14.5s-1 -9.16699 -3 -13.5s-4.66699 -8.16602 -8 -11.499z" />
    <glyph glyph-name="multiply" unicode="&#xd7;" horiz-adv-x="1706" 
d="M862 729l461 459l117 -117l-459 -461l459 -458l-117 -119l-461 461l-459 -461l-116 119l458 458l-458 461l116 117z" />
    <glyph glyph-name="Oslash" unicode="&#xd8;" horiz-adv-x="1645" 
d="M150 -164l188 269.999c-88.667 65.333 -157.667 149.333 -207 252s-74 214 -74 334c0 221.333 74.333 405 223 551s336.667 219 564 219c68.667 0 133.667 -7.33301 195 -22s122.666 -38 183.999 -70l133 193h117l-168 -246c94 -76 164.5 -163 211.5 -261
s70.5 -207 70.5 -327c0 -221.333 -73.833 -404.666 -221.5 -549.999s-335.167 -218 -562.5 -218c-72.667 0 -141.167 7.66699 -205.5 23s-124.166 38.333 -179.499 69l-152 -217h-116zM1184 1149l-668.001 -956.001c42.667 -47.333 90.334 -82.166 143.001 -104.499
s113 -33.5 181 -33.5c154 0 274.667 49.5 362 148.5s131 236.5 131 412.5c0 104.667 -12.167 200.667 -36.5 288s-61.833 169 -112.5 245zM454.999 273.998l665.001 951c-48 49.333 -98 85.166 -150 107.499s-110.333 33.5 -175 33.5c-148.667 0 -266.5 -50.667 -353.5 -152
s-130.5 -239.666 -130.5 -414.999c0 -101.333 12.167 -196.5 36.5 -285.5s60.166 -168.833 107.499 -239.5z" />
    <glyph glyph-name="Ugrave" unicode="&#xd9;" horiz-adv-x="1612" 
d="M219 1155c0 59.333 -5.83008 101.331 -17.4971 125.998s-35.834 43.334 -72.501 56.001c-16.667 6.66699 -38.334 12.667 -65.001 18c-2 0 -3.66699 0.333008 -5 1c-24 4 -39.167 9 -45.5 15s-9.5 15.333 -9.5 28s4 21.667 12 27s21.667 8 41 8
c8.66699 0 39.334 -2.5 92.001 -7.5s100.667 -7.5 144 -7.5c58 0 118.167 3.5 180.5 10.5s96.166 10.5 101.499 10.5c19.333 0 33.5 -3 42.5 -9s13.5 -15.333 13.5 -28c0 -19.333 -16.667 -33.666 -50 -42.999h-1c-10.667 -2.66699 -20.167 -5.83398 -28.5 -9.50098
s-16.166 -7.5 -23.499 -11.5c-24.667 -14 -41.667 -40.333 -51 -79s-14 -124 -14 -256v-357c0 -108.667 4.33301 -187.834 13 -237.501s23.334 -92.5 44.001 -128.5c34.667 -60.667 80.667 -107.334 138 -140.001s122 -49 194 -49c68 0 130.167 12 186.5 36
s103.5 58.333 141.5 103c39.333 46.667 67.5 105.334 84.5 176.001s25.5 173.334 25.5 308.001v354c0 88 -6.83301 150.167 -20.5 186.5s-37.5 61.5 -71.5 75.5c-20 8 -48.333 15.333 -85 22c-48.667 8.66699 -73 24.667 -73 48c0 12 4 20.833 12 26.5s21.333 8.5 40 8.5
c8.66699 0 25.667 -1 51 -3c6 -0.666992 10.667 -1 14 -1c6 -0.666992 15.667 -2 29 -4c48.667 -6 88.334 -9 119.001 -9c21.333 0 42.666 1 63.999 3s47.666 6 78.999 12c2.66699 0 7 0.333008 13 1c17.333 2 29.333 3 36 3c16 0 27.5 -2.66699 34.5 -8
s10.5 -13.666 10.5 -24.999c0 -18 -14 -32.333 -42 -43c-2.66699 -1.33301 -4.33398 -2 -5.00098 -2c-12.667 -3.33301 -23.334 -7 -32.001 -11s-16.334 -8.66699 -23.001 -14c-17.333 -12 -29.166 -38.5 -35.499 -79.5s-9.5 -137.167 -9.5 -288.5v-262
c0 -246 -52 -430.5 -156 -553.5s-259.667 -184.5 -467 -184.5c-195.333 0 -336.333 53.333 -423 160s-130 282.667 -130 528v500zM1018 1571l-74 0.000976562l-301 184c-32 20 -54 37.167 -66 51.5s-18 30.833 -18 49.5c0 21.333 7.5 39.666 22.5 54.999s32.833 23 53.5 23
c16 0 33.333 -5.5 52 -16.5s37 -26.167 55 -45.5z" />
    <glyph glyph-name="Uacute" unicode="&#xda;" horiz-adv-x="1612" 
d="M219 1155c0 59.333 -5.83008 101.331 -17.4971 125.998s-35.834 43.334 -72.501 56.001c-16.667 6.66699 -38.334 12.667 -65.001 18c-2 0 -3.66699 0.333008 -5 1c-24 4 -39.167 9 -45.5 15s-9.5 15.333 -9.5 28s4 21.667 12 27s21.667 8 41 8
c8.66699 0 39.334 -2.5 92.001 -7.5s100.667 -7.5 144 -7.5c58 0 118.167 3.5 180.5 10.5s96.166 10.5 101.499 10.5c19.333 0 33.5 -3 42.5 -9s13.5 -15.333 13.5 -28c0 -19.333 -16.667 -33.666 -50 -42.999h-1c-10.667 -2.66699 -20.167 -5.83398 -28.5 -9.50098
s-16.166 -7.5 -23.499 -11.5c-24.667 -14 -41.667 -40.333 -51 -79s-14 -124 -14 -256v-357c0 -108.667 4.33301 -187.834 13 -237.501s23.334 -92.5 44.001 -128.5c34.667 -60.667 80.667 -107.334 138 -140.001s122 -49 194 -49c68 0 130.167 12 186.5 36
s103.5 58.333 141.5 103c39.333 46.667 67.5 105.334 84.5 176.001s25.5 173.334 25.5 308.001v354c0 88 -6.83301 150.167 -20.5 186.5s-37.5 61.5 -71.5 75.5c-20 8 -48.333 15.333 -85 22c-48.667 8.66699 -73 24.667 -73 48c0 12 4 20.833 12 26.5s21.333 8.5 40 8.5
c8.66699 0 25.667 -1 51 -3c6 -0.666992 10.667 -1 14 -1c6 -0.666992 15.667 -2 29 -4c48.667 -6 88.334 -9 119.001 -9c21.333 0 42.666 1 63.999 3s47.666 6 78.999 12c2.66699 0 7 0.333008 13 1c17.333 2 29.333 3 36 3c16 0 27.5 -2.66699 34.5 -8
s10.5 -13.666 10.5 -24.999c0 -18 -14 -32.333 -42 -43c-2.66699 -1.33301 -4.33398 -2 -5.00098 -2c-12.667 -3.33301 -23.334 -7 -32.001 -11s-16.334 -8.66699 -23.001 -14c-17.333 -12 -29.166 -38.5 -35.499 -79.5s-9.5 -137.167 -9.5 -288.5v-262
c0 -246 -52 -430.5 -156 -553.5s-259.667 -184.5 -467 -184.5c-195.333 0 -336.333 53.333 -423 160s-130 282.667 -130 528v500zM666.003 1571l276 300.999c18 19.333 36.333 34.5 55 45.5s36 16.5 52 16.5c20.667 0 38.5 -7.66699 53.5 -23s22.5 -33.666 22.5 -54.999
c0 -18.667 -6 -35.167 -18 -49.5s-34 -31.5 -66 -51.5l-301 -184h-74z" />
    <glyph glyph-name="Ucircumflex" unicode="&#xdb;" horiz-adv-x="1612" 
d="M219 1155c0 59.333 -5.83008 101.331 -17.4971 125.998s-35.834 43.334 -72.501 56.001c-16.667 6.66699 -38.334 12.667 -65.001 18c-2 0 -3.66699 0.333008 -5 1c-24 4 -39.167 9 -45.5 15s-9.5 15.333 -9.5 28s4 21.667 12 27s21.667 8 41 8
c8.66699 0 39.334 -2.5 92.001 -7.5s100.667 -7.5 144 -7.5c58 0 118.167 3.5 180.5 10.5s96.166 10.5 101.499 10.5c19.333 0 33.5 -3 42.5 -9s13.5 -15.333 13.5 -28c0 -19.333 -16.667 -33.666 -50 -42.999h-1c-10.667 -2.66699 -20.167 -5.83398 -28.5 -9.50098
s-16.166 -7.5 -23.499 -11.5c-24.667 -14 -41.667 -40.333 -51 -79s-14 -124 -14 -256v-357c0 -108.667 4.33301 -187.834 13 -237.501s23.334 -92.5 44.001 -128.5c34.667 -60.667 80.667 -107.334 138 -140.001s122 -49 194 -49c68 0 130.167 12 186.5 36
s103.5 58.333 141.5 103c39.333 46.667 67.5 105.334 84.5 176.001s25.5 173.334 25.5 308.001v354c0 88 -6.83301 150.167 -20.5 186.5s-37.5 61.5 -71.5 75.5c-20 8 -48.333 15.333 -85 22c-48.667 8.66699 -73 24.667 -73 48c0 12 4 20.833 12 26.5s21.333 8.5 40 8.5
c8.66699 0 25.667 -1 51 -3c6 -0.666992 10.667 -1 14 -1c6 -0.666992 15.667 -2 29 -4c48.667 -6 88.334 -9 119.001 -9c21.333 0 42.666 1 63.999 3s47.666 6 78.999 12c2.66699 0 7 0.333008 13 1c17.333 2 29.333 3 36 3c16 0 27.5 -2.66699 34.5 -8
s10.5 -13.666 10.5 -24.999c0 -18 -14 -32.333 -42 -43c-2.66699 -1.33301 -4.33398 -2 -5.00098 -2c-12.667 -3.33301 -23.334 -7 -32.001 -11s-16.334 -8.66699 -23.001 -14c-17.333 -12 -29.166 -38.5 -35.499 -79.5s-9.5 -137.167 -9.5 -288.5v-262
c0 -246 -52 -430.5 -156 -553.5s-259.667 -184.5 -467 -184.5c-195.333 0 -336.333 53.333 -423 160s-130 282.667 -130 528v500zM547.003 1571l227 350h134l229 -350h-74l-221 197l-221 -197h-74z" />
    <glyph glyph-name="Udieresis" unicode="&#xdc;" horiz-adv-x="1612" 
d="M219 1155c0 59.333 -5.83008 101.331 -17.4971 125.998s-35.834 43.334 -72.501 56.001c-16.667 6.66699 -38.334 12.667 -65.001 18c-2 0 -3.66699 0.333008 -5 1c-24 4 -39.167 9 -45.5 15s-9.5 15.333 -9.5 28s4 21.667 12 27s21.667 8 41 8
c8.66699 0 39.334 -2.5 92.001 -7.5s100.667 -7.5 144 -7.5c58 0 118.167 3.5 180.5 10.5s96.166 10.5 101.499 10.5c19.333 0 33.5 -3 42.5 -9s13.5 -15.333 13.5 -28c0 -19.333 -16.667 -33.666 -50 -42.999h-1c-10.667 -2.66699 -20.167 -5.83398 -28.5 -9.50098
s-16.166 -7.5 -23.499 -11.5c-24.667 -14 -41.667 -40.333 -51 -79s-14 -124 -14 -256v-357c0 -108.667 4.33301 -187.834 13 -237.501s23.334 -92.5 44.001 -128.5c34.667 -60.667 80.667 -107.334 138 -140.001s122 -49 194 -49c68 0 130.167 12 186.5 36
s103.5 58.333 141.5 103c39.333 46.667 67.5 105.334 84.5 176.001s25.5 173.334 25.5 308.001v354c0 88 -6.83301 150.167 -20.5 186.5s-37.5 61.5 -71.5 75.5c-20 8 -48.333 15.333 -85 22c-48.667 8.66699 -73 24.667 -73 48c0 12 4 20.833 12 26.5s21.333 8.5 40 8.5
c8.66699 0 25.667 -1 51 -3c6 -0.666992 10.667 -1 14 -1c6 -0.666992 15.667 -2 29 -4c48.667 -6 88.334 -9 119.001 -9c21.333 0 42.666 1 63.999 3s47.666 6 78.999 12c2.66699 0 7 0.333008 13 1c17.333 2 29.333 3 36 3c16 0 27.5 -2.66699 34.5 -8
s10.5 -13.666 10.5 -24.999c0 -18 -14 -32.333 -42 -43c-2.66699 -1.33301 -4.33398 -2 -5.00098 -2c-12.667 -3.33301 -23.334 -7 -32.001 -11s-16.334 -8.66699 -23.001 -14c-17.333 -12 -29.166 -38.5 -35.499 -79.5s-9.5 -137.167 -9.5 -288.5v-262
c0 -246 -52 -430.5 -156 -553.5s-259.667 -184.5 -467 -184.5c-195.333 0 -336.333 53.333 -423 160s-130 282.667 -130 528v500zM1049 1612c-2.66699 -2.66699 -6.00293 -4.66797 -10.0029 -6.00098s-9 -2 -15 -2c-5.33301 0 -10.166 0.833008 -14.499 2.5
s-8.16602 4.16699 -11.499 7.5l-90 94c-3.33301 2.66699 -5.66602 6 -6.99902 10s-2 9 -2 15c0 4.66699 1 9 3 13s4.66699 7.66699 8 11l94 93c2.66699 2.66699 6 4.66699 10 6s8.66699 2 14 2c6 0 11 -0.666992 15 -2s7.33301 -3.33301 10 -6l90 -95
c2.66699 -2.66699 4.66699 -6.16699 6 -10.5s2 -9.5 2 -15.5c0 -4.66699 -0.833008 -9.16699 -2.5 -13.5s-4.16699 -8.16602 -7.5 -11.499zM680 1612c-2.66699 -2.66699 -6.00098 -4.66797 -10.001 -6.00098s-8.66699 -2 -14 -2c-4.66699 0 -9.16699 0.833008 -13.5 2.5
s-8.16602 4.16699 -11.499 7.5l-92 94c-2.66699 2.66699 -4.66699 6 -6 10s-2 9 -2 15c0 4.66699 0.833008 9 2.5 13s4.16699 7.66699 7.5 11l96 93c2.66699 2.66699 6 4.66699 10 6s9 2 15 2c5.33301 0 10 -0.666992 14 -2s7.33301 -3.33301 10 -6l88 -95
c3.33301 -2.66699 6 -6.5 8 -11.5s3 -9.83301 3 -14.5s-1 -9.16699 -3 -13.5s-4.66699 -8.16602 -8 -11.499z" />
    <glyph glyph-name="Yacute" unicode="&#xdd;" horiz-adv-x="1350" 
d="M551 403l-0.00195312 146c0 34 -9 66.333 -27 97c-0.666992 1.33301 -1.33398 2.33301 -2.00098 3l-297 549c-18.667 36 -39.834 67.333 -63.501 94s-45.5 44.667 -65.5 54c-10 4 -25.667 8 -47 12c-39.333 8 -59 23 -59 45c0 12.667 4.5 22 13.5 28s22.833 9 41.5 9
c3.33301 0 12.666 -1 27.999 -3c77.333 -8 154.666 -12 231.999 -12c64 0 131 4 201 12c17.333 2 28.333 3 33 3c20 0 33.167 -2.5 39.5 -7.5s9.5 -14.167 9.5 -27.5c0 -16.667 -19.167 -32 -57.5 -46s-57.5 -36.333 -57.5 -67c0 -10 2.5 -22.333 7.5 -37
s12.167 -30.334 21.5 -47.001l229 -436c3.33301 -6 6.83301 -10.833 10.5 -14.5s7.16699 -5.5 10.5 -5.5c4.66699 0 9.16699 2 13.5 6s9.16602 10.667 14.499 20l195 359c1.33301 2.66699 3.66602 7 6.99902 13c22.667 42 34 74.333 34 97c0 26 -7.66699 48 -23 66
s-38 31 -68 39c-12.667 3.33301 -29.667 6 -51 8c-38 4.66699 -57 18.334 -57 41.001c0 12.667 3.83301 22 11.5 28s19.5 9 35.5 9c4.66699 0 16 -1 34 -3c64.667 -6.66699 125.667 -10 183 -10c25.333 0 57.833 2.5 97.5 7.5s65.834 7.5 78.501 7.5
c18.667 0 31.667 -2.66699 39 -8s11 -14.333 11 -27c0 -20.667 -13.667 -34.667 -41 -42c-10 -2.66699 -17.667 -5 -23 -7c-20 -8 -40.667 -23.5 -62 -46.5s-41.666 -51.833 -60.999 -86.5l-297 -545c-8 -14.667 -13.667 -28.167 -17 -40.5s-5 -26.833 -5 -43.5v-12v-246
c0 -78 4.83301 -131.5 14.5 -160.5s27.167 -52.167 52.5 -69.5c15.333 -8.66699 40.666 -16.334 75.999 -23.001c6.66699 -1.33301 11.334 -2.33301 14.001 -3c34.667 -4.66699 57.334 -11 68.001 -19s16 -19.333 16 -34s-4.16699 -25.5 -12.5 -32.5
s-21.166 -10.5 -38.499 -10.5c-10.667 0 -48.167 3 -112.5 9s-123.166 9 -176.499 9c-55.333 0 -119.666 -3.33301 -192.999 -10s-118 -10 -134 -10c-18 0 -32.167 3.83301 -42.5 11.5s-15.5 18.167 -15.5 31.5c0 22.667 23 39 69 49h1
c18.667 2.66699 34.334 6.16699 47.001 10.5s24.334 9.5 35.001 15.5c31.333 17.333 52.833 39.333 64.5 66s17.5 76.334 17.5 149.001v88zM499.998 1571l276 300.999c18 19.333 36.333 34.5 55 45.5s36 16.5 52 16.5c20.667 0 38.5 -7.66699 53.5 -23
s22.5 -33.666 22.5 -54.999c0 -18.667 -6 -35.167 -18 -49.5s-34 -31.5 -66 -51.5l-301 -184h-74z" />
    <glyph glyph-name="Thorn" unicode="&#xde;" horiz-adv-x="1235" 
d="M229 1096c0 65.333 -3.83203 112 -11.499 140s-21.5 51.667 -41.5 71c-20.667 19.333 -52.667 33 -96 41c-2.66699 0.666992 -4.66699 1.33398 -6 2.00098h-2c-40 6.66699 -60 21.667 -60 45c0 13.333 4.16699 23.5 12.5 30.5s20.5 10.5 36.5 10.5c4 0 14.667 -1 32 -3
c93.333 -8 186.666 -12 279.999 -12c58.667 0 118 2.5 178 7.5s90.667 7.5 92 7.5c16.667 0 29.334 -3.5 38.001 -10.5s13 -17.167 13 -30.5c0 -14 -4 -24.333 -12 -31s-25 -11.334 -51 -14.001c-2.66699 -0.666992 -7 -1.66699 -13 -3
c-32.667 -7.33301 -57 -16.666 -73 -27.999c-24 -18 -41.333 -40.833 -52 -68.5s-16 -63.5 -16 -107.5c46 5.33301 86.5 9.33301 121.5 12s66.167 4 93.5 4c150.667 0 269.667 -36.167 357 -108.5s131 -169.833 131 -292.5c0 -120 -40.333 -218.667 -121 -296
s-182.334 -116 -305.001 -116c-65.333 0 -117.166 7.33301 -155.499 22s-57.5 34 -57.5 58c0 7.33301 3 13.666 9 18.999s13 8 21 8c0.666992 0 11 -1.83301 31 -5.5s40 -5.5 60 -5.5c86.667 0 151.667 23.5 195 70.5s65 117.167 65 210.5c0 102 -28.333 185.167 -85 249.5
s-131 96.5 -223 96.5c-53.333 0 -89.5 -13 -108.5 -39s-28.5 -94.333 -28.5 -205v-526c0 -54.667 7.5 -98.5 22.5 -131.5s38.167 -57.5 69.5 -73.5c6 -2.66699 12.667 -5.16699 20 -7.5s18.333 -5.16602 33 -8.49902c1.33301 0 2.33301 -0.333008 3 -1
c39.333 -9.33301 59 -25.333 59 -48c0 -16 -4.33301 -27.5 -13 -34.5s-22 -10.5 -40 -10.5c-4 0 -33.333 3 -88 9s-108 9 -160 9c-53.333 0 -111.333 -3 -174 -9s-98.334 -9 -107.001 -9c-16 0 -28.167 3.33301 -36.5 10s-12.5 17 -12.5 31c0 18 16 35 48 51l4 2
c11.333 4.66699 20 8.66699 26 12s11.333 6.66602 16 9.99902c28.667 18 49.5 42.333 62.5 73s19.5 70.667 19.5 120v803z" />
    <glyph glyph-name="germandbls" unicode="&#xdf;" horiz-adv-x="1104" 
d="M154 868c0 212.667 34.166 371.333 102.499 476s171.833 157 310.5 157c115.333 0 208 -30.333 278 -91s105 -141 105 -241c0 -86 -24.667 -157.833 -74 -215.5s-120 -96.834 -212 -117.501v-17c121.333 -19.333 215 -66.333 281 -141s99 -171 99 -289
c0 -120 -38 -218.667 -114 -296s-174.333 -116 -295 -116c-41.333 0 -69.5 6 -84.5 18s-22.5 40.333 -22.5 85s4.5 78.667 13.5 102s21.833 35 38.5 35c19.333 0 40.833 -23.833 64.5 -71.5s48.5 -71.5 74.5 -71.5c32.667 0 57.167 21.5 73.5 64.5s24.5 107.5 24.5 193.5
c0 106.667 -10.5 191.834 -31.5 255.501s-54.833 112.167 -101.5 145.5c-33.333 24 -77.666 39 -132.999 45h-4c-26.667 1.33301 -43.667 4.83301 -51 10.5s-11 14.5 -11 26.5c0 12.667 2.83301 22 8.5 28s19.5 11 41.5 15c8 0 16.5 1 25.5 3s18.833 5 29.5 9
c53.333 19.333 90.5 48.333 111.5 87s31.5 96.334 31.5 173.001c0 96 -14.833 168.5 -44.5 217.5s-73.5 73.5 -131.5 73.5c-65.333 0 -112.666 -25.5 -141.999 -76.5s-44 -134.5 -44 -250.5v-842c0 -49.333 2.5 -84.833 7.5 -106.5s14.167 -38.834 27.5 -51.501
c9.33301 -9.33301 24.5 -18 45.5 -26s31.5 -20.333 31.5 -37c0 -14.667 -2.66699 -24.834 -8 -30.501s-15 -8.5 -29 -8.5h-10c-2 0 -6.66699 0.666992 -14 2c-44 8 -88.333 12 -133 12c-62.667 0 -125.334 -4.66699 -188.001 -14c-11.333 -1.33301 -18.333 -2 -21 -2
c-11.333 0 -20.333 2.83301 -27 8.5s-10 12.834 -10 21.501c0 12 11 25.333 33 40l1 1l1 1c50.667 31.333 76 77 76 137v37v632z" />
    <glyph glyph-name="agrave" unicode="&#xe0;" horiz-adv-x="940" 
d="M602 98c-61.333 -42 -121.167 -73.3311 -179.5 -93.998s-117.833 -31 -178.5 -31c-58 0 -103 17.167 -135 51.5s-48 82.833 -48 145.5c0 88.667 38.5 159 115.5 211s209.167 95 396.5 129c0 4.66699 0.333008 11.667 1 21s1 16 1 20c0 88.667 -16.5 154.167 -49.5 196.5
s-84.5 63.5 -154.5 63.5c-38 0 -64.333 -6.66699 -79 -20s-22 -38 -22 -74v-17c0 -35.333 -12.333 -60.5 -37 -75.5s-62.667 -22.5 -114 -22.5c-17.333 0 -29.166 3.66699 -35.499 11s-9.5 21.333 -9.5 42c0 60 34.667 112.667 104 158s155.333 68 258 68
c68 0 127.5 -9 178.5 -27s92.5 -44.667 124.5 -80c18 -20 30.667 -45 38 -75s11 -85.667 11 -167v-303c0 -58.667 4.16699 -93.334 12.5 -104.001s27.5 -16 57.5 -16c5.33301 0 12.166 0.666992 20.499 2s14.5 2 18.5 2c7.33301 0 14 -2.5 20 -7.5s9 -10.833 9 -17.5
c0 -20.667 -20.167 -42.834 -60.5 -66.501s-81.166 -35.5 -122.499 -35.5c-28 0 -53.833 9.33301 -77.5 28s-44.834 46.667 -63.501 84zM574.999 449.002c-103.333 -20.667 -177.833 -49.168 -223.5 -85.501s-68.5 -85.166 -68.5 -146.499c0 -40 10.333 -69.833 31 -89.5
s52 -29.5 94 -29.5c60 0 102.833 9.83301 128.5 29.5s38.5 57.167 38.5 112.5v18v191zM628.999 983.001l-74 0.000976562l-301 184c-32 20 -54 37.167 -66 51.5s-18 30.833 -18 49.5c0 21.333 7.5 39.666 22.5 54.999s32.833 23 53.5 23c16 0 33.333 -5.5 52 -16.5
s37 -26.167 55 -45.5z" />
    <glyph glyph-name="aacute" unicode="&#xe1;" horiz-adv-x="940" 
d="M602 98c-61.333 -42 -121.167 -73.3311 -179.5 -93.998s-117.833 -31 -178.5 -31c-58 0 -103 17.167 -135 51.5s-48 82.833 -48 145.5c0 88.667 38.5 159 115.5 211s209.167 95 396.5 129c0 4.66699 0.333008 11.667 1 21s1 16 1 20c0 88.667 -16.5 154.167 -49.5 196.5
s-84.5 63.5 -154.5 63.5c-38 0 -64.333 -6.66699 -79 -20s-22 -38 -22 -74v-17c0 -35.333 -12.333 -60.5 -37 -75.5s-62.667 -22.5 -114 -22.5c-17.333 0 -29.166 3.66699 -35.499 11s-9.5 21.333 -9.5 42c0 60 34.667 112.667 104 158s155.333 68 258 68
c68 0 127.5 -9 178.5 -27s92.5 -44.667 124.5 -80c18 -20 30.667 -45 38 -75s11 -85.667 11 -167v-303c0 -58.667 4.16699 -93.334 12.5 -104.001s27.5 -16 57.5 -16c5.33301 0 12.166 0.666992 20.499 2s14.5 2 18.5 2c7.33301 0 14 -2.5 20 -7.5s9 -10.833 9 -17.5
c0 -20.667 -20.167 -42.834 -60.5 -66.501s-81.166 -35.5 -122.499 -35.5c-28 0 -53.833 9.33301 -77.5 28s-44.834 46.667 -63.501 84zM574.999 449.002c-103.333 -20.667 -177.833 -49.168 -223.5 -85.501s-68.5 -85.166 -68.5 -146.499c0 -40 10.333 -69.833 31 -89.5
s52 -29.5 94 -29.5c60 0 102.833 9.83301 128.5 29.5s38.5 57.167 38.5 112.5v18v191zM276.999 983.001l276 300.999c18 19.333 36.333 34.5 55 45.5s36 16.5 52 16.5c20.667 0 38.5 -7.66699 53.5 -23s22.5 -33.666 22.5 -54.999c0 -18.667 -6 -35.167 -18 -49.5
s-34 -31.5 -66 -51.5l-301 -184h-74z" />
    <glyph glyph-name="acircumflex" unicode="&#xe2;" horiz-adv-x="940" 
d="M602 98c-61.333 -42 -121.167 -73.3311 -179.5 -93.998s-117.833 -31 -178.5 -31c-58 0 -103 17.167 -135 51.5s-48 82.833 -48 145.5c0 88.667 38.5 159 115.5 211s209.167 95 396.5 129c0 4.66699 0.333008 11.667 1 21s1 16 1 20c0 88.667 -16.5 154.167 -49.5 196.5
s-84.5 63.5 -154.5 63.5c-38 0 -64.333 -6.66699 -79 -20s-22 -38 -22 -74v-17c0 -35.333 -12.333 -60.5 -37 -75.5s-62.667 -22.5 -114 -22.5c-17.333 0 -29.166 3.66699 -35.499 11s-9.5 21.333 -9.5 42c0 60 34.667 112.667 104 158s155.333 68 258 68
c68 0 127.5 -9 178.5 -27s92.5 -44.667 124.5 -80c18 -20 30.667 -45 38 -75s11 -85.667 11 -167v-303c0 -58.667 4.16699 -93.334 12.5 -104.001s27.5 -16 57.5 -16c5.33301 0 12.166 0.666992 20.499 2s14.5 2 18.5 2c7.33301 0 14 -2.5 20 -7.5s9 -10.833 9 -17.5
c0 -20.667 -20.167 -42.834 -60.5 -66.501s-81.166 -35.5 -122.499 -35.5c-28 0 -53.833 9.33301 -77.5 28s-44.834 46.667 -63.501 84zM574.999 449.002c-103.333 -20.667 -177.833 -49.168 -223.5 -85.501s-68.5 -85.166 -68.5 -146.499c0 -40 10.333 -69.833 31 -89.5
s52 -29.5 94 -29.5c60 0 102.833 9.83301 128.5 29.5s38.5 57.167 38.5 112.5v18v191zM157.999 983.001l227 350h134l229 -350h-74l-221 197l-221 -197h-74z" />
    </font>
</defs>
</svg>
