<?xml version="1.0" encoding="utf-8"?>
<!-- Generator: Adobe Illustrator 24.0.0, SVG Export Plug-In . SVG Version: 6.00 Build 0)  -->
<svg version="1.1" id="Layer_1" xmlns="http://www.w3.org/2000/svg" xmlns:xlink="http://www.w3.org/1999/xlink" x="0px" y="0px"
	 viewBox="0 0 44 44" style="enable-background:new 0 0 44 44;" xml:space="preserve">
<style type="text/css">
	.st0{fill:#FFFFFF;}
</style>
<path class="st0" d="M24,33.3L23.9,20l-6.5,10.9h-3.2L7.8,20.3v13H1.3V8.1h5.9L16,22.7l8.6-14.5h5.9l0.1,25.2H24z"/>
<path class="st0" d="M35.2,32.5c-0.8-0.8-1.2-1.7-1.2-2.9c0-1.2,0.4-2.2,1.2-2.9c0.8-0.7,1.8-1.1,2.9-1.1c1.2,0,2.2,0.4,3,1.1
	c0.8,0.7,1.2,1.7,1.2,2.9c0,1.2-0.4,2.1-1.2,2.9c-0.8,0.8-1.8,1.2-2.9,1.2C37,33.7,36,33.3,35.2,32.5z"/>
</svg>
