<?xml version="1.0" encoding="utf-8"?>
<!-- Generator: Adobe Illustrator 19.0.0, SVG Export Plug-In . SVG Version: 6.00 Build 0)  -->
<svg version="1.1" baseProfile="basic" id="Capa_1" xmlns="http://www.w3.org/2000/svg" xmlns:xlink="http://www.w3.org/1999/xlink"
	 x="0px" y="0px" viewBox="0 0 454.432 112.882" xml:space="preserve">
<style type="text/css">
	.st0{fill:#F18522;}
	.st1{fill:#8C1E12;}
	.st2{fill:#39994C;}
</style>
<polygon class="st0" points="10.734,0 32.202,0 21.469,16.511 "/>
<polygon class="st1" points="30.675,0 52.143,0 41.408,16.511 "/>
<polygon class="st2" points="51.126,0 72.594,0 60.718,16.511 "/>
<polygon class="st0" points="71.451,0 92.92,0 82.186,16.511 "/>
<polygon class="st1" points="91.393,0 112.859,0 102.126,16.511 "/>
<polygon class="st0" points="132.549,0 154.018,0 143.283,16.511 "/>
<polygon class="st2" points="111.844,0 133.311,0 122.577,16.511 "/>
<polygon class="st1" points="153.845,0.017 175.313,0.017 164.578,16.527 "/>
<polygon class="st2" points="174.928,0.017 196.396,0.017 185.661,16.527 "/>
<polygon class="st0" points="195.979,0.017 217.446,0.017 206.713,16.527 "/>
<polygon class="st1" points="217.446,0.017 238.914,0.017 228.18,16.527 "/>
<polygon class="st2" points="238.914,0.017 260.382,0.017 249.647,16.527 "/>
<polygon class="st1" points="281.517,0.017 302.984,0.017 292.25,16.527 "/>
<polygon class="st0" points="260.049,0.017 281.517,0.017 270.781,16.527 "/>
<polygon class="st0" points="302.356,0 323.823,0 313.088,16.511 "/>
<polygon class="st1" points="322.296,0 343.764,0 333.029,16.511 "/>
<polygon class="st2" points="342.747,0 364.215,0 352.339,16.511 "/>
<polygon class="st0" points="364.072,0 385.54,0 374.807,16.511 "/>
<polygon class="st0" points="425.933,0 447.4,0 436.666,16.511 "/>
<polygon class="st1" points="384.014,0 405.481,0 394.747,16.511 "/>
<polygon class="st2" points="404.465,0 425.933,0 415.198,16.511 "/>
<polygon class="st0" points="30.675,8.255 19.941,24.765 30.675,41.276 41.408,24.765 "/>
<polygon class="st1" points="30.675,14.351 23.904,24.766 30.675,35.181 37.445,24.766 "/>
<polygon class="st1" points="51.126,8.255 40.393,24.765 51.126,41.276 61.859,24.765 "/>
<polygon class="st2" points="51.126,14.351 44.356,24.766 51.126,35.181 57.897,24.766 "/>
<polygon class="st2" points="71.451,8.255 60.718,24.765 71.451,41.276 82.186,24.765 "/>
<polygon class="st0" points="71.451,14.351 64.681,24.766 71.451,35.181 78.223,24.766 "/>
<polygon class="st2" points="10.734,8.255 0,24.765 10.734,41.276 21.469,24.765 "/>
<polygon class="st0" points="10.734,14.351 3.963,24.766 10.734,35.181 17.506,24.766 "/>
<polygon class="st0" points="92.472,8.255 81.738,24.765 92.472,41.276 103.205,24.765 "/>
<polygon class="st1" points="92.472,14.351 85.701,24.766 92.472,35.181 99.242,24.766 "/>
<polygon class="st1" points="112.923,8.255 102.189,24.765 112.923,41.276 123.656,24.765 "/>
<polygon class="st2" points="112.923,14.351 106.152,24.766 112.923,35.181 119.693,24.766 "/>
<polygon class="st2" points="133.248,8.255 122.514,24.765 133.248,41.276 143.982,24.765 "/>
<polygon class="st0" points="133.248,14.351 126.477,24.766 133.248,35.181 140.02,24.766 "/>
<polygon class="st0" points="154.92,8.255 144.186,24.765 154.92,41.276 165.654,24.765 "/>
<polygon class="st1" points="154.92,14.351 148.148,24.766 154.92,35.181 161.691,24.766 "/>
<polygon class="st1" points="175.371,8.255 164.637,24.765 175.371,41.276 186.106,24.765 "/>
<polygon class="st2" points="175.371,14.351 168.6,24.766 175.371,35.181 182.143,24.766 "/>
<polygon class="st2" points="195.696,8.255 184.963,24.765 195.696,41.276 206.43,24.765 "/>
<polygon class="st0" points="195.696,14.351 188.926,24.766 195.696,35.181 202.467,24.766 "/>
<polygon class="st0" points="216.717,8.255 205.982,24.765 216.717,41.276 227.45,24.765 "/>
<polygon class="st1" points="216.717,14.351 209.945,24.766 216.717,35.181 223.487,24.766 "/>
<polygon class="st1" points="237.168,8.255 226.434,24.765 237.168,41.276 247.9,24.765 "/>
<polygon class="st2" points="237.168,14.351 230.397,24.766 237.168,35.181 243.939,24.766 "/>
<polygon class="st2" points="259.493,8.255 248.76,24.765 248.76,24.765 259.493,41.276 270.227,24.765 "/>
<polygon class="st0" points="259.493,14.351 252.723,24.766 259.493,35.181 266.264,24.766 "/>
<polygon class="st0" points="281.502,8.255 270.768,24.765 281.502,41.276 292.234,24.765 "/>
<polygon class="st1" points="281.502,14.351 274.731,24.766 281.502,35.181 288.273,24.766 "/>
<polygon class="st1" points="301.953,8.255 291.219,24.765 301.953,41.276 312.686,24.765 "/>
<polygon class="st2" points="301.953,14.351 295.182,24.766 301.953,35.181 308.725,24.766 "/>
<polygon class="st2" points="323.278,8.255 312.545,24.765 312.545,24.765 323.278,41.276 334.012,24.765 "/>
<polygon class="st0" points="323.278,14.351 316.508,24.766 323.278,35.181 330.049,24.766 "/>
<polygon class="st0" points="343.298,8.255 332.564,24.765 343.298,41.276 354.031,24.765 "/>
<polygon class="st1" points="343.298,14.351 336.527,24.766 343.298,35.181 350.068,24.766 "/>
<polygon class="st1" points="363.75,8.255 353.016,24.765 363.75,41.276 374.482,24.765 "/>
<polygon class="st2" points="363.75,14.351 356.979,24.766 363.75,35.181 370.522,24.766 "/>
<polygon class="st2" points="385.075,8.255 374.342,24.765 385.075,41.276 395.809,24.765 "/>
<polygon class="st0" points="385.075,14.351 378.304,24.766 385.075,35.181 391.846,24.766 "/>
<polygon class="st1" points="405.237,8.255 394.504,24.765 405.237,41.276 415.972,24.765 "/>
<polygon class="st2" points="405.237,14.351 398.466,24.766 405.237,35.181 412.008,24.766 "/>
<polygon class="st2" points="425.563,8.255 414.829,24.765 425.563,41.276 436.297,24.765 "/>
<polygon class="st0" points="425.563,14.351 418.791,24.766 425.563,35.181 432.333,24.766 "/>
<path class="st1" d="M23.904,41.276c0,2.189-1.774,3.963-3.963,3.963c-2.19,0-3.964-1.774-3.964-3.963
	c0-2.188,1.774-3.963,3.964-3.963C22.13,37.313,23.904,39.088,23.904,41.276"/>
<path class="st2" d="M45.371,41.276c0,2.189-1.773,3.963-3.963,3.963c-2.188,0-3.963-1.774-3.963-3.963
	c0-2.188,1.774-3.963,3.963-3.963C43.598,37.313,45.371,39.088,45.371,41.276"/>
<path class="st0" d="M65.536,41.276c0,2.189-1.774,3.963-3.963,3.963c-2.188,0-3.963-1.774-3.963-3.963
	c0-2.188,1.775-3.963,3.963-3.963C63.762,37.313,65.536,39.088,65.536,41.276"/>
<path class="st1" d="M85.273,41.276c0,2.189-1.774,3.963-3.963,3.963c-2.189,0-3.963-1.774-3.963-3.963
	c0-2.188,1.773-3.963,3.963-3.963C83.499,37.313,85.273,39.088,85.273,41.276"/>
<path class="st2" d="M106.74,41.276c0,2.189-1.773,3.963-3.963,3.963c-2.188,0-3.963-1.774-3.963-3.963
	c0-2.188,1.775-3.963,3.963-3.963C104.967,37.313,106.74,39.088,106.74,41.276"/>
<path class="st0" d="M126.904,41.276c0,2.189-1.773,3.963-3.963,3.963c-2.188,0-3.963-1.774-3.963-3.963
	c0-2.188,1.775-3.963,3.963-3.963C125.131,37.313,126.904,39.088,126.904,41.276"/>
<path class="st1" d="M148.158,41.276c0,2.189-1.773,3.963-3.963,3.963c-2.188,0-3.963-1.774-3.963-3.963
	c0-2.188,1.775-3.963,3.963-3.963C146.385,37.313,148.158,39.088,148.158,41.276"/>
<path class="st2" d="M169.627,41.276c0,2.189-1.774,3.963-3.963,3.963c-2.189,0-3.963-1.774-3.963-3.963
	c0-2.188,1.774-3.963,3.963-3.963C167.853,37.313,169.627,39.088,169.627,41.276"/>
<path class="st0" d="M189.791,41.276c0,2.189-1.773,3.963-3.963,3.963c-2.189,0-3.963-1.774-3.963-3.963
	c0-2.188,1.773-3.963,3.963-3.963C188.018,37.313,189.791,39.088,189.791,41.276"/>
<path class="st1" d="M209.527,41.276c0,2.189-1.773,3.963-3.963,3.963c-2.188,0-3.963-1.774-3.963-3.963
	c0-2.188,1.774-3.963,3.963-3.963C207.754,37.313,209.527,39.088,209.527,41.276"/>
<path class="st2" d="M230.995,41.276c0,2.189-1.773,3.963-3.962,3.963c-2.189,0-3.963-1.774-3.963-3.963
	c0-2.188,1.773-3.963,3.963-3.963C229.223,37.313,230.995,39.088,230.995,41.276"/>
<path class="st0" d="M251.16,41.276c0,2.189-1.773,3.963-3.963,3.963c-2.188,0-3.963-1.774-3.963-3.963
	c0-2.188,1.775-3.963,3.963-3.963C249.387,37.313,251.16,39.088,251.16,41.276"/>
<path class="st1" d="M273.774,41.276c0,2.189-1.774,3.963-3.963,3.963c-2.188,0-3.964-1.774-3.964-3.963
	c0-2.188,1.775-3.963,3.964-3.963C272,37.313,273.774,39.088,273.774,41.276"/>
<path class="st2" d="M295.242,41.276c0,2.189-1.773,3.963-3.963,3.963c-2.188,0-3.963-1.774-3.963-3.963
	c0-2.188,1.775-3.963,3.963-3.963C293.469,37.313,295.242,39.088,295.242,41.276"/>
<path class="st0" d="M315.406,41.276c0,2.189-1.773,3.963-3.963,3.963c-2.188,0-3.963-1.774-3.963-3.963
	c0-2.188,1.775-3.963,3.963-3.963C313.633,37.313,315.406,39.088,315.406,41.276"/>
<path class="st1" d="M335.144,41.276c0,2.189-1.774,3.963-3.963,3.963c-2.189,0-3.963-1.774-3.963-3.963
	c0-2.188,1.774-3.963,3.963-3.963C333.369,37.313,335.144,39.088,335.144,41.276"/>
<path class="st2" d="M356.611,41.276c0,2.189-1.773,3.963-3.963,3.963c-2.188,0-3.963-1.774-3.963-3.963
	c0-2.188,1.775-3.963,3.963-3.963C354.838,37.313,356.611,39.088,356.611,41.276"/>
<path class="st0" d="M378.775,41.276c0,2.189-1.773,3.963-3.963,3.963c-2.188,0-3.963-1.774-3.963-3.963
	c0-2.188,1.775-3.963,3.963-3.963C377.002,37.313,378.775,39.088,378.775,41.276"/>
<path class="st1" d="M398.997,41.276c0,2.189-1.775,3.963-3.963,3.963c-2.189,0-3.963-1.774-3.963-3.963
	c0-2.188,1.774-3.963,3.963-3.963C397.223,37.313,398.997,39.088,398.997,41.276"/>
<path class="st2" d="M420.465,41.276c0,2.189-1.774,3.963-3.963,3.963c-2.188,0-3.963-1.774-3.963-3.963
	c0-2.188,1.774-3.963,3.963-3.963C418.69,37.313,420.465,39.088,420.465,41.276"/>
<path class="st0" d="M440.63,41.276c0,2.189-1.774,3.963-3.964,3.963c-2.189,0-3.963-1.774-3.963-3.963
	c0-2.188,1.774-3.963,3.963-3.963C438.856,37.313,440.63,39.088,440.63,41.276"/>
</svg>
