<?xml version="1.0" encoding="utf-8"?>
<!-- Generator: Adobe Illustrator 19.0.0, SVG Export Plug-In . SVG Version: 6.00 Build 0)  -->
<svg version="1.1" baseProfile="basic" id="Capa_1" xmlns="http://www.w3.org/2000/svg" xmlns:xlink="http://www.w3.org/1999/xlink"
	 x="0px" y="0px" viewBox="0 0 678.083 401.912" xml:space="preserve">
<style type="text/css">
	.st0{fill:#767676;}
	.st1{fill:#FFFFFF;}
	.st2{fill:#A1A0A0;}
	.st3{fill:#CFCECE;}
</style>
<g>
	
		<rect id="XMLID_22_" x="376.178" y="49.625" transform="matrix(0.9275 0.3739 -0.3739 0.9275 107.7678 -172.3548)" class="st0" width="244" height="284.001"/>
	<path id="XMLID_23_" class="st1" d="M564.056,382.603L318.272,283.53L432.3,0.646l245.783,99.075L564.056,382.603z
		 M345.601,271.903l206.828,83.372l98.326-243.928L443.927,27.975L345.601,271.903z"/>
</g>
<g>
	
		<rect id="XMLID_18_" x="193.158" y="28.623" transform="matrix(0.9887 -0.1498 0.1498 0.9887 -21.9986 49.1231)" class="st2" width="244" height="284.001"/>
	<path id="XMLID_19_" class="st1" d="M206.992,341.247L161.314,39.686L423.324,0l45.679,301.561L206.992,341.247z M185.222,57.304
		l39.388,260.035l220.485-33.396L405.707,23.908L185.222,57.304z"/>
</g>
<g>
	
		<rect id="XMLID_14_" x="64.146" y="64.627" transform="matrix(0.8977 -0.4407 0.4407 0.8977 -72.009 103.1811)" class="st3" width="244" height="284"/>
	<path id="XMLID_15_" class="st1" d="M134.413,401.912L0,128.127L237.879,11.343l134.413,273.784L134.413,401.912z M28.105,137.723
		l115.904,236.083l200.177-98.275L228.283,39.448L28.105,137.723z"/>
</g>
</svg>
